<svg xmlns="http://www.w3.org/2000/svg" width="524.299" height="503.632" viewBox="0 0 524.299 503.632">
  <g id="Group_38" data-name="Group 38" transform="translate(-9184 -10404)">
    <path id="Path_142" data-name="Path 142" d="M485.862,412.44c-3.117,60.78-51.815,115.859-111.51,127.706s-125.028-19.665-154.115-73.123c-3.21-5.9-6.069-12.087-8.927-18.274-7.379-15.973-14.756-31.94-28.17-42.927-15.315-12.545-35.013-15.9-54.908-19.289-12.634-2.152-25.348-4.318-37.071-8.858-28.26-10.947-50.2-36.88-56.319-66.562-9.912-48.1,21.485-97.21,63.354-122.878s92.179-32.818,140.981-38.327c18.668-2.107,33.832-16.175,44.663-31.526,4.193-5.942,7.965-12.188,11.735-18.427,5.968-9.879,11.928-19.745,19.539-28.385,32.227-36.583,92.24-42.757,133.288-16.451s60.7,80.4,49.779,127.913c-1.88,8.184-4.549,16.153-7.217,24.122v0c-2.555,7.629-5.11,15.258-6.974,23.077-3.983,16.712-4.743,34.008-5.2,51.182-.541,20.477-.668,41.007,1.25,61.4.667,7.095,1.581,14.18,2.5,21.264C484.614,380.179,486.691,396.269,485.862,412.44Z" transform="translate(9157.731 10365)" fill="#64fcd9"/>
    <path id="Path_143" data-name="Path 143" d="M245.529,144.38c22.32-11.1,40.085-30.388,51.273-52.667,1.467-2.921,2.856-6.025,2.805-9.293s-1.954-6.73-5.115-7.56c-4.531-1.19-8.427,3.155-11.253,6.891-19.409,25.667-47.659,45.817-79.537,50.211-12.243,1.688-24.673,1.054-37.016.417l-19.279-1c-15.527-.8-31.27-1.587-46.469,1.69s-30.05,11.156-38.4,24.273c-2.657,4.175-4.647,9.095-3.912,13.989.753,5.015,4.318,9.271,8.612,11.97s9.283,4.048,14.227,5.177a37.869,37.869,0,0,0,11.021,1.3c6.056-.426,11.551-3.437,16.9-6.368l1.067-.583a179.626,179.626,0,0,1,29.129-12.991c14.729-4.906,30.216-7.307,45.665-9.7C206.061,156.911,226.8,153.7,245.529,144.38Z" transform="translate(9151.31 10356.012)" fill="#64fcd9"/>
    <path id="Path_144" data-name="Path 144" d="M145.319,551.627h.013c.909.036,1.819.073,2.725.12a113.189,113.189,0,0,1,41.568,10.3c4.969,2.3,10,5.182,12.793,9.893a86.093,86.093,0,0,0,12.32,16.108A18.671,18.671,0,0,0,221,592.738c2.446.963,5.467.874,7.451-.849,2.411-2.094,2.567-5.813,1.824-8.918-1.218-5.09-4.254-9.525-7.259-13.809-9.861-14.058-20.243-28.114-33.967-38.437s-31.435-16.573-48.232-13.006c-5.8,1.231-11.549,3.74-15.394,8.254s-5.366,11.306-2.6,16.548c2.2,4.159,6.651,6.719,11.212,7.872a54.815,54.815,0,0,0,11.28,1.234Z" transform="translate(9135.445 10244.583)" fill="#64fcd9"/>
    <path id="Path_145" data-name="Path 145" d="M663.7,280.509c-3.835-1.446-8.177.3-11.422,2.8-6.41,4.942-10.2,12.671-11.927,20.579s-1.586,16.086-1.438,24.179l1.267,69.528c.093,5.079.319,10.554,3.442,14.561a5.993,5.993,0,0,0,3.9,2.516c1.917.2,3.69-1.015,5.075-2.355,7.57-7.33,8.565-18.877,9.471-29.4l.033-.382a369.4,369.4,0,0,1,6.9-45.973,53.757,53.757,0,0,1,3.844-12.469,38.267,38.267,0,0,0-3.584-38.826A13.1,13.1,0,0,0,663.7,280.509Z" transform="translate(9005.019 10304.255)" fill="#64fcd9"/>
    <path id="Path_146" data-name="Path 146" d="M462.818,406.336c4.046,1.114,7.67,4.483,8.067,8.66a5.394,5.394,0,0,1,4.274-3.045l-2.644,2.809,3.346.067-4.6,2.571c2.854,5.278,2.392,11.788.562,17.5-1.12,3.5-2.739,7-2.423,10.66.311,3.6,3.507,7.276,7,6.539l.175-.04a17.279,17.279,0,0,1,12.57,1.679c5.422,3.054,8.71,8.725,12.437,13.709,3.289,4.4,7.182,8.49,12.048,11.039s10.833,3.39,15.9,1.274c2.515-1.05,4.767-2.788,7.436-3.341a5.659,5.659,0,0,1,6.384,3.46c.433,1.119-.5,5.265-2.874,10.106a5.711,5.711,0,0,1,1.214-.209c12.484-.811,25.083-3.525,35.827-9.935a106.438,106.438,0,0,0,9.772-6.832l1.846-1.406,1.117-.861c6.951-5.384,13.811-11.385,16.668-19.574l.15-.441.316-.968c.611-1.832,1.386-3.726,3.155-4.3,2.449-.788,4.678,1.583,6.166,3.68l10.723,15.118a3.632,3.632,0,0,1,.662,1.254c.465,2.055-2.6,3.092-4.577,2.363-3.594-1.327-6.478-5.279-10.248-4.6-2.65.476-4.233,3.043-5.543,5.46l-.331.616a72.3,72.3,0,0,1-36.964,32.9c-4.041,1.588-8.216,2.8-12.385,4.019l-8.421,2.453,1.484.265c12.565,2.2,25.971,3.548,37.383-2.02,7.6-3.707,13.449-10.09,18.97-16.54l2-2.354.826-.983c3.388-4.065,6.608-8.416,7.6-13.568.379-1.978,2.876-2.921,4.818-2.386s3.42,2.072,4.8,3.544l10.424,11.157a5.61,5.61,0,0,1,1.806,3.046c.12,1.2-.953,2.551-2.108,2.216l-11.3-3.283a4.636,4.636,0,0,0-3.233-.137,4.327,4.327,0,0,0-1.7,1.834l-12.152,20.522c-3.422,5.779-9.764,9.129-16,11.635a115.481,115.481,0,0,1-47.253,8.227,44.093,44.093,0,0,1-5.226-.444c-6.492-1.023-12.356-4.324-18.033-7.663,1,3.64.108,6.711-5.8,6.945-5.236.207-18.063-21.354-22.053-22.473-21.773-6.105-25.348-18.157-32.343-26.39,0,0-14.136,1.826-23.469-.119-21.877-4.561-36.579-18.591-41.88-19.485s-8.8,2.5-10.432.443v-1.493c.254-.411,2.786-2.777,10.012-1.24,10.089,2.147,26.217,10.25,38.535,11.763,12.929,1.589,23.882-.515,23.822-.867-.123-.72,3.127-3.78.53-5.325s-40.295-16.675-48.488-29.284l-.1-.158c-1.408-2.338-2.479-8.149.356-5.489l.794-1.407c3.053,2.878,13.075,9.458,23.485,15.944,11.007,6.858,26.549,11.25,26.833,11.057,6.334-4.284.717-7.386-.332-8.3-2.454-2.131-5.712-3.293-7.826-5.761-5.072-5.922-1.449-16.514-7.247-21.727a13.192,13.192,0,0,1-2.577-2.4,4.877,4.877,0,0,1,.765-5.6,11.639,11.639,0,0,1,5.156-3.053C454.429,405.994,458.773,405.222,462.818,406.336Z" transform="translate(9068.562 10272.54)" fill="#fff"/>
    <circle id="Ellipse_14" data-name="Ellipse 14" cx="1.496" cy="1.496" r="1.496" transform="translate(9533.283 10707.659)" fill="#ffb61d"/>
    <ellipse id="Ellipse_15" data-name="Ellipse 15" cx="1.109" cy="1.496" rx="1.109" ry="1.496" transform="translate(9524.55 10707.659)" fill="#ffb61d"/>
    <path id="Path_147" data-name="Path 147" d="M391.977,437.859a110.1,110.1,0,0,0-42.75-2.427,159.665,159.665,0,0,1,4.035-15.757c-4.628,1.494-10.093-2.749-9.793-7.6s6.244-8.393,10.654-6.342a15,15,0,0,0,.262-11.145c-.647-1.709,1.933-2.7,3.761-2.7l10.1,0c1.411,0,3.38-.656,3.029-2.023a6.333,6.333,0,1,1,12.271-3.141l.043.177c.767,3.406,5.08,4.487,8.571,4.42l1.737-.042c3.019-.064,6.164.034,8.185,2.146,2.417,2.525,1.877,6.547,1.08,9.975l-.053.227q-1.693,7.137-3.609,14.22C401.975,437.809,395.832,438.856,391.977,437.859Z" transform="translate(9079.475 10278.546)" fill="#fff"/>
    <path id="Path_148" data-name="Path 148" d="M252.864,422.234a95.59,95.59,0,0,1,.006-29.011l.075-.464c.367-2.177,1.011-4.476,2.831-5.675a8.458,8.458,0,0,1,4.723-.966l12.561.034a2.426,2.426,0,0,1,1.628.4c.429.377.418,1.242-.133,1.395a2.989,2.989,0,0,0-1.912,3.238,5.577,5.577,0,0,0,2.077,3.42c2.469,2.123,6.307,2.877,9.04,1.107s3.375-6.329.786-8.3q8.8-.179,17.6.055l2.2.065a2.832,2.832,0,0,1,1.994.589,2.626,2.626,0,0,1,.58,1.465,19.224,19.224,0,0,1-1.991,11.96c-.307.579-1.019,1.216-1.5.776-2.061-1.871-5.528-1.616-7.637.2a8.559,8.559,0,0,0-2.552,7.594c.358,2.655,2.294,5.491,4.971,5.357,2.108-.105,4.452-1.949,6.044-.564L301.571,426.9c-.476,2.13-1.332,4.657-3.467,5.114a83.925,83.925,0,0,1-37.475-.578l-.594-.15a10.137,10.137,0,0,1-4.122-1.883C253.9,427.673,253.267,424.857,252.864,422.234Z" transform="translate(9102.589 10277.502)" fill="#fff"/>
    <path id="Path_149" data-name="Path 149" d="M376.881,308.6l29.776.6.487.011a6.594,6.594,0,0,1,2.6.482c1.82.85,2.654,2.944,3.208,4.875a52.016,52.016,0,0,1-1.027,31.631l-.153.413a6.106,6.106,0,0,1-2.2,3.179,6.41,6.41,0,0,1-3.116.753l-.232.012a91.248,91.248,0,0,1-13.282-.339,5.293,5.293,0,0,0,1.419-7.126,6.525,6.525,0,0,0-7.136-2.48,5.347,5.347,0,0,0-3.627,3.072,3.52,3.52,0,0,0,1.443,4.274c1.011.521.837,2.16-.049,2.874a5.207,5.207,0,0,1-3.253.783l-14.939.242a6.578,6.578,0,0,1-3.289-.515c-1.4-.763-2.041-2.406-2.435-3.949a26.63,26.63,0,0,1-.374-11.431,5.568,5.568,0,1,0,2.311-6.187l-.108-.963A33.564,33.564,0,0,1,362.9,318.7c.709-3.639,2.734-7.214,6.052-8.867C371.368,308.627,374.163,308.561,376.881,308.6Z" transform="translate(9075.239 10297.043)" fill="#fff"/>
    <path id="Path_150" data-name="Path 150" d="M255.687,337.85q-6.289.025-12.564-.517l-.405-.037a5.977,5.977,0,0,1-4.045-1.561c-1.323-1.5-1-3.765-.6-5.746l.04-.2a108.021,108.021,0,0,0,2.072-26.463l-.074-1.527c-.111-2.748.064-5.863,2.346-7.276a6.887,6.887,0,0,1,2.3-.791l.268-.053a106.04,106.04,0,0,1,44.319.841c1.908.447,2.439,3.033,1.806,4.888s-1.992,3.414-2.5,5.308.423,4.455,2.383,4.517a7.623,7.623,0,0,1,6.986,8.313,7.8,7.8,0,0,1-8.918,6.305c-.939-.188-1.271,1.2-1.168,2.151l1.141,10.553c.186,1.722-2.258,2.266-3.985,2.132l-10.077-.785c-1.583-.123-3.706.15-3.95,1.719a7.745,7.745,0,0,1-15.377-1.773Z" transform="translate(9106.127 10301.291)" fill="#fff"/>
    <path id="Path_151" data-name="Path 151" d="M192.422,439.878c1.118.271,2.719.755,2.63,1.811-1.79,21.309-9.492,17.388-16.359,23.5-1.815,1.615-2.9,5.433-3.679,5.52,2.89,1.335,7.085,6.69,14.3,6.936,20.113.682,27.434-13.995,27.434-13.995.473-4.706-1.913-13.181,1.066-10.808,2.056,1.638,1.649-6.342,4.458-5.548.844.239-.63,5.545,0,5.862.349.176.863-1.271,1.761-2.422.749-.96,1.9-1.67,2.144-1.461a4.139,4.139,0,0,1-.668,2.674c-.948,1.631-2.534,3.2-2.312,3.462.244.288,4.425-3.6,4.68-3.262,1.692,2.256-9.024,28.231-27.1,33.135l-1.432.384c-10.541,2.8-14.967,3.182-24.733-.384-4.63-1.692-7.511,14.106-10.084,19.364-1.625,3.32-9.519,11.457-13.124,9-4.755-3.247-8.633-9.289-12.68-12.345l-.26-.191q-4.136-2.966-18.714-9l.438-.2c2.028-.921,7.25-3.176,11.26-6.618,5.7-4.892,8.784-15.4,12.756-21.068,3.922-5.6,9.185-4.771,6.009-5.761,0,0-8.048-4.264-11.748-4.654-12.356-1.3-28.464,4.535-33.617,8.3-7.07,5.164-.046,12.763-9.815,9.038-3.256-1.241,5.471-17.322,17.509-23.842,16.732-9.063,32.553-11.555,48.415,2.871,6.455,5.871,7.094,11.1,8.826,15.083l-.355-.977c19.135-1.262-9.535-20.418,14.4-25.213a18.427,18.427,0,0,1,7.672.6Z" transform="translate(9142.269 10264.208)" fill="#fff" fill-rule="evenodd"/>
    <circle id="Ellipse_16" data-name="Ellipse 16" cx="1.496" cy="1.496" r="1.496" transform="translate(9320.871 10715.887)" fill="#ffb61d"/>
    <circle id="Ellipse_17" data-name="Ellipse 17" cx="1.496" cy="1.496" r="1.496" transform="translate(9329.099 10718.878)" fill="#ffb61d"/>
    <path id="Path_152" data-name="Path 152" d="M103.894,530.552c16.214,11.227-4.532-4.281,13.184,14.2,3.578,3.732,21.691-17.582,23.56-4.951.681,4.607-.8,9.4.1,13.972.845,4.263,19.387,1.7,20.819-.161,5.192-6.759-10.965-24.121-14.353-26.9-18.905-15.487-25.144-14.413-42.808,1.61Z" transform="translate(9139.861 10244.842)" fill="#fff" fill-rule="evenodd"/>
    <path id="Path_153" data-name="Path 153" d="M608.8,157.221c3.18.38,6.138.733,6.138-2.973,0-.883-10.7-8.63-13.875-5.646a89.126,89.126,0,0,0-10.455,12.5c-6.587,8.946-12.725,17.284-25.241,18.526l-.151.016c-4.851.586,4.188,4.892,14.339-.016,6.979-3.375,16.264-14.052,20.675-19.124,1.155-1.327,1.974-2.271,2.333-2.6l.092-.079C604.155,156.666,606.532,156.95,608.8,157.221Zm15.1,10.031,10.59,8.406c2.064,1.638-.353,5.167-2.981,5.336a12.158,12.158,0,0,1-4.458-.843,17.287,17.287,0,0,0-3.23-.814c-6.219-.735-10.96,5.122-14.819,10.054a115.776,115.776,0,0,1-11.538,12.692l-.562.528-.586.538c-3.34,3.037-7.087,5.788-11.494,6.58-6.489,1.168-12.935-2.156-18.235-6.076-1.294-.957-2.564-1.961-3.835-2.966-3.936-3.111-7.879-6.227-12.547-7.974a62.179,62.179,0,0,0-11.29,7.918l.154-.122a42.754,42.754,0,0,1,11.526,21.406l-1.111-.2-.733-.125c-6.859-1.15-14.2-1.831-20,1.84a35.265,35.265,0,0,0-5.666,4.886,50.156,50.156,0,0,1-3.8,3.521q.5.294,1.016.613a71.328,71.328,0,0,0,20.111,4.971c1.055.1,2.12.183,3.189.264,4.948.375,9.959.756,14.188,3.24l1.483.887c2.38,1.408,5.029,2.749,7.023,1.118a6.163,6.163,0,0,0,1.325-1.758h0a10.388,10.388,0,0,1,.734-1.144c.729-.943,2.174-1.607,3.079-.832l.367,2.883a3.86,3.86,0,0,1,7.666.213c.3,3.387-3.544,5.414-6.8,6.493l-16.9,5.445c-6.037,1.945-12.729.937-18.549-1.585-5.418-2.348-10.2-5.921-14.766-9.677l-1.012-.838c-3.45-2.871-8.113-5.989-12.027-3.794,6.8.414,11.761,6.274,15.817,11.817l.39.536a7,7,0,0,1,1.5,2.965c.454,3.1-3.064,5.153-6.037,6.138,2.5,1.341,1.263,5.236-.677,7.311a22.452,22.452,0,0,1-10.508,6.267l-.364,1.26a.872.872,0,0,0-.031.13c1.881-.131,3.041,2.4,2.274,4.119s-2.657,2.64-4.472,3.153a20.143,20.143,0,0,1-17.62-3.479l-.95.5c-4.129,2.137-8.4,4.124-12.99,4.8-4.942.725-10.383-.293-13.956-3.784l.236.514a8.942,8.942,0,0,1,.975,3.5,3.457,3.457,0,0,1-2.044,3.381c-2.2.746-4.126-1.607-5.269-3.632-.626,1.559.019,3.313.647,5.019.716,1.945,1.409,3.828.164,5.285-1.3,1.517-3.755,1.129-5.539.233-6.682-3.351-9.822-11.788-8.374-19.122s6.721-13.477,13-17.533a23.021,23.021,0,0,1-8.653-12.908c.338.437,1.85-.969,4-2.964h0c3.928-3.651,9.983-9.279,14.876-9.226a12.342,12.342,0,0,1,3.933,1.445h0a20.221,20.221,0,0,0,2.941,1.243,1.184,1.184,0,0,1,.243-.233l-.926-.665a18.228,18.228,0,0,0-6.011-3.115c-2.572-.639-5.618-.113-7.256,1.97a47.037,47.037,0,0,1-14.8,12.388l3.391,6.261a4.652,4.652,0,0,1-4.449-.3l-.16-.108.1.125c1.954,2.547.237,6.989-2.96,7.493-3.245,1.362-6.517-2.705-6.2-6.209.224-2.456,1.44-4.633,2.66-6.813.52-.931,1.041-1.862,1.485-2.817a42.754,42.754,0,0,0,2.816-10.363c.9-4.877,1.788-9.711,4.825-13.523a23.6,23.6,0,0,1,8.161-6.049,56.708,56.708,0,0,1,39.557-3.984,46.607,46.607,0,0,1,12.645-21.07l.357-.336c2.295-2.114,5.15-4,8.193-3.656l.241.032c3.022.461,5.649-1.871,7.846-4.03l.678-.665.53-.512c4.36-4.163,9.42-8.006,15.376-8.42,5.3-.369,10.37,2.064,14.943,4.764a109.553,109.553,0,0,1,14.7,10.4l.809.686.237.2.263.227.151.129c4.341,3.728,9.09,7.808,14.741,7.47,5.793-.347,10.025-5.155,13.925-9.587h0q.471-.536.938-1.063a150.483,150.483,0,0,1,15.833-14.852l2.378-2a5,5,0,0,1,2.426-1.353C621.667,165.562,622.861,166.431,623.9,167.252ZM519.191,259.047a12.45,12.45,0,0,0-4.819.307q2.01.008,3.384-.072c.444-.055.885-.123,1.319-.211Zm-43.607-25.929a14.743,14.743,0,0,1,1.385-1.3,5.45,5.45,0,0,1,3.049-.642c3.587.341,6.3,4.157,5.835,7.73-1.894,4.693-6.58,7.371-11.216,10.019h0a39.477,39.477,0,0,0-7.843,5.325,7.029,7.029,0,0,1,1.73-2.037c1.871-1.362,3.827-2.542,5.671-3.654h0c1.55-.935,3.02-1.822,4.293-2.728a32.007,32.007,0,0,0,4.392-3.833h0a10.872,10.872,0,0,1,2.019-1.77c.049-.028,2.31-4.611-3.156-7.606-4.127-2.262-5.965.6-6.953,2.137-.321.5-.552.859-.742.859a1.206,1.206,0,0,1-.2-.023,5.676,5.676,0,0,1,.61-1.4A12.475,12.475,0,0,0,475.583,233.118Zm1.167-1.182a6.506,6.506,0,0,0-2.3,2.254l-.136.1a2.345,2.345,0,0,1-.826.41c-.568.134-1.921-.9-3.067-1.782A10.132,10.132,0,0,0,468.8,231.8a8.788,8.788,0,0,0-3.879-.923c-.251-.012-.537-.025-.874-.045l-.616-.038c-.135-.008-.283-.014-.442-.021h0c-1.232-.052-3-.126-2.65-1.084,6.329-17.129,33.37-20.857,28.9-1.494a13.3,13.3,0,0,1-2.311,4.4c-.485.7-.97,1.4-1.381,2.127q-2.621-3.725-5.712-3.927a4.088,4.088,0,0,0-2.869,1.017ZM525.8,216.568l.005-.01q-2.233,4.243-4.794,10.215A62.839,62.839,0,0,1,525.8,216.568Zm12.057,2.609-.208.008a16.639,16.639,0,0,0-4.44.74,18.866,18.866,0,0,0-4.64,2.363A27.051,27.051,0,0,1,537.857,219.177Z" transform="translate(9056.747 10337.544)" fill="#fff" fill-rule="evenodd"/>
    <path id="Path_154" data-name="Path 154" d="M457.124,322.815c-1.3,1.518-3.175,1.028-4.9-.65-3.6-3.512-5.05-10.289-3.6-17.623s7.09-10.356,13.369-14.412c-2.817-1.161-7.923-8.52-8.435-15.671,1.737,2.241,1.829,6.263,3.565,8.5,1.648,2.127,4.942,4.716,6.59,6.843.211.272.392.728.093.9-6.02,3.42-9.921,4.551-13.472,13.837s3.658,17.876,4.616,17.623c1.179-.312.761-1.877.084-2.892-1.912-2.864-.094-6.681,1.465-9.751.833.934-1.17,3.614-.748,6.4C456.166,318.641,458.279,321.464,457.124,322.815Z" transform="translate(9053.104 10305.647)" fill="#e7eaee" fill-rule="evenodd"/>
    <circle id="Ellipse_18" data-name="Ellipse 18" cx="1.496" cy="1.496" r="1.496" transform="translate(9533.283 10596.218)" fill="#ffb61d"/>
    <circle id="Ellipse_19" data-name="Ellipse 19" cx="1.496" cy="1.496" r="1.496" transform="translate(9528.048 10590.234)" fill="#ffb61d"/>
    <path id="Path_155" data-name="Path 155" d="M145.845,267.132a2.823,2.823,0,0,1-2.325,3.948c-1.568-8.814-3.259-17.935-8.361-25.292-9.77-14.086-29.9-18.713-38.267-33.676A14.743,14.743,0,0,1,77.9,209.858c-2.854-3.28-7.828-3.683-12.113-2.951s-8.472,2.35-12.818,2.212c-1.886-.06-3.94-.567-5.037-2.1s-.463-4.235,1.4-4.5l24.407-3.494a2.536,2.536,0,0,0,2.665-2.594c1.178-5.928,2.026-12.994-2.338-17.174-3.617-3.464-9.327-3.345-14.241-2.378s-9.979,2.556-14.823,1.28-8.894-7.029-6.283-11.3c1.749-2.863-.223-6.681-2.921-8.675s-6.054-2.977-8.669-5.078-4.274-6.157-2.191-8.787A7.5,7.5,0,0,1,28.7,142.1a20.837,20.837,0,0,1,14.338.341,14.7,14.7,0,0,1,8.864,10.87c.6,3.933-.536,8.509,2.065,11.52,3.4,3.936,9.683,1.728,14.883,1.681A15.918,15.918,0,0,1,83.494,189c6.178-6.286,14.5-11.109,23.308-10.781,8.136.3,15.611,4.983,21.053,11.039s9.153,13.432,12.793,20.715a6.469,6.469,0,0,0,12.2-3.764c2.526.55,2.789,3.965,2.867,6.549a25.562,25.562,0,0,0,5.515,15.036,27.93,27.93,0,0,0,2.565-6.632,11.4,11.4,0,0,1-5.175,18.36c-1.911.6-4.247.892-5.2,2.657a136.037,136.037,0,0,1,9.208,19.6c1.363,3.627,2.347,8.3-.522,10.9-3.318-2.449-5.2-6.333-6.962-10.063q-4.118-8.725-8.236-17.45" transform="translate(9160 10339.289)" fill="#fff"/>
    <path id="Path_156" data-name="Path 156" d="M155.166,208.34a24.071,24.071,0,0,0,6.965,19.321,6.149,6.149,0,0,0,2.912-5.274c1.892,3.111.832,7.33-1.521,10.109s-5.728,4.445-9,6.035a14.9,14.9,0,0,1-5.911,1.9c-3.182.095-6.032-1.818-8.633-3.653L132.34,231.4a20.326,20.326,0,0,0,21.12,10.083,55.09,55.09,0,0,1,9.992,27.354L161.92,266a.585.585,0,0,0-.056-.1l.056.1c.22.543-.642,1.144-1.221.863a2.464,2.464,0,0,1-1.032-1.7,59.053,59.053,0,0,0-11.709-22.249l8.236,17.451c1.76,3.728,3.645,7.614,6.962,10.063,2.869-2.6,1.886-7.272.523-10.9a136.039,136.039,0,0,0-9.208-19.6c.77-1.433,2.456-1.894,4.086-2.339h0c.377-.1.751-.2,1.11-.318a11.4,11.4,0,0,0,5.175-18.36,27.977,27.977,0,0,1-2.565,6.631,25.548,25.548,0,0,1-5.515-15.036c-.079-2.584-.341-6-2.867-6.55a6.469,6.469,0,0,1-12.2,3.764c-3.64-7.283-7.352-14.659-12.793-20.715s-12.917-10.736-21.053-11.039c-8.808-.328-17.13,4.494-23.308,10.781A15.918,15.918,0,0,0,69.9,164.264c-1.349.013-2.771.171-4.2.328-4.07.451-8.169.906-10.686-2.009-1.778-2.059-1.811-4.85-1.845-7.666a28.291,28.291,0,0,0-.219-3.853,14.7,14.7,0,0,0-8.864-10.87,20.837,20.837,0,0,0-14.338-.341,7.491,7.491,0,0,0-3.757,2.21c-2.083,2.63-.423,6.685,2.191,8.787a25.126,25.126,0,0,0,4.541,2.7,27.972,27.972,0,0,1,4.128,2.379c2.7,1.994,4.669,5.812,2.921,8.675-2.611,4.274,1.439,10.027,6.283,11.3,4,1.055,8.159.151,12.255-.74.859-.187,1.716-.373,2.567-.541,4.914-.966,10.624-1.086,14.241,2.378,4.365,4.179,3.516,11.246,2.338,17.173a2.536,2.536,0,0,1-2.665,2.595l-24.407,3.494c-1.867.267-2.5,2.968-1.4,4.5s3.152,2.042,5.037,2.1a32.02,32.02,0,0,0,8.515-1.273c1.43-.346,2.861-.693,4.3-.939,4.285-.731,9.26-.329,12.113,2.951a14.742,14.742,0,0,0,18.992,2.254c4.4,7.873,12.062,12.885,19.756,17.919,6.927,4.533,13.882,9.084,18.511,15.757,5.1,7.357,6.793,16.478,8.361,25.292a2.823,2.823,0,0,0,2.325-3.948l-1.72,2.268a48.188,48.188,0,0,0-18.831-35.733,101.678,101.678,0,0,0-8.772-5.708c-6.61-3.987-13.189-7.956-16.849-14.579a4.825,4.825,0,0,1-.69-1.908,5.532,5.532,0,0,1,.606-2.488l.047-.114c1.319-3.2,2.241-6.713,1.593-10.113s-3.209-6.617-6.632-7.129c5.795,3.707,6.983,12.907,2.319,17.965s-13.929,4.618-18.093-.859c-3.337-4.389-10.01-3.852-15.381-2.607s-11.7,2.547-15.845-1.084a131.325,131.325,0,0,1,27.2-4.475c2.189-.127,3.048-2.859,3.343-5.031a35.857,35.857,0,0,0,.41-10.07c-.5-3.335-2.082-6.662-4.911-8.494-3.4-2.2-7.785-1.86-11.811-1.439l-10.7,1.12a18.747,18.747,0,0,1-6.911-.136c-2.235-.613-4.339-2.28-4.768-4.559a9.257,9.257,0,0,1,.557-4.285,13.564,13.564,0,0,0,.649-3.115c.14-3-1.8-5.746-4.151-7.608a34.473,34.473,0,0,0-4.657-2.939c-1.017-.568-2.034-1.136-3.01-1.767-1.838-1.186-3.724-3.1-3.213-5.232a5.018,5.018,0,0,1,2.8-2.956,15.2,15.2,0,0,1,22.014,10.558,33.514,33.514,0,0,1,.423,3.532c.232,2.759.464,5.5,2.187,7.578,2.059,2.476,5.618,3.1,8.834,2.946,1.1-.052,2.206-.177,3.307-.3a26.765,26.765,0,0,1,6.32-.208c7.06.889,12.623,8.235,11.564,15.271-.059.389-.134.782-.209,1.176a7.774,7.774,0,0,0-.062,4.139c.614,1.688,3.3,2.587,4.15,1.005,3.812-7.09,12.556-10.661,20.551-9.725s15.149,5.75,20.4,11.852,8.82,13.447,12.076,20.808c1.147,2.593,4.562,3.532,7.29,2.761S153.208,210.391,155.166,208.34ZM140.839,220.7c.077-.011.257.341.528.872.668,1.306,1.888,3.695,3.5,4.422-.072.677-1.136.314-1.579-.2C142.028,224.316,140.693,222.625,140.839,220.7Zm3.8,11.6c.83,1.218-4.144,1.823-5.8.761a4.553,4.553,0,0,1,1.1.007,6.656,6.656,0,0,0,1.6-.007,15.507,15.507,0,0,0,2.107-.553C144.2,232.332,144.577,232.211,144.637,232.3Zm-1.194-4.523c-1.981.34-4.413-2.3-4.413-4.778.571,1.833,2.6,3.288,3.719,4.092C143.319,227.5,143.654,227.74,143.443,227.776Zm7.093,10.372c-2.637,0-3.832-4.447-2.637-4.733.286-.129.3.269.32.857a4.669,4.669,0,0,0,.408,2.091,4.446,4.446,0,0,0,1.738,1.476C150.739,238.05,150.912,238.148,150.537,238.148Zm2.938-6.055a2.394,2.394,0,0,1,1.257,1.457,1.294,1.294,0,0,1-.857,1.559.547.547,0,0,1,.023-.687c.17-.293.353-.609-.423-1.324a2.615,2.615,0,0,0-.974-.524c-.206-.07-.343-.118-.338-.2C152.2,231.835,153.006,231.834,153.475,232.093Zm-4.936-5.795c-.131.091-.221.153-.144.225a.651.651,0,0,0,.8.166.888.888,0,0,0,.372-.613,2.167,2.167,0,0,0-2.482-2.428.953.953,0,0,0,.623.536,2.091,2.091,0,0,1,1.059.868C149.248,225.8,148.808,226.111,148.539,226.3Zm-.451,12.7c-1.553-.452-3.088-4.12-2.262-4.4.515-.174.513-.146.482.144a2.878,2.878,0,0,0,.227,1.5,10.921,10.921,0,0,0,1.242,2.176C148.008,238.757,148.149,238.958,148.088,239Zm355.657-83.257c-3.334.409-5.961,3.1-7.618,6.02a43.985,43.985,0,0,0-2.083,4.4h0a41.126,41.126,0,0,1-2.249,4.688c-4.194,7.134-12.164,11.033-19.8,14.22-1.317.55-3.624.291-3.213-1.076a35.112,35.112,0,0,0,26.679-24.537c.4-1.445-1.478-2.664-2.927-2.282a6.26,6.26,0,0,0-3.089,2.526l-.263.341c-6.965,9.06-16.965,16.719-28.382,17.214-.809.035-1.965-.458-1.609-1.185,8.456-.283,16.428-4.457,22.706-10.128s11.067-12.779,15.546-19.957c.693-1.11,2.357-.873,3.6-.45a50.93,50.93,0,0,1,10.837,5.2c1.82,1.156.378,4.238-1.691,4.842a10.482,10.482,0,0,1-3.678.178A14.662,14.662,0,0,0,503.745,155.742Zm-3.248-7.069-.292-.088a2.917,2.917,0,0,0-2.6.155,2.856,2.856,0,0,0-.658.812l-2.38,4.013a10.9,10.9,0,0,1,3.518,1.5,2.795,2.795,0,0,0,4.314-2.61c-.038-.389.6-.494.865-.209a1.58,1.58,0,0,1,.317.8h0c.019.1.04.2.065.291.1.378.408.785.791.707A1.851,1.851,0,0,0,505,152.6c.139-.552,1-.06,1.132.493s.383,1.339.932,1.191a1.436,1.436,0,0,0,.667-2.057,3.909,3.909,0,0,0-1.939-1.5A44.808,44.808,0,0,0,500.5,148.672Zm-7.233,6.523a6.153,6.153,0,0,0,4.807,1.769,5.039,5.039,0,0,0-4.618-1.8ZM404.307,279.727a20.139,20.139,0,0,1-17.619-3.479c-4.424,2.319-9,4.568-13.94,5.293s-10.384-.293-13.956-3.784a10.135,10.135,0,0,1,1.21,4.015,3.457,3.457,0,0,1-2.044,3.381c-2.2.746-4.126-1.607-5.269-3.632-.626,1.559.02,3.313.648,5.019.716,1.945,1.409,3.828.164,5.285-1.3,1.518-3.755,1.129-5.539.233-6.682-3.351-9.821-11.788-8.374-19.122s6.721-13.477,13-17.533a23.018,23.018,0,0,1-8.654-12.908,21.692,21.692,0,0,1,2.157,3.724h0a21.7,21.7,0,0,0,2.156,3.725,19.315,19.315,0,0,0,2.921,2.828h0a19.307,19.307,0,0,1,2.921,2.827c.21.271.392.728.093.9-6.02,3.42-11.17,8.868-12.878,15.577s.669,14.629,6.564,18.26a4.588,4.588,0,0,0,3.458.841c1.179-.312,2.065-1.793,1.387-2.808a9.961,9.961,0,0,1-.586-9.836l4.941,5.54c1.136-.292,1.417-1.82,1.114-2.954-.1-.359-.227-.714-.358-1.067h0a5.309,5.309,0,0,1-.488-2.319c.111-1.168,1.634-2.212,2.44-1.359,3.212,3.405,8.374,4.371,13,3.621s8.854-2.968,12.994-5.154l4.885-2.58a4.252,4.252,0,0,1-2.891,2.994,19.419,19.419,0,0,0,16.591,2.8,4.95,4.95,0,0,0,2.565-1.462,2.048,2.048,0,0,0-.028-2.719,3.347,3.347,0,0,0-.3-.221h0a1.524,1.524,0,0,1-.516-.488c-.173-.318.1-.853.428-.708,1.881-.131,3.041,2.4,2.274,4.119S406.121,279.214,404.307,279.727Zm-33.38-25.006a2.408,2.408,0,0,0-2.746,1.423,4.6,4.6,0,0,0,.019,3.306,6.95,6.95,0,0,1,.723-2.915,3.718,3.718,0,0,1,1.345-.95C370.962,255.218,371.533,254.916,370.927,254.721Zm-.91-3.037a4.23,4.23,0,0,1,4.783,6.042,2.234,2.234,0,0,1-.272-1.091C374.373,255.194,374.124,252.892,370.017,251.684Zm-1.359,11.13c-.5.619,1.231,2.255,3.932,1.127.5-.209.092-.233-.552-.271a6.061,6.061,0,0,1-1.836-.289,1.79,1.79,0,0,1-.748-.669C369.229,262.4,369.116,262.242,368.658,262.814Zm5.473,2.071c1.73-.862.645,1.666-2.976,1.355-.327-.028-.754-.153-.75-.482,0-.116.307-.143.784-.184A8.074,8.074,0,0,0,374.13,264.885Zm-10.679-4.8a2.521,2.521,0,0,0,2.232.53c.386-.074.575-.419.221-.53a3.184,3.184,0,0,0-.384-.074,3.658,3.658,0,0,1-1.244-.352c-.224-.135-.352-.6-.461-.99s-.206-.743-.364-.585A1.548,1.548,0,0,0,363.451,260.086Zm.577,2.152c.316.48-.886.315-1.144,0s-.512-1.5-.08-1.5c.126,0,.168.186.22.41a1.37,1.37,0,0,0,.236.6.971.971,0,0,0,.56.369A.289.289,0,0,1,364.029,262.238Zm54.015-2.382c.647,1.293-.486,2.743-1.578,3.692a39.908,39.908,0,0,1-15.411,8.281,22.477,22.477,0,0,0,16.353-7.031c1.941-2.075,3.182-5.97.678-7.311,2.971-.985,6.491-3.041,6.037-6.138a7.011,7.011,0,0,0-1.5-2.965l-.39-.536c-4.057-5.543-9.017-11.4-15.818-11.817,3.915-2.2,8.577.923,12.027,3.794l1.012.838c4.568,3.755,9.348,7.329,14.766,9.677,5.82,2.522,12.511,3.529,18.549,1.585l16.894-5.445c3.26-1.079,7.1-3.105,6.8-6.493a3.86,3.86,0,0,0-7.665-.213l-.367-2.882c-.906-.775-2.351-.111-3.08.832a10.488,10.488,0,0,0-.734,1.144,6.177,6.177,0,0,1-1.325,1.758c-1.994,1.631-4.644.29-7.023-1.118l-1.483-.887c-4.229-2.484-9.24-2.865-14.188-3.24-1.069-.081-2.135-.162-3.188-.264a71.333,71.333,0,0,1-20.112-4.971c5.882,4.823,13.568,5.633,21.321,6.45a84.242,84.242,0,0,1,11.549,1.755c2.95.737,6.21,2.241,6.934,5.194,1.051,4.289-4.043,7.61-8.44,8.011-7.191.656-14.2-2.4-20.3-6.305l-.687-.445c-2.209-1.45-4.351-3.011-6.491-4.571A87.947,87.947,0,0,0,409,232.34c4.477.225,7.747-3.017,11.087-6.328a35.2,35.2,0,0,1,5.666-4.886c6-3.8,13.669-2.936,20.735-1.715l1.11.2A42.753,42.753,0,0,0,436.076,198.2l9.975,19.611a26.079,26.079,0,0,0-29.173,10.127A63.98,63.98,0,0,1,447.211,190.4c4.668,1.746,8.612,4.863,12.548,7.974l0,0h0c1.27,1,2.538,2.007,3.831,2.963,5.3,3.921,11.746,7.244,18.235,6.077,4.666-.84,8.593-3.874,12.08-7.12l.562-.528a115.721,115.721,0,0,0,11.539-12.692c3.858-4.933,8.6-10.79,14.818-10.054a17.274,17.274,0,0,1,3.23.814,12.158,12.158,0,0,0,4.458.843c2.629-.169,5.045-3.7,2.982-5.336l-10.591-8.407c-1.035-.821-2.23-1.69-3.54-1.521a5,5,0,0,0-2.426,1.353l-2.378,2a150.48,150.48,0,0,0-15.833,14.852q-.468.527-.94,1.066c-3.9,4.431-8.132,9.241-13.925,9.587-5.651.338-10.4-3.742-14.741-7.47l-.651-.559-.809-.686a109.476,109.476,0,0,0-14.7-10.4c-4.574-2.7-9.645-5.134-14.944-4.765-6.2.432-11.428,4.577-15.906,8.932l-.677.665c-2.2,2.159-4.824,4.491-7.846,4.03l-.241-.032c-3.044-.347-5.9,1.542-8.193,3.657l-.358.335a46.613,46.613,0,0,0-12.646,21.07,56.716,56.716,0,0,0-39.557,3.984,23.6,23.6,0,0,0-8.16,6.049c-3.037,3.812-3.927,8.647-4.826,13.523h0A42.721,42.721,0,0,1,334.8,240.97c-.444.954-.965,1.886-1.485,2.817-1.218,2.18-2.435,4.357-2.659,6.813-.32,3.5,2.952,7.571,6.2,6.209,3.251-.512,4.97-5.094,2.859-7.618a4.644,4.644,0,0,0,4.609.407l-3.391-6.261a47.012,47.012,0,0,0,14.805-12.388c1.639-2.083,4.684-2.61,7.256-1.97A18.239,18.239,0,0,1,369,232.094l.925.665a1.715,1.715,0,0,0,.875,2.936c-.859-3.5,2.64-7.175,6.227-6.834s6.3,4.156,5.835,7.729c-1.895,4.693-6.581,7.371-11.217,10.019-5.03,2.874-10,5.713-11.274,11.054a9.91,9.91,0,1,0,19.546,2.564,1.074,1.074,0,0,0,1.1-.777c.452-1.356.882-2.859,1.307-4.348a39.939,39.939,0,0,1,2.491-7.2c2.543-4.61,7.277-8.26,12.54-8.387a40.411,40.411,0,0,0,4.992-.536h0a31.472,31.472,0,0,1,6.369-.515c3.8.209,7.971,2.436,8.519,6.2a28.986,28.986,0,0,0-12.773.4l14.717,1.751c3.232.384,3.837,5.388,1.533,7.688-2.172,2.167-5.481,2.524-8.578,2.662l-.56.023c.541,1.1,1.887,1.218,3.234,1.333S417.5,258.758,418.044,259.856Zm78.288-64.313c-4.562,5.066-9.9,10.51-16.709,10.764-5.957.222-11.169-3.617-15.989-7.168l-.356-.263-1.151-.841q-8.078-5.86-16.706-10.906c-4.447-2.6-9.562-5.113-14.55-3.823l7.9,2.485a2.816,2.816,0,0,0-.954,3.9c.182-1.868,2.342-3.055,4.2-2.764a7.539,7.539,0,0,1,4.509,3.138A44.588,44.588,0,0,0,423.174,210.9c-.915,1.759-1.712,3.578-2.508,5.4a65.035,65.035,0,0,1-3.531,7.238c-2.387,4.015-5.921,7.666-10.469,8.73-.636.149-1.289.247-1.942.345a11.777,11.777,0,0,0-3.773,1l-.191.1-.122.065-.091.049c-1.366.728-3.049,1.628-3.89.442a8.913,8.913,0,0,0-5.934-3.618,46.851,46.851,0,0,1,26.549-29.462c.714-.3.441-1.365.05-2.033l-5.74-9.823a2.022,2.022,0,0,1,1.025-2.622,5.306,5.306,0,0,1,3.09-.28,36.209,36.209,0,0,1,18.23,7.769c.831.675,2.193,1.337,2.8.456-5.927-5.977-14.405-8.749-22.748-9.866a27.988,27.988,0,0,1,20.265,6.171l.272.223c1.337,1.085,2.955,2.239,4.5,1.574a35.286,35.286,0,0,0-23.45-9.708c1.781-1.325,3.444-2.8,5.107-4.269h0c1.69-1.5,3.38-2.992,5.194-4.333,3.6-2.661,7.9-4.738,12.368-4.478,3.244.19,6.286,1.589,9.155,3.114a94.133,94.133,0,0,1,17,11.57q.554.475,1.116.96c4.963,4.277,10.378,8.942,16.792,8.339,3.911-.367,7.377-2.731,10.129-5.533a63.97,63.97,0,0,0,4.239-4.948c1.1-1.372,2.194-2.744,3.379-4.039a14.046,14.046,0,0,1,6.116-4.337c2.429-.714,5.39-.123,6.832,1.957ZM339.14,230.238c.88-4.814,1.75-9.574,5-13.078a20.672,20.672,0,0,1,5.706-4.037,57.884,57.884,0,0,1,34.847-5.949c2.9.42,6.5,2.047,6.449,4.8-.017.168-.034.337-.049.506a3.315,3.315,0,0,0,.049-.506,38.923,38.923,0,0,1,17.691-28.522,32.18,32.18,0,0,0,7.548,16.469A46.884,46.884,0,0,0,392.109,223.6l-.076.166c-1.351,2.957-3.494,6.589-6.622,5.853l1.549-9.57a4.168,4.168,0,0,0-.143-2.614,3.784,3.784,0,0,0-2.426-1.573l-.34-.1c-5.607-1.587-11.9-3.111-17.019-.33-2.709,1.471-4.654,3.938-6.473,6.47l-1.35,1.9A96.664,96.664,0,0,1,348.5,236.336a14.192,14.192,0,0,1-5.4,3.773c-2.113.67-4.739.219-5.993-1.609A46.443,46.443,0,0,0,339.14,230.238ZM373.7,267.53a9.463,9.463,0,0,1-8.637-.887,7.264,7.264,0,0,1-2.786-2.605,7.4,7.4,0,0,1-.257-5.631,14.626,14.626,0,0,1,4.691-7.12,29.037,29.037,0,0,1,5.08-3.134h0c.61-.322,1.221-.642,1.822-.978a42.194,42.194,0,0,0,14.632-13.606,3.341,3.341,0,0,1,3.592-1.154,7.4,7.4,0,0,1,3.322,2.182c.672.687,1.169,2.053.274,2.4A22.843,22.843,0,0,0,382.1,251.225c-.055.176-.108.352-.162.53h0a8.249,8.249,0,0,1-1.274,2.862c-.773.964-2.324,4.359-1.533,5.968C379.127,260.586,377.028,266.3,373.7,267.53Zm8.7-50.811a4.036,4.036,0,0,1,2.68,1.435,3.988,3.988,0,0,1,.356,2.485,40.421,40.421,0,0,1-2.1,9.869c-.188.539-.766,1.185-1.187.8a5.69,5.69,0,0,0-10.918-.867,1.02,1.02,0,0,1-1.227.5,2.629,2.629,0,0,1-.939-.536l-.284-.231a13.562,13.562,0,0,0-10.581-2.82,36.739,36.739,0,0,1,7.4-8.885,11.794,11.794,0,0,1,3.994-2.513,12.317,12.317,0,0,1,4.431-.38A49.9,49.9,0,0,1,382.4,216.72ZM515.49,174.369a9.262,9.262,0,0,0-5.418-2.812l2.331-2.96a4.608,4.608,0,0,1,2.769-2.027,4.5,4.5,0,0,1,2.433.6,35.561,35.561,0,0,1,7.171,4.541,5.273,5.273,0,0,1,1.79,2.157,2,2,0,0,1-.792,2.466c-.854.408-2.085-.485-1.734-1.365l.034-.1a1.221,1.221,0,0,0-.535-1.353l-.826,1.582a.819.819,0,0,1-.3.347c-.551.3-1-.551-1.034-1.179l-.006-.088c-.059-.619-.384-1.408-.953-1.215a2.717,2.717,0,0,1-4.747,1.6Zm-177.723,78.1-1-3.779c-.473-.132-.936.342-1,.829a2.239,2.239,0,0,0,.124.963l.154.472a8.058,8.058,0,0,1-.036,4.968,14.769,14.769,0,0,1-1.494-6.521c-.644-.354-1.082.725-1.036,1.458l.278,4.375a5.753,5.753,0,0,1-1.6-4.994,12.918,12.918,0,0,1,2.028-5.016,6.6,6.6,0,0,1,1.838-2.144,2.559,2.559,0,0,1,2.686-.206,3.756,3.756,0,0,1,1.3,1.9,5.422,5.422,0,0,0,.88,1.575c.142.156.307.316.476.479.652.629,1.349,1.3.893,1.979a17.955,17.955,0,0,1-3.806-3.132,12.776,12.776,0,0,0,1.047,7.423c.221.47-.509.917-.969.677A1.909,1.909,0,0,1,337.767,252.469Zm134.914-12.364c.72-.636,1.377-1.219,1.7-1.061.927.463-1.592,2.5-2.926,3.07.1.644,1.031.355,1.577,0s2.074-.738,1.775-.352a13.785,13.785,0,0,1-8.79,4.7c-1.349.152-3.016-.208-3.446-1.5-.392-1.174.481-2.334,1.4-3.206l.222-.2c.387-.347,1.01-.686,1.368-.307.951,1.006,2.613.183,3.708-.663,0,0,2.846-2.746,3.324-2.57s-1.42,3.271-1.42,3.271a10.055,10.055,0,0,0,1.509-1.183Zm-13.624,2.549a1.337,1.337,0,0,1,.99.248,2.886,2.886,0,0,1-1.768,5.306.906.906,0,0,1-.509-.16c-.3-.237-.258-.69-.193-1.064l.478-2.731C458.169,243.594,458.4,242.8,459.057,242.654Zm-60.288-6.2a13.516,13.516,0,0,1,5.535.221c-.1.744-.973,1.082-1.708,1.234a21.688,21.688,0,0,1-6.915.3A4.1,4.1,0,0,1,398.769,236.452Zm114.958-60.564-4.812-2.842a6.089,6.089,0,0,1,6.064,2.987C514.644,176.338,514.115,176.118,513.726,175.889Zm-105.451,57q-3.061.81-6.043,1.882A4.56,4.56,0,0,0,408.275,232.884Zm-19.941-2.58c.561.116.307,1-.141,1.357a4.28,4.28,0,0,1-4.892.221Zm128.061-65.92a1.57,1.57,0,0,1,.98.2,18.087,18.087,0,0,1,5.4,3.756L515.86,164.8A.823.823,0,0,1,516.395,164.384ZM411.035,183.461l.068.047a4.229,4.229,0,0,1,1.869.153,8.245,8.245,0,0,1-2.13,2.575A2.78,2.78,0,0,1,411.035,183.461Zm118.338-9.7.014.043a2.035,2.035,0,0,1,1.231,1.963,7.739,7.739,0,0,1-3.535-3.832A4.431,4.431,0,0,1,529.374,173.759ZM386.187,234.118l-.114.156a2.5,2.5,0,0,1-1.542,1.208c-.668.077-1.353-.787-.882-1.267A3.438,3.438,0,0,1,386.187,234.118Zm-47.329,6.71c.6.139,1.27.574,1.176,1.179a20.568,20.568,0,0,1-4.016-.941A4.671,4.671,0,0,1,338.858,240.828Zm126.834-.116c-.31.135-.591-.432-.3-.6,0,0,2.036-3.571,2.124-1.071C467.563,239.668,466.247,240.428,465.692,240.712Zm-86.047,18.337c.151-1.085.436-3.128,1.015-3.128.82-.087.5,1.31.283,2.3-.061.271-.116.512-.138.681a.894.894,0,0,1-1.259.771C379.57,259.582,379.6,259.354,379.645,259.049ZM188.766,296.525q6.266.542,12.564.517a7.745,7.745,0,0,0,15.377,1.773c.244-1.569,2.366-1.842,3.95-1.719l10.077.785c1.728.134,4.172-.41,3.986-2.132L233.577,285.2c-.1-.951.23-2.339,1.168-2.151a7.8,7.8,0,0,0,8.917-6.305,7.622,7.622,0,0,0-6.986-8.313c-1.96-.061-2.891-2.624-2.383-4.517a12.574,12.574,0,0,1,1.313-2.862h0a14.718,14.718,0,0,0,1.187-2.445c.633-1.855.1-4.44-1.806-4.888a106.04,106.04,0,0,0-44.319-.841l-.268.053a6.887,6.887,0,0,0-2.3.791c-2.282,1.413-2.458,4.528-2.346,7.276l.074,1.527a107.984,107.984,0,0,1-2.072,26.462l-.04.2c-.4,1.981-.72,4.245.6,5.746a5.979,5.979,0,0,0,4.045,1.561Zm25.706,2.126a2.907,2.907,0,0,1-.259,1.7l-.073.163a5.621,5.621,0,1,1-9.38-6.015,71.94,71.94,0,0,1-15.98.124c-1.643-.171-3.791-1.058-3.455-2.675a120.294,120.294,0,0,0,2.137-33.9c-.162-2.052,2.364-3.117,4.389-3.489a105.782,105.782,0,0,1,39.615.291c1.667.331,3.813,1.6,3.074,3.129a21.436,21.436,0,0,0-1.98,11.678c.116,1.013.909,2.34,1.794,1.832a4.97,4.97,0,1,1-2.331,5.574,53.887,53.887,0,0,0,.658,16.45c.367,1.874-2.361,2.581-4.265,2.439l-15.2-1.132c-.466.734.012,1.492.514,2.29A4.955,4.955,0,0,1,214.472,298.651ZM293.133,264.3l29.776.6.487.012a6.56,6.56,0,0,1,2.6.482c1.82.849,2.655,2.943,3.209,4.874a52.011,52.011,0,0,1-1.028,31.631l-.152.414a6.1,6.1,0,0,1-2.2,3.178,6.4,6.4,0,0,1-3.115.753l-.232.012a91.246,91.246,0,0,1-13.282-.339,5.292,5.292,0,0,0,1.418-7.126,6.523,6.523,0,0,0-7.135-2.48,5.35,5.35,0,0,0-3.628,3.072,3.52,3.52,0,0,0,1.444,4.274c1.011.521.837,2.16-.049,2.874a5.217,5.217,0,0,1-3.253.783l-14.939.242a6.586,6.586,0,0,1-3.289-.515c-1.4-.763-2.041-2.406-2.435-3.949a26.629,26.629,0,0,1-.374-11.431,5.568,5.568,0,1,0,2.311-6.186l-.108-.963a33.594,33.594,0,0,1-.015-10.114c.71-3.639,2.734-7.214,6.053-8.867C287.62,264.319,290.414,264.253,293.133,264.3Zm32.5,3.114a5.239,5.239,0,0,0-2.519-.562l-.218-.009q-13.894-.518-27.8-.525l-3.09.005a14.326,14.326,0,0,0-5.761.822,9.759,9.759,0,0,0-5.1,6.732,28.881,28.881,0,0,0-.363,8.707c4.693-1.293,9.743,3.476,9.185,8.313s-5.918,8.329-10.7,7.4a10.674,10.674,0,0,0,.019,4.591,3.649,3.649,0,0,0,3.3,2.762l13.85-.446c.858-.028,2.043-.471,1.794-1.292-1.415-4.662,2.669-10.1,7.54-10.049s8.832,5.588,7.312,10.217a26.672,26.672,0,0,0,9.3.424,5.306,5.306,0,0,0,2.823-1,5.565,5.565,0,0,0,1.443-2.573,53.088,53.088,0,0,0,1-30.023,5.7,5.7,0,0,0-1.856-3.378ZM194.221,359.132a95.566,95.566,0,0,1,.006-29.011l.075-.464c.367-2.177,1.011-4.476,2.83-5.675a8.46,8.46,0,0,1,4.723-.966l12.561.034a2.428,2.428,0,0,1,1.628.4c.43.377.419,1.242-.132,1.395A2.988,2.988,0,0,0,214,328.082a5.574,5.574,0,0,0,2.077,3.42c2.469,2.123,6.307,2.877,9.04,1.107s3.375-6.329.786-8.3q8.8-.18,17.6.055l2.2.065a2.833,2.833,0,0,1,1.994.589,2.637,2.637,0,0,1,.58,1.465,19.226,19.226,0,0,1-1.991,11.961c-.307.578-1.019,1.215-1.5.776-2.061-1.871-5.528-1.617-7.638.2a8.564,8.564,0,0,0-2.552,7.594c.359,2.655,2.295,5.491,4.971,5.357a9.055,9.055,0,0,0,2.308-.553h0c1.381-.458,2.713-.9,3.737-.011l-2.684,11.99c-.476,2.129-1.332,4.657-3.467,5.113a83.918,83.918,0,0,1-37.476-.578l-.593-.15a10.141,10.141,0,0,1-4.123-1.883C195.254,364.572,194.624,361.755,194.221,359.132Zm49.012-5.182a8.479,8.479,0,0,1-10.208-2.942,9.707,9.707,0,0,1,.271-10.846,11.38,11.38,0,0,1,10.1-4.473l.32.028a2,2,0,0,0,2.532-1.894,15.829,15.829,0,0,0-.1-7.938L229.906,326a8.844,8.844,0,0,1-17.579,1.832l-.089-.665a2.687,2.687,0,0,0-.748-1.759,2.723,2.723,0,0,0-1.271-.508l-.171-.033c-4.725-.893-10.715-1.264-13.194,2.856a11.3,11.3,0,0,0-1.243,4.71,108.672,108.672,0,0,0,.7,28.113l.071.435a4.941,4.941,0,0,0,4.189,4.942l.23.064a78.8,78.8,0,0,0,36.305,1.258l.665-.137a3.748,3.748,0,0,0,1.664-.651,3.847,3.847,0,0,0,1.035-2.068Zm87.636,23.757a12.625,12.625,0,0,1,.3-2.482,13.657,13.657,0,0,1,1.682-2.685c-.088.426-.209.883-.336,1.354-.432,1.615-.909,3.4-.184,4.718.559,1.018,8.741,6.38,11.553,7.636,12.025,5.374,24.11,10.237,36.252,15.122h0l.011,0c4.962,2,9.933,4,14.912,6.037-8.559-1.043-16.441-5.029-24.12-8.951-1.657,9.2,3.467,18.466,10.38,24.753,5.034,4.577,10.959,7.971,16.884,11.363h0c2.211,1.266,4.422,2.533,6.586,3.86l.8.493c7.681,4.808,15.027,10.878,18.419,19.25a3.285,3.285,0,0,0,6.211-2.109c1.642,1.348.695,4.36-1.295,5.1s-4.27-.266-5.739-1.8a18.212,18.212,0,0,1-2.649-3.98h0v0c-.251-.46-.5-.92-.766-1.371-4.741-8.129-13.118-13.177-21.427-17.8l-3.9-2.159c-9.018-5.036-18.257-11.084-22.119-20.616a82.236,82.236,0,0,1-41.886-4.331c-2.838-1.079-5.618-2.317-8.4-3.554h0a102.438,102.438,0,0,0-13.5-5.265c-2.592-.739-6.164-.818-7.135,1.7,0,0,0,0,0,.006h0c-.028.049-.212.372-1.04.444-.387.033-.743-.647-.854-1.1a2.786,2.786,0,0,1-.127-1.214,5.954,5.954,0,0,1,2.314-3.181,7.873,7.873,0,0,1,2.853-1.15c.279-.064.444-.1.43-.144a2.528,2.528,0,0,0-2.082.095,17.51,17.51,0,0,0-2.122,1.292h0c-1.015.687-1.892,1.28-2.566,1.2-.912-.105-1.561-.532-1.571-1.451a3.394,3.394,0,0,1,.942-2.614,8.488,8.488,0,0,1,5.426-1.886,1.524,1.524,0,0,1,1.165.386c.276.32.14.959-.281.978-2.533.114-5.461.538-6.447,3.136-.286.756,1.526.878,2.227.474a6.63,6.63,0,0,0,1.106-.863,9.276,9.276,0,0,1,.781-.654,4.663,4.663,0,0,1,2.86-.866,1.382,1.382,0,0,1,1.1.44c.241.33.071.93-.338.937a5.493,5.493,0,0,0-5.2,4.938c.01.094.082.527.388.63a.893.893,0,0,0,.768-.2c1.366-2.441,3.863-4.072,6.546-3.256a21.107,21.107,0,0,1,2.962,1.248,11.314,11.314,0,0,0,5.24,1.562l-1.112-5.9a17.653,17.653,0,0,0-17.114-3.669,2.345,2.345,0,0,0-1.547,1.108c-.254.6.3,1.48.915,1.246-.962.889-2.587-.62-2.221-1.878s1.745-1.9,3.013-2.233c7.114-1.849,14.2,1.374,21.055,4.488h0l.005,0c1.27.577,2.532,1.15,3.784,1.687a76.644,76.644,0,0,0,44.609,4.734c-.646,1.768-2.85,2.3-4.72,2.513a82.079,82.079,0,0,1-39.3-5.265c-1.515,1.925-.794,4.916.931,6.657s4.164,2.53,6.511,3.232c13.155,3.932,27.1,6.939,40.544,4.144L369.052,399.3l-.044-.233a1.458,1.458,0,0,0-.781-1.2l-.12-.041c-17.229-5.85-30.36-10.309-47.409-26.562-.034-.033-.067-.067-.1-.1-.126,4.885-1.675,5.96-8.134,4.627-14.094-2.9-28.525-4.426-42.749-2.427a159.455,159.455,0,0,1,4.035-15.757c-4.629,1.494-10.093-2.749-9.794-7.6s6.244-8.393,10.654-6.342a15,15,0,0,0,.263-11.145c-.648-1.709,1.932-2.7,3.76-2.7l10.1,0c1.411,0,3.38-.656,3.029-2.023a6.333,6.333,0,1,1,12.271-3.141l.043.176c.767,3.406,5.081,4.487,8.57,4.42l1.737-.042c3.019-.064,6.164.034,8.185,2.146,2.416,2.525,1.876,6.547,1.08,9.975l-.054.227a25.692,25.692,0,0,1-1.524,4.308,21.032,21.032,0,0,0-2.084,9.912c.04,1.95.11,3.74.19,5.378.28-1.151.527-1.912.527-1.912s32.916,24.508,53.244,27.835c2.436-2.153,1.03-6.346-1.424-8.478a25.374,25.374,0,0,0-3.385-2.349,18.109,18.109,0,0,1-4.441-3.413c-2.43-2.838-2.865-6.746-3.3-10.622-.468-4.215-.932-8.39-3.952-11.105-.269-.242-.556-.468-.843-.695h0a7.3,7.3,0,0,1-1.733-1.708,4.878,4.878,0,0,1,.765-5.6,11.648,11.648,0,0,1,5.156-3.053c3.962-1.384,8.306-2.156,12.352-1.041s7.669,4.483,8.066,8.66a5.4,5.4,0,0,1,4.274-3.045l-2.644,2.809,3.346.067-4.6,2.571c2.854,5.278,2.392,11.788.562,17.5-.224.7-.468,1.4-.713,2.1-.978,2.8-1.963,5.633-1.711,8.559.31,3.6,3.506,7.276,7,6.539l.174-.04a17.281,17.281,0,0,1,12.57,1.679c4.4,2.479,7.4,6.682,10.36,10.842.688.966,1.375,1.928,2.076,2.867,3.289,4.4,7.182,8.49,12.048,11.039s10.832,3.39,15.9,1.274c.932-.389,1.828-.873,2.722-1.355a17.6,17.6,0,0,1,4.713-1.986c2.669-.553,6.066.752,6.384,3.46-1.381-2.307-4.651-2.716-7.224-1.938a22.962,22.962,0,0,0-4.134,1.874,29.832,29.832,0,0,1-3.161,1.538c-5.459,2.144-11.817.844-16.842-2.178-4.869-2.928-8.682-7.3-12.122-11.83l-.332-.439q-.524-.7-1.044-1.4H408.8c-2.419-3.251-4.856-6.526-8.049-9-3.581-2.773-8.391-4.413-12.7-3.081l-.263.085c-4.125,1.4-8.493-2.549-9.236-6.841s1.007-8.579,2.719-12.583c1.767-4.131-1.476-8.95-5.565-10.811a14.555,14.555,0,0,0-12.113.1c-1.219.581-1.44,2.181-1.4,3.549l.006.151c.211,4.829,1.5,9.9,5.026,13.211a25.047,25.047,0,0,0,3.467,2.57h0a19.678,19.678,0,0,1,4.2,3.337c2.126,2.438,2.454,7.005-.5,8.324a132.118,132.118,0,0,1,15.014,3.627c-26.514-2.713-50.893-15.218-68.4-30.324a8.505,8.505,0,0,0-.764,2.2q.061,1.135.122,2.165c.055.969.108,1.869.148,2.7a9.731,9.731,0,0,0,5.516,6.292,7.052,7.052,0,0,1,1.758-5.427C326.94,370.343,325.587,374,330.869,377.706Zm40.726-37.325a41.4,41.4,0,0,0-7.157-.7,1.608,1.608,0,0,0-.174,1A22.63,22.63,0,0,1,372,342.75c-1.015,1.016-2.693.408-4.055-.087l-.08-.029a13.961,13.961,0,0,0-7.319-.583,7.271,7.271,0,0,0-3.437,1.487,3.762,3.762,0,0,0-1.367,3.356c.272,1.59,1.767,2.677,3.26,3.289a12.593,12.593,0,0,0,11.48-1.106c.271-.177.653.12.669.443a1.184,1.184,0,0,1-.432.839,7.875,7.875,0,0,1-5.192,1.858c-.548.031-1.1.043-1.651.053h0a17.439,17.439,0,0,0-3.961.379c.174,1.064,1.5,1.431,2.579,1.509a30.35,30.35,0,0,0,12.17-1.615c.975-.34,1.87.636,2.444,1.493l4.191,6.254c1.376-1.3,1.294-3.535.645-5.311-.254-.694-.577-1.363-.9-2.031a14.187,14.187,0,0,1-1.241-3.209,14.435,14.435,0,0,1-.224-1.9h0a10.015,10.015,0,0,0-.427-2.626C378.117,342.255,374.681,340.955,371.595,340.381ZM320.97,397.468l-3.8-2.185c-.422-.242-1.2-.283-1.157.2-.13,1.963.03,4.369,1.292,6.005.8,1.031,1.369,1.559,4.179,2.257l-.206-5.5C321.263,397.956,321.223,397.614,320.97,397.468ZM378.9,367.553a3.2,3.2,0,0,0,1.032-1.2,5.572,5.572,0,0,0,1.022-2.644,1.918,1.918,0,0,0-1.594-2.037,2.2,2.2,0,0,0-1.316.482,5.153,5.153,0,0,0-1.874,2.491c.44.633,1.435.067,1.878-.565s1.1-1.431,1.8-1.115a11.55,11.55,0,0,1-2.39,4.384A1.1,1.1,0,0,0,378.9,367.553ZM386.506,414c-1.058-1.68-2.2-3.494-4.085-4.04a47.123,47.123,0,0,0,18.436,18.863c2.713,1.523,5.576,2.773,8.435,4.022a66.892,66.892,0,0,1,11.538,5.955A33.666,33.666,0,0,1,431.5,450.932c-.983-6.885-6.74-12.156-12.886-15.411a93.344,93.344,0,0,0-8.627-3.849h0a77.039,77.039,0,0,1-10.339-4.807A38.715,38.715,0,0,1,386.7,414.308C386.634,414.207,386.57,414.1,386.506,414Zm13.135,2.328.117.259c.515,1.191.871,2.687-.1,3.494a2.726,2.726,0,0,1-2.846-.029,9.437,9.437,0,0,1-4.5-4.516,5.948,5.948,0,0,0,3.043-1.633,2.091,2.091,0,0,1,2.664.041A6.093,6.093,0,0,1,399.641,416.33Zm-.624,2.818c.99-1.776-1.028-4.4-2.014-4.566-.429-.074-.871.351-1.346.807a2.868,2.868,0,0,1-1.589,1S398.028,420.924,399.017,419.148Zm49.893,5.107a85.038,85.038,0,0,0,62.546-31.211,2.75,2.75,0,0,1,3.411-.376,8.021,8.021,0,0,1,2.511,2.711c.755-.111.778-1.283.257-1.842a4.231,4.231,0,0,0-.9-.676,4.138,4.138,0,0,1-.922-.7c-1.049-1.162-.488-2.99.126-4.43l2.74-6.418c.367-.859.941-1.862,1.876-1.85a2.407,2.407,0,0,1,1.645,1.11,188.6,188.6,0,0,1,13.131,18.085c-2.475.384-4.854-.835-7.2-2.039-2.621-1.342-5.2-2.666-7.832-1.713-2.291.831-3.64,3.138-4.853,5.25-3.968,6.913-8.513,13.571-14.27,19.083-13.371,12.8-32.028,18.341-50.2,21.844a68.238,68.238,0,0,0,35.477,3.42c6.781-1.162,13.542-3.449,18.827-7.854a55.337,55.337,0,0,0,5.843-5.963l13.612-15.365c.8-.9,2.268-.036,3.01.909s1.749,2.123,2.882,1.72a9.41,9.41,0,0,0-3.951-4.331c-.1-2.167-.168-4.488.985-6.327s4.025-2.734,5.52-1.162q7.352,7.734,14.075,16.036c-2.627.413-5.123-.718-7.6-1.84h0c-.765-.346-1.528-.693-2.293-.992-3.242-1.268-7.787-1.241-9.265,1.911-4.043,8.619-8.244,17.46-15.185,23.977-11.592,10.884-28.529,13.341-44.328,15.133-7.007.794-14.2,1.548-21.027-.236-4.966-1.3-9.484-3.882-13.935-6.437l-3.532-2.028c-1.04.26-.2,1.836.719,2.381,5.914,3.488,12.009,7.042,18.792,8.111a44.086,44.086,0,0,0,5.226.444,115.479,115.479,0,0,0,47.252-8.227c6.232-2.506,12.573-5.856,16-11.636l12.06-20.365a3.471,3.471,0,0,1,5.022-1.854l11.3,3.283c1.155.335,2.228-1.019,2.108-2.216a5.609,5.609,0,0,0-1.805-3.046l-10.425-11.157c-1.375-1.473-2.853-3.008-4.8-3.544s-4.438.408-4.818,2.386c-1.121,5.841-5.111,10.654-8.961,15.185-5.96,7.015-12.164,14.223-20.436,18.26-11.862,5.788-25.879,4.107-38.867,1.755l8.422-2.453c4.168-1.214,8.344-2.431,12.384-4.019a72.291,72.291,0,0,0,36.964-32.9c1.378-2.578,3-5.559,5.874-6.076,2.365-.426,4.381.971,6.442,2.4a17.769,17.769,0,0,0,3.806,2.2c1.976.729,5.042-.309,4.577-2.363a3.62,3.62,0,0,0-.662-1.254L525.53,381.829c-1.488-2.1-3.717-4.467-6.165-3.68-1.967.633-2.7,2.9-3.355,4.906l-.06.182-.027.083-.03.093c-3.052,9.3-11.26,15.8-19.05,21.726a114.133,114.133,0,0,1-10.5,7.388c-10.743,6.41-23.343,9.124-35.827,9.935-3.527.229-5.744,3.538-7.773,6.566-.242.361-.479.717-.717,1.063a32.565,32.565,0,0,1-14.08,11.493c.946,1.046,2.67.419,3.866-.329a42.534,42.534,0,0,0,13.92-14.209C446.484,425.779,447.434,424.3,448.91,424.255ZM373.542,369.99a3.785,3.785,0,0,1-6.555.583c-.278-.4-.276-1.186.211-1.144a3.438,3.438,0,0,0,4.516.743C372.317,369.761,373.361,369.284,373.542,369.99ZM362.9,361.2a2.345,2.345,0,0,1,4.476-.668,5.734,5.734,0,0,1-1.643-.245C364.891,360.061,364.4,359.928,362.9,361.2Zm7.821,5.645-1.149.492-.067-.038c-.3.567-1.174-.075-1.242-.712-.014-.132-.021-.271-.028-.412-.025-.539-.052-1.1-.5-1.343a3.157,3.157,0,0,0-.488,2.782,2.148,2.148,0,0,0,2.273,1.448A1.639,1.639,0,0,0,370.717,366.844Zm1.378-7.829c1.452.117,1.838.2,2.239,1.15.079.188-.542.011-1.134-.158h0a3.559,3.559,0,0,0-.968-.21C367.372,361.239,370.643,358.9,372.1,359.015Zm-.411,2.511c.8.636.57,3.17-.615,2.693C370.574,364.02,369.981,360.175,371.685,361.526Zm38.422,67.863a.844.844,0,0,1,.663-1.3,1.09,1.09,0,0,1,.485.8,1.11,1.11,0,0,1-1.144.492Zm-10.915-4.94.835-.127.067-.024c.29-.541-.657-1.16-1.037-.676A.975.975,0,0,0,399.191,424.45Zm5.942,3.292c-.484.132-.549-.7-.277-1.12l1.155.526a1.178,1.178,0,0,1-.865.577Zm-14.428-12.11a.579.579,0,0,0-.856-.226l.073.073a.605.605,0,0,0,.323.909A.579.579,0,0,0,390.706,415.631Zm-25.382-51.353c-.465,0-.952-.455-.928-1.245s.239-1.521.928-1.132S365.8,364.279,365.324,364.279ZM148.7,268.259c.28.369.92.206,1.167-.185a2.134,2.134,0,0,0,.171-1.351,62.307,62.307,0,0,0-5.1-19.324c-.776-1.74-1.591-3.911-.4-5.4,2.745,6.862,5.514,13.809,6.514,21.132.273,2,.371,4.187-.743,5.868s-3.891,2.326-5.129.734a4.205,4.205,0,0,0,3.224-4.266A1.925,1.925,0,0,1,148.7,268.259Zm22.192,132.225c9.962-.547,21.5-1.985,26.728-10.484,1.355-2.2,1.067-5.669.828-8.524-.191-2.294-.35-4.194.4-4.731,1.691-1.206,3.043,1.9,3.043,1.9.022-.09.045-.188.069-.294.031-.139.066-.291.1-.454.472-2.117,1.342-6.018,2.707-5.286.562.3.369,2.2.236,3.5h0c-.031.305-.059.578-.073.791a1.462,1.462,0,0,0-.013.488.3.3,0,0,0,.06-.033.062.062,0,0,0,.028-.015.253.253,0,0,0,.024-.025,6.724,6.724,0,0,0,.86-1.16c.7-1.062,1.541-2.347,2.107-1.875.888.742-2.269,5.474-2.269,5.474s3.749-4.12,4.065-2.366-8.221,17.588-15.928,23.8-18.565,9.687-28.385,8.442C165.706,405.742,167,400.7,170.893,400.484Zm34.143-23.161a.562.562,0,0,1-.052.04c-.06.01-.067-.166-.047-.456a5.3,5.3,0,0,1,.629-1.686c-.065.206-.13.4-.191.592-.274.839-.472,1.447-.266,1.4-.017.031-.033.055-.047.076S205.044,377.313,205.036,377.322Zm1.856-3.574a4.182,4.182,0,0,0-1.326,1.472c.512-1.62,1.029-3.663-.23-3.826-2.135-.277-4.223,3.2-3.852,5.044-.592-1.471-3.058-.835-3.655.634a6.691,6.691,0,0,0-.07,3.588h0c.059.372.117.742.158,1.108.641,5.858-3.75,11.333-9.074,13.859-5.019,2.381-10.716,2.716-16.288,2.889l-1.3.037c-3.181.084-6.625.01-9.053-2.02-2.5-2.092-2.5-7.056.642-7.933a20.129,20.129,0,0,0,14.3-18.27c.073-2.445,1.659-4.48,3.192-6.446l.223-.286.188-.242.337-.441c1.716-2.276,3.126-5.412,1.685-7.871a8.764,8.764,0,0,1-9.8,2.707,17.68,17.68,0,0,1-3.907-2.372c-1.666-1.218-3.317-2.426-5.322-2.727a6.6,6.6,0,0,0-7.141,7.29c-1.062-.892-2.711.458-2.825,1.839a7,7,0,0,0,.361,2.395,10.285,10.285,0,0,1,.356,1.684,10.062,10.062,0,0,1-.073,1.989c-.046.449-.092.9-.1,1.347-.028,2.327,1.008,4.481,2.03,6.6v.006q.154.318.305.636l.273.582c1.162,2.521,2.025,5.52.786,8s-5.456,3.262-6.651.757a37.042,37.042,0,0,0-32.732-20.62c-15.751.024-29.923,10.4-39.206,23.13a11.83,11.83,0,0,0-2.543,5.245c-.252,1.948.652,4.184,2.505,4.835s4.256-1.171,3.653-3.04c.94,1.1,2.863.06,3.306-1.316a7.681,7.681,0,0,0,.243-2.406,10.05,10.05,0,0,1,.112-1.9c.574-3.052,3.713-4.814,6.538-6.1l.57-.259c6.654-3.011,13.588-5.7,20.867-6.212,7.487-.526,15.477,1.555,20.622,7.019-7.021,1.666-11.1,8.71-14.348,15.217l-.451.907c-3.281,6.589-7.58,13.778-14.775,15.175a3.551,3.551,0,0,0,2.962,2.774L82.013,433.913l2.024,2.51a206.884,206.884,0,0,1-21.688,27.75c-4.35,4.682-10,9.533-16.3,8.443a20.661,20.661,0,0,1-3.343-.978,13.647,13.647,0,0,0-4.905-1.09c-2.847.082-5.7,3.544-3.771,5.636A72.921,72.921,0,0,0,48.524,488.27l.138.087a3.407,3.407,0,0,0,2.113.695,3.713,3.713,0,0,0,1.944-1.144l35.727-32.575c2.926-2.646,6.146-5.294,10.044-5.683l.328-.04c2.883-.4,5.258-2.224,7.639-4.052,1.037-.8,2.076-1.593,3.158-2.274,3.661-2.3,9.734-2.541,11.158,1.544.757,2.171-.233,4.379-1.21,6.556-.291.648-.58,1.294-.822,1.935-1.053,2.792-.19,7.087,2.794,7.034l16.7-.3a2.648,2.648,0,0,1,1.7.395,2.468,2.468,0,0,1,.753,1.65l.039.287a55.65,55.65,0,0,1-.257,15.405c-.865,5.517-3.169,11.584-8.374,13.606-3.283,1.276-6.939.613-10.4-.179l-21.009-4.907c-.035-2.544,2.266-4.615,4.72-5.29a18.615,18.615,0,0,1,6.429-.224l.218.017.18.014.764.057a49.982,49.982,0,0,0,15.854-1.456L121.4,460.794a63.828,63.828,0,0,0,4.95,17.965l-24.483.794c-2.132.06-4.5-.034-5.932-1.59a9.215,9.215,0,0,1-.978-1.378c-.624-1-1.236-1.981-2.344-2.109a3.577,3.577,0,0,0-2.558,1.153,48.288,48.288,0,0,0-11.624,14.716c1.032,2.556,4.453,3.271,7.11,2.538a20.948,20.948,0,0,0,4.395-1.977h0a30.066,30.066,0,0,1,3.078-1.529c5.918-2.392,12.425-.77,18.674,1.111l3.713,1.13c7.336,2.2,16.282,3.334,21.78-2,3.244-3.148,4.425-7.832,5.068-12.306a77.3,77.3,0,0,0-4.321-38.468c5.209-2.01,7.667-7.837,9.578-13.082l3.742-10.274c1.251-3.432,4.091-7.644,7.472-6.261,9.665,3.953,21.082,2.282,30.081-3.016s15.735-13.882,20.272-23.287l.122-.254c.888-1.869,2.019-6.229,1.008-6.713-.376-.3-1.048.2-1.506.53-.247.181-.432.316-.474.257a2.177,2.177,0,0,1,.175-.621C208.863,374.778,209.86,371.872,206.892,373.749ZM142.93,431.416c-1.17,2.629-3.1,5.723-5.96,5.374-1.53-.187-2.684-1.341-3.724-2.527l-.556-.645c-6.037-7.007-14.236-11.664-22.478-15.95l-2.746-1.418c6.713-1.321,10.855-7.96,13.812-14.13l.942-1.966c2.7-5.606,5.781-11.374,11.359-13.9a3.318,3.318,0,0,1,2.449-.337l.192.071.165.064.029.011c.982.377,2.246.863,2.226-.067-1.79-.722-2.084-3.331-1.052-4.962a9.2,9.2,0,0,1,4.191-3.087l.461-.209c-1.031-1.422-3.265-.227-4.434,1.086l-.1.107c-1.172,1.285-2.97,2.693-4.322,1.648-5.589-4.318-13.036-5.7-20.065-5.026s-13.736,3.248-20.157,6.186a19.456,19.456,0,0,0-6.491,4.161c-1.351,1.477-1.491,3.444-1.632,5.421-.041.579-.082,1.159-.154,1.727-.174,1.374-.93,1.427-1.6,1.473a1.257,1.257,0,0,0-.889.272c-.016.018-.069.1-.147.218-.4.614-1.482,2.276-1.97,2.11-.718-.243-.352-1.793-.352-1.793s-2.13.609-2.289,0c-.555-2.13,2.64-6.488,2.64-6.488a52.593,52.593,0,0,1,22.1-18.271c8.92-3.882,19.329-4.631,28.447-1.242a34.41,34.41,0,0,1,21.045,23.6c.654,2.655,3.743,3.827,6.441,4.268.254.042.511.082.77.122,2.49.389,5.138.8,6.725,2.7a2.439,2.439,0,0,1,.178,2.1l-.047.206c-.592,2.539-1.625,5.381-4.093,6.152a4.1,4.1,0,0,1-5.071-3.451c-.015-.206-.019-.425-.024-.646-.019-.91-.039-1.87-.8-2.245ZM121.722,445.3a19.724,19.724,0,0,0-6.731-11.03,7.692,7.692,0,0,0,2,4.586,50.638,50.638,0,0,0-15.705,8.264c-1.257.978-3.39,1.868-4.126.457a31.433,31.433,0,0,0-13.034-13.132l22.736-13.066a7,7,0,0,1,3.3-1.209,5.893,5.893,0,0,1,2.622.752l.411.209a71.951,71.951,0,0,1,22.252,17.838,16.2,16.2,0,0,1,2.824,6.456l2.7,10.565c.179.7.31,1.565-.238,2.036a1.949,1.949,0,0,1-1.148.342l-.474.036c-6.732.518-12.164.936-18.908-.036-1.007-1.93-.246-4.321.539-6.79C121.418,449.466,122.109,447.293,121.722,445.3Zm-33.823-6.5a45.366,45.366,0,0,1,6.767,7.449,1.587,1.587,0,0,1,.4.975,1.617,1.617,0,0,1-.681,1.017L65,473.968a3.909,3.909,0,0,1-4.552.008,10.164,10.164,0,0,1-2.847-3.141l-.334-.514c7.658-4.025,12.571-11.234,17.527-18.508,3.109-4.562,6.235-9.15,10.066-12.993a1.81,1.81,0,0,1,3.035-.013Zm85.574-71.738.75.23c1.461.453,1.7,2.41,1.518,3.927-.77,6.286-4.677,12.507-10.7,14.46l-.215.073a10.113,10.113,0,0,0-6.564,9.657,5.07,5.07,0,0,1-5.737-4.28c-.055-.532.1-1.222.63-1.3a8.332,8.332,0,0,0,6.63-10.9c-.159-.469-.359-.938-.561-1.408-.572-1.337-1.147-2.678-.745-4.025.918.085,1.092,1.343.995,2.259l-.01.111c-.074.9.085,2.062.962,2.182a13.353,13.353,0,0,0,.817-4.284c.15-1.861.3-3.7,1.366-5.186a6.813,6.813,0,0,1,5.5-2.5A17.891,17.891,0,0,1,173.473,367.069ZM41.441,473.04l.188-.218a1.489,1.489,0,0,1,1.535,2.059c-.334.6.693,1.2,1.267.818a2.38,2.38,0,0,0,.753-1.853c.577-.181,1.077.48,1.186,1.076.029.157.047.319.065.482a2.246,2.246,0,0,0,.386,1.248c.389.464,1.418.224,1.25-.357-.252-.867.772-1.574,1.665-1.7.215-.031.437-.049.659-.067a3.151,3.151,0,0,0,1.922-.572l.077-.061c.649-.461,1.453.391,1.942,1.147l.228.366a7.013,7.013,0,0,0,4.882,3.115c.387.052.19.655-.094.923l-6.661,6.274c-.323.3-.846.088-1.225-.144a55.825,55.825,0,0,1-10.838-8.66C39.608,475.868,40.472,474.2,41.441,473.04ZM99.7,484.716c-.192.791-.738,1.677-1.55,1.617a15.359,15.359,0,0,0-5.808.69,2.132,2.132,0,0,0-.847-2.146,1.677,1.677,0,0,0,.417,2.259l-1.862,1.84-.892-2.049c-.44.117-.452.656-.423,1.151l.022.307a2.481,2.481,0,1,1-4.951.334c-.093-1.413.989-2.6,2-3.6l7.145-7.075a.8.8,0,0,1,.532-.276.9.9,0,0,1,.57.337l2.788,2.814c.541.546.2,1.381-.134,2.194-.343.837-.677,1.652-.029,2.106a1.577,1.577,0,0,0,1.4-1.093,6.086,6.086,0,0,0,.274-.925,6.37,6.37,0,0,1,.26-.891,1.608,1.608,0,0,1,1.373-1.13c.631.013,1.119.915.631,1.316a2.994,2.994,0,0,0-.814,1.8C99.761,484.439,99.731,484.579,99.7,484.716Zm-48.855,3.129a51.527,51.527,0,0,1-16.531-14.036c.581-.551,1.455.034,2.017.658l.139.163A49.34,49.34,0,0,0,51.9,487.283.758.758,0,0,1,50.842,487.845Zm30.8-1.316a83.48,83.48,0,0,1,9.206-10.18c.518-.485,1.594-.813,1.725-.115Q86.74,481.8,81.429,487.89C81.044,487.556,81.335,486.933,81.644,486.529Zm-21.366-9.1a10.67,10.67,0,0,1-4.912-3.607c-.467-.619-.761-1.695-.054-2.013.559-.251,1.1.277,1.485.789l.292.4a9.955,9.955,0,0,0,5.039,3.5,1.13,1.13,0,0,1-.964,1.091A1.978,1.978,0,0,1,60.277,477.432Zm95.269-107.674a1.654,1.654,0,0,1,1.519,1.871l.022.013a3.213,3.213,0,0,1-.234,1.942A4.574,4.574,0,0,1,155.546,369.758Zm17.387.022c.115-.01.236-.021.359-.022a3.305,3.305,0,0,1,.5.052c.452.07.83.129.473-.43-.489-.767-1.921-.853-2.156.025C172.173,369.848,172.515,369.817,172.934,369.78Zm1.153,3.79c.007-.026.014-.053.021-.079.349-1.319.147-2.36-.814-2.36-.371.028-.937,1.917-.883,2.489s.7,1.1,1.2.818A1.289,1.289,0,0,0,174.086,373.57Zm-6.339-.4a3.084,3.084,0,0,1-.173-3.252.971.971,0,0,1,.336-.38.8.8,0,0,1,1.044.477,2.314,2.314,0,0,1,.019,1.281S168.416,374.1,167.747,373.169Zm141.945.028a104.565,104.565,0,0,0-37.539-2.227,35.131,35.131,0,0,0,2.757-16.128c-3.26,2.285-8.612-.4-8.736-4.375s5.052-6.986,8.447-4.907c.9.55,1.889-.592,2.25-1.583a15.78,15.78,0,0,0,.033-10.571c-.469-1.319,1.521-2.034,2.921-2.007l11.879.235a4.254,4.254,0,0,0,2.326-.4,1.469,1.469,0,0,0,.568-2.035c-2.056-2.551.307-7.116,3.576-6.91s5.043,5.03,2.684,7.3c-.441.424.414.969,1.025.984l15.533.357c3.089.071,5.272,3.363,5.4,6.45.106,2.613-.821,5.115-1.738,7.587l-.239.645-.254.7a52.1,52.1,0,0,0-2.56,24.221c.21,1.585-1.249,2.995-2.811,3.338a9.2,9.2,0,0,1-4.176-.343Z" transform="translate(9159.735 10339.855)" fill="#00160a" fill-rule="evenodd"/>
    <path id="Path_157" data-name="Path 157" d="M184.255,261.8a1.389,1.389,0,0,1,1.794-.9c.705.251,1.334,1.263.818,1.835C186.05,263.633,184.036,263.217,184.255,261.8Z" transform="translate(9119.608 10309.086)" fill="#ffb61d" fill-rule="evenodd"/>
    <path id="Path_158" data-name="Path 158" d="M594.174,513.312c-.461.387-1.386.527-1.471-.069a13.087,13.087,0,0,0,3.506-6.729c.587-.157.757.778.61,1.368C596.323,509.87,595.743,511.995,594.174,513.312Z" transform="translate(9016.646 10247.158)" fill="#00160a" fill-rule="evenodd"/>
    <path id="Path_159" data-name="Path 159" d="M63.136,223.957c-.018.59-.913.556-1.455.32a.888.888,0,0,1,1.385-.309Z" transform="translate(9150.502 10318.429)"/>
    <path id="Path_160" data-name="Path 160" d="M404.6,438.822c-.624.555-1.672-.293-1.58-1.123a2.851,2.851,0,0,1,1.532-1.871,18.322,18.322,0,0,1,8.437-2.782c.08,1.138-1.395,1.608-2.515,1.826a15.56,15.56,0,0,0-6.549,2.978,1.485,1.485,0,0,1,.673.97Z" transform="translate(9064.461 10265.672)" fill="#00160a" fill-rule="evenodd"/>
    <path id="Path_161" data-name="Path 161" d="M413.621,441.442q-2.1,1.013-4.271,1.871c.164.61,1.04.589,1.635.375s1.375-.441,1.761.061a3.127,3.127,0,0,1-4.643.446c-.541-.556-1.52-.19-2.218-.527-1-.482-.813-1.992-.224-2.933a6.636,6.636,0,0,1,5.884-3.043c.881.051,1.933.485,1.992,1.366a9.43,9.43,0,0,0-7.445,3.011c1.06.82,2.58.208,3.775-.4S412.639,440.53,413.621,441.442Z" transform="translate(9063.917 10264.504)" fill="#00160a" fill-rule="evenodd"/>
    <path id="Path_162" data-name="Path 162" d="M219.192,453.187a2.7,2.7,0,0,1,1.122,2.324,2.227,2.227,0,0,1-1.7,2.258c-.492.159-1.174.037-1.3-.464C220.87,456.578,219.562,455.026,219.192,453.187Z" transform="translate(9111.272 10260.596)" fill="#00160a" fill-rule="evenodd"/>
    <path id="Path_163" data-name="Path 163" d="M213.476,446.028a2.325,2.325,0,0,1,3.188-1.313,1.548,1.548,0,0,1,.862,1.218C216.176,445.964,215.064,445.091,213.476,446.028Z" transform="translate(9112.238 10262.791)" fill="#00160a" fill-rule="evenodd"/>
    <path id="Path_164" data-name="Path 164" d="M216.536,461.043c-1.635,1.176-7.531-4.181,0,0Z" transform="translate(9112.41 10259.024)" fill="#00160a" fill-rule="evenodd"/>
  </g>
</svg>
