<svg width="663" height="519" viewBox="0 0 663 519" fill="none" xmlns="http://www.w3.org/2000/svg">
<path d="M331.074 519C513.92 519 662.147 505.242 662.147 488.271C662.147 471.3 513.92 457.543 331.074 457.543C148.227 457.543 0 471.3 0 488.271C0 505.242 148.227 519 331.074 519Z" fill="#E5E5E5"/>
<path d="M462.521 450.726C472.23 450.726 480.084 442.936 480.084 433.306V406.689C480.084 397.059 472.23 389.268 462.521 389.268C452.813 389.268 444.958 397.059 444.958 406.689V433.306C444.958 442.936 452.813 450.726 462.521 450.726Z" stroke="#4D4D61" stroke-width="3" stroke-miterlimit="10" stroke-linecap="round" stroke-linejoin="round"/>
<path d="M462.521 450.726C472.23 450.726 480.084 442.936 480.084 433.306V406.689C480.084 397.059 472.23 389.268 462.521 389.268C452.813 389.268 444.958 397.059 444.958 406.689V433.306C444.958 442.936 452.813 450.726 462.521 450.726Z" fill="#4D4D61"/>
<path d="M449.867 439.581V412.964C449.867 403.334 457.721 395.544 467.43 395.544C471.684 395.544 475.502 397.059 478.557 399.439C475.83 393.38 469.721 389.16 462.521 389.16C452.813 389.16 444.958 396.951 444.958 406.58V433.198C444.958 438.716 447.467 443.585 451.504 446.723C450.413 444.667 449.867 442.178 449.867 439.581Z" fill="#56566D"/>
<path d="M462.303 396.301C467.664 396.301 472.012 394.752 472.012 392.839C472.012 390.927 467.664 389.377 462.303 389.377C456.941 389.377 452.594 390.927 452.594 392.839C452.594 394.752 456.941 396.301 462.303 396.301Z" fill="#4D4D61"/>
<path d="M462.521 392.839C466.121 392.839 469.066 389.918 469.066 386.347V356.376C469.066 353.346 466.557 350.858 463.503 350.858H461.648C458.594 350.858 456.085 353.346 456.085 356.376V386.347C455.976 389.918 458.921 392.839 462.521 392.839Z" fill="#4D4D61"/>
<path d="M462.521 392.839C466.121 392.839 469.066 389.918 469.066 386.347V356.268C469.066 353.238 466.666 350.858 463.612 350.858H461.539C458.485 350.858 456.085 353.238 456.085 356.268V386.347C455.976 389.918 458.921 392.839 462.521 392.839Z" stroke="#4D4D61" stroke-width="3" stroke-miterlimit="10" stroke-linecap="round" stroke-linejoin="round"/>
<path d="M325.074 127.75H306.42C302.93 127.75 300.093 124.936 300.093 121.474C300.093 118.012 302.93 115.198 306.42 115.198H314.274C320.492 115.198 325.51 110.221 325.51 104.054C325.51 97.8865 320.492 92.9094 314.274 92.9094H289.621C288.639 92.9094 287.767 92.0438 287.767 91.07C287.767 90.0962 288.639 89.2306 289.621 89.2306H292.348C293.439 89.2306 294.312 88.365 294.312 87.283C294.312 86.201 293.439 85.3354 292.348 85.3354H273.04C271.731 85.3354 270.64 86.4174 270.64 87.7158C270.64 89.0142 271.731 90.0962 273.04 90.0962H280.567C282.749 90.0962 284.603 91.9355 284.603 94.0995C284.603 96.2635 282.749 98.1029 280.567 98.1029H276.967C271.84 98.1029 267.586 102.215 267.586 107.408C267.586 112.602 271.731 116.713 276.967 116.713H284.603C286.349 116.713 287.767 118.12 287.767 119.851C287.767 121.582 286.349 122.989 284.603 122.989H281.658C278.276 122.989 275.549 125.694 275.549 129.048C275.549 132.402 278.276 135.107 281.658 135.107H321.474C323.656 135.107 325.51 136.947 325.401 139.111L325.292 142.14H333.255V135.865C333.037 131.32 329.437 127.75 325.074 127.75ZM299.221 104.27C299.221 103.297 299.984 102.431 301.075 102.431H311.875C312.856 102.431 313.729 103.188 313.729 104.27C313.729 105.244 312.965 106.11 311.875 106.11H301.075C299.984 106.002 299.221 105.244 299.221 104.27Z" fill="#E5E5E5"/>
<path d="M267.259 84.9026H263.986C262.786 84.9026 261.804 83.9288 261.804 82.7386C261.804 81.5484 262.786 80.5746 263.986 80.5746H267.259C268.459 80.5746 269.44 81.5484 269.44 82.7386C269.44 83.9288 268.459 84.9026 267.259 84.9026Z" fill="#E5E5E5"/>
<path d="M529.827 328.46L525.245 320.994C524.263 319.371 524.809 317.207 526.445 316.125C528.081 315.152 530.263 315.693 531.354 317.316L535.935 324.781C536.917 326.404 536.372 328.568 534.736 329.65C532.99 330.732 530.808 330.191 529.827 328.46Z" fill="#4D4D61"/>
<path d="M538.554 325.647L531.136 320.994C529.499 319.912 528.954 317.748 530.045 316.125C531.136 314.502 533.317 313.961 534.954 315.043L542.371 319.696C544.008 320.778 544.553 322.942 543.462 324.565C542.481 326.188 540.299 326.621 538.554 325.647Z" fill="#4D4D61"/>
<path d="M544.553 319.804L535.826 318.614C533.863 318.398 532.554 316.558 532.772 314.611C532.99 312.663 534.845 311.365 536.808 311.581L545.535 312.771C547.499 312.988 548.808 314.827 548.589 316.775C548.262 318.722 546.517 320.021 544.553 319.804Z" fill="#4D4D61"/>
<path d="M547.608 312.663L538.881 313.853C536.917 314.178 535.172 312.771 534.845 310.824C534.517 308.876 535.935 307.145 537.899 306.82L546.626 305.63C548.589 305.305 550.335 306.712 550.662 308.66C550.88 310.607 549.571 312.338 547.608 312.663Z" fill="#4D4D61"/>
<path d="M548.917 305.305L540.517 307.902C538.663 308.443 536.699 307.469 536.045 305.522C535.499 303.682 536.481 301.735 538.444 301.086L546.844 298.489C548.698 297.948 550.662 298.922 551.317 300.869C551.753 302.817 550.771 304.764 548.917 305.305Z" fill="#4D4D61"/>
<path d="M549.135 297.732L540.953 300.869C539.099 301.519 537.026 300.653 536.372 298.814C535.717 296.974 536.59 294.918 538.444 294.269L546.626 291.131C548.48 290.482 550.553 291.348 551.207 293.187C551.862 295.027 550.989 296.974 549.135 297.732Z" fill="#4D4D61"/>
<path d="M548.917 290.157L541.063 294.161C539.317 295.026 537.135 294.377 536.263 292.646C535.39 290.915 536.045 288.751 537.79 287.885L545.644 283.882C547.389 283.016 549.571 283.665 550.444 285.397C551.316 287.128 550.662 289.292 548.917 290.157Z" fill="#4D4D61"/>
<path d="M548.262 285.072L540.408 289.076C538.663 289.941 536.481 289.292 535.608 287.561C534.736 285.829 535.39 283.666 537.135 282.8L544.99 278.797C546.735 277.931 548.917 278.58 549.789 280.311C550.662 282.043 550.007 284.207 548.262 285.072Z" fill="#4D4D61"/>
<path d="M338.819 148.74C330.855 148.74 324.419 155.124 324.419 163.023C324.419 170.921 330.855 177.305 338.819 177.305C346.782 177.305 353.218 170.921 353.218 163.023C353.218 155.124 346.782 148.74 338.819 148.74ZM338.819 171.787C334.019 171.787 330.092 167.892 330.092 163.131C330.092 158.37 334.019 154.475 338.819 154.475C343.618 154.475 347.545 158.37 347.545 163.131C347.545 167.892 343.618 171.787 338.819 171.787Z" stroke="#4D4D61" stroke-width="3" stroke-miterlimit="10" stroke-linecap="round" stroke-linejoin="round"/>
<path d="M350.709 155.557H349.182H338.273C335.001 155.557 332.819 159.019 334.455 161.941C336.746 166.269 341.437 169.298 346.782 169.298H348.2V185.528H363.145V167.784C363.035 161.075 357.472 155.557 350.709 155.557Z" fill="#F7E3CB"/>
<path d="M350.709 155.557H349.182H344.491C351.363 155.557 356.927 161.075 356.927 167.892V185.637H363.145V167.892C363.035 161.075 357.472 155.557 350.709 155.557Z" fill="#EDD6BC"/>
<path d="M350.709 155.557H349.182H336.637C334.346 155.557 332.819 157.721 333.473 159.777C335.328 165.295 340.564 169.298 346.673 169.298H348.091V185.528H363.035V167.784C363.035 161.075 357.472 155.557 350.709 155.557Z" stroke="#4D4D61" stroke-width="3" stroke-miterlimit="10" stroke-linecap="round" stroke-linejoin="round"/>
<path d="M308.711 183.473H329.655C334.237 183.473 338.055 179.794 338.055 175.141V142.789H300.311V175.141C300.311 179.686 304.02 183.473 308.711 183.473Z" fill="#FFD680"/>
<path d="M300.311 171.787H305.22C311.984 171.787 317.329 166.377 317.329 159.777V155.124L319.838 157.072" stroke="#4D4D61" stroke-width="2" stroke-miterlimit="10" stroke-linecap="round" stroke-linejoin="round"/>
<path d="M327.037 142.681V175.033C327.037 179.577 323.328 183.364 318.638 183.364H329.546C334.128 183.364 337.946 179.686 337.946 175.033V142.681H327.037Z" fill="#EABD6C"/>
<path d="M308.711 183.473H329.655C334.237 183.473 338.055 179.794 338.055 175.141V142.789H300.311V175.141C300.311 179.686 304.02 183.473 308.711 183.473Z" stroke="#4D4D61" stroke-width="3" stroke-miterlimit="10" stroke-linecap="round" stroke-linejoin="round"/>
<path d="M401.652 186.719L407.106 197.863L415.178 192.345L401.652 186.719Z" fill="#CA4361"/>
<path d="M401.652 186.719L407.106 197.863L415.178 192.345L401.652 186.719Z" stroke="#4D4D61" stroke-width="2" stroke-miterlimit="10" stroke-linecap="round" stroke-linejoin="round"/>
<path d="M420.188 441.118L435.108 431.926L372.892 332.565L357.973 341.757L420.188 441.118Z" fill="#F7E3CB"/>
<path d="M420.188 441.118L435.108 431.926L372.892 332.565L357.973 341.757L420.188 441.118Z" stroke="#4D4D61" stroke-width="3" stroke-miterlimit="10" stroke-linecap="round" stroke-linejoin="round"/>
<path d="M195.372 411.882L310.893 319.696L322.019 333.005L206.498 425.299L195.372 411.882Z" fill="#F7E3CB"/>
<path d="M208.025 401.82L218.607 415.669L229.079 407.554L218.498 393.38L208.025 401.82Z" fill="#EDD6BC"/>
<path d="M195.372 411.882L310.893 319.696L322.019 333.005L206.498 425.299L195.372 411.882Z" stroke="#4D4D61" stroke-width="3" stroke-miterlimit="10" stroke-linecap="round" stroke-linejoin="round"/>
<path d="M443.977 186.719L435.686 177.197C432.196 173.194 426.087 172.761 422.051 176.115C417.905 179.577 417.469 185.745 420.96 189.748L429.25 199.27C442.34 214.309 440.704 237.14 425.432 250.124C410.269 263.108 387.252 261.485 374.162 246.337C368.49 239.736 365.326 231.405 365.326 222.749V183.581H345.909V222.857C345.909 236.166 350.709 248.933 359.436 258.996C379.616 282.151 414.851 284.748 438.195 264.731C461.539 244.93 464.048 209.873 443.977 186.719Z" stroke="#4D4D61" stroke-width="3" stroke-miterlimit="10" stroke-linecap="round" stroke-linejoin="round"/>
<path d="M412.669 192.345C412.669 192.345 425.214 204.788 433.286 216.041C441.25 227.185 447.14 242.009 447.14 244.93C451.722 247.851 452.922 249.474 453.685 248.717C454.449 247.96 454.449 243.632 454.449 239.845C454.449 235.949 418.996 188.125 412.669 192.345Z" fill="#CA4361"/>
<path d="M412.669 192.345C412.669 192.345 425.214 204.788 433.286 216.041C441.25 227.185 447.14 242.009 447.14 244.93C451.722 247.851 452.922 249.474 453.685 248.717C454.449 247.96 454.449 243.632 454.449 239.845C454.449 235.949 418.996 188.125 412.669 192.345Z" stroke="#4D4D61" stroke-width="2" stroke-miterlimit="10" stroke-linecap="round" stroke-linejoin="round"/>
<path d="M450.849 443.585L365.654 469.228C364.126 469.661 362.49 468.795 361.945 467.281L361.836 467.064C361.399 465.549 362.272 463.926 363.799 463.385L448.995 437.742C450.522 437.309 452.158 438.175 452.703 439.69L452.813 439.906C453.249 441.529 452.376 443.152 450.849 443.585Z" fill="#595D5C"/>
<path d="M450.849 443.585L365.654 469.228C364.126 469.661 362.49 468.795 361.945 467.281L361.836 467.064C361.399 465.549 362.272 463.926 363.799 463.385L448.995 437.742C450.522 437.309 452.158 438.175 452.703 439.69L452.813 439.906C453.249 441.529 452.376 443.152 450.849 443.585Z" stroke="#4D4D61" stroke-width="3" stroke-miterlimit="10" stroke-linecap="round" stroke-linejoin="round"/>
<path d="M437.213 421.837L436.886 421.945C435.032 425.191 431.105 428.112 426.087 429.627C422.378 430.709 418.669 430.925 415.615 430.168C412.887 429.519 410.051 429.411 407.324 430.168L373.726 439.473C369.69 440.555 366.526 443.585 364.89 447.805L361.29 457.11C360.09 460.247 362.817 463.818 365.763 462.953L448.231 438.067L444.74 426.814C443.649 423.243 440.268 421.079 437.213 421.837Z" fill="#9B8462"/>
<path d="M364.89 447.913L364.344 449.428C367.181 451.592 370.999 452.457 374.817 451.375L426.305 435.794C431.214 434.28 434.268 429.952 434.377 425.083C432.305 427.03 429.468 428.653 426.196 429.627C422.487 430.709 418.778 430.925 415.724 430.168C412.996 429.519 410.16 429.411 407.433 430.168L373.835 439.473C369.69 440.555 366.526 443.585 364.89 447.913Z" fill="#E1C885"/>
<path d="M437.213 421.837L436.886 421.945C435.032 425.191 431.105 428.112 426.087 429.627C422.378 430.709 418.669 430.925 415.615 430.168C412.887 429.519 410.051 429.411 407.324 430.168L373.726 439.473C369.69 440.555 366.526 443.585 364.89 447.805L361.29 457.11C360.09 460.247 362.817 463.818 365.763 462.953L448.231 438.067L444.74 426.814C443.649 423.243 440.268 421.079 437.213 421.837Z" stroke="#4D4D61" stroke-width="3" stroke-miterlimit="10" stroke-linecap="round" stroke-linejoin="round"/>
<path d="M407.324 439.906L413.106 429.735L408.742 429.843L407.324 439.906Z" stroke="#4D4D61" stroke-width="3" stroke-miterlimit="10" stroke-linecap="round" stroke-linejoin="round"/>
<path d="M391.07 164.321C437.541 193.102 469.503 239.52 480.193 292.105H495.247C486.738 238.438 456.085 190.614 410.378 160.101" fill="#F7E3CB"/>
<path d="M481.72 348.153L493.829 340.362H432.632L444.74 348.153C456.085 355.402 470.484 355.402 481.72 348.153Z" stroke="#4D4D61" stroke-width="3" stroke-miterlimit="10" stroke-linecap="round" stroke-linejoin="round"/>
<path d="M481.72 348.153L493.829 340.362H432.632L444.74 348.153C456.085 355.402 470.484 355.402 481.72 348.153Z" fill="#4D4D61"/>
<path d="M406.888 161.724C419.433 156.531 428.377 144.196 428.377 129.805V118.12H430.777C439.068 118.12 445.831 111.412 445.831 103.188C445.831 94.9652 440.05 87.283 431.65 87.283L427.614 87.6076L428.268 69.2136C428.268 50.0623 412.669 34.5897 393.361 34.5897C374.053 34.5897 358.454 50.0623 358.454 69.2136V88.1486H348.091C344.927 88.1486 342.309 90.7454 342.309 93.8832C342.309 102.323 349.182 109.248 357.799 109.248H358.563V129.805C358.563 148.091 372.962 163.131 391.07 164.321" fill="#F7E3CB"/>
<path d="M518.046 319.48H400.343C399.906 319.48 399.579 319.48 399.143 319.588C390.089 320.237 382.998 328.136 383.653 337.441C384.198 345.772 391.179 352.589 399.688 353.022C403.07 353.13 406.233 352.372 408.851 350.858C419.978 344.474 432.414 340.579 445.395 340.579H518.046C523.827 340.579 528.518 335.926 528.518 330.191C528.627 324.24 523.827 319.48 518.046 319.48Z" fill="#CA4361"/>
<path d="M401.761 343.175C401.106 333.87 408.197 326.08 417.251 325.322C417.578 325.322 418.014 325.214 418.451 325.214H527.536C525.791 321.752 522.3 319.48 518.155 319.48H400.343C399.906 319.48 399.579 319.48 399.143 319.588C390.089 320.237 382.998 328.136 383.653 337.441C384.198 345.772 391.179 352.589 399.688 353.022C401.652 353.13 403.506 352.913 405.251 352.372C403.288 349.667 401.979 346.53 401.761 343.175Z" fill="#D35375"/>
<path d="M518.046 319.48H400.343C399.906 319.48 399.579 319.48 399.143 319.588C390.089 320.237 382.998 328.136 383.653 337.441C384.198 345.772 391.179 352.589 399.688 353.022C403.07 353.13 406.233 352.372 408.851 350.858C419.978 344.474 432.414 340.579 445.395 340.579H518.046C523.827 340.579 528.518 335.926 528.518 330.191C528.627 324.24 523.827 319.48 518.046 319.48Z" stroke="#4D4D61" stroke-width="3" stroke-miterlimit="10" stroke-linecap="round" stroke-linejoin="round"/>
<path d="M504.497 460.013L507.47 452.57L475.017 439.82L472.044 447.265L504.497 460.013Z" fill="#4D4D61"/>
<path d="M423.578 459.923L420.632 452.565L449.322 441.313C451.394 440.555 453.685 441.529 454.558 443.585C455.322 445.641 454.34 447.913 452.267 448.778L423.578 459.923Z" fill="#4D4D61"/>
<path d="M445.395 106.218L440.377 132.835C438.304 143.547 428.378 150.904 417.469 149.606H417.36L430.232 95.8307L445.395 106.218Z" fill="#A3886C"/>
<path d="M445.395 106.218L440.377 132.835C438.304 143.547 428.378 150.904 417.469 149.606H417.36L430.232 95.8307L445.395 106.218Z" stroke="#4D4D61" stroke-width="3" stroke-miterlimit="10" stroke-linecap="round" stroke-linejoin="round"/>
<path d="M358.454 111.087V108.598C358.454 105.136 355.4 102.539 352.018 103.188L347.982 104.595L358.454 111.087Z" fill="#EDD6BC"/>
<path d="M430.232 88.1485H428.268V69.6464C419.869 82.5222 406.779 99.5095 406.779 99.5095V121.582V122.772C406.779 139.76 392.925 153.501 375.798 153.501H367.835C374.162 160.21 383.216 164.429 393.252 164.429C412.56 164.429 428.159 148.957 428.159 129.805V118.12H430.559C439.177 118.12 446.049 110.979 445.613 102.431C445.395 94.3159 438.304 88.1485 430.232 88.1485Z" fill="#EDD6BC"/>
<path d="M410.378 160.101C421.069 154.15 428.377 142.898 428.377 129.805V118.12H430.777C439.068 118.12 445.831 111.412 445.831 103.188C445.831 94.9652 440.05 87.283 431.65 87.283L427.614 87.6076L428.268 69.2136C428.268 50.0623 412.669 34.5897 393.361 34.5897C374.053 34.5897 358.454 50.0623 358.454 69.2136V88.1486H348.091C344.927 88.1486 342.309 90.7454 342.309 93.8832C342.309 102.323 349.182 109.248 357.799 109.248H358.563V129.805C358.563 148.091 372.962 163.131 391.07 164.321" stroke="#4D4D61" stroke-width="3" stroke-miterlimit="10" stroke-linecap="round" stroke-linejoin="round"/>
<path d="M372.09 82.7386C373.295 82.7386 374.271 81.7691 374.271 80.5746C374.271 79.379 373.295 78.4106 372.09 78.4106C370.885 78.4106 369.908 79.379 369.908 80.5746C369.908 81.7691 370.885 82.7386 372.09 82.7386Z" stroke="#4D4D61" stroke-width="2" stroke-miterlimit="10"/>
<path d="M392.707 102.647V120.176C392.707 131.32 383.543 140.409 372.308 140.409C364.672 140.409 358.563 134.242 358.563 126.776" stroke="#4D4D61" stroke-width="2" stroke-miterlimit="10" stroke-linecap="round" stroke-linejoin="round"/>
<path d="M390.743 101.674L394.67 103.729" stroke="#4D4D61" stroke-width="2" stroke-miterlimit="10" stroke-linecap="round" stroke-linejoin="round"/>
<path d="M376.562 60.233L372.635 67.807L388.016 77.1122L388.998 70.6202L376.562 60.233Z" fill="#B0977A"/>
<path d="M376.562 60.233L375.362 62.6134C379.616 63.8036 382.78 67.4824 382.78 72.0268C382.78 72.676 382.671 73.3252 382.562 73.8662L388.016 77.2204L388.998 70.7284L376.562 60.233Z" fill="#A3886C"/>
<path d="M376.562 60.233L372.635 67.807L388.016 77.1122L388.998 70.6202L376.562 60.233Z" stroke="#4D4D61" stroke-width="2" stroke-miterlimit="10" stroke-linecap="round" stroke-linejoin="round"/>
<path d="M451.504 50.1704C455.212 52.4426 456.849 53.0918 460.448 53.0918C454.231 44.4358 452.703 27.4485 443.431 16.7367C439.286 11.8677 434.595 6.56592 425.65 3.86093C410.269 -0.683459 395.761 4.40192 393.907 5.37572C382.671 11.3267 371.435 24.9599 374.708 36.6455C375.035 37.9439 373.944 38.8095 374.708 39.7833C387.034 30.4781 406.451 33.2913 415.615 45.8425C422.923 55.7968 420.96 72.0268 413.869 81.332C411.797 83.3878 410.924 90.3126 407.869 97.2373L416.051 92.2601C424.45 87.1748 437.104 88.6896 444.086 95.6143C445.286 97.6701 446.049 99.8341 446.377 101.998C447.249 101.457 448.34 100.808 449.649 99.7259C457.721 93.0175 459.14 82.8468 459.467 80.25C461.867 64.8856 453.249 52.118 451.504 50.1704Z" fill="#B0977A"/>
<path d="M460.558 53.2C454.34 44.5441 452.813 27.5567 443.54 16.8449C439.941 12.6251 435.904 7.97254 428.923 5.15935C436.559 13.9235 441.25 25.3927 441.25 37.9439C441.25 57.6362 429.796 74.6236 413.106 82.8468C411.578 85.7682 410.597 91.6109 407.979 97.4537L416.16 92.4765C424.56 87.3911 437.213 88.9059 444.195 95.8307C445.395 97.8865 446.158 100.051 446.486 102.215C447.358 101.674 448.449 101.024 449.758 99.9423C457.83 93.234 459.249 83.0632 459.576 80.4664C461.758 64.9938 453.031 52.118 451.394 50.2786C455.322 52.5508 456.958 53.2 460.558 53.2Z" fill="#A3886C"/>
<path d="M451.504 50.1704C455.212 52.4426 456.849 53.0918 460.448 53.0918C454.231 44.4358 452.703 27.4485 443.431 16.7367C439.286 11.8677 434.595 6.56592 425.65 3.86093C410.269 -0.683459 395.761 4.40192 393.907 5.37572C382.671 11.3267 371.435 24.9599 374.708 36.6455C375.035 37.9439 373.944 38.8095 374.708 39.7833C387.034 30.4781 406.451 33.2913 415.615 45.8425C422.923 55.7968 420.96 72.0268 413.869 81.332C411.797 83.3878 410.924 90.3126 407.869 97.2373L420.196 89.8797C428.377 84.9025 439.177 87.4993 444.086 95.7225C445.286 97.7783 446.049 99.9423 446.377 102.106C447.249 101.565 448.34 100.916 449.649 99.8341C457.721 93.1257 459.14 82.955 459.467 80.3582C461.867 64.8856 453.249 52.118 451.504 50.1704Z" stroke="#4D4D61" stroke-width="3" stroke-miterlimit="10" stroke-linecap="round" stroke-linejoin="round"/>
<path d="M423.796 97.9947L436.777 107.192" stroke="#4D4D61" stroke-width="2" stroke-miterlimit="10" stroke-linecap="round" stroke-linejoin="round"/>
<path d="M435.141 95.8307L425.869 108.706" stroke="#4D4D61" stroke-width="2" stroke-miterlimit="10" stroke-linecap="round" stroke-linejoin="round"/>
<path d="M360.963 105.136L362.163 106.218C362.163 106.218 364.344 103.946 367.181 105.136C366.417 103.621 360.09 102.864 360.963 105.136Z" stroke="#4D4D61" stroke-width="2" stroke-miterlimit="10" stroke-linecap="round" stroke-linejoin="round"/>
<path d="M391.07 164.321C437.541 193.102 469.503 239.52 480.193 292.105H495.247C486.738 238.438 456.085 190.614 410.378 160.101" stroke="#4D4D61" stroke-width="3" stroke-miterlimit="10" stroke-linecap="round" stroke-linejoin="round"/>
<path d="M336.159 315.957L402.991 422.671L425.324 408.91L358.492 302.196L336.159 315.957Z" fill="#475C80"/>
<path opacity="0.57" d="M349.4 337.874L397.506 413.938C400.561 411.99 409.833 416.21 407.869 413.181L363.908 347.936C361.945 344.907 353.545 337.008 350.382 338.956L349.4 337.874Z" fill="#6987AF"/>
<path d="M347.327 333.762C347.327 333.762 367.944 327.378 375.035 328.677C367.835 314.935 365.217 312.23 365.217 312.23L337.619 321.103L347.327 333.762Z" fill="#4D4D61"/>
<path d="M336.159 315.957L402.991 422.671L425.324 408.91L358.492 302.196L336.159 315.957Z" stroke="#4D4D61" stroke-width="3" stroke-miterlimit="10" stroke-linecap="round" stroke-linejoin="round"/>
<path d="M296.275 324.457L212.171 393.272L228.861 413.397L305.657 350.533C330.31 330.3 361.399 319.263 393.361 319.263H488.593C495.792 319.263 501.683 313.42 501.683 306.279V293.295H383.871C351.909 293.187 320.929 304.223 296.275 324.457Z" fill="#475C80"/>
<path opacity="0.57" d="M217.407 388.944L224.825 399.223L312.638 321.211L308.166 315.693C304.02 318.398 300.093 321.319 296.275 324.457L217.407 388.944Z" fill="#6987AF"/>
<path opacity="0.57" d="M364.89 299.895L463.176 301.194C468.303 301.194 485.538 298.164 485.538 293.079H384.089C373.617 293.079 340.673 298.164 328.565 304.656C325.401 306.387 350.163 299.895 364.89 299.895Z" fill="#6987AF"/>
<path d="M296.275 324.457L212.171 393.272L228.861 413.397L305.657 350.533C330.31 330.3 361.399 319.263 393.361 319.263H488.593C495.792 319.263 501.683 313.42 501.683 306.279V293.295H383.871C351.909 293.187 320.929 304.223 296.275 324.457Z" stroke="#4D4D61" stroke-width="3" stroke-miterlimit="10" stroke-linecap="round" stroke-linejoin="round"/>
<path d="M501.792 292.105C494.265 243.415 468.848 198.945 430.996 167.459L407.106 183.905C441.031 211.388 464.485 249.691 473.43 292.105H501.792Z" fill="#E5E5E5"/>
<path d="M473.43 292.105H485.429C476.157 247.31 451.722 206.735 416.487 177.413L407.106 183.905C441.031 211.28 464.485 249.691 473.43 292.105Z" fill="white"/>
<path d="M501.792 292.105C494.265 243.415 468.848 198.945 430.996 167.459L407.106 183.905C441.031 211.388 464.485 249.691 473.43 292.105H501.792Z" stroke="#4D4D61" stroke-width="3" stroke-miterlimit="10" stroke-linecap="round" stroke-linejoin="round"/>
<path d="M327.474 217.014C327.474 217.014 318.42 224.48 319.183 209.116C319.511 202.083 328.783 202.299 328.783 202.299L329.765 208.899L327.474 217.014Z" fill="#B0977A"/>
<path d="M327.474 217.014C327.474 217.014 318.42 224.48 319.183 209.116C319.511 202.083 328.783 202.299 328.783 202.299L329.765 208.899L327.474 217.014Z" stroke="#4D4D61" stroke-width="3" stroke-miterlimit="10" stroke-linecap="round" stroke-linejoin="round"/>
<path d="M354.2 200.352C349.836 206.411 343.073 210.306 335.546 211.063C329.874 211.604 329.983 198.621 321.147 213.985C317.656 215.824 313.511 212.145 311.656 209.981C311.111 209.332 311.111 208.358 311.765 207.817C313.402 206.411 316.456 203.057 317.874 197.214C318.856 191.588 320.71 187.476 325.183 189.856C329.11 191.912 353.545 188.991 354.2 200.352Z" fill="#EDD6BC"/>
<path d="M354.2 200.352C349.836 206.411 343.073 210.306 335.546 211.063C329.874 211.604 329.983 198.621 321.147 213.985C317.656 215.824 313.62 212.145 311.656 210.09C311.002 209.44 311.111 208.358 311.765 207.817C313.511 206.303 316.456 203.057 317.765 197.214C318.747 191.588 320.601 187.476 325.074 189.856C329.11 191.912 353.545 188.991 354.2 200.352Z" stroke="#4D4D61" stroke-width="3" stroke-miterlimit="10" stroke-linecap="round" stroke-linejoin="round"/>
<path d="M357.363 213.119C357.363 213.119 354.2 204.03 345.691 199.702C344.818 203.057 340.455 206.411 336.201 207.601L338.6 211.713C340.455 215.067 338.928 219.287 335.328 220.477C332.164 221.559 328.783 220.044 327.474 217.014L322.129 200.893C322.129 200.893 332.601 197.106 335.764 193.86C337.946 191.696 343.073 183.581 343.073 183.581C343.073 183.581 352.563 185.853 358.999 192.237C364.344 197.538 369.144 206.519 369.144 206.519L357.363 213.119Z" fill="#EDD6BC"/>
<path d="M333.801 220.044L328.455 203.922C328.455 203.922 338.928 200.135 342.091 196.889C344.273 194.725 349.4 186.61 349.4 186.61C349.4 186.61 350.818 186.935 353 187.801C347.873 184.771 342.964 183.581 342.964 183.581C342.964 183.581 337.837 191.696 335.655 193.86C332.383 196.997 322.019 200.893 322.019 200.893L327.365 217.014C328.455 219.719 331.292 221.234 334.128 220.693C334.019 220.477 333.91 220.26 333.801 220.044Z" fill="#F7E3CB"/>
<path d="M352.018 202.732C351.909 203.165 351.691 203.598 351.472 204.03C355.618 208.358 357.363 213.119 357.363 213.119L361.072 211.063C359.217 208.25 356.272 204.896 352.018 202.732Z" fill="#F7E3CB"/>
<path d="M357.363 213.119C357.363 213.119 354.2 204.03 345.691 199.702C344.818 203.057 340.455 206.411 336.201 207.601L338.6 211.713C340.455 215.067 338.928 219.287 335.328 220.477C332.164 221.559 328.783 220.044 327.474 217.014L322.129 200.893C322.129 200.893 332.601 197.106 335.764 193.86C337.946 191.696 343.073 183.581 343.073 183.581C343.073 183.581 352.563 185.853 358.999 192.237C364.344 197.538 369.144 206.519 369.144 206.519L357.363 213.119Z" stroke="#4D4D61" stroke-width="3" stroke-miterlimit="10" stroke-linecap="round" stroke-linejoin="round"/>
<path d="M327.474 213.985L330.746 213.011C330.746 213.011 332.383 214.634 332.383 216.149C332.383 217.664 328.565 218.854 328.565 218.854C328.565 218.854 326.056 215.283 327.474 213.985Z" stroke="#4D4D61" stroke-width="2" stroke-miterlimit="10" stroke-linecap="round" stroke-linejoin="round"/>
<path d="M314.711 205.004L317.329 207.168C317.329 207.168 316.892 209.44 315.583 210.198C314.383 210.955 311.22 208.575 311.22 208.575C311.22 208.575 312.856 204.571 314.711 205.004Z" stroke="#4D4D61" stroke-width="2" stroke-miterlimit="10" stroke-linecap="round" stroke-linejoin="round"/>
<path d="M370.999 204.139L398.815 257.048C402.852 264.731 409.506 270.682 417.687 273.928C436.341 281.285 457.503 272.196 464.921 253.694C472.339 235.192 463.176 214.201 444.522 206.844L432.741 202.191C427.723 200.244 425.323 194.509 427.287 189.64C429.25 184.771 434.923 182.391 439.94 184.338L451.722 188.991C480.411 200.243 494.374 232.487 483.029 260.835C471.684 289.292 439.177 303.141 410.597 291.889C398.161 287.02 387.907 277.823 381.689 266.029L354.309 213.985L370.999 204.139Z" fill="#E5E5E5"/>
<path d="M378.526 218.421L370.999 204.139L354.2 213.985L361.617 228.051L378.526 218.421Z" fill="#E5E5E5"/>
<path d="M354.2 213.985L381.58 266.029C382.562 267.868 383.653 269.708 384.852 271.439C384.198 267.652 388.125 275.767 388.125 275.767L360.199 210.306L354.2 213.985Z" fill="white"/>
<path d="M378.526 218.421L370.999 204.139L354.2 213.985L361.617 228.051L378.526 218.421Z" stroke="#4D4D61" stroke-width="3" stroke-miterlimit="10" stroke-linecap="round" stroke-linejoin="round"/>
<path d="M428.705 195.807C430.668 190.938 436.341 188.558 441.359 190.506L453.14 195.158C469.939 201.758 481.72 215.608 486.302 231.73C483.247 213.119 470.703 196.457 451.831 188.991L440.05 184.338C435.032 182.391 429.468 184.771 427.396 189.64C426.196 192.561 426.523 195.807 428.159 198.296C428.159 197.43 428.377 196.673 428.705 195.807Z" fill="white"/>
<path d="M372.417 206.844L395.216 258.455C400.997 268.842 408.088 276.957 416.16 280.095C434.814 287.453 458.703 278.364 466.121 259.862C469.284 251.855 469.394 243.414 466.994 235.84C467.757 241.684 467.103 247.85 464.703 253.693C457.285 272.195 436.123 281.285 417.469 273.928C409.397 270.682 402.633 264.731 398.597 257.048L370.999 204.139" fill="white"/>
<path d="M370.999 204.139L398.815 257.048C402.852 264.731 409.506 270.682 417.687 273.928C436.341 281.285 457.503 272.196 464.921 253.694C472.339 235.192 463.176 214.201 444.522 206.844L432.741 202.191C427.723 200.244 425.323 194.509 427.287 189.64C429.25 184.771 434.923 182.391 439.94 184.338L451.722 188.991C480.411 200.243 494.374 232.487 483.029 260.835C471.684 289.292 439.177 303.141 410.597 291.889C398.161 287.02 387.907 277.823 381.689 266.029L354.309 213.985L370.999 204.139Z" stroke="#4D4D61" stroke-width="3" stroke-miterlimit="10" stroke-linecap="round" stroke-linejoin="round"/>
<path d="M431.432 164.429L413.869 194.617L394.016 181.633L423.36 161.183L431.432 164.429Z" fill="#E5E5E5"/>
<path d="M416.705 165.836L394.016 181.633L402.961 187.476C403.07 187.368 403.179 187.368 403.288 187.26C413.215 181.85 418.887 172.653 416.705 165.836Z" fill="white"/>
<path d="M431.432 164.429L413.869 194.617L394.016 181.633L423.36 161.183L431.432 164.429Z" stroke="#4D4D61" stroke-width="3" stroke-miterlimit="10" stroke-linecap="round" stroke-linejoin="round"/>
<path d="M407.215 481.563C419.023 481.563 428.596 472.068 428.596 460.356C428.596 448.643 419.023 439.149 407.215 439.149C395.406 439.149 385.834 448.643 385.834 460.356C385.834 472.068 395.406 481.563 407.215 481.563Z" fill="#56566D"/>
<path opacity="0.44" d="M394.888 470.959C394.888 459.274 404.488 449.752 416.269 449.752C420.196 449.752 423.905 450.834 427.068 452.673C423.905 444.775 416.16 439.149 407.106 439.149C395.325 439.149 385.725 448.67 385.725 460.356C385.725 468.146 389.979 474.963 396.306 478.641C395.434 476.261 394.888 473.664 394.888 470.959Z" fill="#66667C"/>
<path d="M407.215 481.563C419.023 481.563 428.596 472.068 428.596 460.356C428.596 448.643 419.023 439.149 407.215 439.149C395.406 439.149 385.834 448.643 385.834 460.356C385.834 472.068 395.406 481.563 407.215 481.563Z" stroke="#4D4D61" stroke-width="3" stroke-miterlimit="10" stroke-linecap="round" stroke-linejoin="round"/>
<path d="M407.215 470.851C413.059 470.851 417.796 466.152 417.796 460.356C417.796 454.558 413.059 449.86 407.215 449.86C401.371 449.86 396.634 454.558 396.634 460.356C396.634 466.152 401.371 470.851 407.215 470.851Z" stroke="#4D4D61" stroke-width="3" stroke-miterlimit="10" stroke-linecap="round" stroke-linejoin="round"/>
<path d="M407.215 470.851C413.059 470.851 417.796 466.152 417.796 460.356C417.796 454.558 413.059 449.86 407.215 449.86C401.371 449.86 396.634 454.558 396.634 460.356C396.634 466.152 401.371 470.851 407.215 470.851Z" fill="#4D4D61"/>
<path d="M432.086 449.86C428.487 449.86 425.214 448.346 422.705 445.749C418.778 441.637 413.324 439.149 407.215 439.149C401.215 439.149 395.87 441.529 391.943 445.532C389.216 448.237 385.725 449.86 381.907 449.86H381.798C385.943 440.014 395.761 433.089 407.215 433.089C418.669 433.089 428.487 440.014 432.632 449.86H432.086Z" fill="#CA4361"/>
<path d="M400.561 433.847C392.052 435.903 385.18 441.962 381.798 449.86H381.907C385.616 449.86 389.107 448.454 391.616 445.857C393.798 443.585 398.27 441.745 401.87 440.663C405.033 439.69 405.251 435.145 402.088 434.063C401.761 433.847 401.106 433.739 400.561 433.847Z" fill="#D35375"/>
<path d="M432.086 449.86C428.487 449.86 425.214 448.346 422.705 445.749C418.778 441.637 413.324 439.149 407.215 439.149C401.215 439.149 395.87 441.529 391.943 445.532C389.216 448.237 385.725 449.86 381.907 449.86H381.798C385.943 440.014 395.761 433.089 407.215 433.089C418.669 433.089 428.487 440.014 432.632 449.86H432.086Z" stroke="#4D4D61" stroke-width="3" stroke-miterlimit="10" stroke-linecap="round" stroke-linejoin="round"/>
<path d="M521.864 481.563C533.672 481.563 543.244 472.068 543.244 460.356C543.244 448.643 533.672 439.149 521.864 439.149C510.055 439.149 500.483 448.643 500.483 460.356C500.483 472.068 510.055 481.563 521.864 481.563Z" fill="#56566D"/>
<path opacity="0.44" d="M510.3 470.959C510.3 459.274 519.9 449.752 531.681 449.752C535.608 449.752 539.317 450.834 542.481 452.673C539.317 444.775 531.572 439.149 522.518 439.149C510.737 439.149 501.137 448.67 501.137 460.356C501.137 468.146 505.392 474.963 511.719 478.641C510.846 476.261 510.3 473.664 510.3 470.959Z" fill="#66667C"/>
<path d="M521.864 481.563C533.672 481.563 543.244 472.068 543.244 460.356C543.244 448.643 533.672 439.149 521.864 439.149C510.055 439.149 500.483 448.643 500.483 460.356C500.483 472.068 510.055 481.563 521.864 481.563Z" stroke="#4D4D61" stroke-width="3" stroke-miterlimit="10" stroke-linecap="round" stroke-linejoin="round"/>
<path d="M136.247 285.505H121.412V487.514H136.247V285.505Z" stroke="#4D4D61" stroke-width="3" stroke-miterlimit="10" stroke-linecap="round" stroke-linejoin="round"/>
<path d="M136.247 285.505H121.412V487.514H136.247V285.505Z" fill="#4D4D61"/>
<path d="M521.864 470.851C527.707 470.851 532.445 466.152 532.445 460.356C532.445 454.558 527.707 449.86 521.864 449.86C516.02 449.86 511.282 454.558 511.282 460.356C511.282 466.152 516.02 470.851 521.864 470.851Z" stroke="#4D4D61" stroke-width="3" stroke-miterlimit="10" stroke-linecap="round" stroke-linejoin="round"/>
<path d="M546.735 449.86C543.135 449.86 539.863 448.346 537.354 445.749C533.427 441.637 527.972 439.149 521.864 439.149C515.864 439.149 510.519 441.529 506.592 445.532C503.864 448.237 500.374 449.86 496.556 449.86H496.447C500.592 440.014 510.41 433.089 521.864 433.089C533.317 433.089 543.135 440.014 547.28 449.86H546.735Z" fill="#CA4361"/>
<path d="M521.864 470.851C527.707 470.851 532.445 466.152 532.445 460.356C532.445 454.558 527.707 449.86 521.864 449.86C516.02 449.86 511.282 454.558 511.282 460.356C511.282 466.152 516.02 470.851 521.864 470.851Z" fill="#4D4D61"/>
<path d="M546.735 449.86C543.135 449.86 539.863 448.346 537.354 445.749C533.427 441.637 527.972 439.149 521.864 439.149C515.864 439.149 510.519 441.529 506.592 445.532C503.864 448.237 500.374 449.86 496.556 449.86H496.447C500.592 440.014 510.41 433.089 521.864 433.089C533.317 433.089 543.135 440.014 547.28 449.86H546.735Z" stroke="#4D4D61" stroke-width="3" stroke-miterlimit="10" stroke-linecap="round" stroke-linejoin="round"/>
<path d="M372.308 265.38H52.0336C49.4156 265.38 47.343 263.324 47.343 260.727V251.963C47.343 249.366 49.4156 247.31 52.0336 247.31H372.308C374.926 247.31 376.998 249.366 376.998 251.963V260.727C376.998 263.324 374.926 265.38 372.308 265.38Z" fill="#B98C78"/>
<path d="M169.518 257.265C122.939 257.265 81.0503 260.403 52.3609 265.38H286.785C257.986 260.403 216.098 257.265 169.518 257.265Z" fill="#C9A08F"/>
<path d="M372.308 265.38H52.0336C49.4156 265.38 47.343 263.324 47.343 260.727V251.963C47.343 249.366 49.4156 247.31 52.0336 247.31H372.308C374.926 247.31 376.998 249.366 376.998 251.963V260.727C376.998 263.324 374.926 265.38 372.308 265.38Z" stroke="#4D4D61" stroke-width="3" stroke-miterlimit="10" stroke-linecap="round" stroke-linejoin="round"/>
<path d="M337.728 288.535H86.5045C80.0685 288.535 74.8324 283.341 74.8324 276.957C74.8324 270.573 80.0685 265.38 86.5045 265.38H337.728C344.164 265.38 349.4 270.573 349.4 276.957C349.4 283.341 344.164 288.535 337.728 288.535Z" stroke="#4D4D61" stroke-width="3" stroke-miterlimit="10" stroke-linecap="round" stroke-linejoin="round"/>
<path d="M337.728 288.535H86.5045C80.0685 288.535 74.8324 283.341 74.8324 276.957C74.8324 270.573 80.0685 265.38 86.5045 265.38H337.728C344.164 265.38 349.4 270.573 349.4 276.957C349.4 283.341 344.164 288.535 337.728 288.535Z" fill="#4D4D61"/>
<path d="M179.445 283.125C143.556 283.125 112.794 285.397 99.2675 288.534H259.623C246.096 285.289 215.334 283.125 179.445 283.125Z" fill="#575770"/>
<path d="M183.918 229.674C187.834 229.674 191.008 226.524 191.008 222.641C191.008 218.756 187.834 215.608 183.918 215.608C180.001 215.608 176.827 218.756 176.827 222.641C176.827 226.524 180.001 229.674 183.918 229.674Z" fill="#83ABBA"/>
<path d="M183.918 229.674C187.834 229.674 191.008 226.524 191.008 222.641C191.008 218.756 187.834 215.608 183.918 215.608C180.001 215.608 176.827 218.756 176.827 222.641C176.827 226.524 180.001 229.674 183.918 229.674Z" stroke="#4D4D61" stroke-width="3" stroke-miterlimit="10" stroke-linecap="round" stroke-linejoin="round"/>
<path d="M181.845 219.828L182.39 219.719L155.665 72.4596L155.119 72.5678C149.992 73.5416 146.501 78.4106 147.483 83.496L170.827 212.254C171.7 217.339 176.609 220.693 181.845 219.828Z" fill="#92B4C3"/>
<path d="M170.391 209.981C170.391 193.21 168.864 175.033 165.482 156.314C161.991 136.73 156.864 118.336 150.756 102.106L170.391 209.981Z" fill="#ACD3E5"/>
<path d="M181.845 219.828L182.39 219.719L155.665 72.4596L155.119 72.5678C149.992 73.5416 146.501 78.4106 147.483 83.496L170.827 212.254C171.7 217.339 176.609 220.693 181.845 219.828Z" stroke="#4D4D61" stroke-width="3" stroke-miterlimit="10" stroke-linecap="round" stroke-linejoin="round"/>
<path d="M310.566 286.371H295.73V488.379H310.566V286.371Z" stroke="#4D4D61" stroke-width="3" stroke-miterlimit="10" stroke-linecap="round" stroke-linejoin="round"/>
<path d="M310.566 286.371H295.73V488.379H310.566V286.371Z" fill="#4D4D61"/>
<path d="M197.662 239.736H334.019C340.673 239.736 346.127 234.326 346.127 227.726V222.641H185.554V227.726C185.554 234.326 191.008 239.736 197.662 239.736Z" fill="#92B4C3"/>
<path d="M334.019 235.949H197.662C191.008 235.949 185.554 230.539 185.554 223.939V227.726C185.554 234.326 191.008 239.736 197.662 239.736H334.019C340.673 239.736 346.127 234.326 346.127 227.726V223.939C346.127 230.539 340.673 235.949 334.019 235.949Z" fill="#83ABBA"/>
<path d="M197.662 239.736H334.019C340.673 239.736 346.127 234.326 346.127 227.726V222.641H185.554V227.726C185.554 234.326 191.008 239.736 197.662 239.736Z" stroke="#4D4D61" stroke-width="3" stroke-miterlimit="10" stroke-linecap="round" stroke-linejoin="round"/>
<path d="M205.731 247.223H325.943V239.649H205.731V247.223Z" stroke="#4D4D61" stroke-width="3" stroke-miterlimit="10" stroke-linecap="round" stroke-linejoin="round"/>
<path d="M205.731 247.223H325.943V239.649H205.731V247.223Z" fill="#4D4D61"/>
<path d="M266.057 231.038H276.856V227.468H266.057V231.038Z" stroke="#4D4D61" stroke-width="2" stroke-miterlimit="10" stroke-linecap="round" stroke-linejoin="round"/>
<path d="M250.666 231.038H261.465V227.468H250.666V231.038Z" stroke="#4D4D61" stroke-width="2" stroke-miterlimit="10" stroke-linecap="round" stroke-linejoin="round"/>
<path d="M199.626 231.189C200.71 231.189 201.589 230.318 201.589 229.241C201.589 228.166 200.71 227.293 199.626 227.293C198.542 227.293 197.662 228.166 197.662 229.241C197.662 230.318 198.542 231.189 199.626 231.189Z" stroke="#4D4D61" stroke-width="2" stroke-miterlimit="10" stroke-linecap="round" stroke-linejoin="round"/>
<path d="M584.151 167.134C585.787 154.691 576.842 143.331 564.189 142.141C552.08 140.951 541.39 149.822 539.753 161.833L524.809 272.088C524.154 277.065 527.645 281.611 532.663 282.26L545.862 283.99C550.88 284.639 555.462 281.177 556.116 276.2L558.298 259.971C562.334 230.216 569.752 200.786 582.406 173.519C583.169 171.572 583.824 169.407 584.151 167.134Z" fill="#CA4361"/>
<path d="M553.825 259.97L551.644 276.2C551.098 279.987 548.262 283.016 544.662 283.774L545.862 283.882C550.88 284.531 555.462 281.069 556.116 276.092L558.298 259.862C562.334 230.107 569.752 200.676 582.406 173.41C583.278 171.462 583.933 169.298 584.26 167.134C585.896 154.691 576.952 143.33 564.298 142.14C562.88 142.032 561.352 142.032 560.043 142.14C572.697 143.439 581.642 154.8 580.006 167.134C579.679 169.407 579.024 171.462 578.151 173.41" fill="#D35375"/>
<path d="M539.753 161.833L528.19 247.31C538.226 218.854 547.935 188.233 547.935 164.429C547.935 148.308 567.679 142.898 573.134 148.308C569.534 141.707 558.08 141.058 551.862 144.629C545.099 148.416 540.408 156.531 539.753 161.833Z" fill="#D35375"/>
<path d="M584.151 167.134C585.787 154.691 576.842 143.331 564.189 142.141C552.08 140.951 541.39 149.822 539.753 161.833L524.809 272.088C524.154 277.065 527.645 281.611 532.663 282.26L545.862 283.99C550.88 284.639 555.462 281.177 556.116 276.2L558.298 259.971C562.334 230.216 569.752 200.786 582.406 173.519C583.169 171.572 583.824 169.407 584.151 167.134Z" stroke="#4D4D61" stroke-width="3" stroke-miterlimit="10" stroke-linecap="round" stroke-linejoin="round"/>
<path d="M209.989 447.047L135.157 399.222C133.738 398.356 133.411 396.517 134.284 395.218L134.393 395.003C135.266 393.596 137.12 393.271 138.429 394.136L213.262 441.961C214.68 442.826 215.007 444.667 214.134 445.965L214.025 446.182C213.262 447.48 211.407 447.913 209.989 447.047Z" fill="#595D5C"/>
<path d="M209.989 447.047L135.157 399.222C133.738 398.356 133.411 396.517 134.284 395.218L134.393 395.003C135.266 393.596 137.12 393.271 138.429 394.136L213.262 441.961C214.68 442.826 215.007 444.667 214.134 445.965L214.025 446.182C213.262 447.48 211.407 447.913 209.989 447.047Z" stroke="#4D4D61" stroke-width="3" stroke-miterlimit="10" stroke-linecap="round" stroke-linejoin="round"/>
<path d="M217.952 422.702L217.625 422.486C213.916 423.135 209.116 422.053 204.753 419.24C201.48 417.184 198.971 414.371 197.553 411.666C196.244 409.177 194.499 406.905 192.208 405.39L163.301 386.022C159.919 383.75 155.446 383.318 151.192 384.724L141.811 387.97C138.647 389.052 137.666 393.488 140.174 395.111L212.607 441.421L219.043 431.466C221.007 428.329 220.57 424.433 217.952 422.702Z" fill="#9B8462"/>
<path opacity="0.74" d="M151.192 384.724L149.665 385.265C149.774 388.836 151.628 392.298 154.901 394.462L200.171 423.351C204.426 426.056 209.88 425.624 213.589 422.594C210.753 422.269 207.698 421.187 204.753 419.348C201.48 417.292 198.971 414.479 197.553 411.774C196.244 409.285 194.499 407.013 192.208 405.498L163.301 386.131C159.919 383.642 155.446 383.209 151.192 384.724Z" fill="#E1C885"/>
<path d="M217.952 422.702L217.625 422.486C213.916 423.135 209.116 422.053 204.753 419.24C201.48 417.184 198.971 414.371 197.553 411.666C196.244 409.177 194.499 406.905 192.208 405.39L163.301 386.022C159.919 383.75 155.446 383.318 151.192 384.724L141.811 387.97C138.647 389.052 137.666 393.488 140.174 395.111L212.607 441.421L219.043 431.466C221.007 428.329 220.57 424.433 217.952 422.702Z" stroke="#4D4D61" stroke-width="3" stroke-miterlimit="10" stroke-linecap="round" stroke-linejoin="round"/>
<path d="M184.79 411.666L196.244 409.502L193.299 406.256L184.79 411.666Z" stroke="#4D4D61" stroke-width="3" stroke-miterlimit="10" stroke-linecap="round" stroke-linejoin="round"/>
<path d="M216.207 381.478L207.153 390.35L229.297 417.941L240.206 408.961L216.207 381.478Z" fill="#92B4C3"/>
<path d="M215.552 382.127L207.153 390.35L219.152 405.282C221.116 402.469 222.316 399.115 222.316 395.544C222.316 390.134 219.698 385.265 215.552 382.127Z" fill="#9EC0CC"/>
<path d="M216.207 381.478L207.153 390.35L229.297 417.941L240.206 408.961L216.207 381.478Z" stroke="#4D4D61" stroke-width="3" stroke-miterlimit="10" stroke-linecap="round" stroke-linejoin="round"/>
<path d="M394.888 416.751L401.761 427.463L433.614 411.666L427.068 399.223L394.888 416.751Z" fill="#92B4C3"/>
<path d="M394.888 416.751L401.761 427.463L433.614 411.666L427.068 399.223L394.888 416.751Z" fill="#92B4C3"/>
<path d="M407.215 418.05C407.215 415.669 405.906 413.613 403.724 411.882L394.888 416.751L400.888 426.056C404.706 424.217 407.215 421.296 407.215 418.05Z" fill="#9EC0CC"/>
<path d="M394.888 416.751L401.761 427.463L433.614 411.666L427.068 399.223L394.888 416.751Z" stroke="#4D4D61" stroke-width="3" stroke-miterlimit="10" stroke-linecap="round" stroke-linejoin="round"/>
<path d="M305.984 158.911C306.466 158.911 306.857 158.281 306.857 157.505C306.857 156.728 306.466 156.098 305.984 156.098C305.502 156.098 305.111 156.728 305.111 157.505C305.111 158.281 305.502 158.911 305.984 158.911Z" stroke="#4D4D61" stroke-width="2" stroke-miterlimit="10" stroke-linecap="round" stroke-linejoin="round"/>
<path d="M216.207 234.543H210.753C209.335 234.543 208.135 233.353 208.135 231.946V228.7C208.135 227.293 209.335 226.103 210.753 226.103H216.207C217.625 226.103 218.825 227.293 218.825 228.7V231.946C218.825 233.353 217.625 234.543 216.207 234.543Z" fill="#4D4D61"/>
</svg>
