<?xml version="1.0" standalone="no"?>
<!DOCTYPE svg PUBLIC "-//W3C//DTD SVG 20010904//EN"
 "http://www.w3.org/TR/2001/REC-SVG-20010904/DTD/svg10.dtd">
<svg version="1.0" xmlns="http://www.w3.org/2000/svg"
 width="260.000000pt" height="260.000000pt" viewBox="0 0 260.000000 260.000000"
 preserveAspectRatio="xMidYMid meet">
<metadata>
Created by potrace 1.14, written by Peter Selinger 2001-2017
</metadata>
<g transform="translate(0.000000,260.000000) scale(0.100000,-0.100000)"
fill="#000000" stroke="none">
<path d="M1170 2171 c-115 -17 -257 -71 -356 -137 -32 -21 -218 -194 -412
-383 l-353 -345 38 -39 c52 -53 209 -170 305 -228 73 -43 82 -52 108 -108 118
-248 354 -431 629 -487 122 -24 305 -15 426 21 241 71 427 227 546 460 32 63
42 73 107 112 78 46 230 158 302 222 l45 40 -330 329 c-336 336 -409 398 -527
458 -147 74 -363 109 -528 85z m312 -190 c90 -23 171 -63 251 -122 66 -49 67
-48 -33 -98 -78 -40 -168 -69 -252 -82 -106 -16 -286 -7 -383 20 -84 23 -240
99 -239 116 0 16 94 83 161 116 145 69 341 89 495 50z m-705 -1112 c58 -22
250 -59 362 -70 205 -20 484 7 673 65 45 13 47 13 38 -4 -17 -32 -121 -119
-188 -159 -290 -171 -671 -111 -891 142 -36 40 -36 42 6 26z"/>
</g>
</svg>
