<svg xmlns="http://www.w3.org/2000/svg" width="394.06" height="420.227" viewBox="0 0 394.06 420.227">
  <g id="Group_45" data-name="Group 45" transform="translate(-5615.704 -4078)">
    <path id="Path_31" data-name="Path 31" d="M355.252,299.024c-6.7,2.62-14.453,6.553-15.172,13.712a57.857,57.857,0,0,1,31.814-11.825,93.1,93.1,0,0,1-29.181,24.275c-10.109,5.364-22.907,11.085-23.774,22.5a59.216,59.216,0,0,1,44.429-20.832A73.288,73.288,0,0,1,316.4,357.28c.647,4.861,21.548,15.272,27.635,17.275,4.336,18.626,6.214,42.78,10.549,61.406,1.067,4.584,2.006,9.85-.8,13.628-2.784,3.747-8.043,4.392-12.7,4.723-18.353,1.3-43.465,2.61-61.818,3.914q-3.3-14.933-6.592-29.866C241.716,431.235,109,461.649,84.64,445.693c-94.022-61.593,25.873-82.574,28.45-157.563.59-17.194-51.106-47.25-50.285-64.82.536-11.473,2.312-22.679,7.988-32.531s14.671-17.439,24.447-23.244c-13.459-3.46-23.654-16.876-23.381-30.77s10.986-26.9,24.57-29.828c-6.4-7.633-16.49-11.131-23.856-17.84C63.99,81.282,59.678,68.675,62.8,57.5S76.936,37.524,88.532,38.02c9.525.407,17.908,6.432,24.557,13.265a91.43,91.43,0,0,1,22.127,37.94c2.763,9.46,12.892,14.272,21.446,19.168s17.436,13.424,15.026,22.98c-3.186-13.077,44.168,2.5,87.115,6.313,5.7.506,11.839,1.243,16.053,5.116a24.051,24.051,0,0,0,23,5.135c2.5,6.191,4.335,13.145,2.212,19.474s-9.642,11.16-15.654,8.256l4.707,24.217q23.053.277,46.1.942c8.143.235,16.654.605,23.731,4.639S375.5,203.785,382.5,189.1c-4.526,23.96.837,33.534,10.084,36.137.019-.181.738-.095.759-.276,2.754-23.678,18.82-44.7,41.18-53.017-1.978,4.556-16.125,13.556-25.949,25.049-9.6,11.226-14.19,26.256-14.666,28.954,15.238-4,20.317,7.356,46.168-2.637-11.812,14.2-34.577,17.7-50.108,7.7-7.327,8.172-6.917,17.22-12.108,26.891,8.817-10.958,20.525-1.243,11.237,5.86,4.93.474,10.26,1.123,13.836,4.549s3.665,10.638-.947,12.442Z" transform="translate(5567 4040)" fill="#64fcd9" fill-rule="evenodd"/>
    <path id="Path_32" data-name="Path 32" d="M482.456,372.7a6.722,6.722,0,0,1,2.214-2.821,2.319,2.319,0,0,1,3.189.579c.595,1.144-.29,2.523-1.329,3.286s-2.316,1.3-2.991,2.4l10.942,7.21c2.857,1.883,6.089,4.572,5.5,7.943a6,6,0,0,1-3.884,4.25,17.369,17.369,0,0,1-5.922.872q-20.214.582-40.438-.2a2.662,2.662,0,0,1-3.26-2.854l-2.326-21.511a1.7,1.7,0,0,1,.039-.79c.4-1.047,1.965-.4,2.841.3a16.83,16.83,0,0,0,21.7-1.272c1.348-1.363,3.644-1.187,5.376-.365s3.182,2.158,4.919,2.969a1.744,1.744,0,1,1,3.428.014Z" transform="translate(5414.511 3912.326)" fill="#fff" fill-rule="evenodd"/>
    <path id="Path_33" data-name="Path 33" d="M152.81,226.363s-1.506-18.032,2.284-23.828,18.223-7.541,18.223-7.541,39.56-.517,60.934.3,64.121,4.481,64.121,4.481,5.555,1.212,8.051,2.761,5.98,5.947,5.98,5.947,7.579,1.105,11.349,1.255a35.62,35.62,0,0,0,7.224-.515s4.8,14.012,1.408,20.692-14.8,5.643-14.8,5.643l4.038,25s-4.8,2.268-7.423,5.112a18.415,18.415,0,0,0-3.676,6.923l7.8,76.022a13.385,13.385,0,0,0,7.22,5.452c4.927,1.5,16.026,1.628,16.026,1.628a96.208,96.208,0,0,0,0,10.965c.4,3.3.749,5.106.749,5.106l8.357,59.826s-8.122,1.478-16.16,3.428-23.989,6.313-23.989,6.313-5.623,2.564-6.352,6.7,2.255,16.579,2.255,16.579l-89.549,6.826s-8.714.164-11.711-1.724-3.819-8.061-3.819-8.061l-12.112-108.94s-19.356.474-25.008-2.754-6.337-15.143-6.337-15.143.939-6.754,0-11.441c-.313-1.564-4.407-18.516-5.782-34.647-.778-9.128,9.962-16.137,9.962-16.137Z" transform="translate(5527.141 3979.52)" fill="#fff" fill-rule="evenodd"/>
    <path id="Path_34" data-name="Path 34" d="M255.935,204.659a2.34,2.34,0,0,0,.893,3.106,6.793,6.793,0,0,0,3.477.789l39.191,1.764c1.273.057,2.682.069,3.647-.763s.837-2.819-.421-3.019a238.236,238.236,0,0,0-43.971-2.861c-1.032.029-2.217.142-2.815.984" transform="translate(5487.202 3976.146)" fill="#e7eaee" fill-rule="evenodd"/>
    <path id="Path_35" data-name="Path 35" d="M343.98,339.069l-3.395-15.931s-.159,3.285-1.956,4.621-5.351.811-5.351.811-.563-11.124,1.938-14.512,4.966-.189,9.717-1.272,3.764-4.648,9.28-3.061,9.592,13.394,9.592,13.394-4.325,1.449-6.166,1.078-1.392-2.6-1.392-2.6-1.3-.555-.972,3.359c.162,1.9,1.6,4.761,2.364,8.5a22.763,22.763,0,0,1,0,4.524s-4.908.5-9.15,1.408S343.98,339.069,343.98,339.069Z" transform="translate(5457.279 3935.368)" fill="#e7eaee" fill-rule="evenodd"/>
    <path id="Path_36" data-name="Path 36" d="M145.952,282.955a18.66,18.66,0,0,1-4.264-3.544c-3.359-3.41-6.761-6.875-9.091-11.055a1.75,1.75,0,0,1-.312-1.293c.128-.437.8-.686,1.046-.3A65.137,65.137,0,0,0,148.385,282.9C147.856,283.613,146.733,283.375,145.952,282.955Z" transform="translate(5534.783 3951.856)" fill="#00160a" fill-rule="evenodd"/>
    <path id="Path_37" data-name="Path 37" d="M161.957,154.313a9.408,9.408,0,0,0,1.924-3.645,60.367,60.367,0,0,0,2.812-12.63,2.573,2.573,0,0,1,.9-2.059c.754,3.683-.181,7.477-1.11,11.119-.817,3.2-1.722,6.563-4.039,8.919a1.071,1.071,0,0,1-.864.426c-.445-.074-.623-.665-.464-1.087a3.312,3.312,0,0,1,.841-1.044Z" transform="translate(5523.671 4002.216)" fill="#00160a" fill-rule="evenodd"/>
    <path id="Path_38" data-name="Path 38" d="M539.578,218.082a1.056,1.056,0,0,1,1.127.671,5.82,5.82,0,0,1,.3,1.388,4.456,4.456,0,0,0,3.844,3.5c.23.536-.28,1.073-.682,1.495a5.965,5.965,0,0,0-1.615,3.561c-.076.858-.257,2.053-1.119,2.042-.692-.009-1-.847-1.246-1.493a5.614,5.614,0,0,0-3.609-3.314.713.713,0,0,1-.391-.877,2.124,2.124,0,0,1,.6-.865c1.067-1.095,2.15-2.392,2.138-3.92C538.926,219.44,538.78,218.3,539.578,218.082Z" transform="translate(5379.02 3970.564)" fill="#ffb61d" fill-rule="evenodd"/>
    <path id="Path_39" data-name="Path 39" d="M590.753,449.811a5.679,5.679,0,0,0-1.259,5.716c-.755.337-1.32-.7-1.694-1.441a4.386,4.386,0,0,0-2.826-2.247,6.019,6.019,0,0,0,2.746-5.237c.7-.458,1.488.5,1.69,1.309S589.915,449.783,590.753,449.811Z" transform="translate(5360.196 3882.476)" fill="#e7eaee" fill-rule="evenodd"/>
    <path id="Path_40" data-name="Path 40" d="M573.211,456.4a9.007,9.007,0,0,0,3.391,3.143c.5.262.046.991-.363,1.373a5.762,5.762,0,0,0-1.791,3.726l-2.7-2.709c-.36-.36-.739-.919-.429-1.323A10.1,10.1,0,0,0,573.211,456.4Z" transform="translate(5365.507 3878.653)" fill="#e7eaee" fill-rule="evenodd"/>
    <path id="Path_41" data-name="Path 41" d="M476.277,184.751a28.329,28.329,0,0,1,6.283-14.328,18.864,18.864,0,0,1,13.849-6.686c5.285,0,10.622,3,12.818,7.8a18.034,18.034,0,0,1,1.338,8.021,33.2,33.2,0,0,1-4.038,14.921,23.281,23.281,0,0,1-9.684,9.9c-4.2,2.087-9.434,2.368-13.516.06a14.789,14.789,0,0,1-6.572-8.66,24.855,24.855,0,0,1-.478-11.035m32.3-3.951a16.786,16.786,0,0,0-2.141-9.335,12.184,12.184,0,0,0-4.183-4.088c-5.477-3.212-12.932-1.486-17.481,2.943s-6.521,10.976-6.724,17.323a21.682,21.682,0,0,0,1.7,9.922A11.716,11.716,0,0,0,487.1,204.1c4.293,1.1,8.822-.973,12.188-3.856A26.988,26.988,0,0,0,508.579,180.8Z" transform="translate(5402.265 3991.511)" fill="#ffb61d" fill-rule="evenodd"/>
    <path id="Path_42" data-name="Path 42" d="M561.3,189.719c-.874,1.143-1.788,2.643-1.117,3.916.24.455-.381.985-.875.841a1.532,1.532,0,0,1-.907-1.163,5.544,5.544,0,0,0-.438-1.473,1.012,1.012,0,0,0-1.3-.476c-.621-.074-.685-1.01-.324-1.521s.955-.863,1.177-1.448a7.724,7.724,0,0,0,.165-1.471c.083-.488.5-1.01.979-.885a4.711,4.711,0,0,0,.519,2.489A2.279,2.279,0,0,0,561.3,189.719Z" transform="translate(5371.325 3982.919)" fill="#ffb61d" fill-rule="evenodd"/>
    <path id="Path_43" data-name="Path 43" d="M432.291,188.094a5.449,5.449,0,0,1,2.548-1.764,3.2,3.2,0,0,1,2.962.555,3.457,3.457,0,0,1,.942,3.138,8.8,8.8,0,0,1-1.347,3.119,41.964,41.964,0,0,1-2.52,3.651,2.521,2.521,0,0,1-1.024.906,2.454,2.454,0,0,1-1.771-.229,19.337,19.337,0,0,1-5.416-3.417c-1.463-1.309-2.813-3.229-2.22-5.1a3.439,3.439,0,0,1,2.769-2.239,4.677,4.677,0,0,1,3.5,1.024c.471.37,1.182.81,1.572.356m-6.25.692c-.935,1.286.08,3.087,1.258,4.154a26.6,26.6,0,0,0,4.941,3.289,1.068,1.068,0,0,0,.719.2,1.049,1.049,0,0,0,.533-.4,31.016,31.016,0,0,0,3.13-4.447c.7-1.208,1.215-2.982.087-3.8-.893-.65-2.195-.126-2.951.678s-1.233,1.855-2.061,2.587a7.472,7.472,0,0,0-2.38-2.673,2.566,2.566,0,0,0-3.275.42Z" transform="translate(5422.157 3982.853)" fill="#ffb61d" fill-rule="evenodd"/>
    <path id="Path_44" data-name="Path 44" d="M409.222,125.634a28.619,28.619,0,0,1,7.05-4.033c1.548-.613,3.315-1.085,4.845-.429,2.452,1.052,2.93,4.573,1.64,6.909s-3.737,3.751-6.067,5.053l-13.7,7.655c.9-1.8-.116-3.9-.947-5.731a31.929,31.929,0,0,1-2.852-13.162,9.478,9.478,0,0,1,.733-4.184,4.011,4.011,0,0,1,3.307-2.383c2.285-.053,3.805,2.327,4.576,4.479A28.661,28.661,0,0,1,409.222,125.634Zm9.682-3.273a18.169,18.169,0,0,0-9.688,5.47.673.673,0,0,1-.969-.139,2.05,2.05,0,0,1-.317-1.052,25.889,25.889,0,0,0-1.89-7.1c-.538-1.261-1.437-2.654-2.808-2.676a2.588,2.588,0,0,0-2.274,1.741,6.841,6.841,0,0,0-.271,3.009,44.876,44.876,0,0,0,4.356,16.326l12.124-6.794a13.813,13.813,0,0,0,3.525-2.492,4.675,4.675,0,0,0,1.341-3.955A2.865,2.865,0,0,0,418.9,122.361Z" transform="translate(5431.842 4010.18)" fill="#ffb61d" fill-rule="evenodd"/>
    <path id="Path_45" data-name="Path 45" d="M360.137,549.972a315.116,315.116,0,0,1,35.539-2.025,5.812,5.812,0,0,0,4.957-3.683,15.707,15.707,0,0,0,.957-6.412c0-8.091-.757-16.161-1.517-24.216q-.463-4.9-.925-9.8a17.726,17.726,0,0,0-1.22-5.817c-1.449-3.137-4.656-5.177-8-6.055a35.377,35.377,0,0,0-10.307-.632l-34.392,1.259c6.608-2.423,13.805-2.537,20.844-2.623l16.188-.2c5.515-.068,11.817.21,15.336,4.457,2.273,2.744,2.774,6.5,3.155,10.045q1.794,16.734,2.627,33.552c.184,3.714.036,8.078-2.988,10.242-1.691,1.21-3.885,1.392-5.96,1.532l-37.9,2.567c-2.967.2-6.093.372-8.762-.939-.927-.455-1.879-1.486-1.382-2.39C350.5,551.072,355.49,550.5,360.137,549.972Z" transform="translate(5452.65 3865.786)" fill="#00160a" fill-rule="evenodd"/>
    <path id="Path_46" data-name="Path 46" d="M260.332,295.686a2.689,2.689,0,0,1,.338,1.218l.332,2.954c.131,1.168.158,2.581-.81,3.248a3.3,3.3,0,0,1-1.808.4l-39.537,1.068a2.774,2.774,0,0,1-2.349-.684,2.672,2.672,0,0,1-.407-1.517q-.145-2.5-.08-5.014a.908.908,0,0,1,1-1.067,207.609,207.609,0,0,1,41.131-1.452,2.712,2.712,0,0,1,2.186.847m-.541,6.405c-1.339-.723.01-2.843-.477-4.284-.418-1.238-2.007-1.531-3.312-1.605a202.636,202.636,0,0,0-37.263,1.317,1.32,1.32,0,0,0-1.4,1.824q.145,1.041.288,2.083a1.493,1.493,0,0,0,1.814,1.677Z" transform="translate(5502.488 3941.118)" fill="#00160a" fill-rule="evenodd"/>
    <path id="Path_47" data-name="Path 47" d="M328.513,322.7q.094-2.193.188-4.388c.123-2.852.272-5.811,1.6-8.339s4.187-4.493,6.966-3.837c1.738.411,3.34,1.777,5.088,1.411,1.522-.319,2.455-1.824,3.741-2.7,3.065-2.085,7.337-.148,9.872,2.557a19.151,19.151,0,0,1,4.994,10.678,1.269,1.269,0,0,1-.155.976,1.306,1.306,0,0,1-.747.353l-3.165.725a6.473,6.473,0,0,1-2.733.225,2.212,2.212,0,0,1-1.842-1.8c-.269,5.135,3.576,10.04,2.5,15.069l-1.2-.653c.94-5.043-3.554-9.926-2.616-14.969a2.331,2.331,0,0,1,.988-1.7c.6-.324,1.541.044,1.517.723a2.106,2.106,0,0,0,2.223,1.89,6.111,6.111,0,0,0,3.006-1.158c.331-.2.24-.7.1-1.061a36.3,36.3,0,0,0-4.017-7.65,9.427,9.427,0,0,0-4.279-3.848c-1.839-.653-4.268.013-4.945,1.843-.792,2.142-3.786,2.287-5.985,1.669s-4.667-1.582-6.628-.413c-1.641.978-2.19,3.062-2.5,4.947a56.188,56.188,0,0,0-.726,9.791c.089.5.726.661,1.234.648a6.1,6.1,0,0,0,5.659-4.807,6.618,6.618,0,0,1,1.212,3.025l2.422,11.153c.249,1.145-.042,2.9-1.194,2.7a99.018,99.018,0,0,0-2.315-12.035l-5.779,1.314a2.393,2.393,0,0,1-1.769-.057C328.524,324.54,328.477,323.54,328.513,322.7Z" transform="translate(5459.099 3937.432)" fill="#00160a" fill-rule="evenodd"/>
    <path id="Path_48" data-name="Path 48" d="M392.564,498.508c.983,1.065-.544,3.032.356,4.167a1.436,1.436,0,0,1-.485,1.952,4.166,4.166,0,0,1-2.163.528l-38.718,2.25c-.877.051-1.925.021-2.4-.715a2.514,2.514,0,0,1-.305-1.1l-.354-2.975a1.568,1.568,0,0,1,.077-.922c.241-.457.84-.557,1.355-.6q20.346-1.8,40.735-3.036A2.336,2.336,0,0,1,392.564,498.508Zm-1.481,1.675a.768.768,0,0,0-1.008-.789l-36.1,2.631a6.68,6.68,0,0,0-2.831.632,2.282,2.282,0,0,0-1.235,2.419,1.2,1.2,0,0,0,.506.726,1.877,1.877,0,0,0,1.082.158l38.117-2.068C391.121,503.81,391.338,501.674,391.082,500.183Z" transform="translate(5451.404 3862.594)" fill="#00160a" fill-rule="evenodd"/>
    <path id="Path_49" data-name="Path 49" d="M436.319,479.992c2.284,6.011,3.013,12.482,3.722,18.873q2.473,22.273,4.946,44.545c-1.227.1-1.792-1.474-1.945-2.7-2.5-19.979-3.3-40.215-7.525-59.9Z" transform="translate(5417.832 3869.553)" fill="#00160a" fill-rule="evenodd"/>
    <path id="Path_50" data-name="Path 50" d="M316.711,310.445c-.356-.152-.348-.706-.076-.981a1.777,1.777,0,0,1,1.069-.389,66.835,66.835,0,0,1,8.656-.531c-.154,1.234-1.747,1.6-2.99,1.653l-6.263.289a.9.9,0,0,1-.4-.041Z" transform="translate(5463.753 3935.67)" fill="#00160a" fill-rule="evenodd"/>
    <path id="Path_51" data-name="Path 51" d="M298.433,520.776l-.715-13.258c-.641-11.9-1.3-23.912-4.614-35.355a12,12,0,0,0-1.842-4.143c-2.344-3-6.684-3.345-10.492-3.345a232.557,232.557,0,0,0-43.775,4.163,9.371,9.371,0,0,0-4.157,1.53c-1.857,1.473-2.348,4.061-2.52,6.425a45.094,45.094,0,0,0,.922,12.9l-1.589-.265a26.5,26.5,0,0,1-2.543-13.073,12.318,12.318,0,0,1,1.483-5.6c2.492-4.157,7.98-5.155,12.8-5.671q18.344-1.965,36.794-2.644c4.947-.182,10.537-.044,13.932,3.559a15.664,15.664,0,0,1,3.252,6.644c2.359,8.322,3.009,17.019,3.648,25.646l1.873,25.287a21.537,21.537,0,0,1-.109,5.938c-1.306,6.34-8.057,10.2-14.485,10.963s-12.9-.7-19.37-.81c-8.7-.145-17.459,2.169-26.043.724-2.472-.417-5.1-1.293-6.46-3.4a10.72,10.72,0,0,1-1.258-5.007l-3.054-36.676c-.068-.818.541-2.038,1.17-1.51l3.367,35.328a12.5,12.5,0,0,0,1.058,4.654,8.46,8.46,0,0,0,5.5,3.955,26.229,26.229,0,0,0,6.933.506q14.752-.193,29.49.733a42.758,42.758,0,0,0,9.843-.1,13.411,13.411,0,0,0,8.473-4.6C298.8,530.582,298.685,525.454,298.433,520.776Z" transform="translate(5498.222 3876.338)" fill="#00160a" fill-rule="evenodd"/>
    <path id="Path_52" data-name="Path 52" d="M316.072,299.207c.915-.715.146-2.177.326-3.324.256-1.623,2.274-2.18,3.906-2.368a260.126,260.126,0,0,1,31.578-1.713c.877.006,1.915.1,2.357.862.531.91.037,2.5,1.041,2.818.471.15,1.076-.127,1.433.215.591.566-.51,1.33-1.325,1.4q-18.516,1.662-37.1,2.431a4.1,4.1,0,0,1-2.22-.324m36.871-5.112c-.288-.725-1.253-.831-2.033-.819q-14.917.227-29.8,1.473c-1.162.1-2.533.34-3.018,1.4a1.341,1.341,0,0,0,.8,1.571,3.9,3.9,0,0,0,1.908.2l29.7-1.884a3.914,3.914,0,0,0,1.769-.4A1.34,1.34,0,0,0,352.943,294.095Z" transform="translate(5463.894 3942.128)" fill="#00160a" fill-rule="evenodd"/>
    <path id="Path_53" data-name="Path 53" d="M397.145,531.865c1.527,1.213.874,3.871,2.2,5.3a5.1,5.1,0,0,0,2.413,1.178c.56.164,1.252.575,1.074,1.13s-1.01.477-1.566.259c-1.814-.711-3.861-1.893-3.961-3.839a8.887,8.887,0,0,0-1.219-4.046c.2-.345.743-.23,1.057.02Z" transform="translate(5433.037 3849.64)" fill="#00160a" fill-rule="evenodd"/>
    <path id="Path_54" data-name="Path 54" d="M390.4,547.029q-.746-9.606-1.492-19.214a6.493,6.493,0,0,0-.622-2.738,2.218,2.218,0,0,0-2.344-1.2,44.94,44.94,0,0,1-12.681,1.519c-3.733-.088-7.554-.634-11.146.388q.1,2.669.2,5.336a2.775,2.775,0,0,0,.345,1.5c.828,1.2,2.885.285,3.352-1.1s.045-2.889.125-4.345a.825.825,0,0,1,.285-.687c.466-.29.914.4,1.033.938a9.9,9.9,0,0,1,.28,4.661c-.4,1.52-1.814,2.9-3.373,2.7-1.616-.208-2.277,2-2.317,3.63l-.234,9.753c-.025,1.024.343,2.437,1.361,2.322l7.877-.893a3.122,3.122,0,0,1,1.875.175,1.08,1.08,0,0,1,.4,1.6l-9.252.811a6.255,6.255,0,0,1-2.685-.155,2.137,2.137,0,0,1-1.513-2.018,200.385,200.385,0,0,0,.508-26.606c-.09-1.886,2.208-2.844,4.064-3.192a85.067,85.067,0,0,1,17.892-1.427c2.009.053,4.2.252,5.655,1.636,1.483,1.409,1.774,3.63,1.979,5.665q1.149,11.445,2.3,22.888c.041.412.051.9-.278,1.151a1.23,1.23,0,0,1-.706.176l-7.672.319a6.527,6.527,0,0,1-3.941-.667,5.873,5.873,0,0,1-1.735-2.15,30.346,30.346,0,0,1-2.563-6.168,27.244,27.244,0,0,0-1.832,7.667c-1.236.134-1.465-1.72-1.178-2.93l1.779-7.486c.09-.38.235-.821.607-.938.548-.173.969.484,1.169,1.022l2.505,6.733a5.756,5.756,0,0,0,4.839,3.33,16.934,16.934,0,0,0,6.1-.788c.4-.1.843-.247,1-.625A1.314,1.314,0,0,0,390.4,547.029Zm-27.819-23.45,5.555.072c1.391.018,2.783.036,4.174.01a65.719,65.719,0,0,0,14.9-2c-1.086-1.115-2.829-1.178-4.385-1.15q-8.354.149-16.678.971c-1.483.147-3.327.63-3.568,2.1Z" transform="translate(5447.008 3854.601)" fill="#00160a" fill-rule="evenodd"/>
    <path id="Path_55" data-name="Path 55" d="M350.782,517.3c-.106-.579.645-.9,1.227-.986a118.312,118.312,0,0,1,20.324-1.374.785.785,0,0,1,.288.042c.319.133.3.636.05.871a1.557,1.557,0,0,1-.971.3c-6.473.485-13.041.236-19.382,1.621-.589.128-1.428.119-1.537-.474Z" transform="translate(5450.513 3856.083)" fill="#00160a" fill-rule="evenodd"/>
    <path id="Path_56" data-name="Path 56" d="M593.333,485.266A3.74,3.74,0,0,1,597.2,482.3l7.1-.77c1.17-.127,2.68-.62,2.635-1.8-.143-3.8.15-8.171,3.167-10.482,2.76-2.114,6.892-1.534,9.723.482s4.626,5.158,6.173,8.271c.685,1.379,2.561,1.63,4.078,1.364s3.053-.862,4.549-.5c2.3.559,3.468,3.075,4.259,5.309,3.972,11.212,6.669,22.9,11.61,33.721a12.541,12.541,0,0,1-1.461,12.614,15.139,15.139,0,0,1,1.334-8.222c.566-1.2-1.318-1.986-2.644-1.982-13.507.034-27.072.073-40.43,2.076a1.59,1.59,0,0,0-1.659,1.484l-1.242,4.72c-.26.985-.1,2.516.917,2.413a376.817,376.817,0,0,1,39.8-1.912c1.4.007,3.305.562,3.124,1.947-14.155.167-28.362.338-42.364,2.422-2.23.332-3.769-2.429-3.517-4.669s1.538-4.249,1.9-6.474a15.425,15.425,0,0,0-.5-5.77q-1-4.523-2.237-8.99c-.8-2.905-1.681-5.789-2.558-8.673l-3.98-13.085a13.588,13.588,0,0,0-2.242,9.228,43.162,43.162,0,0,0,1.725,6.525,71.71,71.71,0,0,1,1.817,9.48q1.369,9.415,2.739,18.83c.135.923-.131,2.284-1.054,2.148-4.105-12.7-2.978-26.74-7.823-39.176Zm30.575,2.3a3.359,3.359,0,0,0-1.972-6.277l-11.2,1.135a1.277,1.277,0,0,0-.938.37,1.191,1.191,0,0,0-.151.788,9.165,9.165,0,0,0,1.687,4.772c.773,1.08,1.843,2.373,1.239,3.556-.755,1.478-3.235.649-3.85-.892s-.177-3.281-.292-4.937-1.3-3.562-2.942-3.287l-8.053,1.356c-.385.065-.888.3-.775.677q4.9,16.229,9.806,32.459c.407,1.349,1.326,3.017,2.7,2.7,12.591-2.94,25.866-.16,38.65-2.092Q642.067,499.883,635.926,482a1.391,1.391,0,0,0-1.749-1.164l-5.753.244c-.759.032-1.793.394-1.627,1.135q.781,3.484,1.564,6.969a2.09,2.09,0,0,1,.028,1.209c-.406,1.038-1.935.777-2.955.327a3.983,3.983,0,0,1-1.787-1.221A1.375,1.375,0,0,1,623.909,487.57Zm-4.943-16.855c-1.471-1.079-3.4-1.857-5.1-1.189a6.872,6.872,0,0,0-1.61,1.011,5.956,5.956,0,0,0-3.044,5.472q-.121,1.376-.242,2.752a1.466,1.466,0,0,0,1.9,1.917l11.719-1.115c.557-.053,1.237-.2,1.384-.744a1.326,1.326,0,0,0-.041-.654,13.2,13.2,0,0,0-4.968-7.45m-1.463,9.7c-.393.111.044.848.33.557.365-.15-.04-.837-.348-.589Z" transform="translate(5358.208 3874.209)" fill="#ffb61d" fill-rule="evenodd"/>
    <path id="Path_57" data-name="Path 57" d="M433.086,344.309a.712.712,0,0,1,.228-.644c.787-.866,2.1-.931,3.275-.934l21.294-.049a2.447,2.447,0,0,1,1.443.3.847.847,0,0,1,.175,1.279,1.228,1.228,0,0,1-.762.178L434,344.711C433.642,344.715,433.188,344.654,433.086,344.309Z" transform="translate(5418.776 3922.505)" fill="#00160a" fill-rule="evenodd"/>
    <path id="Path_58" data-name="Path 58" d="M437.191,355.216a.832.832,0,0,1-.009-1.273,2.359,2.359,0,0,1,1.374-.476c2.938-.355,5.893-.549,8.846-.743l4.881-.321,6.346-.418a2.613,2.613,0,0,1,1.928.381c.506.444.383,1.513-.29,1.554l-22.4,1.387a1.2,1.2,0,0,1-.68-.09Z" transform="translate(5417.303 3918.926)" fill="#00160a" fill-rule="evenodd"/>
    <path id="Path_59" data-name="Path 59" d="M478.456,370.7a6.723,6.723,0,0,1,2.214-2.821,2.319,2.319,0,0,1,3.189.579c.595,1.144-.29,2.523-1.329,3.286s-2.316,1.3-2.991,2.4l10.943,7.21c2.857,1.883,6.089,4.572,5.5,7.943a6,6,0,0,1-3.884,4.25,17.372,17.372,0,0,1-5.922.872q-20.214.582-40.438-.2a2.662,2.662,0,0,1-3.26-2.854q-1.163-10.755-2.326-21.511a1.7,1.7,0,0,1,.039-.79c.4-1.047,1.965-.4,2.841.3a16.83,16.83,0,0,0,21.7-1.272c1.349-1.363,3.644-1.187,5.376-.365s3.182,2.158,4.919,2.969a1.744,1.744,0,1,1,3.428.014Zm.763,4.62c-.443-1.628-2.848-1.969-4.175-.928s-1.757,2.856-1.871,4.538c-.043.627-1.075.69-1.428.17a2.1,2.1,0,0,1-.014-1.819,14.219,14.219,0,0,1,2.344-4.365c.51-.645-.237-1.517-.909-1.99-2.373-1.669-5.733-3.314-7.909-1.4a18.918,18.918,0,0,1-22.147,1.629,137.233,137.233,0,0,0,1.187,16.1,2.643,2.643,0,0,0,.535,1.507,2.687,2.687,0,0,0,2.013.56l34.755.044c1.127,0,2.66-.4,2.572-1.525a8.254,8.254,0,0,1,3-6.947l-4.82-3.5a3.984,3.984,0,0,0-1.6-.824c-1.8-.309-3.007,1.757-3.644,3.472A3.379,3.379,0,0,1,479.219,375.316Zm-30.278,17.86q18.1.142,36.193-.061c3.424-.038,7.423-.386,9.281-3.264q-24.988,1.1-50.013.543c-.207,2,2.528,2.766,4.539,2.782m41.287-10.754a3.252,3.252,0,0,0-1.149-.531c-1.263-.217-2.26,1.044-2.808,2.2a18.014,18.014,0,0,0-.825,2.063,3.3,3.3,0,0,0-.219,1.66,1.286,1.286,0,0,0,1.13,1.084q3.077.035,6.154-.066a2.12,2.12,0,0,0,1.372-.371,1.689,1.689,0,0,0,.372-1.589C493.867,384.85,491.969,383.526,490.228,382.422Zm-7.247-13.1c-.023-.625-.856-.942-1.433-.7a2.951,2.951,0,0,0-1.248,1.353l-1.148,1.954c-.2.342-.31.923.077,1.009l3.055-2.54C482.625,370.118,483,369.769,482.981,369.326Zm-6.6,1.019a2.083,2.083,0,0,0,1.014,2.185,3.083,3.083,0,0,0-.405-2.6.331.331,0,0,0-.492-.21.707.707,0,0,0-.125.614Z" transform="translate(5416.053 3913.098)" fill="#00160a" fill-rule="evenodd"/>
    <path id="Path_60" data-name="Path 60" d="M430.967,327.458q-.46-2.223-.918-4.447a2.408,2.408,0,0,1,.074-1.72c.412-.688,1.355-.78,2.156-.794q29.538-.514,59.079.225a3.351,3.351,0,0,1,2.854,2.473,9.822,9.822,0,0,1,.136,4,2.04,2.04,0,0,1-2.48,2.335l-59.326-.648a1.348,1.348,0,0,1-1.575-1.422Zm2.72-5.661a2.5,2.5,0,0,0-2.124,3.128,4.131,4.131,0,0,0,3.14,2.722,13.246,13.246,0,0,0,4.345.042c17.859-1.669,35.918,1.521,53.764-.28a7.968,7.968,0,0,0-.167-3.24,2.719,2.719,0,0,0-2.351-1.965Z" transform="translate(5419.988 3931.141)" fill="#00160a" fill-rule="evenodd"/>
    <path id="Path_61" data-name="Path 61" d="M217.392,385.319a5.255,5.255,0,0,1-2.931,2.889c-2.6.708-4.742-2.173-5.45-4.769a19.275,19.275,0,0,1,.782-12.348,6.637,6.637,0,0,0-1.206-6.327,10.847,10.847,0,0,0-11.367-3.72,11.892,11.892,0,0,0-8.148,8.931c-.134.65-.039,1.563.617,1.655,3.278.459,4.782,4.306,5.281,7.577a15.457,15.457,0,0,1-.3,7.5c-.847,2.38-2.921,4.471-5.44,4.662a11.864,11.864,0,0,1-4.723-6.474c-1.412-4.869.422-10.03,2.316-14.733,1.156-2.87,2.4-5.808,4.592-7.988,4.694-4.659,13.458-4.106,17.529,1.106,1.566,2,2.465,4.5,4.2,6.356,1.308,1.4,3.037,2.384,4.23,3.885C219.966,376.779,219.336,381.636,217.392,385.319Zm-31.449-9a12.187,12.187,0,0,0,.881,10.088,3.216,3.216,0,0,0,1.124,1.27,1.338,1.338,0,0,0,1.589-.13c1.182-1.243,1.33-3.122,1.326-4.836a51.374,51.374,0,0,0-.374-6.069,3.122,3.122,0,0,0-.938-2.23c-.667-.5-1.917-.081-1.813.743q.457,3.594.914,7.189a2.579,2.579,0,0,1-.143,1.611c-.273.477-1.028.7-1.374.272a9.353,9.353,0,0,1-.756-5.952c.148-.718.249-1.7-.436-1.956m27.434,9.5a1.905,1.905,0,0,0,.557-.987,15.42,15.42,0,0,0,.027-8.925c-.331-1.1-1.229-2.384-2.316-2.016a2.162,2.162,0,0,0-1.146,1.532,13.254,13.254,0,0,0,.335,8.857,3.3,3.3,0,0,0,.938,1.431A1.35,1.35,0,0,0,213.377,385.821Zm-21.33-10.369a26.233,26.233,0,0,1-.487,12.148c-.1.362.309.645.653.8a19.161,19.161,0,0,0,.586-12.84A.836.836,0,0,0,192.046,375.452Zm23.115-1.084-.738,1.178c.812-.138,1.183.97,1.226,1.792q.151,2.848.3,5.7c.756-.283.892-1.275.906-2.082q.048-2.726.1-5.452l-.816-.1A1.142,1.142,0,0,0,215.161,374.368Z" transform="translate(5514.822 3916.213)" fill="#00160a" fill-rule="evenodd"/>
    <path id="Path_62" data-name="Path 62" d="M368.5,388.544a89.569,89.569,0,0,0-16.223.7,1.868,1.868,0,0,1-1.389-.172c-.382-.29-.34-1.06.136-1.112q8.058-.886,16.168-1.138a2.216,2.216,0,0,1,1.664.4C369.278,387.64,369.09,388.572,368.5,388.544Z" transform="translate(5450.566 3905.484)" fill="#00160a" fill-rule="evenodd"/>
    <path id="Path_63" data-name="Path 63" d="M173.686,353.184l4.61-.433,2.323-.218c4.925-.463,9.85-.925,14.779-1.337a1.234,1.234,0,0,1,.575.044c.534.222.452,1.084-.013,1.427a2.623,2.623,0,0,1-1.671.3c-7.259-.241-14.494,1.94-21.72,1.2-.469-.048-1.084-.29-1-.754C172.271,353.317,172.979,353.251,173.686,353.184Z" transform="translate(5519.622 3919.226)" fill="#00160a" fill-rule="evenodd"/>
    <path id="Path_64" data-name="Path 64" d="M442.959,607.139c-.241-2.114-.415-4.414-1.836-6a2.508,2.508,0,1,1,4.374-1.594,6.641,6.641,0,0,1-.381,1.632c-1.084,3.672-.077,7.622,1.248,11.214,1.342,3.637,3.4,7.509,7.086,8.7,4.267,1.383,8.988-1.678,10.879-5.745s1.6-8.789.942-13.225c-.066-.445-.186-.958-.593-1.147a2.624,2.624,0,1,1,3.71-2.644,6.4,6.4,0,0,1-.213,1.841c-.815,4.224.263,8.653-.63,12.862a14.072,14.072,0,0,1-3.81,7,11.319,11.319,0,0,1-7.615,3.453c-3.846.065-7.442-2.32-9.617-5.493A23.836,23.836,0,0,1,442.959,607.139Z" transform="translate(5415.889 3824.798)" fill="#00160a" fill-rule="evenodd"/>
    <path id="Path_65" data-name="Path 65" d="M225.339,331.585a11.23,11.23,0,0,1-.242,4.32,3.822,3.822,0,0,1-3.045,2.762c-7.458.641-14.917,1.282-22.389,1.725-10.189.6-20.4.836-30.6,1.068a1.374,1.374,0,0,1-1.641-1.659q-.166-2.14-.331-4.28a2.045,2.045,0,0,1,.175-1.269,2.071,2.071,0,0,1,1.712-.668Q197.13,331.915,225.339,331.585Zm-3.14,5c1.2-.08,1.442-1.967.563-2.786a4.724,4.724,0,0,0-3.416-.807c-15.445.383-30.9.767-46.311,1.816a7.255,7.255,0,0,0-3.225.731,2.506,2.506,0,0,0-1.286,2.8c.521,1.492,2.534,1.656,4.111,1.551Z" transform="translate(5521.354 3926.784)" fill="#00160a" fill-rule="evenodd"/>
    <path id="Path_66" data-name="Path 66" d="M229.8,389.975q.022.589.045,1.177a13.446,13.446,0,0,1-.057,2.447c-1.024-.108-1.341-1.426-1.4-2.454a1.889,1.889,0,0,1,.289-1.4c.327-.364,1.105-.26,1.124.229Z" transform="translate(5497.711 3904.439)" fill="#00160a" fill-rule="evenodd"/>
    <path id="Path_67" data-name="Path 67" d="M350.733,394.529c1.005-.928,2.533-.9,3.9-.86a61.681,61.681,0,0,0,12.917-1c.5-.092.772.688.459,1.091a1.921,1.921,0,0,1-1.384.539q-7.193.731-14.43.866C351.62,395.18,350.891,395.08,350.733,394.529Z" transform="translate(5450.527 3903.229)" fill="#00160a" fill-rule="evenodd"/>
    <path id="Path_68" data-name="Path 68" d="M592.19,416.944c-.474,1.6-2.049,2.6-3.552,3.33a35.886,35.886,0,0,1-24.467,2.492c-2.723-.7-5.825-2.322-5.941-5.131-.086-2.065,1.562-3.8,3.308-4.9a25.575,25.575,0,0,1,8.913-3.16c6-1.167,12.514-1.407,17.949,1.4,2.277,1.175,4.517,3.515,3.791,5.972m-32.1.38c0,2.269,2.536,3.6,4.731,4.173a33.2,33.2,0,0,0,23.008-2.381,4.7,4.7,0,0,0,2.685-2.521c.483-1.628-.779-3.268-2.179-4.23-4.213-2.895-9.786-2.5-14.868-1.955-4.09.438-8.448,1.01-11.566,3.693a4.494,4.494,0,0,0-1.811,3.22Z" transform="translate(5370.511 3897.026)" fill="#00160a" fill-rule="evenodd"/>
    <path id="Path_69" data-name="Path 69" d="M253.347,202.8a3.684,3.684,0,0,1,2.046-3.624,10.007,10.007,0,0,1,4.3-.941c13.181-.776,26.34,1.341,39.526,2.037a9.873,9.873,0,0,1,4.914,1.105c1.428.922,2.266,2.991,1.278,4.374a3.855,3.855,0,0,1-2.051,1.288,20.441,20.441,0,0,1-7.055.518l-36.979-1.59c-2.448-.105-5.557-.754-5.981-3.166m1.692-2.113a2.339,2.339,0,0,0,.893,3.106,6.793,6.793,0,0,0,3.477.789l39.191,1.764c1.273.057,2.682.07,3.647-.763s.837-2.819-.422-3.019a238.236,238.236,0,0,0-43.971-2.861c-1.032.029-2.217.142-2.815.984" transform="translate(5488.098 3978.272)" fill="#00160a" fill-rule="evenodd"/>
    <path id="Path_70" data-name="Path 70" d="M486.59,179.589c2.005-4.178,5.257-8.484,9.877-8.841a12.683,12.683,0,0,1,8.779,2.2c4.418,3.439,4.726,10.108,3.147,15.48-1.861,6.332-6.014,12.2-11.972,15.035a9.805,9.805,0,0,1-4.539,1.122c-4.18-.164-7.223-4.27-8.123-8.355-1.234-5.6.349-11.471,2.829-16.64m5.2,23.465c3.089.421,6-1.547,8.18-3.777a28.551,28.551,0,0,0,7.731-15.424,11.879,11.879,0,0,0-.085-5.012,9.261,9.261,0,0,0-7.16-6.16,10.6,10.6,0,0,0-8.957,2.212,14.456,14.456,0,0,0-2.838,3.585,26.3,26.3,0,0,0-3.833,14.271,13.752,13.752,0,0,0,1.649,6.493A7.6,7.6,0,0,0,491.789,203.054Z" transform="translate(5399.393 3988.828)" fill="#ffb61d" fill-rule="evenodd"/>
    <path id="Path_71" data-name="Path 71" d="M292.294,473.781a1.521,1.521,0,0,1,1.909,1.489,7.573,7.573,0,0,1,.326,3.295,2.59,2.59,0,0,1-2.191,2.188l-8.51.372c-1.112.049-2.416.208-2.969,1.174a3.36,3.36,0,0,0-.14,2.213c.348,2.11,1.331,4.778,3.468,4.7a3.765,3.765,0,0,1,3.3,2.312,11.062,11.062,0,0,1,.785,4.167c.077,1.337-.264,3.164-1.6,3.2-1.08.027-1.378,1.486-1.344,2.566q.358,11.262.716,22.523c.038,1.21-1.512,1.718-2.716,1.84a147.519,147.519,0,0,1-30.373-.08c-.362-.039-.824-.18-.832-.544q-.28-12.725-.56-25.45c-.011-.495-.254-1.178-.73-1.048-1.5.411-3.015-.984-3.326-2.51a8.641,8.641,0,0,1,.748-4.552,3.666,3.666,0,0,1,1.1-1.822c1.242-.907,3.539-.261,4.095-1.7a1.884,1.884,0,0,0,.1-.751c-.077-2.215-2.14-3.963-4.313-4.4a13.355,13.355,0,0,0-6.529.8,14.629,14.629,0,0,1-.364-5.632,2.257,2.257,0,0,1,.445-1.242,2.462,2.462,0,0,1,1.768-.575Zm-42.429,17.188a2.4,2.4,0,0,0-.429,1.317q-.215,1.82-.431,3.641a1.472,1.472,0,0,0,.044.761c.221.5.887.592,1.437.605l8.764.218a2.966,2.966,0,0,0,1.447-.208,1.53,1.53,0,0,0,.6-2.042l1.073-.11c-.158,1.059.921,1.944,1.98,2.1a14.34,14.34,0,0,0,3.19-.252c2.236-.176,4.47.7,6.7.437a1.045,1.045,0,0,0,.649-.246,1.144,1.144,0,0,0,.193-.877q-.127-2.219-.254-4.437a2.212,2.212,0,0,0-.366-1.325,2.235,2.235,0,0,0-1.859-.5l-9.649.373a.671.671,0,0,0-.767.907l.324,3.453a3.348,3.348,0,0,0-1.225.366q-.142-1.36-.285-2.721c-.086-.827-.41-1.886-1.242-1.9l-7.963-.106A2.418,2.418,0,0,0,249.865,490.968Zm15.293,8.923c-.044-.611-.308-1.419-.918-1.353a50.531,50.531,0,0,1-11.4-.069q.14,12.354.461,24.706c.027,1.06,1.365,1.484,2.419,1.592a70.1,70.1,0,0,0,9.435.328,1.165,1.165,0,0,0,.734-.193,1.184,1.184,0,0,0,.272-.945Q266.03,511.912,265.158,499.891Zm18.929-.454a.656.656,0,0,0-.544-.232,80.556,80.556,0,0,0-9.795-.232,1.444,1.444,0,0,0-.847.212,1.474,1.474,0,0,0-.368,1.245l.54,24.661a28.784,28.784,0,0,0,10.725-1,1.1,1.1,0,0,0,.584-.312,1.125,1.125,0,0,0,.164-.694c.068-5.289-.069-10.578-.205-15.865q-.1-3.737-.193-7.473A.652.652,0,0,0,284.087,499.437ZM243.712,478.6a2.21,2.21,0,0,0,1.073,2.915,6.417,6.417,0,0,0,3.417.428l21.08-1.221c6.7-.388,13.4-.777,20.093-1.321a5.692,5.692,0,0,0,2.819-.738,1.974,1.974,0,0,0,.737-2.556c-.545-.822-1.717-.86-2.7-.809l-43.8,2.259c-1.009.052-2.174.191-2.716,1.043M271.8,524.9q-.74-12.037-.292-24.108a3.114,3.114,0,0,0-.152-1.365c-.538-1.237-2.268-1.233-3.6-1.027-.609.095-1.387.386-1.342,1,.571,7.685,1.143,15.383,1.015,23.088A2.826,2.826,0,0,0,271.8,524.9Zm15.08-29.625A9.519,9.519,0,0,0,286,492.19a3.225,3.225,0,0,0-2.516-1.784l-6.117-.3c-.531-.026-1.264.133-1.239.664q.116,2.42.233,4.841c.034.7.165,1.554.818,1.822a1.869,1.869,0,0,0,.671.1l7.975.182a1.191,1.191,0,0,0,1.071-.923A3.5,3.5,0,0,0,286.877,495.276Zm-12.871-7.951a9.816,9.816,0,0,0-1.18-3.226,3.333,3.333,0,0,0-2.866-1.624l-5.31.39c-1.1.081-2.351.24-3,1.137-.782,1.085-.246,2.6-.457,3.92a1.088,1.088,0,0,0,.722,1.088,3.184,3.184,0,0,0,1.391.135l9.506-.489c.465-.024,1.023-.109,1.208-.536A1.268,1.268,0,0,0,274.006,487.325Zm5.553-2.029a2.454,2.454,0,0,1,.035-2.86,3.076,3.076,0,0,0-4.427,3.877,10.813,10.813,0,0,1,.214,1.359,1.744,1.744,0,0,0,1.495,1.1,5.133,5.133,0,0,0,1.934-.259c.829-.222,1.839-.665,1.831-1.524C280.635,486.3,279.963,485.849,279.559,485.3Zm-19.8,2.94a3.376,3.376,0,0,0-1.071-3.408,4.714,4.714,0,0,0-3.522-1.043,2.261,2.261,0,0,0-1.393.52,1.04,1.04,0,0,0-.167,1.366c.243.284.658.367.912.641.388.418.257,1.086.434,1.628.4,1.224,2.063,1.339,3.345,1.222a1.754,1.754,0,0,0,1.213-.435A1.331,1.331,0,0,0,259.758,488.236Zm.208-4.049a.922.922,0,0,0,.122-1.137,1.241,1.241,0,0,0-1.354.614,1.08,1.08,0,0,0,1.244.586m14.6-1.34a.61.61,0,0,0-.11-.6,1.434,1.434,0,0,0-1.413.343,1.276,1.276,0,0,0,1.537.259Z" transform="translate(5492.375 3871.953)" fill="#00160a" fill-rule="evenodd"/>
    <path id="Path_72" data-name="Path 72" d="M400.2,280.749l-46.733,18.274c-6.7,2.62-14.453,6.553-15.172,13.712a57.857,57.857,0,0,1,31.814-11.825,93.1,93.1,0,0,1-29.181,24.275c-10.109,5.364-22.907,11.085-23.773,22.5a59.216,59.216,0,0,1,44.429-20.832,73.288,73.288,0,0,1-46.968,30.43l1.941,14.583a54.544,54.544,0,0,1,18.937,2.693L348.5,430.433c1.067,4.584,2.006,9.85-.8,13.628-2.784,3.747-8.043,4.392-12.7,4.723l-55.06,3.914q-3.3-14.933-6.592-29.866l-92.874,8.624c-6.52.606-13.415,1.148-19.314-1.692-21.4-10.3-47.344,9.638-69.945,2.343a193.366,193.366,0,0,0,58.457-10.228c6.819-2.317,14.985-8.666,11.422-14.925a81.646,81.646,0,0,1-60.728,13.184,308.511,308.511,0,0,0-2.354-60.9,223.98,223.98,0,0,0,43.7-10.826c3.937-1.409,7.987-3.03,10.791-6.133s3.938-8.115,1.474-11.494a128.823,128.823,0,0,1-70.7,14.6q1.9,41.261,3.806,82.524a678.288,678.288,0,0,1-5.7-82.918l37.543-3.329c-2.012-8.932-4.037-18.069-3-27.167s5.716-18.311,13.947-22.324a93.712,93.712,0,0,0-27.219-34.057c-13.577-10.552-31.032-18.508-37.232-34.547-4.1-10.6-2.089-22.939,3.588-32.791s14.671-17.439,24.447-23.244c-13.459-3.46-23.654-16.876-23.381-30.77s10.986-26.9,24.57-29.828c-6.4-7.633-16.49-11.131-23.856-17.84C62.2,81.282,57.891,68.675,61.017,57.5S75.149,37.524,86.745,38.02c9.525.407,17.908,6.432,24.557,13.265a91.431,91.431,0,0,1,22.127,37.94c2.763,9.46,12.892,14.272,21.446,19.168s17.436,13.424,15.026,22.98a38.585,38.585,0,0,0-26.88-27.54c-6.772-1.825-9.239-9.883-11.418-16.549a90.392,90.392,0,0,0-20.981-34.747c-7.145-7.358-16.486-13.779-26.727-13.227-10.543.569-19.837,9.145-22.247,19.425s1.631,21.543,9.324,28.775c7.836,7.366,19.045,10.974,25.363,19.678-13.7,2.784-24.533,15.97-24.6,29.95s10.624,27.277,24.3,30.2c-9.634,5.64-18.65,12.8-24.594,22.254s-8.492,21.444-4.936,32.026c8.227,24.476,42.515,30.318,54.616,53.129,3.277-10.764-1.527-22.082-4-33.06s-1.074-25.075,9.161-29.75L117.3,168.687c-2.229-10.743-3.347-24.354,5.895-30.267A30.434,30.434,0,0,1,107.1,126.441a20.283,20.283,0,0,0,19.45,8.77A670.67,670.67,0,0,0,95.366,75.655,437.6,437.6,0,0,1,127.8,133.71a1119.148,1119.148,0,0,1,129.214,3.975c5.7.506,11.839,1.243,16.053,5.116a24.051,24.051,0,0,0,23,5.135c2.5,6.191,4.335,13.145,2.212,19.474s-9.642,11.16-15.653,8.256l4.707,24.217q23.053.277,46.1.942c8.143.235,16.654.605,23.731,4.639s12.071,12.971,8.919,20.482l6.032-18.623a64.917,64.917,0,0,1,9.811,38.006l7.365-11.206a49.212,49.212,0,0,1-2.84-46.657,77.714,77.714,0,0,1,11.1,37.77c2.558-23.9,19.493-45.694,42.025-54.075L427.85,198.185c-3.347,7.712-7.6,16.266-15.641,18.716-5.305,1.616-12.987,1.518-13.949,6.98a97.2,97.2,0,0,1,46.785-.571c-11.812,14.2-34.577,17.7-50.108,7.7A138.315,138.315,0,0,0,376.072,257.9a49.757,49.757,0,0,1,36.6-18.277,162.764,162.764,0,0,1-25.359,24.137c4.93.474,10.26,1.123,13.836,4.549S404.81,278.946,400.2,280.749ZM194.574,190.794c4.086-.047,8.661.1,11.513,3.024,2.176,2.232,2.759,5.524,3.233,8.6q3.254,21.133,6.092,42.326c.475,3.544-2.5,6.814-5.891,7.938s-7.084.63-10.624.125c2.951-2.547,7.934-.721,11.11-2.982,2.849-2.027,2.832-6.189,2.491-9.669q-1.919-19.569-5.22-38.97c-.389-2.284-.865-4.715-2.483-6.373-2.155-2.209-5.6-2.356-8.683-2.36l-38-.047c-2.183,0-4.48.023-6.375,1.106-5.454,3.117-3.443,11.35-.732,17.017a109.678,109.678,0,0,1,23.364-2.173c6.942.1,15.6,2.355,16.769,9.2q3.858,22.551,7.715,45.1c1.349,7.883,2.092,17.46-4.208,22.386-3.147,2.462-7.325,3.048-11.29,3.55l-29.243,3.7q6.09,53.322,12.18,106.644c.453,3.965,1.282,8.523,4.768,10.465,2.062,1.149,4.564,1.055,6.921.926q46.589-2.541,93.069-6.728a11.533,11.533,0,0,1-.066-9q4.707,27.555,9.414,55.111c5.494-3.787,4.649-12.007,3.19-18.518l-11.078-49.456-4.485,8.228c-.734-3.424,1.32-6.967,4.17-9s6.362-2.871,9.786-3.605a319.257,319.257,0,0,1,31.872-5.163q-4.665-32.908-9.33-65.816c-19.12,5.252-39.369,3.6-59.125,1.905-5.851-.5-13.287-2.471-13.846-8.317l-4.208-44.091c-.183-1.916-1.293-4.5-3.121-3.893-4.491,1.483-7.162-4.916-7.53-9.631l-3.46-44.37c-.151-1.94-.19-4.178,1.256-5.48a6.44,6.44,0,0,1,3.828-1.2l29.033-2.655c5.526-.506,11.8-.767,15.825,3.058,2.838,2.7,3.791,6.792,4.39,10.662a105.1,105.1,0,0,1,1.089,21.59q-1.151-10.569-2.3-21.139c-.345-3.171-.767-6.533-2.77-9.014-3.418-4.236-9.778-4.165-15.2-3.719L219.31,192.48a5.863,5.863,0,0,0-3.668,1.164c-1.234,1.175-1.2,3.119-1.076,4.817l3.115,42.881c.2,2.7.463,5.582,2.168,7.681s5.406,2.759,7,.573c-2.183-4.8.837-10.676,5.307-13.474s9.956-3.289,15.212-3.709l27.2-2.169a377.692,377.692,0,0,0-6.048-55.942,16.232,16.232,0,0,1-8.068-5.237,9.232,9.232,0,0,1-17.836-3.531,10.85,10.85,0,0,1-21.18,2.048c-2.368,2.641-5.44,4.916-8.973,5.238s-7.439-1.909-8.014-5.41c-4.639,6.018-15.421,5.408-19.351-1.1-4.042,6.671-15.55,6.507-19.4-.276-1.729,6.271-11.381,6.773-16.013,2.206s-5.535-11.6-6.179-18.074c-7.647,7.368-9.027,19.2-7.575,29.724s5.233,20.653,6.151,31.233a8.407,8.407,0,0,0,6.252-.9c-2.009-6.071-3.33-14.226,2.123-17.565,2.187-1.339,4.894-1.408,7.458-1.438ZM315.636,292.955c16.031-.8,32.568,1.293,47.8-3.759,2.357-.782,4.772-1.812,6.291-3.778-3.891-1.788-8.024-4.872-7.929-9.154.063-2.812,2.011-5.242,4.207-7a21.885,21.885,0,0,1,7.834-4c.23-.7-1.008-.857-1.622-.441s-1.544.931-1.952.313a1.24,1.24,0,0,1-.152-.571q-2.294-23.341-6.788-46.4c-.9-4.614-2.236-9.754-6.3-12.112-2.2-1.274-4.828-1.487-7.36-1.662q-28.594-1.979-57.267-2.422c-4.515-.069-9.566.1-12.732,3.319-2.4,2.443-3.089,6.072-3.343,9.488-.787,10.578,1.478,21.108,2.952,31.613,1.765,12.584,2.4,25.295,3.565,37.948a10.7,10.7,0,0,0,1.253,4.863c1.562,2.442,4.732,3.208,7.6,3.611a79.636,79.636,0,0,0,12.811.751C308.221,293.481,311.925,293.139,315.636,292.955ZM184.074,211.33c-5.427-2.386-11.642-1.747-17.531-1.063l-26.721,3.1c-4.281.5-8.566.995-12.8,1.793a15.839,15.839,0,0,0-3.009.794c-3.775,1.526-6.026,5.6-6.549,9.634s.374,8.108,1.234,12.088c2.674,12.368,5.045,24.852,5.688,37.491a33.1,33.1,0,0,0,.879,7.445,9.63,9.63,0,0,0,4.287,5.933,13.3,13.3,0,0,0,5.6,1.247c17.625,1.158,35.241-1.684,52.675-4.517,2.481-.4,5.091-.863,7.024-2.468,2.986-2.479,3.433-6.84,3.412-10.722a93.575,93.575,0,0,0-2.581-21.3c-1.957-8.152-5.03-16.171-5.111-24.554-.036-3.7.449-7.682-1.48-10.837A10.867,10.867,0,0,0,184.074,211.33ZM100.2,366.565A280,280,0,0,1,102.579,418c-.042.906,1.058,1.366,1.948,1.537,11.4,2.179,23.135-.613,34.2-4.125,6.287-2,12.579-4.271,18.016-8.006,2.487-1.709,5-4.283,4.539-7.264a415.041,415.041,0,0,1-4.914-57.9c-10.063,7.863-22.834,11.2-35.21,14.349-5.867,1.492-11.812,2.994-17.865,2.944a3.49,3.49,0,0,0-3.087,2.678A10.475,10.475,0,0,0,100.2,366.565Zm231.313,8.605a136.6,136.6,0,0,0-56.055,6.284q1.618,12.317,4.417,24.438c.746,3.231,1.554,6.447,2.363,9.663l4.722,18.79a2.755,2.755,0,0,0,3.584,2.641q27.919-2.329,55.806-5.045l-12.192-54.347a3.242,3.242,0,0,0-.9-1.9A3.2,3.2,0,0,0,331.517,375.17ZM303.73,295.647c-4.1.209-8.265.413-12.27-.5s-7.9-3.093-9.96-6.648a3.325,3.325,0,1,1-4.773-4.616l-15.632.141c2.381,1.4,2.186,5.539-.276,6.795s-5.869-.866-5.926-3.629c-.025-1.24.735-2.633,1.971-2.744-.512-.878-1.842-.358-2.854-.454-1.525-.144-2.358-1.806-2.893-3.241-2.169-5.821-4.143-11.712-6.117-17.6a5.819,5.819,0,0,0,6.945,2.271c.866-.356.892-1.6.523-2.462a4.607,4.607,0,0,0-3.741-2.789,3.869,3.869,0,0,0-3.877,2.407c-.817-.611-.469-2.023.388-2.577a4.887,4.887,0,0,1,2.973-.443,235.682,235.682,0,0,0,28.866-.028,1.323,1.323,0,0,0,1.469-1.813l-1.1-10.141a1.181,1.181,0,0,0-1.566-1.273q-18.069,1.287-36.012,3.886a2.855,2.855,0,0,1-2.857-2.1,8.334,8.334,0,0,1-.026-3.82,1.522,1.522,0,0,1,1.639-1.638,368.8,368.8,0,0,1,37.481-2.852c-.3,1.238-1.919,1.5-3.193,1.527a280.037,280.037,0,0,0-34.762,2.79c-.919,1.572.341,3.69,2.038,4.351s3.6.308,5.389-.029a195.319,195.319,0,0,1,29.907-3.27c1.432-.045,1.6-2.107,1.3-3.508l-2.1-9.762a93.75,93.75,0,0,1-21.112,1.562,58.641,58.641,0,0,0-12.461,1.293c-3.5.619-7.234,1.352-9.765,3.85-2.958,2.92-3.488,7.487-3.309,11.64.295,6.813,2.024,13.478,2.877,20.244,1.043,8.268.775,16.647,1.575,24.941a18.443,18.443,0,0,0,1.525,6.52,7.14,7.14,0,0,0,5.043,4.065,210.879,210.879,0,0,0,55.174.917,21.391,21.391,0,0,0,5-1.006,11.361,11.361,0,0,0,5.972-5.165,4.851,4.851,0,0,0,.713-3.095A2.318,2.318,0,0,0,303.73,295.647Zm-145.863,46.61q2.863,31.511,5.728,63.021c.343,3.776.674,7.677-.506,11.279s-4.285,6.86-8.074,6.984c2.225,3.254,6.064,5.115,9.947,5.8s7.863.321,11.788-.042l97.023-8.964-2.083-12.125c-.155-.907-.6-2.058-1.519-1.989l-66.709,4.971c-9.131.681-18.307,1.361-27.433.614-4.618-.377-10.321-2.212-10.777-6.823q-5.468-55.336-12.659-110.485a2.117,2.117,0,0,0-2.684-2.2l-13.641-.07a218.492,218.492,0,0,0,5.162,22.349c.39,1.359,1.039,2.945,2.431,3.19,5,.878,8.946,4.99,11,9.631S157.407,337.2,157.867,342.256ZM140.4,211.5q-5.855-29.692-9.9-59.7a8,8,0,0,1,.033-3.395c.686-2.25,3.146-3.428,5.435-3.971,4.474-1.061,9.146-.707,13.732-.369q62.887,4.637,126.02,3.706c-1.672-3.391-5.034-5.7-8.61-6.93a43.474,43.474,0,0,0-11.169-1.76c-37-2.557-74.058-4.953-111.145-4.506-4.537.055-9.128.159-13.509,1.341s-8.6,3.561-11.124,7.329c-3.983,5.938-3.02,13.783-1.787,20.826q4.33,24.742,10.527,49.108Zm90.271-38.689a12.22,12.22,0,0,0,5.859-1.025c3.122-1.643,4.508-5.43,4.715-8.953s-.489-7.053-.265-10.574c.052-.8.5-1.866,1.278-1.665q.846,6.081,1.691,12.161a21.891,21.891,0,0,0,1.616,6.554,7.4,7.4,0,0,0,4.962,4.251,7.136,7.136,0,0,0,3.82-.431c2.908-1.094,5.346-3.877,5.235-6.982q-.229-6.431-.458-12.862c-.06-1.7-.691-3.956-2.386-3.867a298.187,298.187,0,0,1-33.927-.157c-.823-.051-1.041,1.116-.953,1.936q.678,6.378,1.356,12.757c.342,3.211,1.07,6.984,4.016,8.306A8.575,8.575,0,0,0,230.668,172.808Zm57.954,266.832a4.549,4.549,0,0,0-1.228,1.536,45.99,45.99,0,0,0-4.1,9.45q29.669-2.073,59.286-4.817a2.481,2.481,0,0,0,2.77-1.95l2.217-6.023c.36-.977.68-2.192-.024-2.96a2.916,2.916,0,0,0-2.44-.549Q318.029,436.5,290.981,439A4.793,4.793,0,0,0,288.622,439.639Zm34.867-121.863c-.534-6.241-1.624-13.245-6.717-16.89-1.987,5.472-3.993,11.027-4.448,16.832s.828,11.991,4.721,16.319A6.659,6.659,0,0,1,318.491,336a1.8,1.8,0,0,1-.567,2.181c-5.293-4.605-7.483-11.991-7.36-19s2.274-13.815,4.4-20.5c.468-1.468-.871-3.013-2.373-3.356a8.449,8.449,0,0,0-4.514.656c-.284.1-.409.421-.5.707-1.009,3.215-2.027,6.624-1.246,9.9,3.367,14.124,2.932,28.947,6.36,43.055a4.439,4.439,0,0,0,.567,1.495l6.819-13.334a38.173,38.173,0,0,0,2.81-6.441C324.189,326.99,323.879,322.321,323.489,317.777ZM403.9,215.26a2.975,2.975,0,0,0,1.594.54c6.428.719,12.494-3.657,16.054-9.058s5.241-11.781,7.575-17.814a84.751,84.751,0,0,1,8.339-16.151c-6.7,6.29-14.956,10.694-21.953,16.656s-12.951,14.323-12.458,23.5A3.134,3.134,0,0,0,403.9,215.26ZM146.451,154.433c.914,4.006.536,8.457,2.755,11.914a9.029,9.029,0,0,0,16.6-5.562,18.062,18.062,0,0,0-.475-2.671l-2.387-10.367a1.5,1.5,0,0,0-1.827-1.388l-14.583-.558a1.981,1.981,0,0,0-1.344.273,1.834,1.834,0,0,0-.426,1.648C145,150.019,145.938,152.181,146.451,154.433Zm131.586,3.736c.116,5.533,3.721,10.344,7.522,14.366a5.927,5.927,0,0,0,1.216,1.065,4.235,4.235,0,0,0,2.534.48A8.591,8.591,0,0,0,296,168.931a16.956,16.956,0,0,0,1.112-8.669c-.267-2.935-.917-5.827-1.178-8.762-.053-.589-.269-1.358-.86-1.355l-15.591.06a3.586,3.586,0,0,0-1.931.372,1.237,1.237,0,0,0-.458,1.7C278.363,153.865,277.994,156.139,278.037,158.169Zm79.03,171.147c-14.239-.251-27.291,8.19-37.25,18.369a24.879,24.879,0,0,0-4.435,5.64c-.2.376-.354.9-.029,1.174a.972.972,0,0,0,.645.154c8.283-.029,16.25-3.528,22.98-8.358S351.378,335.338,357.067,329.316ZM180.884,169.027a6.7,6.7,0,0,0,3.284-5.849,16.684,16.684,0,0,0-.664-3.5,31.018,31.018,0,0,1-.837-9.117,5.433,5.433,0,0,0-.1-1.943,1.659,1.659,0,0,0-1.367-1.23l-16.141-.882a.86.86,0,0,0-.561.1c-.243.178-.229.538-.184.835.662,4.379,2.781,8.5,2.916,12.929a19.4,19.4,0,0,0,.289,4.861,7.029,7.029,0,0,0,4.188,4.364,11.223,11.223,0,0,0,6.161.453A9.344,9.344,0,0,0,180.884,169.027Zm215.3,59.943c3.9,1.1,7.342,3.4,11.122,4.847a27.434,27.434,0,0,0,25.589-3.442l9.317-6.847a40.313,40.313,0,0,1-11.586,1.016c-6.49-.374-12.9-2.318-19.381-1.831A26.227,26.227,0,0,0,396.179,228.97ZM284.9,198.983q-1.149-6.364-2.3-12.728l-3.08-17.059a1.948,1.948,0,0,0-.46-1.117c-.3-.281-.882-.281-1.045.095a9.071,9.071,0,0,1-5.591,5c-1.5.457-1.624,2.5-1.451,4.054q1.84,16.457,4.356,32.829a10.363,10.363,0,0,1,8.768-8.886C284.971,201.059,285.059,199.842,284.9,198.983Zm-81.867-34.51q-.714-6.861-1.8-13.676c-.149-.936-.548-2.1-1.5-2.145l-14.692-.644a1,1,0,0,0-.514.069c-.4.21-.331.786-.214,1.218a51.885,51.885,0,0,1,1.779,12.872,7.669,7.669,0,0,0,.447,3.149c.659,1.428,2.157,2.248,3.581,2.915,2.481,1.162,5.2,2.185,7.9,1.763S203.32,167.2,203.036,164.473Zm2.118.026c.494,2.393,1.4,5.177,3.744,5.865a11.115,11.115,0,0,0,6.1.181,7.377,7.377,0,0,0,4.683-3.753,11.359,11.359,0,0,0,.857-4.289,63.834,63.834,0,0,0-.463-12.036,1.661,1.661,0,0,0-.168-.619c-.286-.495-.959-.564-1.53-.576l-14.96-.326c-.407-.009-.976.415-.632.632Q203.624,157.087,205.153,164.5Zm167.566,49.527a48.15,48.15,0,0,0-3.243,28.268c.719,3.78,2.133,7.79,5.4,9.815.963.6,2.567.772,2.924-.3A44.16,44.16,0,0,0,372.719,214.025ZM120.218,324.6a16.4,16.4,0,0,0,5.465,2.425,36.234,36.234,0,0,0,7.554.655,169.128,169.128,0,0,1,17.7,1.358c.818.106,1.5-.78,1.474-1.605a3.819,3.819,0,0,0-1.044-2.2,20.779,20.779,0,0,0-12.6-7.326c-3.471-.576-7.02-.253-10.537-.354s-7.187-.7-9.992-2.821a45.013,45.013,0,0,0-.036,6.072,5.239,5.239,0,0,0,.55,2.373A4.756,4.756,0,0,0,120.218,324.6ZM262.562,167.683a8.333,8.333,0,0,0,2.346,2.469,8.706,8.706,0,0,0,3.255,1.736c2.975.681,6.017-1.523,7.271-4.305s1.127-5.973.837-9.011q-.33-3.446-.9-6.864A2.307,2.307,0,0,0,275,150.63a2.36,2.36,0,0,0-1.86-.609l-10.881-.289c-.8-.021-1.943.363-1.7,1.13a31.177,31.177,0,0,1,1.369,10.647c-.1,2.1-.374,4.336.639,6.174m128.359,63.762a27.193,27.193,0,0,0,3.108-21.1c-1.675-6.243-5.57-11.773-6.8-18.118-2.878,8.733-5.776,18.133-3.173,26.951C385.387,223.7,388.082,227.685,390.922,231.445Zm-63.8,97.768a62.751,62.751,0,0,0,30.083-17.9q3.616-3.885,7.4-7.608a54.99,54.99,0,0,0-17.755,5.625C338.4,313.706,330.986,320.514,327.126,329.213Zm69.778-76.02,12.637-11.876A51.125,51.125,0,0,0,374.01,263.3c2.058,1.585,5.01.652,7.409-.341a38.253,38.253,0,0,0,15.485-9.767Zm-277.049,86.52a2.02,2.02,0,0,0,.3,1.046c.485.642,1.474.484,2.246.259q13.259-3.874,26.106-9.009c.617-.246,1.336-.637,1.348-1.3l-19.68-1.365a34.251,34.251,0,0,1-4.788-.559,17.162,17.162,0,0,1-6.571-2.954C118.958,330.469,119.406,335.093,119.855,339.713Zm207.231-44.386a2.989,2.989,0,0,0-.925,1.683c-.625,2.152-1.252,4.435-.672,6.6a12.382,12.382,0,0,0,1.474,3.079l4.865,8.131a1.628,1.628,0,0,0,.575.654c.774.406,1.538-.549,1.9-1.346,2.334-5.176,4.72-10.649,4.191-16.3a2.672,2.672,0,0,0-1.094-2.254,2.855,2.855,0,0,0-1.172-.227l-7.211-.358A3,3,0,0,0,327.086,295.327Zm36.742-19.163c-.061,3.643,3.117,6.689,6.6,7.75s7.227.6,10.85.215c6.37-.684,13.107-1.248,18.344-4.939a7.367,7.367,0,0,0,2.779-3.153,6.029,6.029,0,0,0-1.526-6.116,13.266,13.266,0,0,0-5.744-3.212,34.98,34.98,0,0,0-23.3.774C367.945,269.019,363.9,271.984,363.827,276.164ZM119.255,313.378c.686.64,2.077.8,2.344-.1A17.144,17.144,0,0,1,127,305.45a51.12,51.12,0,0,1,8.007-5.352c.75-.436.7-1.516.558-2.371l-.842-4.969c-.071-.42-.211-.92-.622-1.032a1.147,1.147,0,0,0-.942.35l-5.984,4.673c-4,3.121-8.279,6.7-9.146,11.7a5.452,5.452,0,0,0,1.223,4.933m15.559-11.15c-4.479,2.8-9.221,5.894-11.256,10.767a2.326,2.326,0,0,0-.234.951,1.739,1.739,0,0,0,1.142,1.444,5.094,5.094,0,0,0,1.914.268l11.5.136a.843.843,0,0,0,.536-.115c.232-.181.209-.534.163-.825q-.918-5.8-1.835-11.6c-.087-.55-.265-1.208-.8-1.357A1.488,1.488,0,0,0,134.813,302.229Zm190.519-6.665a14.47,14.47,0,0,0-8.6.449,11.8,11.8,0,0,0,2.716,4.664c4.21,4.438,5.454,10.882,5.932,16.98a96.651,96.651,0,0,1,.27,9.794l5.547-8.558a1.973,1.973,0,0,0,.393-.921,1.9,1.9,0,0,0-.288-.96c-1.825-3.523-4.506-6.561-6.2-10.15S322.89,298.691,325.332,295.564ZM136.171,146.253c-1.557.248-3.334.643-4.073,2.035a5.174,5.174,0,0,0-.2,3.205q1.016,6.657,2.03,13.315c3.464-6.228,6.707-12.576,9.949-18.922a2.774,2.774,0,0,0-2.558-.451Zm213.185,150.7c.48.636,1.731-.068,1.437-.809,4.626,1.328,9.668.383,14.038-1.635s8.184-5.042,11.938-8.053l-4.73-.661c-.322-.045-.739-.039-.862.262a9.331,9.331,0,0,1-4.7,4.618,27.759,27.759,0,0,1-6.435,1.927l-4.572.974C353.114,294.08,350.453,294.8,349.355,296.953Zm-83.686-32.184a1.415,1.415,0,0,0,.8-.4c.294-.372.147-.907.07-1.375s.041-1.091.509-1.172c.426.085.622.59.633,1.024a3.793,3.793,0,0,0,.072,1.292c.35.9,1.594.938,2.553.815l1.7-.217a.887.887,0,0,0,.5-.172c.42-.385-.165-1.012-.295-1.567-.1-.429.1-.892-.031-1.312-.224-.715-1.175-.825-1.924-.8l-17.188.57a9.036,9.036,0,0,0,.871,3.129,1.182,1.182,0,0,0,.426.546,1.271,1.271,0,0,0,.7.1l4.272-.2a.68.68,0,0,0,.35-.08c.26-.172.17-.568.05-.856l-.617-1.486c-.179-.431.6-.686.93-.355s.34.852.5,1.291a2.676,2.676,0,0,0,2.254,1.588A7.882,7.882,0,0,0,265.669,264.769ZM348.875,295.1c.312-.332-.377-.679-.829-.624l-7.74.949c-.345.042-.8.232-.718.569a16.672,16.672,0,0,1-.891,10.5c-.27.625-.448,1.578.2,1.788A59.368,59.368,0,0,1,348.875,295.1Zm-87.9-27.71a1.635,1.635,0,0,0-.385-.773,1.567,1.567,0,0,0-.922-.319,14.517,14.517,0,0,0-5.064.341q.775,2.512,1.549,5.024a1.147,1.147,0,0,0,.538.8,1.13,1.13,0,0,0,.5.041l5.006-.351Q261.654,269.749,260.972,267.388Zm-10.866,5.855a.966.966,0,0,0,.621.036l4.533-.738-1.635-5.242a.792.792,0,0,0-1.041-.72l-4.041.47c-.253.029-.553.093-.647.33a.718.718,0,0,0,.056.5l1.78,4.8A.968.968,0,0,0,250.107,273.242Zm16.976-6.98a1.618,1.618,0,0,0-1.214-.224l-3.992.328a43.593,43.593,0,0,0,1.5,5.031,1.211,1.211,0,0,0,.351.581,1.233,1.233,0,0,0,.828.146l2.725-.164c.418-.025.927-.115,1.068-.509a1.1,1.1,0,0,0-.02-.6q-.415-1.846-.829-3.691A1.615,1.615,0,0,0,267.082,266.263Zm-7.938,12.25a.658.658,0,0,0-.367.138c-.187.18-.1.49,0,.73l1.049,2.566a1.26,1.26,0,0,0,1.486,1.01l3.622-.021a.782.782,0,0,0,.505-.12c.247-.2.155-.6.041-.9l-1.393-3.673c-.149-.393-.7-.4-1.111-.334ZM269.3,266.021a.706.706,0,0,0-.773,1.079q.515,1.946,1.03,3.893a.858.858,0,0,0,1.219.735l3.434-.524a30.2,30.2,0,0,0-.631-3.949,1.626,1.626,0,0,0-.573-1.074,1.661,1.661,0,0,0-.907-.17Zm2.33,16.762q-.556-2.02-1.113-4.041c-.141-.514-.342-1.1-.84-1.291a1.735,1.735,0,0,0-.78-.052l-3.665.319q.483,1.81,1.142,3.566c.221.589.556,1.256,1.177,1.356A16.334,16.334,0,0,0,271.632,282.782Zm2.126-.093a4.722,4.722,0,0,0,3.217-.506l-1.164-4.527a1.274,1.274,0,0,0-.515-.88,1.261,1.261,0,0,0-.758-.051l-3.291.458a21.453,21.453,0,0,0,1.317,4.662,1.422,1.422,0,0,0,.4.62A1.474,1.474,0,0,0,273.759,282.689Zm98.66-21.481L374.955,256a.751.751,0,0,0-.162-1.075l-3.611-3.818a3.549,3.549,0,0,0-.362,2.455q.393,4.15.786,8.3C371.974,261.946,372.253,261.547,372.419,261.208Zm-97.444,4.611a.42.42,0,0,0-.509.607l.715,3.447a2.1,2.1,0,0,0,.514,1.174c1.039.948,3.042-.683,4.009.34a13.914,13.914,0,0,0-.359-4.882.6.6,0,0,0-.148-.307.609.609,0,0,0-.375-.112Zm-23.919,8.521a.878.878,0,0,0-.4.121c-.253.179-.243.552-.206.86a5.821,5.821,0,0,0,.633,2.379,1.989,1.989,0,0,0,2.078,1.016l3.435-.922a10.574,10.574,0,0,0-.654-3.207,1.217,1.217,0,0,0-.451-.665,1.293,1.293,0,0,0-.831-.072Zm26.705-9.6a1.776,1.776,0,0,0,.968-.351c.762-.7-.109-2.137.509-2.97.241-.326-.35-.617-.754-.6l-5.426.229a14.141,14.141,0,0,0,.388,2.218,2.335,2.335,0,0,0,1.819,1.546A6.874,6.874,0,0,0,277.762,264.738Zm-14.618,9.742c-.233-1.119-1.731-1.38-2.854-1.171s-2.378.615-3.333-.013a9.867,9.867,0,0,0,.81,3.435,1.17,1.17,0,0,0,.436.587,1.243,1.243,0,0,0,.822.046l3.323-.574c.549-.095,1.272-.529.984-1.006C263.1,275.406,263.234,274.915,263.144,274.48Zm-6.842,4.593-2.715.46c-.49.083-1.094.28-1.146.773-.132,1.25,1.113,2.257,2.344,2.505a37.48,37.48,0,0,0,3.759.129,10.036,10.036,0,0,0-.656-3.107,1.4,1.4,0,0,0-.4-.634A1.518,1.518,0,0,0,256.3,279.073Zm23.847-2.424a11.518,11.518,0,0,0-3.6.188,20.9,20.9,0,0,1,1.377,4.853c.119.764,1.21.778,1.959.588a.894.894,0,0,0,.863-1.122q-.1-2.057-.193-4.114a.348.348,0,0,0-.4-.393Zm-19.608,12.288a2.317,2.317,0,1,0-3.9-1.148A2.441,2.441,0,0,0,260.541,288.938Zm8.9-13.248c.72-.94-.358-2.328-1.525-2.532s-2.349.243-3.533.225c-.436-.007-.455.65-.313,1.062l.55,1.6c.075.219.211.48.441.466l2.534-.159A2.418,2.418,0,0,0,269.441,275.689Zm11.672,9.077a1.3,1.3,0,0,0-.42-.615,1.342,1.342,0,0,0-.635-.216,3.053,3.053,0,0,0-3.231,3.32,2.515,2.515,0,0,0,4.285-2.489ZM270.173,274.09a1.786,1.786,0,0,0,1.393,1.649,5.224,5.224,0,0,0,2.311-.062,1.426,1.426,0,0,0,1.036-.512c.437-.727-.431-2.061.37-2.34l-1.614-.222a5.218,5.218,0,0,0-2.135,0A1.78,1.78,0,0,0,270.173,274.09Zm6.432.994a2.227,2.227,0,0,0,2.937-.159,2.5,2.5,0,0,0,.285-2.993l-4.281.794A4.11,4.11,0,0,0,276.6,275.084Zm110.25-13.638-3.334,1.235a6.605,6.605,0,0,0-1.589.756A4.012,4.012,0,0,0,386.854,261.447Zm-103.27-88.18a.9.9,0,0,0-1.03-.8.966.966,0,0,0,1.027.866Z" transform="translate(5562.644 4040)" fill="#00160a" fill-rule="evenodd"/>
  </g>
</svg>
