<svg xmlns="http://www.w3.org/2000/svg" xmlns:xlink="http://www.w3.org/1999/xlink" width="364.022" height="392.027" viewBox="0 0 364.022 392.027">
  <defs>
    <clipPath id="clip-path">
      <rect id="Rectangle_9" data-name="Rectangle 9" width="313.132" height="297.581" transform="translate(0 0)" fill="#fff"/>
    </clipPath>
  </defs>
  <g id="Group_46" data-name="Group 46" transform="translate(-6450 -4122.81)">
    <path id="Path_73" data-name="Path 73" d="M469.315,87.034a78.464,78.464,0,0,0-52.993,70.049,175.5,175.5,0,0,1,100.293,79.208c1.1-.322,2.2-.672,3.294-1.047a78.3,78.3,0,1,0-50.594-148.21Z" transform="translate(6241.011 4040)" fill="#64fcd9"/>
    <path id="Path_74" data-name="Path 74" d="M432.748,295.842c-28.282-82.851-118.585-127.127-201.53-98.812S103.892,315.6,132.175,398.447,250.76,525.574,333.706,497.259,461.029,378.69,432.748,295.842Z" transform="translate(6326.81 4009.024)" fill="#64fcd9"/>
    <path id="Path_75" data-name="Path 75" d="M321.68,335.06c-.31,4.6,5.031,12.891,6.518,14.607,1.812,2.092,4.02,26.335,4.02,26.335-5.189-.379-7.823,2.117-8.47,2.839a28.467,28.467,0,0,1-.163,6.294c-.035.182-.625.206-1.429.238a17.52,17.52,0,0,0-2.241.192c-1.2.206-1.341,1.761-1.425,2.7-.006.069-.012.134-.018.2,0,.031-.006.062-.009.09-.471,4.279,2.149,6.081,5.244,8.211.606.417,1.23.846,1.853,1.309a33.593,33.593,0,0,0,5.711,2.879,11.912,11.912,0,0,1-.025,1.194c-.156,4.214-.682,18.45,2.47,24.25,2.818,5.186,8.663,3.418,11.859,2.452a6.451,6.451,0,0,1,2-.445c17.571,3.2,65.518,1.1,65.7-2.69.018-.366,0-1.668-.027-3.594h0c-.132-9.661-.479-35.016,2.355-36.551.82-.444,1.62-.872,2.407-1.292h0c3.157-1.687,6.1-3.263,9.3-5.333,9.053-5.871,15.3-10.7,20.26-20.537,9.492-18.828,2.309-38.724-11.126-52.686-2.06-2.142-4.184-4.227-6.444-6.154-3.321-2.832-6.8-5.475-10.282-8.108a57.632,57.632,0,0,0-5.556-3.526h0c-4.6-2.687-9.525-5.569-11.516-10.048-2.314-5.2-.177-12.768,1.6-17.653l.251-.689c2.678-7.341,4.947-13.559,5.484-21.552.586-8.65.027-16.674-3.271-24.619a29.988,29.988,0,0,1-2.152-13.291,10.365,10.365,0,0,1,3.06,1.949,11.49,11.49,0,0,0,2.75,1.833,7.267,7.267,0,0,0-2.586-3.418,14.492,14.492,0,0,1-1.677-1.667,8.355,8.355,0,0,1,3.6-.056,11.033,11.033,0,0,0,2.968.112c-.22-.091-.445-.168-.671-.245h0a6.78,6.78,0,0,1-1.022-.411c-2.109-1.127-.7-3.713.293-5.547a9.707,9.707,0,0,0,.693-1.426,21.973,21.973,0,0,0,.569-7.863c-.842-6.245-4.123-12.362-9.541-15.8-2.129-1.349-5.959-2.538-8.339-3.243-.511,0-1.021.016-1.531.033-.638.02-1.277.04-1.916.029-.107-.036-.392.821-.634,1.551h0a5.517,5.517,0,0,1-.372.993c-1.161.58-2.151,1.029-3.032,1.429h0a17.9,17.9,0,0,0-7.84,5.766c-3.124,3.681-2.7,7.11-2.21,9.648-2.022-.261-4.544-1.9-6.442-3.135-1.268-.824-2.258-1.468-2.638-1.4-.635.11-1.273.21-1.91.31-1.124.175-2.248.35-3.36.585a6.6,6.6,0,0,0,3.642,1.288c1.482.217,2.951.432,3.936,1.67-.848.445-.734,1.3-.628,2.089s.206,1.538-.7,1.742c-.471.107-.961.215-1.467.327-3.585.793-7.9,1.748-10.944,3.312-10.53,5.414-14.887,13.154-19.936,23.423-.821,1.67-1.662,3.88-2.5,6.085h0c-.823,2.162-1.645,4.32-2.443,5.959-.559,1.148-2.079,1.776-3.6,2.4s-3.021,1.248-3.589,2.383c-.013.026-.027.052-.041.08-.1.2-.228.44-.126.626s.423.18.645.163a1.421,1.421,0,0,0,.221-.092h0c.64-.293,2.489-1.14,3.895-.363,1.438.794,4.337,3.813,3.419,5.04-3.687,4.937-2.284,10.872-1.2,15.158,1.342,5.325,3.063,6.849,4.516,8.135h0c.262.233.515.457.756.694a6.368,6.368,0,0,1,1.06,2.229h0a5.286,5.286,0,0,0,.664,1.52c.037.041.174-.139.374-.4.775-1.017,2.5-3.275,2.991,1.238.509,4.662,1.2,6.422,3.049,11.11h0c.432,1.095.926,2.35,1.5,3.84.236.617.463,1.228.685,1.825a27.35,27.35,0,0,0,2.882,6.306c.1.139-1.281.7-2.1,1.032h0c-.256.1-.457.185-.54.224a12.984,12.984,0,0,0-2.641,1.687,6.775,6.775,0,0,1-3.638,1.663c-2.248.372-6.079,1.944-9.224,3.235h0c-1.348.553-2.57,1.055-3.488,1.388-1.4.507-2.727.987-4.007,1.45h0c-10.964,3.96-18.09,6.535-28.569,11.94-2.507,1.293-6.517,1.69-10.341,2.068h0c-3.49.345-6.825.674-8.723,1.657,1.155-.317-3.866,2.746-3.866,2.746a13.936,13.936,0,0,0-4.375,7.988,32.924,32.924,0,0,0,.151,12.214,48.334,48.334,0,0,1,.428,4.927c.2,3.951.368,7.223,3.527,9.97,1.7,1.479,2.016,1.459,2.612,1.421a3.843,3.843,0,0,1,.625,0c.7.059,1.175.938,1.642,1.813a9.337,9.337,0,0,0,.674,1.134c1.214,1.633,4.84,1.744,6,.344.673-.814,1.682.04,2.691.893a6.531,6.531,0,0,0,1.624,1.137,7.743,7.743,0,0,0,4.38.155c1.626-.329,2.205-2.813,1.935-4.527-.083-.525,1.325-.074,2.352.254a7.962,7.962,0,0,0,.92.264c1.139.167,2.232.383,3.3.6a40.069,40.069,0,0,0,4.464.715,28.915,28.915,0,0,0,12.4-1.844,15.008,15.008,0,0,0,4.025-1.93,5.075,5.075,0,0,0,.827-.534,2.991,2.991,0,0,0,1.086-1.714,2.694,2.694,0,0,0-.207-1.873c-1.8-2.314-10.586-4.7-16.167-4.613-.844.013-1.687.066-2.529.118h0c-.915.057-1.829.115-2.745.121l-.145,0c-.288.008-.62.016-.773-.2-.176-.251-.032-.836.094-1.344a2.6,2.6,0,0,0,.128-.782,4.323,4.323,0,0,0-.659-1.6,6.324,6.324,0,0,0-3.882-3.042,3.359,3.359,0,0,0-1.057-.078,2.93,2.93,0,0,1-1.163-.117,6.235,6.235,0,0,1,2.707-2.529c.4-.254.8-.5,1.138-.758l-.015,0c1.269-.739,2.568-1.582,3.392-2.118h0a5.59,5.59,0,0,1,.863-.532,5.561,5.561,0,0,0,3.2-.962,13.126,13.126,0,0,1,1.248-.614l.454-.184.539-.22h0c1.976-.807,3.954-1.613,6-2.22,1.89-.559,3.83-.934,5.768-1.309.51-.1,1.019-.2,1.528-.3l.073-.015a.98.98,0,0,1,.685.015,24.521,24.521,0,0,0,3.517-3.234c2.329-2.3,5.05-5,5.6-5.01.112,0-.1.158-.534.475a22.31,22.31,0,0,0-6.087,6.356C322.431,327.969,321.733,334.262,321.68,335.06ZM300.2,409.976a.722.722,0,0,1,.075.688,1.257,1.257,0,0,0-.06.447c.115,1.549.293,3.092.48,4.634.021.174.064.368.108.57a2.954,2.954,0,0,1,.083,1.456c-.118.361-.736.469-1.021.476-.6.017-1.2,0-1.8-.013h0a22.147,22.147,0,0,0-2.791.048,5.379,5.379,0,0,0-4.6,5.711c.04.4.832.883,1.16.92a9.949,9.949,0,0,0,2.837,0h0a16.275,16.275,0,0,1,2.177-.148,30.621,30.621,0,0,1,3.148.155c.517.052.9.243.709.868-.289.951-1.2,1.3-2.073,1.63a5.966,5.966,0,0,0-1.137.521c-1.5.98-1.756,2.883-1.982,4.536-.04.284-.077.561-.12.824l-.006.033-.008.049c-.062.37-.208,1.258.053,1.527.31.32,1.486.32,1.853.32.661,0,1.322-.019,1.983-.037h0c1.1-.03,2.2-.061,3.293-.011a9.361,9.361,0,0,1,5,1.5c1.77,1.1,2.174,3.521,1.916,5.407a5.51,5.51,0,0,1-.575,1.544c-.421.865-.832,1.713-.356,2.415.638.941,2.514,1.127,3.488,1.223l.206.021c1.057.113,2.118.19,3.177.268h0c1.129.082,2.257.165,3.382.29,3.654.41,8.052,1.369,11.837,2.195h0l.016,0c1.228.268,2.391.522,3.443.737.259.054.521.1.782.145h0c.308.054.616.107.921.175l.016,0c.245.054.826.181.622.652-.315.721-1.6.69-2.447.669-.739-.018-1.151-.028-.312.471-3.355,1.463-7.074,1.8-10.681,2.029a168.573,168.573,0,0,1-21.728.216c-6.563-.253-8.3-.45-12.764-.956h0c-1.221-.139-2.647-.3-4.432-.493-1.043-.112-2.1-.219-3.155-.327h0a124.552,124.552,0,0,1-13.891-1.94c-4.983-1.089-7.988-1.979-9.391-4.354a3.506,3.506,0,0,0-1.2-1.089c-.371-.24-.653-.423-.6-.643.256-1.067.494-1.12.756-1.178h0a.991.991,0,0,0,.2-.062,14,14,0,0,1,1.79-.618h0c.288-.086.576-.171.856-.263a5.245,5.245,0,0,1,1.53-.136c1.191,0,2.464,0,2.7-1.243a18.772,18.772,0,0,0,.213-3.036c.014-.792.028-1.573.11-2.27.058-.5,1.484-.475,2.458-.456.637.013,1.081.021.823-.124-2.459-1.407-3.15-6.417-3.446-8.925-.62-5.275-.091-8.66.721-13.858v0c1.127-7.234,2.651-12.372,6.371-18.718.426-.726.8-1.38,1.157-2h0a73.54,73.54,0,0,1,4.1-6.529,4.077,4.077,0,0,1,2.2-1.4,4.449,4.449,0,0,1,.577-.041c.755-.025,1.812-.061,2.216-.84a23.369,23.369,0,0,0,1.236-2.949h0a13.565,13.565,0,0,1,2.395-4.552c1.612-1.913,2.941-2.35,4.96-1.556a1.956,1.956,0,0,1,1.206,1.571,8.822,8.822,0,0,1-1.375,4.327,11.967,11.967,0,0,0-1.286,3.172,13.258,13.258,0,0,1,1.631.322h0c1.5.349,3.4.791,3.9.3,1.347-1.31,2.2-4.08,2.695-5.674l.028-.091c.453-1.465,1.349-2.8,3.237-2.511s2.313,1.724,2.782,3.329a14.051,14.051,0,0,0,.61,1.785,13.266,13.266,0,0,1-.037,11.047,18.445,18.445,0,0,1-1.209,2.016,9.32,9.32,0,0,0-1.88,4.259,15.808,15.808,0,0,0,.245,3.553c.288,2.008.577,4.011-.435,5.9C299.366,406.211,299.573,411.453,300.2,409.976Zm-71.076,52.8a43.862,43.862,0,0,0-7.618-.779c-1.209-.052-2.433-.1-3.7-.206-2.79-.229-5.577-.5-8.363-.769h-.007c-3.331-.323-6.663-.646-10-.9-.747-.056-1.532-.047-2.33-.037-2.2.028-4.491.056-6.314-1.294-1.379-1.019-1.268-2.794-1.168-4.375a13.957,13.957,0,0,0,.043-1.408c-.044-1-.143-2.012-.243-3.034-.287-2.937-.58-5.933.421-8.755.8-2.253,3.421-3.061,5.44-3.682l.123-.038a2.839,2.839,0,0,1-.328.315h0c-.975.894-3.687,3.382-2.367,3.419.836.025.891,2.586.955,5.585.077,3.609.168,7.85,1.652,9.06s36.9,5.284,41.338,3.978c2.692.145,2.24-15.377.081-15.91a19.2,19.2,0,0,0-2.894-.223c-1.62-.057-3.124-.11-2.519-.441s.7-1.117.776-1.829c.068-.611.129-1.171.511-1.362,1.275-.637,5.11-.2,5.211-.184.262.042.528.071.794.1h0a6.819,6.819,0,0,1,1.619.3c.837.308.9,1.111.908,1.829q.052,6.391-.032,12.78c-.015,1.386-.073,3.425-.874,4.664-1.585,2.455-4.674,2.717-7.387,2.947h0c-.637.054-1.253.106-1.824.184C230.417,462.775,229.8,462.775,229.125,462.775Zm5.347-78.849c-.288-.312-.805-.811-1.4-1.384a26.564,26.564,0,0,1-3.379-3.612c-.64-1.108-3.328-6.754-1.083-8.013a2.868,2.868,0,0,1,1.572-.229,11.908,11.908,0,0,0,2.327-.127,28.489,28.489,0,0,0,4.926-1.4,21.023,21.023,0,0,1,7.426-1.618c7.318.152,13.417,4.775,13.272,5.7-1.327,8.51-8,14.064-16.233,13.732-2.815-.113-4.47-1.167-6.8-2.654l-.008-.006Zm80.522-29.441c-.142.039-.274.075-.394.11-.7.068-1.472.21-2.27.357-2.595.479-5.5,1.017-7.6-.736-1.728-1.443-4.792-5-2.039-7.015a6.825,6.825,0,0,1,1.509-.848,5.488,5.488,0,0,1,1.639-.378,9.754,9.754,0,0,1,2.28.24,13.718,13.718,0,0,0,1.581.23c.618.04,1.239.036,1.86.033.457,0,.913-.006,1.369.009.344.012.686.022,1.029.033,1.319.04,2.638.079,3.951.2a.684.684,0,0,1,.566.263c.059.117-.037.248-.125.368-.026.035-.052.069-.071.1-.132.213-.269.393-.4.561a2.022,2.022,0,0,0-.564,1.659,5.174,5.174,0,0,0,.315,1.174,5.161,5.161,0,0,1,.317,1.189C318.109,353.633,316.212,354.151,314.994,354.484Z" transform="translate(6307.607 4016.113)" fill="#fff" fill-rule="evenodd"/>
    <path id="Path_76" data-name="Path 76" d="M203.86,562.558s3.421-.8,4.15.349.588,6.995-1.687,7.978S203.372,565.365,203.86,562.558Z" transform="translate(6303.339 3899.439)" fill="#ffb61d" fill-rule="evenodd"/>
    <path id="Path_77" data-name="Path 77" d="M222.585,566.878s3.577.765,4.274-.064c0,0,1.088,4.43.165,5.5a2.311,2.311,0,0,1-3.394,0C221.859,570.593,222.585,566.878,222.585,566.878Z" transform="translate(6297.849 3898.111)" fill="#ffb61d" fill-rule="evenodd"/>
    <path id="Path_78" data-name="Path 78" d="M243.943,562.285s2.092,1.271,3.328,0a31.487,31.487,0,0,1-.081,9.463s-.226,2.737-2.023,2.469-1.527-2.24-1.738-3.895A50.171,50.171,0,0,1,243.943,562.285Z" transform="translate(6291.711 3899.439)" fill="#ffb61d" fill-rule="evenodd"/>
    <path id="Path_79" data-name="Path 79" d="M375.677,423.047a2.554,2.554,0,0,0-2.637,1.705c-.647,1.913.341,3.308,1.745,3.537s2.921.021,3.535-1.648.069-3.167-1.426-2.873A1.859,1.859,0,0,0,375.677,423.047Z" transform="translate(6253.758 3940.26)" fill="#e7eaee" fill-rule="evenodd"/>
    <path id="Path_80" data-name="Path 80" d="M376.851,423.206a1.527,1.527,0,0,1,1.532.751,3.051,3.051,0,0,1-.026,2.6,2.715,2.715,0,0,1-1.571,1.641,4.542,4.542,0,0,1-2.248.231,2.619,2.619,0,0,1-2.08-1.455,3.475,3.475,0,0,1-.107-2.559,2.841,2.841,0,0,1,1.254-1.554,3.3,3.3,0,0,1,1.879-.384v-.013a1.61,1.61,0,0,1,.739.221A2.7,2.7,0,0,1,376.851,423.206Zm-1.412.086c.013,0,.026,0,.036,0a.909.909,0,0,1,.471.146,2,2,0,0,1,.452.385.373.373,0,0,0,.368.141.94.94,0,0,1,1.209.622,2.866,2.866,0,0,1-.088,1.8,2.157,2.157,0,0,1-1.267,1.39,3.632,3.632,0,0,1-1.981.035,1.907,1.907,0,0,1-1.388-1.184,2.591,2.591,0,0,1,.086-1.875,1.943,1.943,0,0,1,.77-1.08,2.5,2.5,0,0,1,1.332-.4Z" transform="translate(6253.956 3940.428)" fill="#e7eaee" fill-rule="evenodd"/>
    <path id="Path_81" data-name="Path 81" d="M255.015,492.855c-.491.892-.982,1.66-1.47,2.431-.018.029.008.083,0,.12-.539,1.641-.517,1.6-2,.9a1.813,1.813,0,0,0-2.289.149c-.706.645-1.029-.218-1.357-.756q-.862-1.414-1.8-2.783c-.1-.148-.381-.174-.578-.256a1.842,1.842,0,0,0,.04.657c.254.549.567,1.071.853,1.606.411.766,1.537,1.366.558,2.482-.059.067.388.608.634.9a2.354,2.354,0,0,0,.5.352c-.3,0-.719.118-.891-.034a9.472,9.472,0,0,1-2.993-4.093,24.625,24.625,0,0,0-1.566-4.483c-.523-.929-.119-1.227.351-1.742s.837-.228.951.225c.481,1.9,2.157,2.786,3.35,4.077a.618.618,0,0,0,.571.124c1.4-.87,1.928-.766,2.721.6.095.163.156.345.25.508.236.411.481.818.724,1.226a6.038,6.038,0,0,0,.97-1.235c.476-1.108.79-2.285,1.275-3.388.166-.377.647-.617.983-.919a3.373,3.373,0,0,1,.452.727c.51,1.627.92,3.29,1.519,4.882.218.58.36,1.5,1.65.971a9.945,9.945,0,0,0,4.492-3.355,22.014,22.014,0,0,1,2.837-2.87c.476-.447.876-.255,1.04.351a6.527,6.527,0,0,1-1.158,5.69,11.188,11.188,0,0,1-3.223,3.376,4.325,4.325,0,0,1-1.245.319,5.211,5.211,0,0,1,.59-1.086c1.057-1.178,2.688-1.857,3.1-3.6.139-.592.339-1.171.452-1.766.026-.138-.184-.32-.286-.483-.144.1-.341.173-.424.312-1.813,3.008-4.741,4.358-7.945,5.216-.517.139-1.125-.345-1.15-1.142-.045-1.436-.153-2.87-.238-4.305,0-.032-.049-.09-.068-.088C255.129,492.676,255.073,492.708,255.015,492.855Z" transform="translate(6291.995 3921.208)" fill="#ffb61d" fill-rule="evenodd"/>
    <path id="Path_82" data-name="Path 82" d="M389.11,464.271c-2.022.245-3.923.479-5.819.747a2.975,2.975,0,0,0-.787.372c.2.2.368.5.612.591,1.337.519,2.675,1.054,4.05,1.455a16.487,16.487,0,0,0,3.5.685,31.145,31.145,0,0,0,3.719-.178c.2-.011.406-.014.609-.021-.119.332-.207.935-.363.953a24.624,24.624,0,0,1-4.1.271,33.553,33.553,0,0,1-9.129-2.191c-.539-.186-.58-1.87-.1-2.194a9.459,9.459,0,0,1,6.292-1.465,37.934,37.934,0,0,1,4.811.527,24.737,24.737,0,0,1,3.8,1.441c.044.018.025.321.018.322a5.926,5.926,0,0,1-1.854.127C392.653,465.3,390.949,464.76,389.11,464.271Z" transform="translate(6251.372 3928.473)" fill="#ffb61d" fill-rule="evenodd"/>
    <path id="Path_83" data-name="Path 83" d="M391.98,458.682a14.534,14.534,0,0,1-2.058.53c-.041.008-.24-.336-.194-.438a15.3,15.3,0,0,1,.938-1.8.73.73,0,0,1,.628.082C391.55,457.55,391.718,458.094,391.98,458.682Z" transform="translate(6248.809 3930.324)" fill="#ffb61d" fill-rule="evenodd"/>
    <path id="Path_84" data-name="Path 84" d="M251.073,454.613c-.681.23-1.239.461-1.8.692.423.288.863.556,1.267.868a11.51,11.51,0,0,0,6.741,2.393,20.779,20.779,0,0,0,12.18-3.467c.232-.144.407-.4.652-.5.482-.184,1-.288,1.5-.425-.139.554-.089,1.341-.444,1.624a18.363,18.363,0,0,1-8.891,3.91,32.88,32.88,0,0,1-6.995.237c-2.138-.154-4-1.31-5.848-2.407-2.343-1.394-4.673-2.96-7.651-2.353a.449.449,0,0,1-.266-.057,1.44,1.44,0,0,1,.076-.694c.093-.149.438-.31.559-.247a1.021,1.021,0,0,0,1.554-.357c.163-.237.857-.293,1.227-.175,1.711.548,3.295-.028,4.922-.387,1.544-.341,3.115-.562,4.668-.868,1.506-.3,3-.655,4.5-.953a10.211,10.211,0,0,1,8,1.45.99.99,0,0,1,.171.171c-.353.368-.668.938-1.087,1.028s-.949-.3-1.434-.464a3.179,3.179,0,0,0-.878-.238,57.124,57.124,0,0,0-12.431,1.048C251.3,454.458,251.253,454.555,251.073,454.613Z" transform="translate(6292.257 3932.004)" fill="#e7eaee" fill-rule="evenodd"/>
    <path id="Path_85" data-name="Path 85" d="M265.584,433.4c-.189,1.093-.42,2.182-1.537,2.33a3.838,3.838,0,0,1-2.374-.551c-.912-.579-1-2.063-.433-3.2a2.5,2.5,0,0,1,2.752-1.248c.221.061.365.466.488.739.021.047-.22.274-.372.324-.255.084-.543.064-.8.14-.649.19-1.45.344-1.13,1.292a1.872,1.872,0,0,0,.917,1.111c.905.3,1.177-.536,1.5-1.147a9.511,9.511,0,0,0,.406-1.016A11.8,11.8,0,0,1,265.584,433.4Z" transform="translate(6286.578 3938.027)" fill="#e7eaee" fill-rule="evenodd"/>
    <path id="Path_86" data-name="Path 86" d="M256.14,445.66a4.771,4.771,0,0,1,.673-.064c1.555-.182,1.706-.082,1.947,1.5a.742.742,0,0,1-.285.614c-1.655.9-2.4.466-2.4-1.38A2.729,2.729,0,0,1,256.14,445.66Z" transform="translate(6287.987 3933.667)" fill="#e7eaee" fill-rule="evenodd"/>
    <path id="Path_87" data-name="Path 87" d="M270.147,445.176c-1.02.011-1.363-.537-1.183-1.3.067-.281.782-.706.939-.615a6.483,6.483,0,0,1,1.225,1.189A6.788,6.788,0,0,1,270.147,445.176Z" transform="translate(6284.223 3934.334)" fill="#e7eaee" fill-rule="evenodd"/>
    <g id="Group_10" data-name="Group 10" transform="translate(6450 4180.906)" clip-path="url(#clip-path)">
      <path id="Path_88" data-name="Path 88" d="M186.559,432.266a1.634,1.634,0,0,1,.188,2.516c-.451.441-.984.8-1.449,1.224a2.973,2.973,0,0,0-.93,3.314,3.706,3.706,0,0,0,2.785,2.289,8.454,8.454,0,0,0,4.6-.319,1.435,1.435,0,0,0,1.024-1.653c-.17-1.737-.083-3.5-.2-5.244-.061-.9.662-.75,1.06-.873a11.851,11.851,0,0,1,3.247-.7,5.635,5.635,0,0,1,2.277.853c-1.236.061-2.42-.024-3.579.107-.414.046-.77.613-1.152.943.269.242.528.679.807.693a31.691,31.691,0,0,0,3.233-.079c.85-.048,1.164-.539,1-1.357.549,1.351.294,2.171-.816,2.7-.168.08-.279.268-.436.379-.186.131-.392.233-.59.348.041-.194.184-.452.108-.574-.8-1.294-2.074-.438-3.122-.6-.213-.033-.729.532-.751.845a24.258,24.258,0,0,0,0,3.792,1.614,1.614,0,0,0,.84,1.146c.493.19,1.192.237,1.407-.626.256-1.028.6-2.036.9-3.054.043-.144.083-.289.125-.434a1.928,1.928,0,0,1,.115.44c.018,1.1-.216,2.355,1,2.973a8.073,8.073,0,0,0,2.567.728c1.762.237,3.539.371,5.313.5.6.044,1.216-.093,1.173-.9a15.012,15.012,0,0,0-.342-3.656,3.42,3.42,0,0,1,.718-3.557c.621-.56,2.128-.177,3.237-.136a3.685,3.685,0,0,1,1.044.419c.41.158,1.164.272,1.178.454a3.429,3.429,0,0,1-.285,1.928c-1.284,2.157-1.085,3.82.5,5.384a4.825,4.825,0,0,0,2.82.78c1.6.121,1.7.019,1.908,1.426.325,2.253.615,4.524.729,6.8.124,2.457.013,4.925.047,7.387,0,.305.269.605.413.9a4.242,4.242,0,0,0,.786-.542,3.406,3.406,0,0,0,.764-2.506c-.044-4.368-.025-8.734-.016-13.1,0-.965-.089-1.773-1.407-1.322-.014,0-.156-.2-.134-.281.338-1.162-.142-1.566-1.274-1.431a4.275,4.275,0,0,1-.825-.069c-.686-.057-1.376-.079-2.056-.181a7.279,7.279,0,0,1-1.165-.368,2.771,2.771,0,0,1,.836-.337,18.994,18.994,0,0,1,2.615,0,28.806,28.806,0,0,1,3.594.5,1.418,1.418,0,0,1,1.3,1.528c-.047,4.939.033,9.88-.041,14.82a5.6,5.6,0,0,1-5.553,5.474c-1.848-.047-3.8.726-5.54.36-3.662-.763-7.365-.382-11.018-.874-1.222-.165-2.468-.14-3.7-.267-2.933-.305-5.858-.676-8.792-.962-1.554-.148-3.119-.17-4.679-.256-2.916-.162-5.833-.319-8.748-.495a4.049,4.049,0,0,1-2.974-2.872c-.268-3.611-.642-7.225-.689-10.839a8.437,8.437,0,0,1,1.88-5.838,5.849,5.849,0,0,1,4.187-2.006c.282-.033.572,0,.857-.006s.581-.027.872-.041c-.24.132-.476.274-.722.392-.953.46-1.93.877-2.856,1.387a1.309,1.309,0,0,0-.552.843c-.028.162.339.536.57.577,1.448.259,2.886.643,4.158-.654a3.609,3.609,0,0,0,.879-4.081,3.153,3.153,0,0,1-.107-3.069c.229-.381.843-.52,1.258-.8A5.078,5.078,0,0,1,186.559,432.266Zm-14.077,9.557c-.166.267-.468.528-.476.8-.046,1.564-.078,3.131-.01,4.691.119,2.751.346,5.5.467,8.245a2.709,2.709,0,0,0,2.408,2.916,30.1,30.1,0,0,0,5.208.7c2.987-.022,5.861.668,8.79.987,3.18.346,6.395.4,9.6.52,1.646.066,3.3-.019,4.944.019,2.255.052,4.508.154,6.762.242.19.008.376.1.566.1,1.125.052,2.252.124,3.377.107.189,0,.372-.4.558-.608-.2-.115-.384-.31-.588-.329a19.757,19.757,0,0,1-3.563-.294c-4.426-1.27-9.012-.819-13.5-1.385-1.807-.225-3.7.3-5.527.157-3.477-.272-6.943-.726-10.4-1.209a39.75,39.75,0,0,1-5.062-1.2c-.532-.635-1.335-1.2-1.535-1.927a22.334,22.334,0,0,1-.54-4.189c-.2-2.539-.31-5.09-.541-7.627C173.391,442.274,172.806,442.06,172.481,441.823Zm3.777.234c-1.173.209-1.455.92-1.337,1.978.11.982.2,1.971.245,2.957.1,2.416.149,4.832.264,7.245a1.439,1.439,0,0,0,1.265,1.566c1.752.283,3.479.742,5.238.943,2.872.329,5.758.552,8.643.75,4.1.281,8.214.5,12.322.742.245.014.492-.019.735.006q5.069.482,10.137.981a8.8,8.8,0,0,1,1.253.228c1.813.456,2.865-.319,2.827-2.16-.021-.987-.186-1.971-.228-2.96-.1-2.413-.175-4.829-.251-7.245-.083-2.652-1.193-3.218-3.511-3.281a1.209,1.209,0,0,0-1.385,1.286c.025.866.253,1.732.214,2.592-.105,2.262-.25,4.524-.5,6.775a3.921,3.921,0,0,1-.859,2.441,2.288,2.288,0,0,1-2.575.6,2.434,2.434,0,0,1-1.2-2.262c-.066-2.47-.158-4.941-.24-7.657.081-.619.141-1.242.25-1.858a1.865,1.865,0,0,0-1.976-2.438q-2.954-.074-5.906-.245c-1.626-.1-2.024.192-1.921,1.759.09,1.366.341,2.721.467,4.084a28.873,28.873,0,0,1,.214,3.939,2.1,2.1,0,0,1-1.168,2,3,3,0,0,1-3.894-1.192,9.531,9.531,0,0,1-.983-3.733c-.1-2,.135-4.012.188-6.019.028-1.089-.465-1.424-1.518-1.146a1.55,1.55,0,0,1-.7.066c-1.381-.308-2.743-.734-4.139-.918-.453-.06-1.378.44-1.416.764a12.1,12.1,0,0,0-.012,4.142,9.966,9.966,0,0,1-1.072,6.857c-.12.253-.72.278-1.1.41.139-.2.291-.4.414-.611a1.528,1.528,0,0,0,.221-.517c.257-1.693.551-3.383.722-5.084.1-1.006-.605-1.594-1.675-1.6-.9-.008-2.083.954-1.965,1.721.257,1.674.614,3.334.943,4.994.076.382.2.754.306,1.127a8.268,8.268,0,0,1-1.231-.852,1.8,1.8,0,0,1-.508-1c-.134-1.267-.226-2.54-.256-3.815-.04-1.754,0-3.51-.025-5.263a1.351,1.351,0,0,0-.339-.822C178.336,441.348,177.291,441.87,176.259,442.057Zm33.837,4.221a1.763,1.763,0,0,0-1.261.885,8.5,8.5,0,0,0-.292,2.326c-.1,1.352-.139,2.71-.259,4.059-.11,1.242.008,2.419,1.115,3.169a1.329,1.329,0,0,0,1.277-.08,3.809,3.809,0,0,0,.561-1.7c.082-2.413.23-4.829.2-7.239C211.43,447.045,211.01,446.171,210.1,446.278Zm57.049-72.324c1.275.011,2.552.121,3.822.246.744.073,1.048.559,1.132,1.317a6,6,0,0,1-.779,3.241c-.645,1.406-1.224,2.842-1.829,4.266-.045.1-.074.214-.11.322a7.2,7.2,0,0,0,1.776.357,1.409,1.409,0,0,0,1.015-.706c.624-1.421,1.131-2.894,1.7-4.34.083-.21.331-.356.406-.566.755-2.121,2.4-2.473,4.414-2.468a4.741,4.741,0,0,1,4.263,2.569,18.55,18.55,0,0,1,1.377,4.928,32.509,32.509,0,0,1,.729,4.227,11.3,11.3,0,0,1-1.822,6.465,15.889,15.889,0,0,0-2,4.177,9.9,9.9,0,0,0-.16,4.785,40.754,40.754,0,0,1,.807,6.291,1.143,1.143,0,0,1-.008.606c-1.379,2.541-.066,5.073.035,7.6.014.343.279.484-.315.565a15.975,15.975,0,0,1-4.618.3c-1.164-.168-2.447.483-3.738.831-1.162.792-2.14,3.231-1.618,4.261a1.635,1.635,0,0,0,1.213.67c1.837.073,3.678,0,5.518.042a13.086,13.086,0,0,1,2.709.276,1.357,1.357,0,0,1,.785.976c.076.756.34,1.684-.606,2.152a3.25,3.25,0,0,1-1.24.252c-1.99.108-2.991,1.062-3.265,3.171-.169,1.293-.363,2.585-.449,3.884-.011.164.543.441.872.529a4.92,4.92,0,0,0,1.1.023c2.583.078,5.168.123,7.747.256,1.91.1,3.794,2.174,4.177,4.066a16.164,16.164,0,0,1-.008,3.687c-.021.629-.189,1.256-.156,1.877a.946.946,0,0,0,.641.627c1.689.291,3.406.434,5.082.783,1.409.291,2.762.838,4.16,1.19,1.822.453,3.649.929,5.5,1.212,3.211.492,6.453.786,9.661,1.289a8.019,8.019,0,0,1,2.22,1.13c-.086.1-.153.253-.26.294-1.6.583-3.188,1.193-4.808,1.713a44.158,44.158,0,0,1-8.312,1.3,49.836,49.836,0,0,1-10.736.619c-6.965-.684-13.935-.22-20.9-.473-3.96-.143-7.912-.563-11.858-.962-3.191-.324-6.388-.684-9.542-1.256a27.961,27.961,0,0,1-4.935-1.68c-2.359-.913-4.68-1.926-7.038-2.842-.882-.344-1.882-.412-2.725-.819-1.773-.852-1.73-2.017-.411-3.386,1.721-1.787,3.823-2.128,6.078-2.254a1.9,1.9,0,0,1,.611.008c.782.223,1-.033.936-.824-.1-1.2.016-2.432-.143-3.625a5.409,5.409,0,0,0-.843-2.014c-1-1.619-2.312-3.071-2.588-5.058-.032-.229-.1-.454-.122-.683-.169-1.811-.461-3.622-.458-5.432a39.806,39.806,0,0,1,.476-5.675c.409-2.79.912-5.568,1.462-8.334a54.439,54.439,0,0,1,4.175-12.97c.541-1.13,1.293-2.157,1.9-3.26a40.06,40.06,0,0,1,3.059-5.571c1.308-1.674,2.027-3.934,4.207-4.848a6.77,6.77,0,0,1,2.881-.941c1.787.182,1.938-.979,2.154-2.1A7.5,7.5,0,0,1,267.145,373.955Zm-72.223,75.71c-.814-.017-1.225.3-1.118,1.19a12.378,12.378,0,0,0-.018,1.435c.157.618.342,1.487.789,1.715a2.9,2.9,0,0,0,2.21.085c.789-.341,1.026-2.62.441-3.691C196.82,449.653,195.983,449.554,194.922,449.665Zm59.525-64.581a31.9,31.9,0,0,0-2.945,3.806c-1.295,2.138-2.381,4.4-3.577,6.6a24.324,24.324,0,0,0-1.341,2.264c-1.245,3.048-2.739,6-3.237,9.328-.433,2.887-1.135,5.735-1.681,8.607-.289,1.524-.577,3.056-.719,4.6a16.288,16.288,0,0,0,.025,3.784c.283,1.974.871,3.9,1.154,5.879.38,2.652,1.544,4.6,4.221,5.4,1.206.357,2.645-.3,3.688.833.086.093.29.078.439.113a2,2,0,0,0-.517.146,4.611,4.611,0,0,1-3.632.275c-.6-.135-1.585-.38-1.48.9a14.494,14.494,0,0,0,.3,3.477c.954,2.746,2.57,5.049,5.762,5.357s6.4.423,9.607.509c7.373.192,14.773-.457,22.115.547,1.916.261,3.861-.146,5.732.445.13.042.255.1.382.146-.116.116-.218.308-.351.333a20.485,20.485,0,0,1-3.107.479c-2.9.066-5.806.03-8.709.013-.38,0-.758-.167-1.142-.189a26.28,26.28,0,0,0-4.755-.17,14.914,14.914,0,0,1-5.053-.033,17.874,17.874,0,0,0-4.04-.3c-1.285.028-2.579.506-3.842.418a79.292,79.292,0,0,1-8.055-.97,6.9,6.9,0,0,1-5.154-3.515,2.876,2.876,0,0,0-1.843-1.058,4.618,4.618,0,0,0-2.21.223,14.418,14.418,0,0,0-2.9,1.275c-.5.291-.242,1.451.306,1.629,1.3.429,2.615.792,3.9,1.24A41.811,41.811,0,0,1,247.2,449.5c2.519,1.3,5.227,1.539,7.935,1.872,2.347.289,4.7.492,7.054.745,2.973.322,5.94.7,8.918.962,2,.173,4.02.258,6.03.245,3.81-.022,7.618-.187,11.429-.217,5.959-.047,11.926.17,17.85-.739,1.815-.281,3.641-.489,5.458-.756.158-.022.288-.24.43-.366a2.141,2.141,0,0,0-.445-.1q-3.261-.132-6.522-.25a7.847,7.847,0,0,1-2.044-.107c-2.3-.739-4.548-1.668-6.86-2.374-2.169-.665-4.366-1.462-6.694-.58-.858.324-1.148-.187-1.215-.932-.02-.217.03-.443-.009-.654a19.566,19.566,0,0,1-.463-2.372c-.079-1.3-.02-2.611-.022-3.919a2.026,2.026,0,0,0-1.54-2.288,12.653,12.653,0,0,0-2.5-.477c-3.849-.127-7.7-.179-11.551-.266q-5.04-.113-10.08-.244c-.629-.016-1.363.215-1.571-.732-.233-1.058.727-.908,1.224-1.221.088-.055.254.027.361-.013.874-.329,1.137-.643.978-1.848-.363-2.733-2.441-5.338-.848-8.265a2.776,2.776,0,0,0,.171-.622c.272.085.615.1.8.275a1.013,1.013,0,0,1,.252.777c-.095.592-.525,1.216-.413,1.74.469,2.2,1.062,4.368,1.666,6.533.257.921.777,1.785,1.819,1.884,2.419.233,4.85.357,7.278.5a7.957,7.957,0,0,0,1.18-.1c-.251-.341-.5-.687-.756-1.023a3.724,3.724,0,0,0-.344-.348,11.777,11.777,0,0,1-3.774-9.09,38.024,38.024,0,0,1,.479-4.085,20.333,20.333,0,0,1,.789-4.329c.5-1.306.264-2.709,1.088-4.017.986-1.563,1.285-3.541,2.07-5.252a46.986,46.986,0,0,1,2.67-4.706q-1.3,3.5-2.593,7a1.355,1.355,0,0,0,1.2,1.937,4.541,4.541,0,0,0,1.1,0c2.02-.2,3.616-1.3,3.227-3.465a34.984,34.984,0,0,0-1.028-4.715c-.214-.651-.8-1.624-1.908-1.005,1.184-1.918,2.282-3.9,3.575-5.738a10.7,10.7,0,0,0,2.3-7.013c-.064-.944-.27-1.607-1.585-1.64-2.062-.052-3.368,1.142-4.7,2.323-2.846,2.529-3.953,6.2-5.976,9.281-1.312,2-1.232,4.686-3.186,6.361a.607.607,0,0,0-.1.2c-.049-.086-.146-.177-.139-.258a11.739,11.739,0,0,1,.206-2c.954-3.678,2.935-6.893,4.785-10.144a15.75,15.75,0,0,1,7.464-7.184c.261-.11.5-.264.754-.4a3.7,3.7,0,0,0-.843-.325c-2.145-.264-4.288-.571-6.442-.73-4.024-.3-8.055-.51-12.083-.749a43.081,43.081,0,0,1-4.674-.293A2.323,2.323,0,0,0,254.447,385.083ZM194.7,442.345c-.429.132-1.074.61-1.068.921.024,1.2.271,2.388.434,3.825-.123,1.27.792,1.151,1.553,1.083.624-.057,1.638.231,1.39-1.044-.242-1.243-.414-2.5-.766-3.713C196.05,442.763,195.552,442.082,194.7,442.345Zm92.249,1.949c.282.006.557.283.835.437-.263.256-.513.528-.8.761-.107.088-.286.088-.493.19-.753.06-1.445.069-2.136.057-.467-.006-.987.225-1.106-.635-.036-.261-.983-.4-1.517-.582a4.251,4.251,0,0,0-.564-.113,3.21,3.21,0,0,1,.65-.129C283.529,444.269,285.238,444.253,286.946,444.294Zm-77.537-.751a3.548,3.548,0,0,0-.626.173,8.054,8.054,0,0,0,.491,1.168c.177.261.372.748.529.736a7.976,7.976,0,0,0,1.822-.423c.07-.022.1-.456.012-.626A2.052,2.052,0,0,0,209.409,443.543Zm-28.629-1c-.181.165-.058.764.054,1.124a5.067,5.067,0,0,0,.717,1.218c.945.61,1.551.467,1.929-.456.59-1.441.264-2.02-1.231-2.551C181.466,441.6,181.158,442.2,180.78,442.543Zm27.763-5.2c-.2.025-.491.555-.467.828.1,1.115.413,2.22.431,3.33.018,1.144.867,1.229,1.528,1.248s1.361-.349,1.2-1.542a5.4,5.4,0,0,1,.057-2.163c.387-.793.184-1.51-.336-1.7A5.392,5.392,0,0,0,208.543,437.346Zm76.355,2.947c.348.384.634.706.92,1.031a3.734,3.734,0,0,1-1.187.478c-4.011.119-8.025.17-12.036.275-1.438.036-2.875.187-4.313.22a5.5,5.5,0,0,1-1.726-.261,4.159,4.159,0,0,1-1.009-.671,4.021,4.021,0,0,1,1.255-.5c2.083-.052,4.169.006,6.253-.03q4.854-.087,9.706-.253C283.456,440.559,284.145,440.353,284.9,440.293ZM181.657,435.53a1.655,1.655,0,0,0-.6,1.143c-.078,1.023-.163,2.045-.245,3.312.2.365.321.838.625,1.06a1.831,1.831,0,0,0,1.209.256c.308-.042.8-.352.828-.588a34.251,34.251,0,0,0,.251-4.159,2.065,2.065,0,0,0-.609-1.52C182.745,434.782,182.183,434.986,181.657,435.53Zm23.247,3.6a.345.345,0,0,1,.187.233c.013.054-.1.2-.153.2-1.908-.016-3.815-.044-5.783-.131a8.209,8.209,0,0,1,1.256-.4A8.689,8.689,0,0,1,204.9,439.135Zm-18.043-.969c.932.009,1.863.049,2.791.124.2.016.384.24.594.322a3.349,3.349,0,0,0,.6.12c-.211.132-.433.389-.633.374-1.009-.076-2.014-.223-3.081-.407a3.057,3.057,0,0,0-.636-.146C186.618,438.418,186.74,438.165,186.86,438.166Zm23.177-3.288a6.016,6.016,0,0,0-1,.2c.156.37.218.946.487,1.068a9.841,9.841,0,0,0,2.328.532l.079-.21c.013-.035.028-.069.045-.1.16-.33.326-.658.489-.987a8.259,8.259,0,0,0-1.134-.4A5.453,5.453,0,0,0,210.037,434.877Zm-24.683-2.121c-1.343.034-2.689.028-4.025.136-.265.022-.495.482-.741.741.406.2.8.415,1.221.586a2.288,2.288,0,0,0,.778.178l1,.035a24.62,24.62,0,0,0,2.5-.013c.241-.016.444-.6.664-.927A7.279,7.279,0,0,0,185.354,432.756Zm87.18-5.347c-.119-.014-.405.513-.433.81a4.964,4.964,0,0,0,.024,2.052,8.68,8.68,0,0,0,1.316,1.986.48.48,0,0,0,.341-.081c.182-1.148.374-2.3.479-3.451.021-.233-.3-.5-.341-.87A6.625,6.625,0,0,0,272.534,427.41ZM123.6,427.251s8.236-.059,20.248.013c3.5.022,7.311.076,11.338.128,7.382.1,15.47.242,23.588.355l2.866.038c3.17.04,6.333.073,9.447.1,4.652.032,9.2.039,13.5.052,16.569.048,29.559.062,31.3.064h.2a.414.414,0,0,1,0,.828s-13.676-.174-31.493-.363c-2.725-.028-5.547-.061-8.432-.089l-1.022-.023c3.482.074,6.964.162,10.446.241,3.645.084,7.323-.106,10.929.312,4.765.553,9.519.31,14.278.423a1.722,1.722,0,0,1,.608.013c.493.221.96.5,1.438.753a8.575,8.575,0,0,1-1.452.2c-2.093-.052-4.185-.151-6.4-.233-1.963,0-3.8.063-5.641-.016-2.143-.093-4.279-.411-6.422-.446-2.335-.039-4.676.24-7.011.194-4.267-.083-8.532-.3-12.8-.466a7.98,7.98,0,0,1-1.136-.037c-.141-.026-.37-.374-.334-.43.132-.2.353-.482.552-.492.22-.011.44-.02.66-.025l-1.762-.013c-2.233-.014-4.491-.022-6.759-.027.025.025.049.047.075.069a3.452,3.452,0,0,1-.574.212c-.345.064-.7.088-1.109.19a6.573,6.573,0,0,1-1.282.054,2.712,2.712,0,0,1-.573-.16,4,4,0,0,0,.224-.369c-7.935,0-15.9.028-23.273.032h-6.287c-2.691,0-5.265-.006-7.685-.024-12.012-.091-20.246-.261-20.246-.261a.4.4,0,0,1,0-.794Zm159.67,1.082s10.154-.044,24.962.047c4.31.025,9.016.086,13.979.145,10.172.121,21.433.3,32.615.433,3.909.045,7.808.086,11.648.113,5.735.04,11.337.052,16.642.071,20.428.076,36.444.111,38.586.115h.244a.413.413,0,1,1-.007.826s-16.861-.194-38.828-.411c-5.3-.054-10.9-.115-16.64-.155-3.84-.024-7.741-.037-11.65-.044-11.182-.025-22.444.007-32.617-.01-4.962-.01-9.669-.013-13.979-.045-14.512-.106-24.552-.285-24.947-.292h-.013a.4.4,0,1,1,0-.794Zm25.145-1.687c5.323.025,10.644.154,15.966.227,6.59.089,13.18.233,19.769.219,3.5-.008,7.006-.412,10.51-.435,4.708-.03,9.418.127,14.127.22,3.36.067,6.719.2,10.079.226,1.56.013,3.122-.225,4.681-.213,3.278.028,6.556.141,9.834.231,2.665.072,5.33.183,7.994.235,1.894.037,3.79-.024,5.684.016,2.338.048,4.676.141,7.011.263a.8.8,0,0,1,.51.6c0,.2-.345.576-.534.574q-6.389-.072-12.778-.228c-1.031-.025-2.057-.2-3.088-.229-3.277-.1-6.555-.238-9.833-.235-3.728,0-7.456.211-11.183.2-1.855,0-3.705-.349-5.563-.44-.9-.045-1.812.211-2.719.213-11.366.016-22.733.04-34.1,0-7.531-.027-15.061-.153-22.713-.235-2.658,0-5.195-.064-7.727.018-2.633.085-5.261.412-7.893.437-1.852.018-3.705-.391-5.561-.428-1.967-.039-3.938.164-5.908.2a7.33,7.33,0,0,1-1.579-.315c.459-.216.932-.409,1.376-.652a5.619,5.619,0,0,1,3.134-.3c4.083.158,8.175.093,12.264.053C302.921,426.838,305.667,426.634,308.413,426.646ZM221.9,414.879a3.164,3.164,0,0,1,.367.8c.192,1.275.334,2.557.506,3.835a5.34,5.34,0,0,0,.263,1.481c.411.908,1.231.38,1.892.419,1.584.095,3.174.151,4.746.354.385.05.791.551,1.028.94a3.806,3.806,0,0,1,.269,1.225,12.183,12.183,0,0,1-1.077-.633c-.138-.1-.144-.406-.283-.474a7.562,7.562,0,0,0-1.074-.363,2.99,2.99,0,0,0,.136.941c.444.881,1,1.708,1.419,2.6a2.16,2.16,0,0,0,1.448,1.056c.529-.462.763-.867.376-1.5-.158-.26-.026-.695-.026-1.05a1.29,1.29,0,0,1,.351.17c.288.273.738.534.8.859.131.742.393,1.63-.586,2.079a2.372,2.372,0,0,1-2.738-.3c-.748-.65-1.475-1.325-2.227-1.971a1.982,1.982,0,0,0-2.169-.18,23.239,23.239,0,0,1-2.766.713c-.059.013-.238-.242-.264-.389a34.64,34.64,0,0,1-.758-8.632c.022-.286-.263-.613-.2-.872A4.923,4.923,0,0,1,221.9,414.879ZM193.023,269.37c-.047.168-.04.4-.15.5a9.159,9.159,0,0,0-2.654,5.151,15.436,15.436,0,0,0-.313,3.177c-.046,1.974.018,3.949-.021,5.923-.049,2.5-.181,5-.232,7.493-.1,4.948-.134,9.9-.261,14.844-.114,4.425-.3,8.849-.485,13.272q-.209,5.045-.493,10.087c-.218,3.779-.477,7.556-.732,11.334-.235,3.493-.507,6.983-.723,10.477-.069,1.112.057,2.237-.023,3.348-.3,4.155-.65,8.3-.965,12.458-.11,1.434-.235,2.872-.239,4.308-.023,8.657-.011,17.314-.011,25.972,0,1.525-.031,3.05.01,4.574.033,1.233.157,2.464.233,3.7.017.285,0,.571,0,.857,0,.307.017.615.026.923.236-.326.666-.644.679-.978.206-5.076.351-10.155.523-15.232.065-1.94.192-3.88.233-5.821.041-1.892-.015-3.785.014-5.677.067-4.5.127-9,.25-13.5.122-4.467.316-8.93.482-13.4.078-2.09.141-4.18.25-6.268.141-2.711.354-5.417.476-8.128.124-2.741.141-5.487.264-8.228.124-2.792.311-5.582.484-8.373.153-2.465.34-4.927.484-7.393.18-3.076.319-6.153.5-9.229.144-2.465.315-4.93.489-7.393.237-3.329.54-6.654.719-9.987.156-2.9.165-5.812.267-8.718.038-1.07.154-2.138.243-3.206a1.22,1.22,0,0,1,.119-.315,2.429,2.429,0,0,1,.119.317,5.2,5.2,0,0,1,.237,1.123c.015,5.717.125,11.437-.033,17.149-.1,3.464-.618,6.917-.936,10.376-.178,1.932-.281,3.872-.506,5.8-.254,2.165-.559,4.327-.938,6.473a5.682,5.682,0,0,0,2.01,4.516,12.083,12.083,0,0,0,8.857,1.585,29.685,29.685,0,0,1,5.691-.715,19.637,19.637,0,0,1,4.253.921c.079.019.142.106.213.162a1.054,1.054,0,0,1-.213.076,14.148,14.148,0,0,1-1.86.237c-5.641.018-11.283.01-16.925.011-1.536,0-1.749.27-1.824,1.735q-.317,6.281-.739,12.558c-.066,1-.312,1.99-.476,3.106,0,2.859.063,5.6-.017,8.33-.091,3.12-.307,6.236-.476,9.353-.073,1.355-.218,2.709-.235,4.064-.1,8.419-.136,16.838-.272,25.257-.054,3.323-.392,6.642-.447,9.965-.046,2.7.156,5.4.213,8.106.035,1.688-.024,3.377.013,5.064.054,2.417.117,4.835.254,7.248.069,1.2.419,2.395.447,3.6.035,1.474-.131,2.953-.225,4.43a.653.653,0,0,1-.194.339c-.348-.132-.874-.207-.992-.464a12.357,12.357,0,0,1-1.219-3.28c-.443-3.156-.7-6.338-1.016-9.512-.117-1.188-.176-2.381-.25-3.573-.168-2.709-.34-5.417-.479-8.128-.018-.37.238-.753.218-1.122-.136-2.425-.315-4.848-.474-7.271-.018-.285,0-.572,0-.857,0-3.88-.03-7.759.011-11.638a42.955,42.955,0,0,1,.3-7.481c.891-4.712.8-9.444.927-14.184.112-4.3.083-8.629.548-12.9.421-3.864.644-7.707.705-11.585.039-2.434.539-4.857.676-7.293.172-3.065-.1-6.179.321-9.2,1.281-9.157.393-18.345.682-27.512.081-2.539.257-5.079.218-7.616-.036-2.343-.269-4.686-.474-7.024-.142-1.618.7-2.885,1.369-4.216a7.807,7.807,0,0,1,3.006-2.693A2.247,2.247,0,0,1,193.023,269.37Zm21.489,134.98c1.081.071,2.148.332,3.227.464,2.142.264,4.284.521,6.432.726.677.064,1.653-.12,1.71.674a3.011,3.011,0,0,1-.865,2.258,14.421,14.421,0,0,1-3.3,1.728,2.6,2.6,0,0,0-1.683,2.965c.086,1.465-.2,2.948-.191,4.423.009,1.923.147,3.847.226,5.77a4.035,4.035,0,0,1-.023.459c-1.435-.054-.713,1.47-1.424,1.941a1.666,1.666,0,0,0-.312.381,1.716,1.716,0,0,1-.2-.481c-.1-1.27-.177-2.541-.252-3.812a25.127,25.127,0,0,0-.353-5.165c-.773-2.788-1.952-5.463-3.021-8.247a23.286,23.286,0,0,1-1.172-2.415C212.929,404.989,213.423,404.278,214.512,404.35Zm63.231,21.061c-1.03.066-2.058.156-3.333.238-.163,0-.328-.011-.49,0-.194.017-.385.054-.578.083a3.22,3.22,0,0,0,.6.153c1.479.092,2.957.177,4.436.243a4.509,4.509,0,0,0,.81-.107,5.269,5.269,0,0,0-.756-.508A1.479,1.479,0,0,0,277.743,425.411Zm-91.03-6.02a3.773,3.773,0,0,0-.235.991,14.1,14.1,0,0,0,.228,1.73q.235,1.486.5,2.967c.011.059.154.094.236.141a4.012,4.012,0,0,0,.459-1.381,26.009,26.009,0,0,0-.582-3.825ZM391.627,395.54a1,1,0,0,1,.4.763c-.285,2.635.486,5.318-.426,7.941-.209.6.247,1.4.178,2.086-.2,2.018-.514,4.025-.785,6.037a7.666,7.666,0,0,0-.163,1.154c.066,3.151.155,6.3.236,9.453a1.2,1.2,0,0,1-.009.486c-.225.494-.541,1.4-.727,1.378-.7-.085-.8-.739-.744-1.395.041-.527.008-1.061.008-1.714a10.243,10.243,0,0,1-.328-4.122,6.669,6.669,0,0,0-.269-3.379c-.4-1.213.2-2.756.371-4.153.052-.421.2-.833.218-1.253.177-3.688.3-7.379.532-11.063a5.25,5.25,0,0,1,.813-1.955C391.025,395.626,391.505,395.455,391.627,395.54Zm-13.87-230.38a27.817,27.817,0,0,0,4.123,2.148,13.029,13.029,0,0,1,5.193,3.395,28.431,28.431,0,0,1,4.388,5.6,17.359,17.359,0,0,1,2.545,7.512c.112,1.434.249,2.873.234,4.309a13.875,13.875,0,0,1-2.632,7.478c-.343.525-1.084.883-1.228,1.427-.312,1.182.107,1.9,2.455,2.443.148.034.293.081.44.121a1.313,1.313,0,0,1-.438.116c-1.366-.149-2.729-.316-4.094-.474a1.234,1.234,0,0,0-.364,0c-.568.105-1.133.223-1.7.336.3.4.573.822.9,1.194.881.99,1.791,1.955,2.678,2.94a1.529,1.529,0,0,1,.192.428,1.971,1.971,0,0,1-.416-.178c-1.257-.917-2.5-1.855-3.766-2.759a5.565,5.565,0,0,0-1-.459,3.327,3.327,0,0,0-.071.94,3.793,3.793,0,0,0,.488,1.383,35.325,35.325,0,0,1,4.334,9.727c1.074,3.361,2.091,6.745,2.975,10.159a25.317,25.317,0,0,1,.517,4.566c.2,2.83.29,5.667.51,8.495a39.745,39.745,0,0,1-2.995,18.533c-1.326,3.209-2.566,6.454-3.9,9.658-.363.872-1,1.626-1.371,2.5-.307.727-.932,1.458-.352,2.371.1.164-.023.546-.145.773-1.783,3.315-1.161,6.341.985,9.258a22.75,22.75,0,0,0,6.42,6c3,1.863,5.7,4.2,8.585,6.253,1.939,1.383,4.048,2.536,5.94,3.977a46.719,46.719,0,0,1,3.976,3.748c1.306,1.264,2.6,2.546,3.9,3.816,2.468,2.41,4.986,4.772,7.389,7.244,1.347,1.386,2.516,2.947,3.741,4.449a9.507,9.507,0,0,1,.787,1.264A66.463,66.463,0,0,1,431,322.872c1.714,3.994,3.533,7.992,4.213,12.341a31.368,31.368,0,0,1,.676,6.55c-.143,2.519.052,5.1-.855,7.579-.369,1.005-.1,2.223-.32,3.307a44.025,44.025,0,0,1-1.326,5.329,36.645,36.645,0,0,1-2.111,5.126,16.329,16.329,0,0,1-4.066,4.995,48.673,48.673,0,0,0-3.526,3.9c-.4.434-1,.686-1.449,1.085-1.734,1.538-3.33,3.261-5.192,4.619-2.7,1.966-5.556,3.712-8.387,5.486q-4.663,2.922-9.405,5.716a46.235,46.235,0,0,1-4.13,2.164c-2.468,1.142-4.946,2.272-7.468,3.287-2.559,1.03-5.173,1.923-7.768,2.859a27.466,27.466,0,0,0-6.484,3.02,15.371,15.371,0,0,1-6.345,2.133c-2.251.38-4.5.793-6.743,1.188-2.4.422-4.809.814-7.2,1.267-1.658.315-3.3.732-4.952,1.065a36.755,36.755,0,0,1-3.662.623c-1.595.156-3.2.213-4.8.257-3.727.1-7.455.165-11.183.253a40.03,40.03,0,0,1-10.768-1.531,10.564,10.564,0,0,0-3.115-.143,1.211,1.211,0,0,0-.8.836c-.234,1.8-.283,3.629-.541,5.426a55.867,55.867,0,0,0-.735,10.357c.01.233-.214.476-.329.715-.13-.217-.345-.423-.377-.653-.192-1.4-.433-2.8-.483-4.206a54.548,54.548,0,0,1,.025-6.653,44.661,44.661,0,0,1,1.1-5.412c.151-.7.4-1.137-.745-1.514a33.71,33.71,0,0,1-6.025-2.892,22.11,22.11,0,0,1-3.144-2.485,46.836,46.836,0,0,1-5.007-5.261,5.433,5.433,0,0,1-1.441-3.935c.04-.733.006-1.47.006-2.2a4.005,4.005,0,0,1,5.179-3.818,15.861,15.861,0,0,1,6.485,3.284c.712.655,1.3,1.458,2.065,2.039a17.564,17.564,0,0,0,7.705,3.587c1.61.274,3.223.587,4.848.715,1.578.123,3.112,0,4.283-1.414.61-.735.258-1.081-.239-1.46-1.574-1.2-3.2-2.332-4.745-3.565a2.806,2.806,0,0,1-.943-1.429c-.556-2.365-.864-4.8.488-6.979.957-1.544,2.66-1.892,4.4-2.052a14.9,14.9,0,0,1,7.1,1.527c3.56,1.479,7.117,2.91,11.039,2.605a18.221,18.221,0,0,0,4.5-1.238,25.632,25.632,0,0,0,5.8-3.5c2.972-2.046,4.995-5.059,7.766-7.261a24.587,24.587,0,0,1,5.943-3.673,4.986,4.986,0,0,1,5.453,1.228l.521.509a7.726,7.726,0,0,1,2.321,3.339c.175.612.457.765,1.031.438a40,40,0,0,0,5.533-3.173,26.452,26.452,0,0,0,7.529-8.942c.618-1.285.848-2.75,1.384-4.081,1.306-3.246,1.3-6.637,1.192-10.034-.046-1.407-.368-2.8-.435-4.21-.02-.423.445-.85.606-1.3a12.8,12.8,0,0,0,.339-1.453c.034-.149.071-.3.107-.446.128.141.346.268.37.424.267,1.774.606,3.546.726,5.331.175,2.615.325,5.245.238,7.86a22.931,22.931,0,0,1-3.748,11.928c-2.814,4.368-6.835,7.254-10.969,10.092a6.506,6.506,0,0,1-2,.785c-1.393.372-.206,1.2-.274,1.766a6.4,6.4,0,0,0,.539,2.07,44.761,44.761,0,0,1,1.5,14.32c-.085,1.245-.305,2.48-.482,3.718-.121.845.564.778.924.649,2.276-.814,4.548-1.65,6.777-2.586,2.821-1.184,5.689-2.3,8.374-3.752,3.459-1.865,6.77-4.007,10.123-6.066,3.687-2.264,7.392-4.5,10.994-6.895a23.137,23.137,0,0,0,3.037-3.006c.654-.641,1.587-1.122,1.968-1.886a5.335,5.335,0,0,0,.676-3.189,15.646,15.646,0,0,0-6.948-10.136,24.614,24.614,0,0,0-7.413-2.757c-2.871-.694-5.761-1.562-8.8-1.3a4.925,4.925,0,0,1-1.731-.247,4.319,4.319,0,0,1-1.01-.629c.411-.356.807-1,1.236-1.021,4.975-.271,9.967-.336,14.643,1.712l.61.269a14.846,14.846,0,0,1,4.324,2.645,24.033,24.033,0,0,1,6.437,8.988c.126.333.232.673.348,1.009.029-.4.053-.793.09-1.189.013-.153.055-.3.083-.455.053.158.1.317.159.474.464,1.325.93,1.595,1.987.681a11.7,11.7,0,0,0,3.929-5.544c.333-1.149,1.125-2.174,1.406-3.329a35.694,35.694,0,0,0,.985-5.836c.214-2.938-.014-5.918.333-8.834.464-3.915-.9-7.453-1.783-11.1a34.805,34.805,0,0,0-3.656-9.752c-1.969-3.29-4.077-6.5-6.243-9.668a45.518,45.518,0,0,0-3.992-4.958c-.984-1.076-2.239-1.9-3.321-2.89-1.669-1.531-3.29-3.114-4.937-4.67a61.5,61.5,0,0,0-9.014-6.936c-2.449-1.58-4.7-3.468-7.058-5.187-1.468-1.069-2.986-2.068-4.468-3.12-.353-.25-.633-.6-.984-.859-.052-.037-.374.174-.463.332-.2.359-.292.787-.513,1.132-.458.716-.987,1.386-1.458,2.1a41.656,41.656,0,0,1-3.075,4.59,32.3,32.3,0,0,1-5,4.684c-2.558,1.885-5.291,3.546-8.023,5.18a33.31,33.31,0,0,1-9.9,3.927,25.633,25.633,0,0,1-3.5.7,4.312,4.312,0,0,1-2.218-.5c-.3-.158-.373-.9-.418-1.392-.124-1.31-.146-2.629-.279-3.938a4.67,4.67,0,0,0-.48-1.122,1.754,1.754,0,0,1-.221-.758c.118-1.043.322-2.077.42-3.121.018-.2-.36-.633-.456-.606a5.956,5.956,0,0,0-1.786.7c-1.6,1.1-3.2,2.221-4.684,3.477a19.053,19.053,0,0,0-1.867,2.386c-.213.252-.7.549-.91.464-.33-.132-.768-.586-.755-.886a55.539,55.539,0,0,1,.527-6.77c.129-.776-.03-.83-.551-.865a37.237,37.237,0,0,0-4.679-.218c-1.933.115-3.5-.816-5.2-1.412a8.106,8.106,0,0,0-2.458-.552,34.456,34.456,0,0,0-4.435.228c-2.487.274-4.962.656-7.446.961-4.356.537-8.375,2.266-12.534,3.5-1.452.432-2.883.932-4.323,1.407a3.937,3.937,0,0,0-.844.327c-1.071.662-1.067.922-.2,1.859a27.6,27.6,0,0,1,5.19,7.162,19.119,19.119,0,0,1,2.068,7.472c.034,1.606,0,3.213.013,4.82a1.359,1.359,0,0,0,.143.412,3.25,3.25,0,0,0,.338-.346,10.459,10.459,0,0,1,1.321-1.757,1.324,1.324,0,0,1,1.277-.009c.407.309,1.035.689.384,1.506-1.746,2.193-3.474,4.411-5.012,6.75a9.886,9.886,0,0,0-1.361,3.7c-.394,2.323-.535,4.69-.777,7.039-.2,1.9.727,3.507,1.365,5.193a16.483,16.483,0,0,0,1.138,3.193c.667,1.029.91,2.434,2.294,2.972a1.178,1.178,0,0,1,.522,1.036,1.61,1.61,0,0,1-1.055.826c-1.441.231-2-1-2.514-1.922-1.863-3.323-3.534-6.813-3.883-10.617-.334-3.623-.434-7.358,1.528-10.725.25-.428.226-.838-.413-.7-.892.187-1.761.481-2.642.719-2.133.576-4.3,1.059-6.4,1.74-2.48.8-4.937,1.7-7.343,2.7a50.276,50.276,0,0,0-6.125,2.96,27.384,27.384,0,0,0-3.526,2.9c.139.163.254.435.419.471.61.131,1.253.119,1.854.276,2.512.65,3.415,2.714,4.146,4.879.093.276-.18.656-.215.994-.123,1.189.239,1.468,1.4,1.175a15.121,15.121,0,0,1,3.029-.66,27.821,27.821,0,0,1,13.252,2.324,42.936,42.936,0,0,1,3.86,1.924,2.523,2.523,0,0,1,.185,4.271,19.153,19.153,0,0,1-8.888,3.7,43.63,43.63,0,0,1-5.851.943,24.83,24.83,0,0,1-9.453-.915,1.517,1.517,0,0,0-1.953,1.32,5.124,5.124,0,0,1-4.712,3.813c-2.093.043-4.185.148-6.277.246a1.914,1.914,0,0,0-.755.241,6.563,6.563,0,0,1-7.562-1.019,1.316,1.316,0,0,0-.787-.433c-1.879.135-2.825-1.261-3.936-2.354-.735-.723-1.377-1.54-2.077-2.3-2.2-2.388-4.24-4.847-4.584-8.281a20.5,20.5,0,0,0-.705-2.64,18.639,18.639,0,0,1-.486-2.492,148.41,148.41,0,0,1-.778-16.112c.042-3.934,1.945-6.781,4.788-9.174a24.513,24.513,0,0,1,4.471-3.418,67.722,67.722,0,0,1,10.392-4.523c5.128-1.578,10.164-3.469,15.189-5.362,2.895-1.091,5.666-2.5,8.534-3.671,3.01-1.224,6.058-2.356,9.108-3.473,3.41-1.248,6.82-2.5,10.271-3.625,2.781-.908,5.6-1.74,8.445-2.4a37.291,37.291,0,0,1,5.185-.528c2.057-.177,4.117-.318,6.172-.52.141-.014.39-.548.342-.6a18.541,18.541,0,0,0-1.5-1.332c-.173-.141-.458-.167-.592-.329-1-1.212-2.01-2.42-2.948-3.68-.968-1.3-1.921-2.621-2.772-4a25.34,25.34,0,0,1-3.725-8.517c-.451-2.334.5-3.97,1.6-5.8a11.154,11.154,0,0,1,3.42-3.817c1.752-1.139,3.548-2.184,5.774-2.065a11.927,11.927,0,0,0,1.615-.223c4.187-.368,8.135.686,12.071,1.94,3.835,1.221,7.676,2.476,11.594,3.364,1.634.37,3.473-.269,5.22-.276,2.649-.011,3.261-2.2,4.319-3.871,2.247-3.552,4.475-7.119,6.564-10.765a8.894,8.894,0,0,0,.85-3.43c.192-1.834.143-3.69.285-5.53A6.261,6.261,0,0,1,378.659,235c2.7,1.209,3.351,3.179,1.848,5.872-.893,1.6-1.9,3.137-2.849,4.7-.118.194-.329.408-.313.6.161,1.974-.182,3.929.41,5.943,1.078,3.667,3.7,6.1,6.169,8.7.449.474.948.9,1.376,1.4a5.214,5.214,0,0,1,.53.924c.192-.411.375-.826.576-1.232a42.115,42.115,0,0,0,2.729-8.31c.54-2.079,1.508-4.049,2.031-6.132a30.88,30.88,0,0,0,.85-5.77l.089-1.566a75.629,75.629,0,0,0,.126-8.619c-.192-3.291-.862-6.557-1.374-9.825-.705-4.5-2.49-8.675-4-12.927a30.016,30.016,0,0,0-2.18-4.241c-1.041-1.9-2.1-3.791-3.2-5.655-.172-.291-.637-.393-.927-.63a9.178,9.178,0,0,1-.77-.792c.257-.224.511-.631.772-.636.782-.014,1.566.181,2.351.194a6.543,6.543,0,0,0,1.87-.213c1.348-.38,2.678-.83,4-1.288a4.448,4.448,0,0,0,2.732-2.988,14.392,14.392,0,0,0,.563-7.543c-.218-1.124-.05-2.326-.3-3.441a13.894,13.894,0,0,0-3.075-6.55,53.6,53.6,0,0,0-5.441-5.167,16.5,16.5,0,0,0-3.444-1.711c-.341-.163-.7-.3-1.021-.495a6.334,6.334,0,0,0-3.769-1.007c-1.1.075-2.232-.279-3.328-.188a21.32,21.32,0,0,0-11.934,4.357,18.377,18.377,0,0,0-5.729,8.267c-1.1,2.931,1.257,5.332,3.875,5.446a14.792,14.792,0,0,1,7.639,2.613c1.065.7,2.1,1.436,3.148,2.167.105.074.156.225.233.341a1.237,1.237,0,0,1-.416-.052c-1.549-.8-3.082-1.635-4.642-2.415a14.668,14.668,0,0,0-7.681-1.851c-2.533.189-5.039.8-7.57.9a26.286,26.286,0,0,0-8.876,2.3,51.322,51.322,0,0,0-9.653,4.763,38.756,38.756,0,0,0-8.975,9.042,26.569,26.569,0,0,0-2.724,5.124c-1.726,3.825-3.764,7.507-5.566,11.3-1.245,2.623-2.315,5.33-3.45,8.005a22.883,22.883,0,0,1-1.023,2.513c-.445.772-.218.845.518.87,2.866.1,5.3-1.159,7.681-2.485,2.6-1.45,5.188-2.957,7.631-4.655,2.665-1.853,5.154-3.958,7.728-5.942a9.915,9.915,0,0,1,1.542-1.016c.143-.073.678.237.665.309a12.267,12.267,0,0,1-.557,2.457c-1.073,2.74-2.221,5.452-3.329,8.179a3.194,3.194,0,0,0-.116.69,3.544,3.544,0,0,0,.631-.25c2.984-1.878,6.023-3.678,8.919-5.685a45.132,45.132,0,0,0,4.414-3.868c1.279-1.161,2.473-2.424,3.823-3.491.4-.319,1.209-.134,1.83-.18-.042.481-.078.963-.128,1.443-.16,1.566-.313,3.133-.493,4.7-.233,2.024-.5,4.044-.724,6.068a7.692,7.692,0,0,0,.048,1.2,7.528,7.528,0,0,0,.992-.43,68.961,68.961,0,0,0,8.58-5.7c1.99-1.669,3.191-3.861,4.842-5.736.471-.534.691-1.655,1.746-.674.038.035.194,0,.25-.052,1.234-1.136.918.011.951.641.083,1.559.281,3.123.216,4.675-.082,1.963-.455,3.912-.564,5.875-.127,2.265-.105,4.539-.122,6.81,0,.063.36.23.44.177a21.406,21.406,0,0,0,2.227-1.585c.876-.757,1.532-.673,1.752.4a22.87,22.87,0,0,1,.43,3.365c.016.28-.419.585-.647.878-.262-.259-.735-.5-.752-.778-.078-1.255-1.025-1.439-1.973-1.043-.657.274-1.154.916-1.8,1.227a6.961,6.961,0,0,1-1.735.35c.025-.3.061-.6.06-.905a2.448,2.448,0,0,0-.368-.076c-.332-.087-.845-.09-.946-.293-.133-.27.025-.708.117-1.058a20.134,20.134,0,0,0,.7-2.521c.175-1.384.158-2.791.279-4.183.127-1.487.4-2.966.457-4.454a37.259,37.259,0,0,0-.223-3.818,1.4,1.4,0,0,0-.106-.322c-.116.107-.24.207-.346.322-.87.946-1.727,1.9-2.605,2.842-2.538,2.713-5.747,4.5-8.89,6.369a6.719,6.719,0,0,1-2.757,1.263c-1.2.053-.937.657-1.033,1.335a.71.71,0,0,1-1.4-.213c.221-1.933.525-3.857.807-5.783.124-.845.3-1.686.377-2.535.12-1.392.177-2.79.252-4.186a3.775,3.775,0,0,0-.056-.587c-.144.1-.3.194-.432.31-1.236,1.065-2.5,2.1-3.7,3.209A57,57,0,0,1,328.306,230.9a3.223,3.223,0,0,1-.968.294c-.309-.633-.917-1.467-.717-1.944,1.079-2.576,2.364-5.066,3.579-7.586l.654-1.356c-.452.279-.922.533-1.355.838-2.28,1.609-4.481,3.339-6.842,4.817-2.28,1.428-4.733,2.579-7.086,3.895-1.308.731-2.933,1.176-3.2,3.008-.077.53-.016,1.079-.071,1.613-.017.168-.2.319-.315.477a3.067,3.067,0,0,0-.164-.467c-.436-.807-.7-1.883-1.377-2.336a4.713,4.713,0,0,0-2.657-.31,10.6,10.6,0,0,0-2.085.56.26.26,0,0,1-.306-.413c1.375-2.438,1.836-5.229,3-7.746,1.063-2.3,2.162-4.579,3.274-6.854,1.013-2.073,2.084-4.119,3.093-6.195,1.156-2.379,2.4-4.727,3.374-7.179,1.168-2.938,3.329-5.043,5.508-7.15l1.176-1.139a62.115,62.115,0,0,1,4.876-4.356,29.823,29.823,0,0,1,4.513-2.388,54.037,54.037,0,0,1,10.385-3.93,41.472,41.472,0,0,1,5.69-.8,4.848,4.848,0,0,0,1.012-.382c-.287-.277-.529-.7-.868-.806-1.572-.466-3.171-.841-4.759-1.253a2.387,2.387,0,0,1-.536-.184c-.288-.156-.56-.342-.838-.515a6.645,6.645,0,0,1,.989-.271,10.279,10.279,0,0,0,2.694-.312,3.853,3.853,0,0,0,1.807-1.716c.273-.546.27-.356.517-.1.42.427.829.867,1.28,1.259a.644.644,0,0,0,.584.109,7.138,7.138,0,0,0,.872-.829c-1.1-.995-.233-1.83.23-2.684a24.25,24.25,0,0,1,4.48-6.5,14.866,14.866,0,0,1,5.434-3.2c1.6-.554,3.214-1.066,4.821-1.658C371.236,165.16,374.466,165.16,377.757,165.16ZM274.291,414.477c.411.685.839,1.36,1.276,2.029.177.272.4.517.6.774a2.61,2.61,0,0,1,.1-.809,1.712,1.712,0,0,1,.563-.616c.718-.51,1.481-.959,2.179-1.492a3.738,3.738,0,0,0,.636-.883c-.273-.028-.546-.055-1.065-.083-1.186-.082-2.371-.2-3.558-.233C274.015,413.136,273.77,413.609,274.291,414.477Zm-55.839-2.025a6.651,6.651,0,0,0-.223,1.681l.179.414c.151-.093.432-.185.431-.277a13.826,13.826,0,0,0-.127-1.629C218.7,412.569,218.542,412.514,218.451,412.451Zm-3.13-5.149c.918,1.5,1.844,2.993,2.8,4.468.127.2.439.271.665.4a2.237,2.237,0,0,0,.292-.628c.182-1.525.824-2.545,2.546-2.581.344-.007.681-.3,1.267-.467a2.682,2.682,0,0,0,.823-.358c.457-.431.845-.934,1.262-1.407-.675-.085-1.348-.206-2.026-.247-.872-.053-1.757.024-2.622-.075-1.308-.148-2.6-.5-3.909-.577C215.344,405.773,214.856,406.544,215.322,407.3Zm-28.73,1.45c-.127.384-.258.766-.376,1.152a2.894,2.894,0,0,1-.248.675c0,.242-.079.524.018.715a4.919,4.919,0,0,0,.652.821,2.947,2.947,0,0,0,.527-.959,3.625,3.625,0,0,0-.219-1.223C186.845,409.535,186.71,409.145,186.591,408.752Zm182.525-42.336a7.037,7.037,0,0,0-4.311,2.662,28.032,28.032,0,0,1-3.628,4.329,66.705,66.705,0,0,1-6.78,4.908,33.459,33.459,0,0,1-8.546,3.92c-2.715.839-5.464.1-8.158-.475-1.228-.264-2.447-.59-3.647-.965a25.221,25.221,0,0,1-5.013-1.783,4.288,4.288,0,0,0-2.849-.666,6.655,6.655,0,0,0-1.793.119c-2.173.985-3.2,4.714-1.623,6.449a25.871,25.871,0,0,0,4.728,3.938c1.47.988,2.208,3.374,1.233,4.852-1.36,2.064-3.547,2.464-5.7,2.751a14.678,14.678,0,0,1-7.1-1.17,25.643,25.643,0,0,1-8.226-5.556,17.489,17.489,0,0,0-5.933-3.9c-.611.121-1.221.257-1.836.355a4.329,4.329,0,0,1-.765-.012c.161-.144.312-.3.486-.428a2.05,2.05,0,0,1,.379-.178c-.149-.035-.368-.151-.437-.091a7.5,7.5,0,0,0-1.7,1.639,1.074,1.074,0,0,0,.551,1.556c.189.079.311.434.37.684.811,3.435,3.071,5.995,5.405,8.4a19.624,19.624,0,0,0,8,4.609,14.348,14.348,0,0,0,1.759.488c1.7.346,3.408.657,5.111.987,2.637.511,5.19,1.382,7.957,1.253,5.53-.259,11.068-.329,16.6-.534a29.3,29.3,0,0,0,4.821-.5c3.109-.64,6.169-1.511,9.276-2.161,4.226-.884,8.479-1.641,12.715-2.484.352-.069.963-.429.939-.558-.324-1.718,1.188-1.643,2-1.819,2.2-.476,3.566-1.586,3.941-3.852.175-1.057.577-2.089.653-3.148a24.477,24.477,0,0,0-.01-4.735c-.224-1.819-.783-3.593-1.137-5.4-.674-3.443-1.315-6.907-2.985-10.034a8.916,8.916,0,0,0-2.294-2.7A3.452,3.452,0,0,0,369.117,366.415Zm-53.1,26.787a1.22,1.22,0,0,0,.592.346,16.148,16.148,0,0,0,2.408.664c1.472.18,2.961.222,4.443.308.113.006.233-.1.348-.151a1.482,1.482,0,0,0-.331-.083,20.933,20.933,0,0,1-7.09-1.191C316.291,393.058,316.141,393.163,316.016,393.2Zm-117.264-3.554c1.271.049,2.54.157,3.808.264.221.019.431.192.648.2,4.6.093,9.2.172,13.916.254.872.163,1.614.4,2.373.474,1.432.137,2.873.2,4.31.258q6.089.259,12.179.49c2.7.1,5.408.165,8.112.251a3.435,3.435,0,0,1,.459.075,1.662,1.662,0,0,1-.454.161c-3.61.172-7.219.443-10.83.461-2.792.014-5.584-.322-8.378-.447-4.222-.19-8.448-.289-12.668-.511-3.294-.174-6.583-.457-9.871-.73-1.285-.107-2.563-.308-3.841-.493-.172-.025-.322-.2-.481-.311C198.274,389.9,198.518,389.639,198.752,389.648Zm111.987-2.195a23.288,23.288,0,0,0,4,1.23,50.705,50.705,0,0,0,5.886.108c.645,0,1.29-.116,1.936-.134a3.432,3.432,0,0,1,.792.165,4.7,4.7,0,0,1-.761.551c-2.908,1.339-5.9,1.229-9.053.5a4.378,4.378,0,0,1-1.136-.5c-.747-.547-1.46-1.139-2.183-1.719-.039-.031-.038-.112-.057-.17A1.7,1.7,0,0,1,310.74,387.453Zm-82.579-85.394c.45.219.628,1.233.7,1.907.051.5.066,1.127-.93,1.166-1.544.062-.952,1.395-.967,2.243-.018,1.108.192,2.218.21,3.329a55.972,55.972,0,0,1-.049,6.854,11.479,11.479,0,0,0,.49,4.765,1.046,1.046,0,0,0,1.322.872,18.618,18.618,0,0,0,2.009-.459c.249-.052.684-.1.743.009.133.244.218.756.086.86-.534.423-1.169,1.048-1.746,1.027-2.181-.078-2.692.947-2.613,2.745.072,1.63.089,3.271,0,4.9a62.558,62.558,0,0,1-1.371,10.438c-.45,2-.111,4.175-.074,6.27a26.026,26.026,0,0,0,.258,3.326,3,3,0,0,0,.647,1.551,12.362,12.362,0,0,0,3.08,2.48,17.6,17.6,0,0,1,8.834,10.923,32.767,32.767,0,0,1,1.125,5.887c.3,3.037-1,5.718-2.28,8.352a14.8,14.8,0,0,1-7.23,6.83,18.332,18.332,0,0,1-9.443,1.746c-1.235-.075-2.427-.7-3.667-.87-2.34-.33-4.129-1.732-6.038-2.9a6.809,6.809,0,0,1-1.714-1.469,21.609,21.609,0,0,1-4.882-9.6,18.006,18.006,0,0,1,.469-9.256,19.578,19.578,0,0,1,4.06-6.526,63.607,63.607,0,0,0,4.537-5.125,10.774,10.774,0,0,0,1.631-4.2,40.851,40.851,0,0,0,.518-6.159c.047-1.473-.217-2.955-.2-4.43.028-3.112.254-6.224.18-9.332a10.771,10.771,0,0,0-.978-3.985,5.391,5.391,0,0,1-.076-4.2,15.5,15.5,0,0,0,.878-5.525c-.017-1.68.187-3.362.208-5.044a25.569,25.569,0,0,0-.233-2.96,6.653,6.653,0,0,1,.8-4.579c1.422-2.23,3.474-2.943,5.934-3.029A12.031,12.031,0,0,1,228.161,302.059ZM217.372,327.63c-.088,4.334-.2,8.669-.232,13-.013,1.68.28,3.368.2,5.041-.1,1.988-.7,3.971-.639,5.941a6.4,6.4,0,0,1-2.744,5.5,27.289,27.289,0,0,0-6.9,8.158.936.936,0,0,0-.018.429,3.361,3.361,0,0,1,.011,1.243c-.725,1.737-1.675,3.426-.949,5.4.286.777.731,1.5,1,2.277.119.341.136.986-.057,1.118-.5.343-.572.553-.242,1.077a13,13,0,0,1,.521,1.494c1.524,3.3,3.541,6.159,6.895,7.9,4.483,2.326,9.1,2.125,13.749.775,3.9-1.134,6.521-3.886,8.544-7.525a15.42,15.42,0,0,0,1.529-8.751,14.165,14.165,0,0,0-2.588-6.392,48.42,48.42,0,0,0-5.465-5.577,22.466,22.466,0,0,0-2.757-2.476,8.1,8.1,0,0,1-2.965-3.792,13.6,13.6,0,0,1-.161-8.235c.908-3.669.648-7.369,1.084-11.036a48.774,48.774,0,0,0,.039-5.752,1.862,1.862,0,0,0-2.139-1.755,11.083,11.083,0,0,1-3.123-.045C218.419,325.38,217.4,326.065,217.372,327.63ZM232.831,384.6l-.477.611c.2-.05.431-.041.571-.174A.363.363,0,0,0,232.831,384.6Zm40.981-.992a.589.589,0,0,0,.414.364,36.616,36.616,0,0,1,4.527.3c1.62.322,2.06-.479,2.4-1.882.3-.561.324-1-.441-1.182-1.182-.284-2.35-.623-3.533-.9A2.664,2.664,0,0,0,273.811,383.611Zm50.042-24.561a15.057,15.057,0,0,1,6.22,1.523,6.015,6.015,0,0,1,2.854,7.718c-.521,1.253-.194,2.858-.251,4.427a5.316,5.316,0,0,0,.8,4.123c.03.04-.086.189-.134.288-.679-.335-1.361-.662-2.031-1.013-.071-.037-.1-.208-.1-.316.076-3.15.17-6.3.236-9.45.033-1.582.007-1.6-1.472-1.224-1.513.383-3.008.843-4.533,1.166-.211.044-.548-.5-.828-.772a4.486,4.486,0,0,1,1.047-.867c.981-.4,2.027-.629,3.006-1.028.336-.137.821-.635.769-.857a4.078,4.078,0,0,0-.848-1.568,1.547,1.547,0,0,0-1.009-.471c-3.326-.191-6.626-.945-10-.3a34.932,34.932,0,0,1-3.834.054,28.329,28.329,0,0,0-8.094,1.456,4.615,4.615,0,0,0-.452.232,1.676,1.676,0,0,0,.413.292c1.556.487,3.094,1.072,4.684,1.4,1.791.375,3.632.512,5.449.771a5.477,5.477,0,0,1,1.144.3.467.467,0,0,1,.207.41c-.137.35-.388.976-.523.958q-3.865-.522-7.708-1.2a19.368,19.368,0,0,1-2.042-.681,1.169,1.169,0,0,0-1.624,1.134q-.245,7.8-.489,15.593a4.436,4.436,0,0,0,.006.856c.179,1.075-.162,1.477-1.258,1.375-.09-.008-.216-.361-.211-.551.066-2.334.286-4.672.2-7-.1-2.761-.607-5.51-.654-8.269-.036-2.106-.025-4.32,1.351-6.152.917-1.222,2.455-1.139,3.7-1.366a66.9,66.9,0,0,1,7.9-.785A71.432,71.432,0,0,1,323.854,359.05Zm-62.8,22.506a1.063,1.063,0,0,0,.944,1.426c1.485.124,2.986.052,4.477.124a2.1,2.1,0,0,0,1.934-1.177c1.059-1.509.95-2.632-.623-3.82a4.327,4.327,0,0,1-1.219-.016C263.561,377.169,261.721,379.166,261.055,381.556Zm16.558-4.411c-.406.2-1.484.018-.872,1.332,1.579.515,3.155,1.039,4.745,1.518.075.023.386-.349.389-.539C281.893,378.022,279.029,376.453,277.613,377.145Zm-8.193-1.809c-1.482.136-2.964.271-4.44.458-.157.02-.271.377-.405.579a2.227,2.227,0,0,0,.622.254,6.528,6.528,0,0,1,1.455.037c1.034.341,2.694-.31,2.793,1.633.143-.023.361,0,.417-.078a2.644,2.644,0,0,0,.583-1.086,3.034,3.034,0,0,0-.452-1.719A2.543,2.543,0,0,0,269.42,375.336Zm51.648-11.213a11.313,11.313,0,0,0,1.513.759c1.454.805,1.572,1.71.345,2.875.034-.736.289-1.568-.761-1.62a4.552,4.552,0,0,0-1.853.465c-.343.142-.591.513-.882.782.411.227.812.615,1.236.643a12.586,12.586,0,0,0,2.2-.209,2.629,2.629,0,0,1-3.355.98c-.814-.313-2.014-3.1-1.527-3.743a7.2,7.2,0,0,1,1.45-1.2C320.067,363.368,320.535,363.707,321.067,364.122Zm-59.176-52.086a24.234,24.234,0,0,0-5.7,2.763,75.918,75.918,0,0,0-6.546,5.485,7.446,7.446,0,0,0-2.3,6.006c.09,4.271.545,8.534.65,12.805a24.894,24.894,0,0,0,.991,6.34c.688,2.4,1.2,4.819,2.963,6.747a20.625,20.625,0,0,1,1.725,2.344c.56.823,1.04,1.7,1.634,2.5.144.193.6.153.914.221a3.135,3.135,0,0,1,.059-.681c.2-.65.44-1.291.664-1.935.22.491.442.98.658,1.473a4.533,4.533,0,0,1,.244.633,5.577,5.577,0,0,0,7.478,3.652c1.68-.677,1.971-1.987.365-3.246-.5-.39-.975-.807-1.583-1.333-.2-.284-.516-.546-.579-.859a1.389,1.389,0,0,1,.192-1.067c.129-.146.773-.072.98.122,1.275,1.189,2.456,2.478,3.738,3.66l.259.238c1.252,1.154,2.53,2.251,4.527,1.854,1.151-.23,2.781-1.133,3.027-1.974.211-.717-.611-2.907-1.4-3.165a16.031,16.031,0,0,1-4.36-2.714,4.307,4.307,0,0,1-.877-6.3c.192-.225.18-.616.3-.917a1.482,1.482,0,0,1,.28-.35c.058.106.171.215.165.317-.069,1.151-.1,2.309-.255,3.449a2.963,2.963,0,0,0,1.234,2.659c1.033.517,1.848,1.3,3.261,1.226,1.178-.061,2.4.807,3.611,1.23,1.358.474,2.725.926,4.1,1.346a2.076,2.076,0,0,0,.806-.1c-.053-.139-.066-.321-.165-.411-1.81-1.662-1.53-3.865-1.523-5.98a2.631,2.631,0,0,1,.46-1.086,4.078,4.078,0,0,1,.481-.6c-.3-.113-.618-.363-.881-.311-.548.108-1.053.412-1.6.572q-3.61,1.06-7.236,2.066c-.085.023-.339-.211-.355-.344-.151-1.217.758-1.566,1.64-1.871,1.787-.618,3.76-.65,5.335-1.947,1.125-.927,1.885-2.334,1.545-3.425a3.091,3.091,0,0,0-3.324-2.481c-1.38-.01-2.759-.058-4.139-.069-1.5-.011-3.02-.1-4.514.035a36.987,36.987,0,0,0-3.719.761,1.674,1.674,0,0,1-.621-.136c.5-.522.945-1.43,1.5-1.5a31.856,31.856,0,0,0,8.9-2.525,1.516,1.516,0,0,0,.6-.568c.365-.577.536-1.46,1.046-1.735,2.966-1.594,6.012-3.039,9.019-4.558.442-.223,1.1-.511,1.18-.872a14.012,14.012,0,0,0,.488-4.069,7.957,7.957,0,0,0-2.871-5.149,15.653,15.653,0,0,0-5.9-3.473c-2.8-.849-5.625-1.659-8.476-2.321a29.012,29.012,0,0,0-4.7-.508A8.857,8.857,0,0,0,261.892,312.036Zm21.13,39.838a6.2,6.2,0,0,0,5.618,3.2c1.192-.082,2.4-.078,3.572-.264,2.169-.344,4.329-.761,6.475-1.233.524-.115.955-.451.327-1.169a3.392,3.392,0,0,1-.028-4.746,2.825,2.825,0,0,0,.3-.828,7.519,7.519,0,0,0-.82-.088c-2.178-.008-4.36.059-6.536-.023-1.855-.071-3.7-.406-5.557-.449A3.641,3.641,0,0,0,283.022,351.874Zm50.369-1.575c1.717.568,3.434,1.156,5.1,1.864a8.609,8.609,0,0,1,1.85,1.381c.409.332.782.7,1.172,1.058a6.833,6.833,0,0,1-1.267.37,3.864,3.864,0,0,1-1.477-.088c-2.1-.64-4.192-1.286-6.249-2.035-1.319-.479-2.1.192-2.958.985-.653.6-1.509.833-2.126,0-.547-.737,0-1.336.646-1.885a6.605,6.605,0,0,1,3.733-1.766A4.37,4.37,0,0,1,333.391,350.3Zm-32.142-1.989-.837.39c-1.019.474-1.318,1.148-.9,2.039.385.825,2.041,1.65,2.682,1.337a2.36,2.36,0,0,0,1.046-3c-.857-.119-.388.772-.767,1-.348.213-.718.391-1.079.584-.04-.365-.094-.729-.116-1.095C301.252,349.146,301.257,348.728,301.249,348.31Zm-8.339-48.137c-4.5,1.756-8.888,3.8-13.361,5.631-2.482,1.015-5.06,1.792-7.579,2.721-1.168.431-2.311.939-3.432,1.479-.345.166-.582.556-.869.843a6.247,6.247,0,0,0,1.223.594c1.826.442,3.663.836,5.5,1.238,4.165.913,7.925,2.481,10.826,5.833,1.865,2.154,3.274,4.373,3.048,7.324-.067.881.322,1.238,1.125,1.043,1.1-.269,2.187-.633,3.276-.967,1.849-.568,3.7-1.142,5.789-1.714a30.006,30.006,0,0,0,3.772-1.253c2.764-1.326,2.815-.806,2.722-3.7a56.234,56.234,0,0,0-.416-8.507,16.226,16.226,0,0,0-4.2-8.317,9.192,9.192,0,0,0-3.85-2.152A5.76,5.76,0,0,0,292.91,300.173Zm-67.425,22.542c-2.288.04-4.578,0-6.867.024-.375,0-.75.153-1.371.234l-1.341,1.111c.366.2.722.553,1.1.58,2.831.208,5.667.348,8.5.516.947.056.93-.6.939-1.239C226.456,323.28,226.437,322.7,225.484,322.715ZM218.1,305.373c-1.173.568-.624,1.8-.727,3.02-.082,1.436-.213,2.871-.235,4.308-.038,2.572-.052,5.146.028,7.716.014.452.51,1.245.834,1.273,2.246.192,4.506.261,6.761.257.312,0,1.323-.041.752-1.12a5.968,5.968,0,0,1-.512-2.591q-.091-4.225,0-8.452a10.179,10.179,0,0,1,.442-2.969c.219-.662.134-1.413-.575-1.472-1.475-.123-2.955-.217-4.435-.241A5.348,5.348,0,0,0,218.1,305.373Zm166.762-24.5a3.381,3.381,0,0,0-.516.429c-.647.789-1.212,1.656-1.925,2.38-2.54,2.58-4.975,5.281-8.233,7.039-2.038,1.1-3.972,2.4-6.425,2.97-2.029.531-4.036,1.171-6.092,1.561-2.038.387-4.122.534-6.19.758-.587.064-1.481.035-1.166.832a12.706,12.706,0,0,1,.447,5.983c-.125,1.468.267,1.914,1.662,1.5a57.254,57.254,0,0,0,8.374-2.858,67.922,67.922,0,0,0,11.915-7.372,15.1,15.1,0,0,0,5-5.742,5.1,5.1,0,0,1,.966-1.67c1.526-1.432,2.638-2.991,2.261-5.224C384.9,281.261,384.883,281.065,384.859,280.872ZM226.22,302.38c-2.221.025-4.444-.042-6.661.043a3.364,3.364,0,0,0-1.733.737c-.256.191-.8.944.232,1.007,1.609.1,3.222.125,5.079.182,1.5-.048,3.013-.059,4.514-.173a1.619,1.619,0,0,0,.923-.66c.07-.087-.23-.5-.391-.737C227.662,302,226.914,302.372,226.22,302.38Zm118.234-7.955c-.245.751-.518,1.495-.72,2.258a2.206,2.206,0,0,0,.1.8,3.529,3.529,0,0,0,.827-.342c.9-.681,1.78-1.4,2.669-2.1.492-.389.989-.772,1.484-1.158-.492-.186-.992-.353-1.475-.562C345.991,292.734,345.18,293.016,344.453,294.425Zm31.284-43.248a4.054,4.054,0,0,1-.273.978,9.253,9.253,0,0,0-1.055,1.623c-1.275,4.253-2.471,8.529-3.71,12.792-.635,2.184-1.332,4.349-1.953,6.536-.963,3.4-1.939,6.794-3.951,9.747-1.1,1.607-1.687,3.548-3.558,4.659-3.061,1.819-5.868,4.134-9.707,4.111a4.26,4.26,0,0,0-1.188.353c.347.183.7.359,1.038.553a.6.6,0,0,1,.257.257c.557,1.4,1.806,1.593,3.009,1.482,2.326-.215,4.643-.574,6.948-.958A31.479,31.479,0,0,0,372,289.733a36.229,36.229,0,0,0,10.233-8.787,10.55,10.55,0,0,0,.932-1.452,5.208,5.208,0,0,0,.222-1.317c-.293-.016-.586-.031-.879-.049a.974.974,0,0,1-.992-1.3,10.8,10.8,0,0,0,.236-4.721,1.09,1.09,0,0,1,.1-.567c.531-1.412,1.024-2.842,1.626-4.224.668-1.536,1.289-3.042-.019-4.533-.9-1.023-1.81-2.041-2.789-2.986a16.612,16.612,0,0,1-4.568-7.542C376,251.888,375.858,251.535,375.738,251.177ZM328.385,260.4c-3.273.3-5.982,1.352-7.926,3.9-1.64,2.147-2.577,4.515-1.561,7.418a38.207,38.207,0,0,0,7.531,13.059,11.833,11.833,0,0,1,1.208,1.938c.173.293.288.622.468.91.028.045.363,0,.386-.069.114-.318.32-.71.223-.98-.937-2.631-1.922-5.245-2.907-7.859-1.724-4.575-3.073-9.219-2.7-14.193.015-.193-.011-.482.1-.559.621-.433,1.275-.819,1.926-1.208a.872.872,0,0,1,.329-.042c.007.14.077.324.013.411-1.645,2.272-1.177,4.655-.407,7.065q1.536,4.815,3.05,9.638c.713,2.278,1.424,4.557,2.1,6.848a5.822,5.822,0,0,0,2.167,3.353c2.917,2.133,6.162,1.637,9.363,1.431,1.934-.125,3.85-.546,6.019-.835.5-.081,1-.151,1.492-.247a49.13,49.13,0,0,0,5.768-1.18,18.522,18.522,0,0,0,6.7-4.216,2.769,2.769,0,0,0,.627-1.2c.75-2.374-.191-4.616-.63-6.882-.429-2.209-1.1-4.37-1.552-6.575-.623-3.046-2.821-4.92-5.794-4.73a17.138,17.138,0,0,1-5.033-.264c-3.242-.781-6.426-1.819-9.606-2.836C336.041,261.315,332.448,260.025,328.385,260.4Zm45.933-24a4.438,4.438,0,0,0-2.572,3.765c-.394,2.342-.308,4.761-.58,7.128-.174,1.515-.625,3-.952,4.739-.578.9-1.164,1.8-1.732,2.713A47.543,47.543,0,0,1,361,264.607a2.471,2.471,0,0,0-.691,3.07c.737,2.155,1.2,4.4,1.812,6.6.485,1.755,1,3.5,1.525,5.246a1.262,1.262,0,0,0,.34.5c.281-.136.68-.276.771-.517,1.677-4.49,3.213-9.036,4.993-13.484,1.95-4.876,2.962-9.983,4.152-15.056a15.971,15.971,0,0,1,2.881-6.776,17.227,17.227,0,0,0,2.08-3.537c.37-.775,1.052-1.495.482-2.582A3.975,3.975,0,0,0,374.318,236.4Zm-44.173-2.842a57.9,57.9,0,0,1,6.459.5,34.173,34.173,0,0,1,4.681,1.12c.57.162,1.04-.122,1.5-.111a10.231,10.231,0,0,1,3.162.6,37,37,0,0,0,14.757,2.306,51.893,51.893,0,0,1,5.277.216c-1.082.245-2.213.558-3.367.718-1.641.228-3.3.36-4.947.493-.334.028-.691-.2-1.019-.162a6.788,6.788,0,0,0-1.26.4,2.828,2.828,0,0,0,.425.924,3.884,3.884,0,0,0,4.141,1.072c1.522-.491,3.112-.771,4.63-1.268a10.65,10.65,0,0,0,2.311-1.216c.715-.452,1.3-.307,1.421.454.015.1.028.262-.018.288a21.891,21.891,0,0,1-3.221,1.69,24.828,24.828,0,0,1-4.884,1.213c-1.315.17-1.416.907-1.25,1.826a25.782,25.782,0,0,1,.259,8.525,9.282,9.282,0,0,0,.235,2.336c.544-.394,1.094-.782,1.632-1.183,1.313-.978,2.62-1.964,3.933-2.942a1.122,1.122,0,0,1,.259-.105c-.029.139-.013.316-.093.413-.881,1.063-1.723,2.163-2.678,3.156-1.831,1.9-3.66,3.819-5.616,5.592-2.012,1.823-4.4,2.859-7.155,2.011-3.146-.967-6.239-2.107-9.359-3.161-1.256-.424-2.729-.542-3.737-1.291-1.593-1.184-3.45-1.59-5.172-2.37a18.957,18.957,0,0,0-3.416-1.214,3.522,3.522,0,0,0-3.466,1.073c-2.279,2.314-4.593,4.595-6.887,6.894-1.016,1.019-3.91.964-5.006-.17a16.493,16.493,0,0,1-4.479-9.156,52.089,52.089,0,0,1-.491-8.732,10.98,10.98,0,0,1,2.437-6.087c1.858-2.606,4.845-2.567,7.408-3.377a34.642,34.642,0,0,1,6.931-1.035A45.9,45.9,0,0,1,330.145,233.556Zm13.082,2.838c.163.107.321.22.487.32.293.177.6.336.888.519,1.36.863,2.728,1.713,4.071,2.6a8.259,8.259,0,0,1,3.381,3.966c.6,1.592,1.15,3.2,1.723,5.045a2.014,2.014,0,0,0,0,.489,16.1,16.1,0,0,1,.03,6.46,10.706,10.706,0,0,1-2.256,5.081,1.983,1.983,0,0,0-.2.5c.11.03.227.1.329.084a6.186,6.186,0,0,0,5.209-4.014,16.733,16.733,0,0,0,1.026-4.7,38.6,38.6,0,0,0-.187-7.7c-.344-2.262-2.66-3.223-4.223-4.616a11.986,11.986,0,0,0-3.608-2.2c-1.979-.76-4.071-1.227-6.118-1.808A2.474,2.474,0,0,0,343.226,236.394Zm-19.7-1.082a43.063,43.063,0,0,0-7.5,1.681,4.327,4.327,0,0,0-3.434,3.906c-.143,1.882-.044,3.783-.028,5.675a14.989,14.989,0,0,0,2.191,7.794c.374.616.66,1.352-.252,1.873-.062.035-.054.3,0,.414.179.377.4.732.6,1.1a2.836,2.836,0,0,1,.143.416,1.336,1.336,0,0,1-.427-.227,15.037,15.037,0,0,1-2.991-5.916,62.7,62.7,0,0,1-1.168-6.6,31.946,31.946,0,0,1,.426-5.183.939.939,0,0,0-.1-.324c-.087.074-.213.131-.254.225a10.987,10.987,0,0,0-1.3,3.118c-.2,2.2-.061,4.433-.061,6.652a18.035,18.035,0,0,0,2.508,8.516,13.245,13.245,0,0,0,1.734,2.462c.747.852,2.448.57,3.755-.7,2.861-2.779,5.658-5.627,8.481-8.447a14.448,14.448,0,0,1,1.846-1.784c.386-.266,1.255-.416,1.5-.186.57.532.448,1.125-.4,1.524-.52.244-.869.77-.184,1.332.37.3.638.8,1.051.968,1.962.79,3.979,1.446,5.936,2.248,1.153.472,2.193,1.223,3.35,1.681,2.564,1.016,5.159,1.957,7.763,2.869,2.679.939,4.437-.132,5.115-2.754a22.85,22.85,0,0,0,.5-7.193c-.21-3.475-1.089-6.545-3.884-8.955a23.888,23.888,0,0,0-9.592-5.231,32.807,32.807,0,0,0-6.453-.98A58.239,58.239,0,0,0,323.528,235.311Zm15.877,11.272c.437.12.755.669,1.122,1.159.064.758.136,1.394.179,2.031,0,.052-.223.192-.289.163a5.032,5.032,0,0,1-1.8-.882,2.1,2.1,0,0,1-.247-1.664C338.459,247.036,339.136,246.51,339.405,246.583Zm-18.324-.851c.209.838.392,1.858-.522,2.419a4.12,4.12,0,0,1-1.62.2,1.851,1.851,0,0,0-.061-.546c-.345-1.045-.184-1.937.811-2.344C320.074,245.3,321.029,245.523,321.081,245.732Zm52.384-6.506a9.089,9.089,0,0,1,1.375.271c-.146.413-.266.839-.445,1.238-.125.277-.4.5-.486.78-.18.6-.56.856-.995.409a1.61,1.61,0,0,1-.321-1.288A4.9,4.9,0,0,1,373.464,239.227Zm-3.987-1.854c-.119.107-.224.286-.358.311-.981.185-1.968.339-3.015.5.954-.327,1.966-.661,2.987-.969C369.2,237.185,369.348,237.317,369.477,237.373Z" transform="translate(-123.059 -165.047)" fill="#00160a" fill-rule="evenodd"/>
    </g>
  </g>
</svg>
