<svg id="Group_21" data-name="Group 21" xmlns="http://www.w3.org/2000/svg" width="470.687" height="345.129" viewBox="0 0 470.687 345.129">
  <path id="Path_126" data-name="Path 126" d="M133.748,467.8c35.525,38.67,172.9,16.457,263.359,16.457,39.024,0,169.981,19.558,115.9-114.761C335.7-70.918,21.186,345.27,133.748,467.8Z" transform="translate(-82.534 -160.229)" fill="#64fcd9" fill-rule="evenodd"/>
  <path id="Path_127" data-name="Path 127" d="M337.266,549.564a1.169,1.169,0,0,0,.429-.48c.241-.655-.7-1.09-1.4-1.074-1.013.023-2.311.7-2,1.669a1.269,1.269,0,0,0,1.444.714A3.7,3.7,0,0,0,337.266,549.564Zm3.01-11.483a8.44,8.44,0,0,1,2.186.983,11.129,11.129,0,0,1,2.917,3.4,10.828,10.828,0,0,1,1.471,2.869,7.713,7.713,0,0,1,.048,3.474A13.242,13.242,0,0,1,330.462,559.2a4.521,4.521,0,0,1-1.9-.906,4.946,4.946,0,0,1-1.014-1.458,18.426,18.426,0,0,1-2.287-8.985,11.1,11.1,0,0,1,3.826-8.245c3.051-2.464,7.448-2.7,11.19-1.525" transform="translate(-128.87 -238.884)" fill="#fff" fill-rule="evenodd"/>
  <path id="Path_128" data-name="Path 128" d="M547.132,319.594a3.511,3.511,0,0,0-3.415,3.053c-.068.682.221,1.529.9,1.624a1.609,1.609,0,0,0,1.3-.706,13.066,13.066,0,0,0,1.844-2.677c.167-.323.315-.738.095-1.029A.9.9,0,0,0,547.132,319.594Zm-.726-7.482a14.657,14.657,0,0,1,6.194,4.194,7.722,7.722,0,0,1,2.207,5.9,8.193,8.193,0,0,1-.732,2.262c-1.256,2.74-3.415,5.364-6.381,5.895a9.443,9.443,0,0,1-4.657-.564,20.193,20.193,0,0,1-4.889-2.448,4.888,4.888,0,0,1-1.946-2.1,5.245,5.245,0,0,1-.24-1.978,14.517,14.517,0,0,1,.708-4.883,13.95,13.95,0,0,1,3.669-5.022,6.62,6.62,0,0,1,2.035-1.464A5.84,5.84,0,0,1,546.406,312.112Z" transform="translate(-174.227 -190.286)" fill="#fff" fill-rule="evenodd"/>
  <path id="Path_129" data-name="Path 129" d="M531.811,159.694a105.993,105.993,0,0,1,22.717,35.492,4.1,4.1,0,0,1,.355,2.823c-2.568,7.019-7.523,12.87-12.382,18.559l-9.315,10.906c-2.964,3.47-5.929,6.942-8.993,10.325-15.6,17.226-34.036,32.289-55.388,41.557a4.671,4.671,0,0,1-2.538.559,1.64,1.64,0,0,1-1.453-1.825c2.639-9.83,5.3-20.107,3.178-30.063-.512-2.4-1.081-5.424.911-6.869,16.125-11.7,27.735-28.419,38.861-44.912,2.8-4.147,5.588-8.306,8.064-12.652a102.52,102.52,0,0,0,10.043-24.582,2.43,2.43,0,0,1,2.985-1.4,6.762,6.762,0,0,1,2.955,2.08" transform="translate(-158.904 -157.114)" fill="#fff" fill-rule="evenodd"/>
  <path id="Path_130" data-name="Path 130" d="M149.781,210.189a112.491,112.491,0,0,0,13.042,41.423c4.324,7.916,9.582,15.277,14.828,22.615,3.65,5.106,7.552,10.428,13.247,13.067,1.515.7,1.3,2.885.9,4.5a81.384,81.384,0,0,0-2.43,21.439,4.831,4.831,0,0,1-.236,2.014c-.909,2.128-4.022,1.774-6.166.9C169.7,310.77,159.517,299.943,150,289.246c-12.35-13.888-24.517-28.386-31.813-45.479a6.214,6.214,0,0,1,.52-7.2,81.729,81.729,0,0,1,26.625-26.841,5.2,5.2,0,0,1,2.469-.976A1.866,1.866,0,0,1,149.781,210.189Z" transform="translate(-84.103 -168.14)" fill="#fff" fill-rule="evenodd"/>
  <path id="Path_131" data-name="Path 131" d="M543.014,493.525c1.143-1.937,2.56-4.069,4.778-4.437.875-.144,1.337-1.095,1.634-1.93a52.989,52.989,0,0,0,1-32.222c-.864-3,.2-6.171,1.252-9.105q4.072-11.36,8.144-22.72c-1.555-2.691-5.656-2.611-7.757-4.9-2.7-2.947-.665-7.632,1.453-11.024l37.123-59.45c1.515-2.428,4.843-3.189,7.631-2.542s5.169,2.4,7.463,4.114l27.074,20.222c4.843,3.618,10.19,8.24,9.911,14.278-.154,3.342-2.066,6.313-3.916,9.1l-21.457,32.333c-4.03,6.071-2.917,14.046-4.135,21.231-1.924,11.352-9.709,20.675-16.917,29.653s-14.421,19-14.826,30.511a49.967,49.967,0,0,1-17.49,35.956c3.043-7.383-16.182-4.438-38.173-13.188C529.42,516.6,536.252,504.983,543.014,493.525Z" transform="translate(-172.04 -197.464)" fill="#fff" fill-rule="evenodd"/>
  <path id="Path_132" data-name="Path 132" d="M235.487,506.265c-1.371-1.121-1.808-3.015-2.051-4.775-2.8-20.363,9.228-40.463,7.085-60.907-1.1-10.536-5.944-20.366-12.036-29.013-4.207-5.97-4.442-13.969-2.873-21.113s4.735-13.823,6.87-20.818c9.5-31.1-2.058-64.328-13.483-94.769,22.764-11.008,49.328-8.875,74.546-7.384s52.341,1.6,73.36-12.487c2.881,30.468-3.472,60.969-9.788,90.908l96.149-9.367a4.029,4.029,0,0,1,2.688.363c1.019.7,1.175,2.116,1.234,3.352q2.247,47.528,2.725,95.118a3.074,3.074,0,0,1-.577,2.247,3.031,3.031,0,0,1-1.881.659L322.746,453.292c-3.883.433-9.414-.578-9.187-4.5a286.8,286.8,0,0,0-1.766-52.417,95.528,95.528,0,0,0-35.218,5.335c-2.557.9-5.631,3.319-4.252,5.662,9.124,15.5-2.2,38.81,10.191,51.825,4.26,4.475,3.966,11.515,3.122,17.65a207.633,207.633,0,0,1-9.168,38.685C278.539,501.078,236.753,514.017,235.487,506.265Z" transform="translate(-105.998 -178.095)" fill="#fff" fill-rule="evenodd"/>
  <path id="Path_133" data-name="Path 133" d="M76.056,157.021a.8.8,0,0,1-.4.781L75,157.148a1.781,1.781,0,0,1,1.047-.115Z" transform="translate(-75 -157)" fill="#00160a" fill-rule="evenodd"/>
  <path id="Path_134" data-name="Path 134" d="M339.276,538.081a8.44,8.44,0,0,1,2.186.983,11.128,11.128,0,0,1,2.917,3.4,10.826,10.826,0,0,1,1.471,2.869,7.713,7.713,0,0,1,.048,3.474A13.242,13.242,0,0,1,329.462,559.2a4.52,4.52,0,0,1-1.9-.906,4.943,4.943,0,0,1-1.014-1.458,18.426,18.426,0,0,1-2.288-8.985,11.1,11.1,0,0,1,3.826-8.245c3.051-2.464,7.448-2.7,11.19-1.525m-4.288,18.594a7.208,7.208,0,0,0,4.7-3.132,12.569,12.569,0,0,0,1.934-5.417,3.69,3.69,0,0,0-.6-3.137,3.945,3.945,0,0,0-1.755-.874c-2.379-.711-5.093-1.316-7.224-.042-1.551.928-2.416,2.648-3.2,4.277a5.853,5.853,0,0,0,6.153,8.325Z" transform="translate(-128.654 -238.884)" fill="#00160a" fill-rule="evenodd"/>
  <path id="Path_135" data-name="Path 135" d="M454.673,427.556a1.461,1.461,0,0,1,1.414-1.645,109.5,109.5,0,0,1,30.56-2.695c1.305.069,2.984.511,3.07,1.814q.742,11.213,1.485,22.426a1.52,1.52,0,0,1-.2,1.09,1.5,1.5,0,0,1-.814.407,80.349,80.349,0,0,1-32.766,1.6,1.2,1.2,0,0,1-1.222-1.192A72.607,72.607,0,0,1,454.673,427.556Zm2.357,12.4a30.5,30.5,0,0,0,1.753,8.277c.963.139,1.916.339,2.875.5,8.266,1.4,16.719-.009,24.983-1.415a1.817,1.817,0,0,0,1.846-2.462l-.855-7.727a.756.756,0,0,0-.9-.819,125.817,125.817,0,0,0-17.634.49l-9.732.726a2.645,2.645,0,0,0-2.067.8A2.513,2.513,0,0,0,457.03,439.956Zm.091-10.774a10.39,10.39,0,0,0-.265,5.113,1.471,1.471,0,0,0,.377.831,1.6,1.6,0,0,0,1.318.19,113.911,113.911,0,0,1,16.7-1.2c.788,0,1.03-1.059,1.021-1.847q-.019-1.732-.038-3.464a2.061,2.061,0,0,0-2.767-2.4l-5.551.424c-.885.068-3.234.669-4.313.74l-5.636.9a1.118,1.118,0,0,0-.566.2A1.058,1.058,0,0,0,457.121,429.183Zm24.78,5.022a19.614,19.614,0,0,0,4.375-.437,1.8,1.8,0,0,0,.945-.417,1.908,1.908,0,0,0,.329-1.458q-.114-2.233-.228-4.466a1.44,1.44,0,0,0-1.849-1.7l-4.9.334a1.144,1.144,0,0,0-1.213,1.465,37.2,37.2,0,0,0,.193,4.728,2.482,2.482,0,0,0,.395,1.293A2.436,2.436,0,0,0,481.9,434.205Z" transform="translate(-156.677 -214.273)" fill="#ffb61d" fill-rule="evenodd"/>
  <path id="Path_136" data-name="Path 136" d="M479.862,387.011a6.783,6.783,0,0,1,9.424,7.071c1.337-.724,3.034-1.435,4.282-.567,1.409.981,1.088,3.093.876,4.8a16.273,16.273,0,0,0,1.368,8.778c.52,1.124.967,2.831-.187,3.286a2.14,2.14,0,0,1-.615.111l-40.562,3.269a1.068,1.068,0,0,1-1.4-1.252q-.2-4.77-.389-9.541a4.047,4.047,0,0,1,.431-2.477c.8-1.167,2.467-1.163,3.863-1.387s3.019-1.4,2.481-2.707c-.6-1.457,1.442-2.522,3-2.759s3.623-1.165,3.151-2.668c-.516-1.642,1.744-2.661,3.45-2.887a7.652,7.652,0,0,1,3.6.1,2.625,2.625,0,0,1,1.85,2.775,2.057,2.057,0,0,0,2.665,2.145,2.541,2.541,0,0,0,1.172-3.486C477.781,388.609,478.819,387.463,479.862,387.011Zm6.982,20.958a6.567,6.567,0,0,1-.514-3.119,131.437,131.437,0,0,0-.92-14.97.7.7,0,0,0-.914-.769c-1.056.1-2.308.332-2.725,1.307a2.98,2.98,0,0,0-.133,1.338q.4,7.521.8,15.04a1.551,1.551,0,0,0,.475,1.264,1.429,1.429,0,0,0,.732.182A11.481,11.481,0,0,0,486.844,407.969Zm-18.186-7.709c-.131.836-.315,1.664-.364,2.509a15.8,15.8,0,0,0,.51,4.194,1.627,1.627,0,0,0,2.174.98,2.691,2.691,0,0,0,1.485-2.132,8.705,8.705,0,0,0-.166-2.7,59.312,59.312,0,0,1-.724-10.639,1.6,1.6,0,1,0-3.156.313A20.075,20.075,0,0,1,468.658,400.261Zm8.893-4.8c-.527-.691-1.736-.323-2.147.443a4.313,4.313,0,0,0-.184,2.556,31.957,31.957,0,0,1,.076,6.792,3,3,0,0,0,.233,1.952c.565.859,1.806.851,2.829.748a.783.783,0,0,0,.907-1.033q-.708-5.256-1.416-10.511A1.96,1.96,0,0,0,477.55,395.46Zm11.712,1.506a3.5,3.5,0,0,0-.516,1.917,37.7,37.7,0,0,0,.49,6.881c.12.9.531,2.055,1.437,1.994s1.157-1.289,1.135-2.209q-.085-3.651-.169-7.3a2.058,2.058,0,0,0-.614-1.739A1.369,1.369,0,0,0,489.262,396.966Zm-27.715-.575s.4,3.177.544,4.8q.265,3.049.674,6.082a1.309,1.309,0,0,0,.309.814,2.022,2.022,0,0,0,2.091-.321,2.629,2.629,0,0,0,.228-1.5q-.111-2.434-.221-4.869c-.079-1.74-.493-5.491-.493-5.491M456.293,407.9a2.025,2.025,0,0,0,.547.988,1.447,1.447,0,0,0,1.959-.411,4.2,4.2,0,0,0,.641-2.112,6.22,6.22,0,0,0-.086-2.719,2.125,2.125,0,0,0-2.02-1.548,2.079,2.079,0,0,0-1.682,1.658,5.3,5.3,0,0,0,.173,2.492Q456.033,407.078,456.293,407.9Z" transform="translate(-156.291 -206.397)" fill="#e7eaee" fill-rule="evenodd"/>
  <path id="Path_137" data-name="Path 137" d="M524.071,244.694a13.387,13.387,0,0,1-3.964,4.31,4.934,4.934,0,0,1-5.539-.045c-1.675-1.383-1.777-3.878-1.646-6.046a10.964,10.964,0,0,1,.358-2.477,10.4,10.4,0,0,1,2.266-3.677,12.631,12.631,0,0,1,4.009-3.372,5.379,5.379,0,0,1,5.06.051,5.529,5.529,0,0,1,2.108,5.576,14.9,14.9,0,0,1-2.652,5.681m-3.466,1.733a22.762,22.762,0,0,0,3.5-4.892,7.871,7.871,0,0,0,1.125-3.763,3.474,3.474,0,0,0-1.952-3.2c-1.6-.64-3.358.384-4.7,1.471a10.058,10.058,0,0,0-2.486,2.687,11.975,11.975,0,0,0-.886,2.149,9.881,9.881,0,0,0-.768,4.3,3.379,3.379,0,0,0,2.682,3.071C518.476,248.388,519.674,247.418,520.6,246.427Z" transform="translate(-169.259 -173.313)" fill="#ffb61d" fill-rule="evenodd"/>
  <path id="Path_138" data-name="Path 138" d="M165.5,270.641a21.5,21.5,0,0,1,4.154,5.962,5.338,5.338,0,0,1-2.045,6.418,7.424,7.424,0,0,1-7.024.338,12.46,12.46,0,0,1-5.28-4.94,10.865,10.865,0,0,1-1.811-5.164,5.419,5.419,0,0,1,7.386-5.669,11.407,11.407,0,0,1,4.621,3.053m-6.673-1.053a3.083,3.083,0,0,0-3.048,2.671,6.645,6.645,0,0,0,1.028,4.253c1.568,2.819,4.366,5.323,7.587,5.167,1.657-.08,3.472-1.227,3.443-2.885a4.363,4.363,0,0,0-.72-2,20.8,20.8,0,0,0-3.306-4.639A8.511,8.511,0,0,0,158.831,269.588Z" transform="translate(-91.895 -180.74)" fill="#ffb61d" fill-rule="evenodd"/>
  <path id="Path_139" data-name="Path 139" d="M333.3,549.069a6.332,6.332,0,0,1,4.154-1.391,4.251,4.251,0,0,1,3.586,2.306,4.314,4.314,0,0,1-.791,4.478,6.72,6.72,0,0,1-4.2,2.108,2.963,2.963,0,0,1-2.965-.9,3.428,3.428,0,0,1-.408-1.512q-.155-1.411-.31-2.823a2.794,2.794,0,0,1,.042-1.192,2.391,2.391,0,0,1,.892-1.07m4.7,2.706a1.17,1.17,0,0,0,.429-.481c.241-.654-.7-1.09-1.4-1.074-1.013.023-2.312.706-2,1.669a1.269,1.269,0,0,0,1.444.714,3.7,3.7,0,0,0,1.531-.828Z" transform="translate(-130.393 -241.095)" fill="#00160a" fill-rule="evenodd"/>
  <path id="Path_140" data-name="Path 140" d="M454.846,165.57a100.013,100.013,0,0,1,21.343,33.471,3.887,3.887,0,0,1,.334,2.663c-2.412,6.619-7.068,12.136-11.634,17.5l-8.751,10.286c-2.785,3.273-5.57,6.546-8.449,9.737-14.657,16.245-31.977,30.45-52.035,39.191a4.38,4.38,0,0,1-2.385.527,1.546,1.546,0,0,1-1.365-1.721c2.48-9.27,4.976-18.962,2.986-28.35-.48-2.264-1.016-5.116.856-6.478,15.149-11.032,26.057-26.8,36.51-42.355,2.628-3.911,5.25-7.832,7.575-11.931a96.88,96.88,0,0,0,9.436-23.182,2.283,2.283,0,0,1,2.8-1.32A6.359,6.359,0,0,1,454.846,165.57Zm-6.477,11.9c-.941-.388-1.808.663-2.288,1.561q-.778,1.458-1.555,2.92c-9.59,18.013-19.326,36.3-33.939,50.488-1.38,1.34-2.924,2.96-2.669,4.867a15.8,15.8,0,0,1-7.856,15.54c-2.455,1.347-2.426,4.825-2.067,7.6.144,1.112.564,2.506,1.682,2.6a12.8,12.8,0,0,1,8.557,4.39c.674.789,1.952.3,2.83-.256,22.107-13.9,39.093-34.427,55.678-54.6.572-.7,1.181-1.573.883-2.422a29.708,29.708,0,0,1,1.1-22.14A65.79,65.79,0,0,0,462,177.349,17.689,17.689,0,0,1,448.369,177.468Zm-52.436,97.279a3.133,3.133,0,0,0,2.8-.433,55.129,55.129,0,0,0,6.6-4.062,1.7,1.7,0,0,0,.525-1.848,3.279,3.279,0,0,0-1.233-1.6,6.429,6.429,0,0,0-6.068-.867,2.345,2.345,0,0,0-.988.627,2.838,2.838,0,0,0-.5,1.275Q396.349,271.267,395.933,274.746Zm62.082-102.039a18.329,18.329,0,0,0-6.622-7.191c-.975.86-1.165,2.167-1.358,3.5a8.927,8.927,0,0,1-.658,2.641,8.325,8.325,0,0,1-.438.76h0a4.271,4.271,0,0,0-.685,1.492c-.145.831.558,1.874,1.356,1.6a3.75,3.75,0,0,1,2.014.065,7.807,7.807,0,0,0,1.086.177C454.813,175.885,456.56,174.236,458.015,172.708Zm11.906,17.6c-1.61,3.2-1.355,6.981-1.063,10.552l.42,5.12c.046.563.352,1.323.9,1.167a8.633,8.633,0,0,1,1.623-2.5,10.028,10.028,0,0,0,1.489-2.164c1.229-2.7-.135-5.813-1.478-8.459Zm-72.033,56.833A2.043,2.043,0,0,0,400,248.868a3.335,3.335,0,0,0,2.494-1.493,9.847,9.847,0,0,0,1.221-2.739l1.034-3.149c.289-.878.306-2.22-.612-2.324a1.387,1.387,0,0,0-.92.331,11.288,11.288,0,0,0-2.509,2.814l-1.988,2.808A3.324,3.324,0,0,0,397.888,247.145Zm-237.065-8.407a112.49,112.49,0,0,1-13.042-41.423,1.866,1.866,0,0,0-1.976-1.436,5.2,5.2,0,0,0-2.469.976A81.729,81.729,0,0,0,116.712,223.7a6.214,6.214,0,0,0-.52,7.2c7.3,17.093,19.462,31.59,31.813,45.479,9.513,10.7,19.7,21.524,32.958,26.908,2.144.87,5.257,1.225,6.166-.9a4.788,4.788,0,0,0,.237-1.989v-.026a81.388,81.388,0,0,1,2.43-21.439c.406-1.619.618-3.8-.9-4.5-5.695-2.639-9.6-7.96-13.247-13.067C170.406,254.015,165.147,246.654,160.823,238.738Zm12.327,55.888a2.784,2.784,0,0,1-2.223-.766c-12.071-8.844-21.426-20.814-30.617-32.624l-16.22-20.84c2.738-1.744,3.086-5.532,3.145-8.778.077-4.218.134-8.562-1.39-12.5a3.2,3.2,0,0,1,.574-2.654,27.265,27.265,0,0,1,8.156-8.757,2.577,2.577,0,0,1,1.048-.492c1.017-.144,1.8.846,2.342,1.718,2.147,3.444,5.1,7.338,9.147,7.055,1.542-.108,2.4,1.708,2.846,3.186,5.592,18.385,16.092,34.967,28.405,49.721,1.6,1.917,2,4.5,2.4,7.068.444,2.86.883,5.689,2.974,7.528,1.786,1.569,1.455,4.388.973,6.717a1.739,1.739,0,0,1-1.559,1.747Zm-28.617-82.893a21.145,21.145,0,0,1-5.6-5.789,2.635,2.635,0,0,1-.572-1.62,2.6,2.6,0,0,1,1.01-1.562,16.294,16.294,0,0,1,3.91-2.592c.52-.245,1.19-.444,1.623-.065a1.575,1.575,0,0,1,.4.912l2.046,10.229c.121.605-.514,1.15-1.13,1.167A2.93,2.93,0,0,1,144.534,211.732Zm-20.24,19.785c-.044,1.924-.191,4.084-1.632,5.358-.3.036-.5-.3-.621-.575a23.755,23.755,0,0,1-2.256-7.643c-.163-2.665.73-5.55,2.907-7.095.294-.21.727-.382.986-.131a.813.813,0,0,1,.188.387,23.516,23.516,0,0,1,.494,6.719Zm58.761,64a1.6,1.6,0,0,1,.4,1.249l.1,4.945a46.08,46.08,0,0,1-5.809-3.82c-.348-.268-.731-.7-.517-1.088a.933.933,0,0,1,.53-.358,22.85,22.85,0,0,1,4.048-1.083A1.546,1.546,0,0,1,183.055,295.517Zm.117-19.481a.95.95,0,0,1,.114-.647c.351-.476,1.111-.045,1.432.451a4.659,4.659,0,0,1,.447,4.095A5.83,5.83,0,0,1,183.172,276.036Zm302.185-37.552c2.022-2.546,5.708-2.913,8.959-2.834a5.689,5.689,0,0,1,2.232.37c1.923.877,2.331,3.389,2.4,5.5a20.952,20.952,0,0,1-.419,5.735,8.467,8.467,0,0,1-2.979,4.807,5.519,5.519,0,0,1-2.353,1.033,7.723,7.723,0,0,1-3.917-.584,19.369,19.369,0,0,1-4.687-2.525,2.918,2.918,0,0,1-1.449-2.057,21.975,21.975,0,0,1,.666-5.96A9.121,9.121,0,0,1,485.357,238.484Zm5.244,12.683c2.6.746,5.357-1.263,6.341-3.779s.62-5.341.078-7.987c-.207-1.015-1.293-1.584-2.294-1.855a10.46,10.46,0,0,0-4.77-.162,3.929,3.929,0,0,0-2.131,1,4.8,4.8,0,0,0-.709,1.089l-1.521,2.874a8.269,8.269,0,0,0-.695,1.566,5.158,5.158,0,0,0,1.3,4.739A9.31,9.31,0,0,0,490.6,251.167Zm-34.748,29.065a14.648,14.648,0,0,1,6.194,4.194,7.723,7.723,0,0,1,2.208,5.9,8.2,8.2,0,0,1-.732,2.262c-1.256,2.74-3.415,5.364-6.381,5.895a9.461,9.461,0,0,1-4.657-.564,20.188,20.188,0,0,1-4.889-2.448,4.888,4.888,0,0,1-1.946-2.1,5.241,5.241,0,0,1-.24-1.978,14.538,14.538,0,0,1,.708-4.883,13.936,13.936,0,0,1,3.669-5.022,6.622,6.622,0,0,1,2.035-1.464A5.84,5.84,0,0,1,455.852,280.232Zm2.434,14.406a8.161,8.161,0,0,0,2.449-6.575,6.679,6.679,0,0,0-4.177-5.483,4.939,4.939,0,0,0-2.965-.169,5.507,5.507,0,0,0-1.471.683,8.1,8.1,0,0,0-1.766,12.152,4.635,4.635,0,0,0,4.044,1.417A6.882,6.882,0,0,0,458.286,294.638ZM241,266.054c-.08-1.134-1.6-1.431-2.732-1.4q-8.948.264-17.849,1.34c-.973.118-1.052,1.686-.271,2.28a3.782,3.782,0,0,0,2.839.345Zm-19.072,7.668c.052-.584.786-.795,1.368-.861l35.139-3.979a3.355,3.355,0,0,1,1.885.149,1.159,1.159,0,0,1,.567,1.588,1.691,1.691,0,0,1-1.272.506l-35.941,3.487C222.927,274.684,221.864,274.47,221.929,273.722Zm78.777,5.919c-1.966.432-3.984-.278-5.869-.982q-9.145-3.417-18.218-7.023c-2.441-.97-5.12.483-7.316,1.926a201.584,201.584,0,0,0-18.316,13.574c-1.5,1.25-3.81.373-5.324-.861-.319-.261-.635-.54-.951-.819a7.892,7.892,0,0,0-3.9-2.313c-2.344-.332-4.406,1.445-6.1,3.093l-10.953,10.637c-1.474,1.431-3.024,3.722-1.713,5.3.866,1.042,2.453.99,3.8.833,7.026-.815,14.019-1.956,21.007-3.1h0c11.552-1.887,23.1-3.773,34.781-4.177,2.589-.09,5.179-.106,7.77-.122h0c1.623-.011,3.245-.021,4.867-.049q10.974-.191,21.893-1.476a.89.89,0,0,0,1-1.2l-3.078-20.943c-.157-1.064-.43-2.295-1.4-2.754s-2.14.135-2.947.863a20.13,20.13,0,0,0-3.193,4.147C304.969,276.647,303.431,279.042,300.706,279.641ZM250.719,291.1a246.444,246.444,0,0,1,20.527-15.164c1.458-.964,3.229-1.951,4.858-1.318l17.213,6.688c2.872,1.117,6.014,2.247,8.963,1.352,3.428-1.041,5.478-4.452,7.2-7.591a1.172,1.172,0,0,1,1.8-.038,3.389,3.389,0,0,1,.705,1.93l1.259,8.733a9.423,9.423,0,0,1,0,4.031,3.22,3.22,0,0,1-2.881,2.452,328.029,328.029,0,0,0-66.144,5.444q-1.012.188-2.025.38h0a86.609,86.609,0,0,1-15.719,1.986,67.379,67.379,0,0,1,9-9.738c1.765-1.673,3.971-3.477,6.34-2.93a7.442,7.442,0,0,1,3.237,2.13h0c.312.293.625.585.946.856C247.328,291.424,249.38,292.2,250.719,291.1Zm284.252,60.926a2.873,2.873,0,0,1-1.842-.119c-4.052-1.274-7.342-4.122-10.576-6.921q-.657-.569-1.312-1.131a106.127,106.127,0,0,0-17.33-12.025,4.338,4.338,0,0,1-1.668-1.319,1.453,1.453,0,0,1,.22-1.93,10.933,10.933,0,0,0,4.682-8.46,1.728,1.728,0,0,1,1.93-1.412,5.013,5.013,0,0,1,2.388,1.121L539.6,339.8a2.717,2.717,0,0,1,1.271,1.5,2.645,2.645,0,0,1-.342,1.58,64.934,64.934,0,0,1-4.173,7.761A3.1,3.1,0,0,1,534.971,352.027Zm-28.146-23.691c-.331.583-.617,1.427-.082,1.83L529.7,347.452c1.257.946,3.211,1.834,4.2.611a51.1,51.1,0,0,0,3.179-4.388,1.958,1.958,0,0,0,.446-1.375,1.979,1.979,0,0,0-.811-1.048,224.917,224.917,0,0,0-26.669-18.6ZM495.4,338.906c.371-.636.821-1.332,1.541-1.488a2.565,2.565,0,0,1,1.617.362,27.01,27.01,0,0,1,7.45,5.354,2.074,2.074,0,0,1,.352,2.079,6.114,6.114,0,0,1-1.172,1.868,7.022,7.022,0,0,1-2.652,2.321,4.484,4.484,0,0,1-3.709-.363,9.544,9.544,0,0,1-2.835-2.563,6.62,6.62,0,0,1-1.814-4.545A7.668,7.668,0,0,1,495.4,338.906Zm4.836,7.329c1.738.676,2.85.141,2.9-1,.028-.72-.6-1.274-1.17-1.712l-1.726-1.329a3.3,3.3,0,0,0-1.92-.894c-.72,0-1.453.747-1.158,1.4A6.475,6.475,0,0,0,500.235,346.235Zm-6.863,14.036a3.03,3.03,0,0,0,1.357.469,1.113,1.113,0,0,0,1.125-.731,8.011,8.011,0,0,1,1.719-2.9l.231-.292a5.852,5.852,0,0,0,1.555-3.365c.02-1.258-1.022-2.6-2.268-2.428a3.352,3.352,0,0,1-2.61-1.2c-.114-.11-.226-.223-.34-.336a5.329,5.329,0,0,0-2-1.459c-.943-.307-2.227.181-2.3,1.17-.15,1.992-1.806,3.491-3.341,4.768-.46.382-.045,1.116.385,1.532A30.238,30.238,0,0,0,493.372,360.271Zm.307-3.794-3.024-2.046a1.614,1.614,0,0,1-.021-2.42,2.626,2.626,0,0,1,2.624-.36,7.708,7.708,0,0,1,2.307,1.53,1.552,1.552,0,0,1,.318,1.7,4.552,4.552,0,0,1-1.073,1.482.7.7,0,0,1-1.131.113Zm23.971.135,1.478-3.142c.453-.961.891-2.152.28-3.022a3.039,3.039,0,0,0-.831-.721L513.2,346.1a3.478,3.478,0,0,0-1.908-.786,3.3,3.3,0,0,0-2.112,1.188,28.494,28.494,0,0,0-2.466,2.788c-.578.747-1.053,1.977-.263,2.5l8.231,5.4c.65.426,1.475.864,2.157.494A2.189,2.189,0,0,0,517.65,356.612Zm-1.824-2.224a2.075,2.075,0,0,1-1.047-.111,12.134,12.134,0,0,1-5.441-3.431,1.284,1.284,0,0,1,.406-1.85,2.337,2.337,0,0,1,2.086-.009,8.142,8.142,0,0,1,1.217.684c.216.138.432.276.654.4.239.136.489.261.738.386a5.283,5.283,0,0,1,1.9,1.323C516.99,352.612,516.855,354.151,515.827,354.388Zm2.779,3.509c.949-.225,1.238-1.193,1.54-2.2a4.049,4.049,0,0,1,1.149-2.174c1.106-.837,2.674-.137,3.866.572l3.792,2.255a5.739,5.739,0,0,1,1.657,1.285,1.946,1.946,0,0,1,.343,1.972,2.824,2.824,0,0,1-.97.987,3.621,3.621,0,0,0-.856.78,3.738,3.738,0,0,0-.5,1.41,2.688,2.688,0,0,1-.74,1.641c-.873.719-2.17.143-3.136-.447l-5.342-3.264a3.252,3.252,0,0,1-1.373-1.264A1.121,1.121,0,0,1,518.606,357.9Zm7,3.242a5.755,5.755,0,0,0,1.97-1.381c.428-.4-.144-1.059-.654-1.346l-3.273-1.843c-.341-.192-.817-.367-1.081-.079a2.866,2.866,0,0,0,3.039,4.649Zm-37.552-.115a7.065,7.065,0,0,1-2.077-.825,3.084,3.084,0,0,0-3.2.08,9.062,9.062,0,0,0-2.406,2.335,4.334,4.334,0,0,0-.942,1.6,1.479,1.479,0,0,0,.574,1.644l5.707,3.181a1.552,1.552,0,0,0,2.5-.549l1.468-2.021c.818-1.124,1.672-2.558,1.074-3.814C490.279,361.651,489.185,361.342,488.058,361.024Zm-1.806,5.234a1.288,1.288,0,0,1-.881-.2l-3.888-1.979a3.763,3.763,0,0,1,3.459-1.336A11.087,11.087,0,0,1,488.593,364l-1.787,1.856A1.278,1.278,0,0,1,486.251,366.258ZM459.314,287.13a3.524,3.524,0,0,1,.014,3.167,6.441,6.441,0,0,1-2.673,3.313,4.1,4.1,0,0,1-4.132.051,3.039,3.039,0,0,1-1.183-3.773,5.262,5.262,0,0,1,.566-.827,5.363,5.363,0,0,0,.547-.789,5.6,5.6,0,0,0,.252-.581,3.731,3.731,0,0,1,.4-.817,3.412,3.412,0,0,1,2.932-1.041A3.848,3.848,0,0,1,459.314,287.13Zm-2.736.583a3.511,3.511,0,0,0-3.415,3.053c-.068.682.221,1.529.9,1.624a1.608,1.608,0,0,0,1.3-.706,13.058,13.058,0,0,0,1.844-2.677c.167-.323.315-.738.1-1.029A.892.892,0,0,0,456.578,287.713Zm40.1-43.729a3.847,3.847,0,0,0-2.649-3.429c-1.9-.489-3.732.845-5.237,2.1a2.413,2.413,0,0,0-.275,4.026,8.778,8.778,0,0,0,2.289,2.449,3.254,3.254,0,0,0,3.2.315,3.889,3.889,0,0,0,1.243-1.168A6.458,6.458,0,0,0,496.678,243.985Zm-4.2,3.936a2.189,2.189,0,0,1-1.781-.608,2.782,2.782,0,0,1-.742-2.681,2.865,2.865,0,0,1,4.887-1.2c-.026.206-.047.414-.069.622h0a8.448,8.448,0,0,1-.391,2.076A2.624,2.624,0,0,1,492.475,247.921Zm-51.01,239.473c3.494-12.361,10.091-23.58,16.62-34.642,1.1-1.87,2.472-3.929,4.613-4.284.845-.14,1.29-1.057,1.577-1.864a51.156,51.156,0,0,0,.961-31.111c-.833-2.892.193-5.958,1.208-8.791l7.864-21.937c-.818-1.414-2.364-2.036-3.931-2.666a9.379,9.379,0,0,1-3.56-2.065c-2.61-2.846-.641-7.369,1.4-10.644l35.842-57.4c1.464-2.344,4.676-3.079,7.368-2.455s4.992,2.32,7.206,3.973l26.141,19.525c4.676,3.493,9.839,7.955,9.57,13.786-.149,3.227-2,6.1-3.782,8.787l-20.717,31.218c-2.678,4.037-3,8.944-3.33,13.874h0a66.013,66.013,0,0,1-.662,6.624c-1.786,10.54-8.806,19.268-15.531,27.631l-.42.523-.383.477c-6.961,8.668-13.924,18.348-14.316,29.458a48.241,48.241,0,0,1-16.887,34.716l8.815-21.384c2.1-5.086,4.038-11.412.53-15.649-1.587-1.917-3.986-2.931-6.29-3.876l-13.69-5.617a8.029,8.029,0,0,0-2.937-.786c-3.181-.02-5.073,3.429-6.362,6.337A135.079,135.079,0,0,1,441.465,487.394Zm45.015-29.041c2.347.869,5.653,1.4,6.764-.845,5.383-10.852,10.915-21.913,19.484-30.476,4.939-4.935,7.967-11.521,9.68-18.29s2.2-13.779,2.676-20.745c-2.08.757-2.26,3.563-2.251,5.776a41.435,41.435,0,0,1-2.506,14.342,3.829,3.829,0,0,1-1.757,2.4c-.938.405-2.319-.408-2-1.38a58.756,58.756,0,0,0,2.634-23.2c-.213-2.421-.664-5.01-2.385-6.725a76.409,76.409,0,0,1-.014,11.467c-.67,6.586-3.031,12.866-5.372,19.058a3.467,3.467,0,0,1-1.443,2.058c-.772.378-1.971-.22-1.769-1.056l3.505-14.49c1.927-7.967,3.822-16.537.839-24.172-1.5-.1-1.857,2.048-1.722,3.549.919,10.274-1.921,20.471-4.734,30.4-.328,1.158-1.49,2.607-2.393,1.81a1.751,1.751,0,0,1-.376-1.454,40.729,40.729,0,0,1,1.777-8.566c.248-.877.5-1.752.725-2.63a65.52,65.52,0,0,0,1.578-24.892c-1.851,2.373-2.637,5.383-3.378,8.3l-4.4,17.317c-1.989,7.829-4.53,16.435-11.426,20.64a2.511,2.511,0,0,1-1.813.5c-.778-.184-1.219-.989-1.543-1.719a44.406,44.406,0,0,1-1.511-31.765c.209-.625-.426-1.277-1.082-1.329a2.885,2.885,0,0,0-1.808.685c-5.647,3.984-7.81,11.2-9.606,17.875l-2.388,8.872a14.514,14.514,0,0,0,.178,9.956c.122.46.245.918.359,1.377a41.4,41.4,0,0,1-2.879,27.781c-.611,1.261,1,2.408,2.314,2.894Zm8.92-84.68a4.9,4.9,0,0,1-2.241-2.495c-.446-1.7,1.169-3.4,2.907-3.626a7.223,7.223,0,0,1,4.88,1.61c2.029,1.407,4.6-.739,6.116-2.686-2.049-1.226-4-3.129-4.085-5.516s2.821-4.661,4.753-3.256a10.351,10.351,0,0,0,2.553,1.209c1.343.494,2.663.98,3.4,2.156a4.292,4.292,0,0,1-.313,4.476,12.614,12.614,0,0,1-3.448,3.2,11.054,11.054,0,0,1,5.155,1.887l1.659-4.835a2.356,2.356,0,0,1,.564-1.032,2.265,2.265,0,0,1,2.182-.122,10.4,10.4,0,0,1,5.046,3.112,5.422,5.422,0,0,1,.906,5.623c-.881,1.8-3.368,2.761-5.054,1.675a10.347,10.347,0,0,1-1.052-.827c-.939-.805-1.879-1.61-2.785-.966a14.077,14.077,0,0,1,5.2,8.864q13.075-19.916,25.868-40.016c.815-1.279,1.471-3.3.145-4.03-5.663-3.142-10.67-7.351-15.664-11.549-6.3-5.3-12.59-10.582-20.154-13.684a2.436,2.436,0,0,0-1.507-.256,2.506,2.506,0,0,0-1.227,1.028,443.464,443.464,0,0,0-37.773,58.238c-1.541,2.841.521,6.227,2.494,8.786.986,1.279,2.888,2.63,3.963,1.425a5.3,5.3,0,0,1,5.494-1.708c1.919.678,3.112,3.173,2.069,4.92-.755,1.263.723,2.667,2.013,3.374q3.869,2.12,7.925,3.869a1.082,1.082,0,0,0,1.776-.826l2.991-10.293c.492-1.693.821-3.89-.631-4.89Zm53.513-28.854c-.4-.136-.76.261-.993.611l-22.4,33.529a7.666,7.666,0,0,0-1.4,2.91,2.62,2.62,0,0,0,1.191,2.791c1.613.789,3.3-.869,4.336-2.336l20.81-29.5c1.545-2.19.237-5.184-1.085-7.515A.977.977,0,0,0,548.913,344.819ZM485.85,389.591a1.04,1.04,0,0,0-1.314.243,3.023,3.023,0,0,0-.589,1.322,12.315,12.315,0,0,0-.27,7.107l2.146,11.659a2.546,2.546,0,0,0,.541,1.365.882.882,0,0,0,1.3.023c3.174-4.643,6.394-9.376,8.055-14.75.206-.669.266-1.608-.388-1.853A40.183,40.183,0,0,1,485.85,389.591Zm24.769-28.767A6.813,6.813,0,0,0,506.647,359c-1.347-.137-2.123,1.755-1.508,2.96a5.731,5.731,0,0,0,3.228,2.307c.887.355,1.963.691,2.736.129C512.214,363.585,511.614,361.772,510.62,360.824Zm-8.842,13.51a1.4,1.4,0,0,0,.373-1.473c-.462-1.974-2.627-2.981-4.569-3.56-.752-.224-1.686-.38-2.216.2a1.487,1.487,0,0,0,.033,1.814,4.341,4.341,0,0,0,1.555,1.17l3,1.617C500.524,374.408,501.249,374.71,501.777,374.334Zm17.074-7.113a2.8,2.8,0,0,0-.04,3.008,5.135,5.135,0,0,0,2.416,1.994,1.78,1.78,0,0,0,1.054.209,1.291,1.291,0,0,0,.757-.519,2.565,2.565,0,0,0-.438-3.162,7.476,7.476,0,0,0-3.012-1.657.687.687,0,0,0-.578-.031.351.351,0,0,0-.045.032A.74.74,0,0,0,518.852,367.222ZM217.9,444.335c.415-3.071,1-6.45,3.41-8.394,1.924-1.55,4.565-1.8,7.035-1.845a67.736,67.736,0,0,1,23.841,3.859c2.414.854,4.94,1.979,6.26,4.173,1.429,2.375,1.081,5.371.685,8.115L253,492.817a202.973,202.973,0,0,0,9.045-37.977c.833-6.023,1.124-12.934-3.08-17.328-6.562-6.858-6.383-16.626-6.2-26.56.157-8.573.316-17.267-3.854-24.318-1.36-2.3,1.673-4.676,4.2-5.559a94.663,94.663,0,0,1,34.747-5.237A280.275,280.275,0,0,1,289.6,427.3c-.224,3.848,5.233,4.841,9.064,4.416l132.906-14.737a2.251,2.251,0,0,0,2.426-2.852q-.471-46.71-2.688-93.379c-.058-1.215-.213-2.608-1.217-3.292a3.989,3.989,0,0,0-2.652-.356l-94.863,9.2c6.232-29.392,12.5-59.336,9.657-89.247-20.737,13.827-47.5,13.724-72.377,12.259l-3.109-.185c-23.944-1.431-48.914-2.923-70.44,7.435,11.271,29.884,22.672,62.5,13.3,93.037-.829,2.7-1.815,5.355-2.8,8.008a94.316,94.316,0,0,0-3.978,12.43c-1.548,7.013-1.315,14.866,2.835,20.727,6.01,8.488,10.786,18.138,11.875,28.482,1.034,9.815-1.276,19.549-3.583,29.272-2.411,10.159-4.819,20.307-3.407,30.522.239,1.728.671,3.586,2.024,4.688ZM227.3,321c2.513.089,3.512,3.245,3.834,5.739l2.544,19.751c-4.968-2.576-11.958,1.8-11.815,7.391-4.187-8.081-4.823-17.343-5.452-26.51-.137-1.994-.274-3.984-.447-5.956-1.849-21.092-8.205-41.493-14.522-61.7-.9-2.882,2.99-4.75,5.977-5.188,19.6-2.875,39.441-2.477,59.289-2.08,9,.18,18,.36,26.975.235,15.955-.221,32.837-1.731,45.779-11.065,2.909,19.392-1.044,38.958-4.949,58.277-.528,2.613-1.055,5.222-1.565,7.825-4.273,21.848-7.181,45.136.994,65.843.345.873-.83,1.53-1.748,1.722a63.67,63.67,0,0,1-20.5.891c-2.925-.349-5.82-.9-8.716-1.453-2.18-.415-4.361-.831-6.556-1.161a84.953,84.953,0,0,0-48.842,7.288,2.62,2.62,0,0,1-1.956-.066c-3.053-1.057-5.232-3.878-6.319-6.921a32.6,32.6,0,0,1-1.387-9.556l-.608-13.539c-.022-.486.106-1.147.592-1.162q39.618-1.237,79.078-5.337a59.482,59.482,0,0,1-.326-18.868c.566-3.947-3.146-7.547-7.1-8.075s-7.862,1.262-11.144,3.527c-1.227.848-2.407,1.768-3.585,2.688A45.249,45.249,0,0,1,288.7,327.8c-1.435.78-3.162,1.409-4.668.779-1.845-.771-2.463-2.966-3.016-4.924-.035-.123-.069-.246-.1-.366a12.338,12.338,0,0,0-4-6.621c-2.089-1.586-5.241-1.982-7.3-.36-1.763,1.387-2.321,3.788-2.616,6.011-.026.2-.051.4-.077.6-.262,2.044-.533,4.157-1.752,5.8-1.34,1.8-4.328,2.571-5.8.876-2.905-3.352-8-4.056-12.279-2.879s-7.937,3.894-11.485,6.556a11.5,11.5,0,0,1-.447-11.369l.031-.058c.352-.658.756-1.415.445-2.085a1.9,1.9,0,0,0-1.038-.851A6.193,6.193,0,0,0,227.3,321Zm75.626,56.617c1.407.28,3.137.908,3.224,2.34.829,13.659,11.685,25.933,25.031,28.957s28.138-3.09,35.919-14.347,8.391-26.893,2.01-39c-6.844-12.983-23.474-19.877-37.5-15.544a17.95,17.95,0,0,1,.211-8.733,2.672,2.672,0,0,1,.763-1.42,2.884,2.884,0,0,1,1.505-.476l39.5-4.757a93.871,93.871,0,0,1,10.451-.866,247.471,247.471,0,0,0,44.836-4.475q3.443,46.22,3.236,92.616c-.006,1.466-.453,3.414-1.918,3.456-24.858.724-49.52,3.994-74.192,7.265-16.576,2.2-33.156,4.4-49.8,5.823a61.975,61.975,0,0,1-11.154.245,2.287,2.287,0,0,1-1.8-.769,2.341,2.341,0,0,1-.264-1.178l-2.216-49.421c-.029-.639.01-1.409.563-1.729a1.782,1.782,0,0,1,1.241-.053Zm-68.009-11.442c-.393,2.567-.835,5.455.847,7.4,6.272,7.244,12.789,14.983,14.456,24.42.778,4.406.444,8.941.111,13.457-.42,5.689-.837,11.35.975,16.687.047.139.1.279.145.418a6.758,6.758,0,0,1,.564,2.914c-.124,1.139-1.113,2.286-2.242,2.091l-13.113-2.262c-4.343-.749-8.93-1.478-13.055.072a1.882,1.882,0,0,1-2.143-.963,5.331,5.331,0,0,1-.52-2.476c-.045-1.027-.078-2.062-.112-3.1-.212-6.528-.428-13.178-3.449-18.9l-9.641-18.249c-1.424-2.694-2.88-5.508-2.978-8.553a20.2,20.2,0,0,1,1.028-5.992l4.809-17.323c1.013-3.647,2.084-7.41,4.482-10.34a35.918,35.918,0,0,1,1.486,33.034c-.455.959.934,1.946,1.924,1.564a3.741,3.741,0,0,0,1.842-2.469,57.918,57.918,0,0,0,2.379-12.484,72.14,72.14,0,0,1,1.674-10.187,10.907,10.907,0,0,1,2.889-5.518c1.573-1.4,4.138-1.882,5.786-.569,1.262,1,1.671,2.721,1.912,4.315a42.6,42.6,0,0,1-.009,12.714C234.95,365.972,234.934,366.072,234.919,366.172Zm22.626-34.2c1.933,1.479,3.826,2.928,6.145,2.66,2.947-.341,4.785-3.375,5.641-6.217.188-.622.354-1.258.521-1.9.6-2.277,1.2-4.57,2.759-6.283a1.844,1.844,0,0,1,1.752-.766,2.038,2.038,0,0,1,1.069,1.176c.344.693.669,1.4.994,2.1a29.092,29.092,0,0,0,3.168,5.7c1.8,2.339,4.613,4.179,7.549,3.857,2.626-.288,4.678-2.147,6.677-3.96.41-.371.818-.741,1.228-1.095a28.152,28.152,0,0,1,17.448-6.759c-.858,2.143-.286,4.481.275,6.775.135.552.27,1.1.383,1.646a21.7,21.7,0,0,1-1.281,12.885l-42.465,3.269c-9.914.764-19.852,1.527-29.789,1.178a5.136,5.136,0,0,1-1.849-.3,3.748,3.748,0,0,1-1.974-2.794,8.524,8.524,0,0,1,2.5-7.262,25.154,25.154,0,0,1,6.534-4.518c2.43-1.325,5.128-2.695,7.838-2.129A12.753,12.753,0,0,1,257.545,331.971Zm80.413,61.859c-6.433-.133-12.007-5.381-13.917-11.525a3.077,3.077,0,0,1,1.54-3.319,8.99,8.99,0,0,1,3.778-1l9.426-1.059a64.083,64.083,0,0,1-6.039-17.73,3.458,3.458,0,0,1-.019-1.686,3.283,3.283,0,0,1,2.278-1.766,18.587,18.587,0,0,1,19.986,29.774,25.463,25.463,0,0,1-8.446,6.1A19.355,19.355,0,0,1,337.958,393.83Zm30.529-33.117a46.726,46.726,0,0,1,1.632,11.7,59.715,59.715,0,0,0-7.767-.661c-.508-6.638-4.926-12.635-10.734-15.889s-12.818-3.956-19.381-2.842a26.119,26.119,0,0,0-.4-2.889c-.45-2.576-.9-5.153.766-6.982a6.985,6.985,0,0,1,4.008-1.82,27.953,27.953,0,0,1,31.873,19.38ZM321.3,381.634c-.011.122-.021.243-.027.359a5.3,5.3,0,0,0,.807,2.591c.114.223.227.446.33.669.49,1.057.728,2.448-.092,3.275a36.893,36.893,0,0,0-5.211,6.632,1.4,1.4,0,0,1-1.864.288,4.074,4.074,0,0,1-1.319-1.59c-2.194-3.826-4.443-7.827-4.716-12.229-.035-.547.026-1.21.511-1.465a1.52,1.52,0,0,1,.708-.116l9.813-.03a1.359,1.359,0,0,1,.685.118C321.41,380.409,321.355,381.045,321.3,381.634Z" transform="translate(-83.673 -158.405)" fill="#00160a" fill-rule="evenodd"/>
</svg>
