<svg width="261" height="260" viewBox="0 0 261 260" fill="none" xmlns="http://www.w3.org/2000/svg">
<g filter="url(#filter0_d_301_8811)">
<rect x="40.9329" y="36" width="180" height="180" rx="32" fill="#1D1F23"/>
<rect x="41.4329" y="36.5" width="179" height="179" rx="31.5" stroke="black"/>
</g>
<path d="M153.774 139.516C151.478 139.516 149.61 137.647 149.61 135.351C149.61 133.055 151.478 131.187 153.774 131.187C156.07 131.187 157.938 133.055 157.938 135.351C157.938 137.648 156.07 139.516 153.774 139.516ZM107.748 139.516C105.452 139.516 103.585 137.647 103.585 135.351C103.585 133.055 105.452 131.187 107.748 131.187C110.045 131.187 111.912 133.055 111.912 135.351C111.912 137.648 110.045 139.516 107.748 139.516ZM155.267 114.433L163.589 100.02C163.818 99.622 163.88 99.1496 163.762 98.7063C163.643 98.2629 163.353 97.8847 162.956 97.6548C162.558 97.4258 162.085 97.364 161.642 97.4828C161.199 97.6016 160.821 97.8913 160.591 98.2885L152.164 112.884C145.72 109.944 138.483 108.305 130.761 108.305C123.039 108.305 115.802 109.944 109.358 112.884L100.932 98.2885C100.702 97.8913 100.323 97.6016 99.8801 97.4828C99.4368 97.364 98.9644 97.4258 98.5666 97.6548C98.1691 97.8845 97.879 98.2627 97.7602 98.7061C97.6414 99.1496 97.7035 99.6221 97.9328 100.02L106.255 114.433C91.9647 122.206 82.1909 136.673 80.7611 153.765H180.761C179.33 136.673 169.556 122.206 155.267 114.433" fill="#3DDB85"/>
<defs>
<filter id="filter0_d_301_8811" x="0.932861" y="0" width="260" height="260" filterUnits="userSpaceOnUse" color-interpolation-filters="sRGB">
<feFlood flood-opacity="0" result="BackgroundImageFix"/>
<feColorMatrix in="SourceAlpha" type="matrix" values="0 0 0 0 0 0 0 0 0 0 0 0 0 0 0 0 0 0 127 0" result="hardAlpha"/>
<feOffset dy="4"/>
<feGaussianBlur stdDeviation="20"/>
<feComposite in2="hardAlpha" operator="out"/>
<feColorMatrix type="matrix" values="0 0 0 0 0.0367917 0 0 0 0 0.0348958 0 0 0 0 0.0484375 0 0 0 0.1 0"/>
<feBlend mode="normal" in2="BackgroundImageFix" result="effect1_dropShadow_301_8811"/>
<feBlend mode="normal" in="SourceGraphic" in2="effect1_dropShadow_301_8811" result="shape"/>
</filter>
</defs>
</svg>
