<svg width="261" height="260" viewBox="0 0 261 260" fill="none" xmlns="http://www.w3.org/2000/svg">
<g filter="url(#filter0_d_301_8893)">
<rect x="40.724" y="36" width="180" height="180" rx="32" fill="#1D1F23"/>
<rect x="41.224" y="36.5" width="179" height="179" rx="31.5" stroke="black"/>
</g>
<path fill-rule="evenodd" clip-rule="evenodd" d="M101.427 85.7638C95.7212 85.7638 91.4991 90.7579 91.6882 96.174C91.8696 101.377 91.6339 108.116 89.9374 113.612C88.2349 119.123 85.3575 122.616 80.6567 123.064V128.125C85.3575 128.574 88.2349 132.065 89.9372 137.576C91.6339 143.072 91.8694 149.811 91.688 155.015C91.4989 160.43 95.721 165.425 101.428 165.425H159.894C165.6 165.425 169.821 160.431 169.632 155.015C169.451 149.811 169.686 143.072 171.383 137.576C173.085 132.065 175.956 128.573 180.657 128.125V123.064C175.956 122.615 173.086 119.124 171.383 113.612C169.686 108.117 169.451 101.377 169.632 96.174C169.821 90.7587 165.6 85.7638 159.894 85.7638H101.426H101.427ZM148.453 134.8C148.453 142.258 142.891 146.781 133.659 146.781H117.945C117.495 146.781 117.064 146.602 116.746 146.284C116.428 145.966 116.25 145.535 116.25 145.086V106.103C116.25 105.653 116.428 105.222 116.746 104.904C117.064 104.587 117.495 104.408 117.945 104.408H133.57C141.267 104.408 146.319 108.577 146.319 114.979C146.319 119.472 142.921 123.495 138.591 124.199V124.434C144.485 125.08 148.453 129.162 148.453 134.8ZM131.946 109.781H122.986V122.437H130.532C136.366 122.437 139.583 120.088 139.583 115.889C139.583 111.954 136.817 109.781 131.946 109.781ZM122.986 127.459V141.406H132.275C138.35 141.406 141.567 138.969 141.567 134.388C141.567 129.808 138.259 127.458 131.885 127.458H122.986V127.459Z" fill="#7952B3"/>
<defs>
<filter id="filter0_d_301_8893" x="0.723999" y="0" width="260" height="260" filterUnits="userSpaceOnUse" color-interpolation-filters="sRGB">
<feFlood flood-opacity="0" result="BackgroundImageFix"/>
<feColorMatrix in="SourceAlpha" type="matrix" values="0 0 0 0 0 0 0 0 0 0 0 0 0 0 0 0 0 0 127 0" result="hardAlpha"/>
<feOffset dy="4"/>
<feGaussianBlur stdDeviation="20"/>
<feComposite in2="hardAlpha" operator="out"/>
<feColorMatrix type="matrix" values="0 0 0 0 0.0367917 0 0 0 0 0.0348958 0 0 0 0 0.0484375 0 0 0 0.1 0"/>
<feBlend mode="normal" in2="BackgroundImageFix" result="effect1_dropShadow_301_8893"/>
<feBlend mode="normal" in="SourceGraphic" in2="effect1_dropShadow_301_8893" result="shape"/>
</filter>
</defs>
</svg>
