<svg width="261" height="260" viewBox="0 0 261 260" fill="none" xmlns="http://www.w3.org/2000/svg">
<g filter="url(#filter0_d_301_8865)">
<rect x="40.9329" y="36" width="180" height="180" rx="32" fill="#1D1F23"/>
<rect x="41.4329" y="36.5" width="179" height="179" rx="31.5" stroke="black"/>
</g>
<path d="M174.88 105.008C174.879 103.331 174.52 101.849 173.795 100.577C173.083 99.3269 172.016 98.2787 170.585 97.45C158.772 90.6385 146.947 83.8479 135.138 77.0295C131.954 75.1915 128.867 75.2585 125.707 77.1229C121.005 79.8959 97.4643 93.383 90.4493 97.4462C87.5604 99.1186 86.1546 101.678 86.1539 105.005C86.1494 118.703 86.1539 132.401 86.1494 146.1C86.1501 147.74 86.4935 149.193 87.1868 150.445C87.8996 151.734 88.9814 152.811 90.4455 153.658C97.4608 157.721 121.005 171.207 125.706 173.981C128.867 175.847 131.954 175.913 135.139 174.075C146.949 167.256 158.774 160.465 170.589 153.654C172.053 152.807 173.134 151.729 173.847 150.442C174.54 149.189 174.884 147.736 174.884 146.096C174.884 146.096 174.884 118.707 174.88 105.008Z" fill="#5C8DBC"/>
<path d="M130.653 125.419L87.1868 150.445C87.8995 151.734 88.9814 152.811 90.4455 153.658C97.4607 157.721 121.005 171.208 125.706 173.981C128.867 175.847 131.954 175.913 135.139 174.075C146.949 167.256 158.774 160.466 170.589 153.654C172.053 152.807 173.135 151.729 173.847 150.442L130.653 125.419Z" fill="#1A4674"/>
<path d="M117.779 132.832C120.308 137.247 125.063 140.225 130.517 140.225C136.005 140.225 140.787 137.21 143.303 132.747L130.653 125.419L117.779 132.832Z" fill="#1A4674"/>
<path d="M174.88 105.008C174.879 103.331 174.52 101.849 173.795 100.578L130.653 125.419L173.847 150.442C174.54 149.189 174.884 147.736 174.884 146.096C174.884 146.096 174.884 118.707 174.88 105.008Z" fill="#1B598E"/>
<path d="M172.505 127.207H169.129V130.583H165.753V127.207H162.378V123.832H165.753V120.457H169.129V123.832H172.505V127.207ZM160.188 127.207H156.813V130.583H153.438V127.207H150.062V123.832H153.438V120.457H156.813V123.832H160.188V127.207Z" fill="white"/>
<path d="M143.303 132.747C140.787 137.21 136.005 140.226 130.517 140.226C125.063 140.226 120.308 137.247 117.779 132.832C116.508 130.616 115.841 128.106 115.843 125.552C115.843 117.448 122.413 110.879 130.517 110.879C135.936 110.879 140.666 113.82 143.208 118.19L156.033 110.805C150.935 102.005 141.418 96.0849 130.517 96.0849C114.242 96.0849 101.049 109.278 101.049 125.552C101.049 130.891 102.47 135.898 104.952 140.217C110.037 149.063 119.581 155.02 130.517 155.02C141.472 155.02 151.032 149.039 156.109 140.167L143.303 132.747Z" fill="white"/>
<defs>
<filter id="filter0_d_301_8865" x="0.932861" y="0" width="260" height="260" filterUnits="userSpaceOnUse" color-interpolation-filters="sRGB">
<feFlood flood-opacity="0" result="BackgroundImageFix"/>
<feColorMatrix in="SourceAlpha" type="matrix" values="0 0 0 0 0 0 0 0 0 0 0 0 0 0 0 0 0 0 127 0" result="hardAlpha"/>
<feOffset dy="4"/>
<feGaussianBlur stdDeviation="20"/>
<feComposite in2="hardAlpha" operator="out"/>
<feColorMatrix type="matrix" values="0 0 0 0 0.0367917 0 0 0 0 0.0348958 0 0 0 0 0.0484375 0 0 0 0.1 0"/>
<feBlend mode="normal" in2="BackgroundImageFix" result="effect1_dropShadow_301_8865"/>
<feBlend mode="normal" in="SourceGraphic" in2="effect1_dropShadow_301_8865" result="shape"/>
</filter>
</defs>
</svg>
