<svg width="261" height="260" viewBox="0 0 261 260" fill="none" xmlns="http://www.w3.org/2000/svg">
<g filter="url(#filter0_d_301_8801)">
<rect x="40.724" y="36" width="180" height="180" rx="32" fill="#1D1F23"/>
<rect x="41.224" y="36.5" width="179" height="179" rx="31.5" stroke="black"/>
</g>
<path d="M114.162 176C123.362 176 130.828 168.533 130.828 159.333V142.667H114.162C104.962 142.667 97.4951 150.133 97.4951 159.333C97.4951 168.533 104.962 176 114.162 176Z" fill="#0ACF83"/>
<path d="M97.4951 126C97.4951 116.8 104.962 109.333 114.162 109.333H130.828V142.667H114.162C104.962 142.667 97.4951 135.2 97.4951 126Z" fill="#A259FF"/>
<path d="M97.4951 92.6667C97.4951 83.4667 104.962 76 114.162 76H130.828V109.333H114.162C104.962 109.333 97.4951 101.867 97.4951 92.6667Z" fill="#F24E1E"/>
<path d="M130.828 76H147.495C156.695 76 164.162 83.4667 164.162 92.6667C164.162 101.867 156.695 109.333 147.495 109.333H130.828V76Z" fill="#FF7262"/>
<path d="M164.162 126C164.162 135.2 156.695 142.667 147.495 142.667C138.295 142.667 130.828 135.2 130.828 126C130.828 116.8 138.295 109.333 147.495 109.333C156.695 109.333 164.162 116.8 164.162 126Z" fill="#1ABCFE"/>
<defs>
<filter id="filter0_d_301_8801" x="0.723999" y="0" width="260" height="260" filterUnits="userSpaceOnUse" color-interpolation-filters="sRGB">
<feFlood flood-opacity="0" result="BackgroundImageFix"/>
<feColorMatrix in="SourceAlpha" type="matrix" values="0 0 0 0 0 0 0 0 0 0 0 0 0 0 0 0 0 0 127 0" result="hardAlpha"/>
<feOffset dy="4"/>
<feGaussianBlur stdDeviation="20"/>
<feComposite in2="hardAlpha" operator="out"/>
<feColorMatrix type="matrix" values="0 0 0 0 0.0367917 0 0 0 0 0.0348958 0 0 0 0 0.0484375 0 0 0 0.1 0"/>
<feBlend mode="normal" in2="BackgroundImageFix" result="effect1_dropShadow_301_8801"/>
<feBlend mode="normal" in="SourceGraphic" in2="effect1_dropShadow_301_8801" result="shape"/>
</filter>
</defs>
</svg>
