<svg width="261" height="261" viewBox="0 0 261 261" fill="none" xmlns="http://www.w3.org/2000/svg">
<g filter="url(#filter0_d_301_8802)">
<rect x="40.9329" y="36.2969" width="180" height="180" rx="32" fill="#1D1F23"/>
<rect x="41.4329" y="36.7969" width="179" height="179" rx="31.5" stroke="black"/>
</g>
<path d="M142.343 112.011L132.343 121.322L123.059 102.59L127.855 91.8186C129.067 89.6701 131.049 89.6417 132.262 91.8186L142.343 112.011Z" fill="#FFA000"/>
<path d="M132.347 121.318L94.9379 156.112L123.063 102.59L132.347 121.318Z" fill="#F57F17"/>
<path d="M153.309 97.7696C155.101 96.063 156.945 96.6386 157.412 99.0628L167.137 155.642L134.88 175.007C133.749 175.64 130.749 175.887 130.749 175.887C130.749 175.887 128.021 175.555 126.975 174.979L94.9379 156.112L153.309 97.7696Z" fill="#FFCA28"/>
<path d="M123.063 102.59L94.9379 156.112L107.472 77.8815C107.943 75.4574 109.317 75.2101 110.557 77.3586L123.063 102.59Z" fill="#FFA000"/>
<defs>
<filter id="filter0_d_301_8802" x="0.932861" y="0.296875" width="260" height="260" filterUnits="userSpaceOnUse" color-interpolation-filters="sRGB">
<feFlood flood-opacity="0" result="BackgroundImageFix"/>
<feColorMatrix in="SourceAlpha" type="matrix" values="0 0 0 0 0 0 0 0 0 0 0 0 0 0 0 0 0 0 127 0" result="hardAlpha"/>
<feOffset dy="4"/>
<feGaussianBlur stdDeviation="20"/>
<feComposite in2="hardAlpha" operator="out"/>
<feColorMatrix type="matrix" values="0 0 0 0 0.0367917 0 0 0 0 0.0348958 0 0 0 0 0.0484375 0 0 0 0.1 0"/>
<feBlend mode="normal" in2="BackgroundImageFix" result="effect1_dropShadow_301_8802"/>
<feBlend mode="normal" in="SourceGraphic" in2="effect1_dropShadow_301_8802" result="shape"/>
</filter>
</defs>
</svg>
