<svg width="260" height="260" viewBox="0 0 260 260" fill="none" xmlns="http://www.w3.org/2000/svg">
<g filter="url(#filter0_d_301_8846)">
<rect x="40" y="36" width="180" height="180" rx="32" fill="#1D1F23"/>
<rect x="40.5" y="36.5" width="179" height="179" rx="31.5" stroke="black"/>
</g>
<path d="M93.9281 166.034L85.9067 76H174.093L166.072 165.985L129.927 176" fill="#E44D26"/>
<path d="M130 168.344V83.3901H166.047L159.168 160.201" fill="#F16529"/>
<path d="M102.29 94.4009H130V105.436H114.395L115.416 116.739H130V127.75H105.304L102.29 94.4009ZM105.79 133.292H116.874L117.652 142.116L130 145.422V156.943L107.346 150.624" fill="#EBEBEB"/>
<path d="M157.613 94.4009H129.951V105.436H156.592L157.613 94.4009ZM155.595 116.739H129.951V127.775H143.563L142.275 142.116L129.951 145.422V156.895L152.557 150.624" fill="white"/>
<defs>
<filter id="filter0_d_301_8846" x="0" y="0" width="260" height="260" filterUnits="userSpaceOnUse" color-interpolation-filters="sRGB">
<feFlood flood-opacity="0" result="BackgroundImageFix"/>
<feColorMatrix in="SourceAlpha" type="matrix" values="0 0 0 0 0 0 0 0 0 0 0 0 0 0 0 0 0 0 127 0" result="hardAlpha"/>
<feOffset dy="4"/>
<feGaussianBlur stdDeviation="20"/>
<feComposite in2="hardAlpha" operator="out"/>
<feColorMatrix type="matrix" values="0 0 0 0 0.0367917 0 0 0 0 0.0348958 0 0 0 0 0.0484375 0 0 0 0.1 0"/>
<feBlend mode="normal" in2="BackgroundImageFix" result="effect1_dropShadow_301_8846"/>
<feBlend mode="normal" in="SourceGraphic" in2="effect1_dropShadow_301_8846" result="shape"/>
</filter>
</defs>
</svg>
