<svg width="261" height="261" viewBox="0 0 261 261" fill="none" xmlns="http://www.w3.org/2000/svg">
<g filter="url(#filter0_d_301_8895)">
<rect x="40.3434" y="36.4058" width="180" height="180" rx="32" fill="#1D1F23"/>
<rect x="40.8434" y="36.9058" width="179" height="179" rx="31.5" stroke="black"/>
</g>
<path d="M129.687 76.2731L132.356 81.2852C132.956 82.2102 133.606 83.0289 134.371 83.7913C136.616 86.0078 138.708 88.3734 140.633 90.872C145.155 96.8091 148.205 103.402 150.382 110.533C151.689 114.889 152.398 119.357 152.451 123.876C152.67 137.384 148.039 148.983 138.702 158.623C137.183 160.152 135.543 161.554 133.796 162.817C132.871 162.817 132.434 162.107 132.053 161.454C131.358 160.243 130.896 158.913 130.69 157.533C130.362 155.898 130.146 154.264 130.253 152.577V151.814C130.178 151.652 129.362 76.6575 129.687 76.2731Z" fill="#599636"/>
<path d="M129.687 76.1075C129.578 75.8888 129.468 76.0544 129.359 76.1606C129.412 77.2543 129.031 78.2292 128.434 79.1604C127.778 80.0853 126.909 80.7947 126.037 81.5571C121.194 85.7505 117.382 90.8158 114.329 96.481C110.267 104.105 108.173 112.277 107.579 120.879C107.307 123.982 108.56 134.931 109.539 138.09C112.207 146.477 117 153.505 123.209 159.604C124.734 161.073 126.365 162.436 128.053 163.745C128.543 163.745 128.597 163.307 128.709 162.982C128.924 162.287 129.088 161.577 129.2 160.857L130.293 152.689L129.687 76.1075Z" fill="#6CAC48"/>
<path d="M132.356 166.135C132.465 164.885 133.065 163.848 133.718 162.814C133.062 162.542 132.574 162.001 132.193 161.398C131.864 160.827 131.592 160.225 131.381 159.601C130.618 157.314 130.456 154.914 130.237 152.577V151.161C129.965 151.38 129.909 153.23 129.909 153.505C129.75 155.975 129.422 158.432 128.928 160.857C128.765 161.839 128.656 162.817 128.053 163.688C128.053 163.798 128.053 163.907 128.106 164.07C129.087 166.957 129.356 169.897 129.521 172.894V173.988C129.521 175.294 129.468 175.019 130.553 175.456C130.99 175.619 131.478 175.675 131.915 176C132.243 176 132.296 175.728 132.296 175.509L132.134 173.713V168.701C132.081 167.826 132.243 166.957 132.352 166.138L132.356 166.135Z" fill="#C2BFBF"/>
<defs>
<filter id="filter0_d_301_8895" x="0.343384" y="0.405762" width="260" height="260" filterUnits="userSpaceOnUse" color-interpolation-filters="sRGB">
<feFlood flood-opacity="0" result="BackgroundImageFix"/>
<feColorMatrix in="SourceAlpha" type="matrix" values="0 0 0 0 0 0 0 0 0 0 0 0 0 0 0 0 0 0 127 0" result="hardAlpha"/>
<feOffset dy="4"/>
<feGaussianBlur stdDeviation="20"/>
<feComposite in2="hardAlpha" operator="out"/>
<feColorMatrix type="matrix" values="0 0 0 0 0.0367917 0 0 0 0 0.0348958 0 0 0 0 0.0484375 0 0 0 0.1 0"/>
<feBlend mode="normal" in2="BackgroundImageFix" result="effect1_dropShadow_301_8895"/>
<feBlend mode="normal" in="SourceGraphic" in2="effect1_dropShadow_301_8895" result="shape"/>
</filter>
</defs>
</svg>
