<svg width="261" height="260" viewBox="0 0 261 260" fill="none" xmlns="http://www.w3.org/2000/svg">
<g filter="url(#filter0_d_301_8867)">
<rect x="40.9329" y="36" width="180" height="180" rx="32" fill="#1D1F23"/>
<rect x="41.4329" y="36.5" width="179" height="179" rx="31.5" stroke="black"/>
</g>
<path d="M168.237 129.819C168.237 130.669 168.646 131.343 169.792 131.343C171.141 131.343 172.577 130.375 172.663 128.178C172.034 128.077 171.399 128.02 170.762 128.005C169.409 128.004 168.237 128.384 168.237 129.819Z" fill="white"/>
<path d="M81.2089 109.559V141.629H181.209V109.559H81.2089ZM109.518 133.746H103.986V126.303C103.986 124.018 103.224 123.138 101.731 123.138C99.9142 123.138 99.1814 124.428 99.1814 126.274V130.878H100.931V133.749H95.3995V126.303C95.3995 124.018 94.639 123.138 93.1439 123.138C91.3273 123.138 90.5944 124.428 90.5944 126.274V130.878H93.1076V133.749H85.0495V130.878H86.8073V123.403H84.906V120.532H90.5875V122.523C91.3791 121.118 92.7567 120.267 94.601 120.267C96.5023 120.267 98.2636 121.176 98.9083 123.11C99.6411 121.353 101.135 120.267 103.216 120.267C105.589 120.267 107.758 121.703 107.758 124.839V130.878H109.516L109.518 133.746ZM117.927 134.038C113.854 134.038 111.04 131.547 111.04 127.328C111.04 123.46 113.384 120.265 118.127 120.265C122.87 120.265 125.189 123.46 125.189 127.152C125.193 131.372 122.146 134.039 117.927 134.039V134.038ZM138.965 133.746H127.419L127.039 131.753L134.298 123.401H130.167L129.582 125.453L126.856 125.16L127.324 120.53H138.939L139.231 122.523L131.903 130.878H136.174L136.789 128.826L139.778 129.119L138.965 133.746ZM146.114 133.746H142.158V128.999H146.114V133.746ZM146.114 125.276H142.158V120.532H146.114V125.276ZM148.188 133.746L153.908 113.594H157.629L151.915 133.746H148.188ZM155.866 133.746L161.582 113.594H165.304L159.593 133.746H155.866ZM175.557 134.038C173.799 134.038 172.833 133.011 172.656 131.4C171.894 132.748 170.546 134.038 168.408 134.038C166.507 134.038 164.336 133.011 164.336 130.258C164.336 127.005 167.471 126.244 170.489 126.244C171.214 126.238 171.938 126.277 172.658 126.362V125.923C172.658 124.574 172.629 122.964 170.489 122.964C169.697 122.964 169.082 123.022 168.467 123.344L167.977 125.219L164.96 124.896L165.546 121.468C167.86 120.53 169.032 120.258 171.201 120.258C174.044 120.258 176.447 121.724 176.447 124.742V130.486C176.447 131.248 176.739 131.512 177.356 131.512C177.545 131.51 177.732 131.48 177.913 131.424L177.942 133.417C177.211 133.815 176.394 134.029 175.562 134.039L175.557 134.038Z" fill="white"/>
<path d="M118.072 123.167C116.138 123.167 114.936 124.602 114.936 127.095C114.936 129.38 115.991 131.137 118.048 131.137C120.011 131.137 121.3 129.556 121.3 127.036C121.295 124.369 119.861 123.167 118.072 123.167Z" fill="white"/>
<defs>
<filter id="filter0_d_301_8867" x="0.932861" y="0" width="260" height="260" filterUnits="userSpaceOnUse" color-interpolation-filters="sRGB">
<feFlood flood-opacity="0" result="BackgroundImageFix"/>
<feColorMatrix in="SourceAlpha" type="matrix" values="0 0 0 0 0 0 0 0 0 0 0 0 0 0 0 0 0 0 127 0" result="hardAlpha"/>
<feOffset dy="4"/>
<feGaussianBlur stdDeviation="20"/>
<feComposite in2="hardAlpha" operator="out"/>
<feColorMatrix type="matrix" values="0 0 0 0 0.0367917 0 0 0 0 0.0348958 0 0 0 0 0.0484375 0 0 0 0.1 0"/>
<feBlend mode="normal" in2="BackgroundImageFix" result="effect1_dropShadow_301_8867"/>
<feBlend mode="normal" in="SourceGraphic" in2="effect1_dropShadow_301_8867" result="shape"/>
</filter>
</defs>
</svg>
