<svg width="261" height="261" viewBox="0 0 261 261" fill="none" xmlns="http://www.w3.org/2000/svg">
<g filter="url(#filter0_d_301_8863)">
<rect x="40.9329" y="36.2969" width="180" height="180" rx="32" fill="#1D1F23"/>
<rect x="41.4329" y="36.7969" width="179" height="179" rx="31.5" stroke="black"/>
</g>
<path d="M173.319 153.136C167.878 152.999 163.662 153.551 160.125 155.07C159.105 155.484 157.472 155.484 157.336 156.796C157.88 157.348 157.948 158.246 158.424 159.005C159.241 160.385 160.669 162.25 161.961 163.217C163.389 164.321 164.818 165.425 166.314 166.392C168.966 168.049 171.959 169.015 174.544 170.673C176.04 171.638 177.536 172.882 179.032 173.917C179.78 174.469 180.256 175.367 181.209 175.712V175.505C180.732 174.884 180.596 173.986 180.121 173.296C179.441 172.605 178.76 171.984 178.08 171.294C176.108 168.602 173.659 166.254 171.007 164.321C168.831 162.802 164.069 160.731 163.185 158.176C163.185 158.176 163.117 158.108 163.049 158.039C164.545 157.901 166.314 157.348 167.742 156.934C170.055 156.312 172.163 156.451 174.544 155.829C175.632 155.553 176.72 155.208 177.808 154.863V154.242C176.584 152.999 175.7 151.342 174.408 150.168C170.939 147.13 167.13 144.162 163.185 141.676C161.077 140.296 158.356 139.398 156.112 138.225C155.296 137.81 153.935 137.603 153.46 136.913C152.235 135.394 151.555 133.392 150.671 131.597C148.699 127.799 146.794 123.588 145.094 119.585C143.87 116.892 143.122 114.199 141.625 111.714C134.62 99.9775 127.002 92.8665 115.305 85.8933C112.788 84.4437 109.795 83.8223 106.599 83.0632C104.899 82.9937 103.198 82.8561 101.498 82.7866C100.41 82.3033 99.3213 80.9918 98.369 80.3704C94.493 77.8848 84.4944 72.5004 81.638 79.6113C79.8014 84.0985 84.3588 88.5166 85.9225 90.7955C87.0796 92.3832 88.5752 94.178 89.3915 95.9732C89.8676 97.1462 90.0033 98.3898 90.4794 99.6322C91.5681 102.669 92.5877 106.053 94.0165 108.884C94.7647 110.333 95.5806 111.852 96.5329 113.164C97.077 113.923 98.0289 114.268 98.2334 115.511C97.2815 116.892 97.2131 118.963 96.6685 120.689C94.2202 128.49 95.1728 138.155 98.6411 143.885C99.729 145.611 102.314 149.409 105.782 147.959C108.843 146.716 108.163 142.781 109.047 139.329C109.251 138.5 109.115 137.948 109.523 137.396V137.534C110.475 139.467 111.427 141.332 112.312 143.264C114.42 146.647 118.093 150.168 121.153 152.516C122.786 153.758 124.078 155.898 126.119 156.658V156.45H125.982C125.574 155.829 124.962 155.553 124.418 155.069C123.194 153.827 121.833 152.308 120.881 150.927C118.025 147.061 115.508 142.781 113.264 138.362C112.176 136.223 111.223 133.875 110.339 131.735C109.931 130.906 109.931 129.664 109.251 129.25C108.231 130.768 106.735 132.08 105.987 133.944C104.695 136.913 104.558 140.572 104.082 144.368C103.81 144.438 103.946 144.368 103.81 144.507C101.634 143.954 100.886 141.676 100.069 139.743C98.0285 134.842 97.6884 126.971 99.4573 121.31C99.9335 119.86 101.974 115.304 101.158 113.923C100.75 112.611 99.3889 111.852 98.6411 110.816C97.7572 109.505 96.8045 107.848 96.1928 106.398C94.5603 102.532 93.744 98.2513 91.9759 94.3851C91.1596 92.5899 89.732 90.7265 88.5752 89.0694C87.2833 87.2055 85.8548 85.8933 84.8345 83.6842C84.4948 82.9251 84.0183 81.6823 84.5624 80.8537C84.6985 80.3014 84.9702 80.0946 85.5147 79.9565C86.399 79.1966 88.9157 80.1633 89.7992 80.5775C92.316 81.6124 94.4242 82.5799 96.5329 84.0294C97.4847 84.7199 98.5051 86.0318 99.729 86.377H101.157C103.334 86.8599 105.782 86.5151 107.823 87.1361C111.428 88.3095 114.692 90.0356 117.617 91.8999C126.527 97.6299 133.871 105.777 138.837 115.511C139.653 117.098 139.993 118.549 140.741 120.205C142.17 123.588 143.938 127.04 145.366 130.354C146.794 133.598 148.154 136.913 150.195 139.605C151.215 141.055 155.295 141.815 157.132 142.574C158.492 143.195 160.601 143.748 161.825 144.507C164.137 145.956 166.45 147.614 168.626 149.201C169.715 150.03 173.115 151.756 173.319 153.136Z" fill="white"/>
<path d="M103.946 93.1419C102.79 93.1419 101.974 93.2808 101.157 93.4875V93.6256H101.294C101.838 94.7304 102.79 95.4899 103.469 96.4561C104.014 97.5605 104.49 98.6656 105.034 99.7703C105.102 99.7009 105.17 99.6322 105.17 99.6322C106.123 98.9414 106.598 97.837 106.598 96.1799C106.19 95.697 106.122 95.2137 105.782 94.7304C105.374 94.0395 104.49 93.6947 103.946 93.1419Z" fill="white"/>
<defs>
<filter id="filter0_d_301_8863" x="0.932861" y="0.296875" width="260" height="260" filterUnits="userSpaceOnUse" color-interpolation-filters="sRGB">
<feFlood flood-opacity="0" result="BackgroundImageFix"/>
<feColorMatrix in="SourceAlpha" type="matrix" values="0 0 0 0 0 0 0 0 0 0 0 0 0 0 0 0 0 0 127 0" result="hardAlpha"/>
<feOffset dy="4"/>
<feGaussianBlur stdDeviation="20"/>
<feComposite in2="hardAlpha" operator="out"/>
<feColorMatrix type="matrix" values="0 0 0 0 0.0367917 0 0 0 0 0.0348958 0 0 0 0 0.0484375 0 0 0 0.1 0"/>
<feBlend mode="normal" in2="BackgroundImageFix" result="effect1_dropShadow_301_8863"/>
<feBlend mode="normal" in="SourceGraphic" in2="effect1_dropShadow_301_8863" result="shape"/>
</filter>
</defs>
</svg>
