<svg width="261" height="261" viewBox="0 0 261 261" fill="none" xmlns="http://www.w3.org/2000/svg">
<g filter="url(#filter0_d_301_8858)">
<rect x="40.724" y="36.4058" width="180" height="180" rx="32" fill="#1D1F23"/>
<rect x="41.224" y="36.9058" width="179" height="179" rx="31.5" stroke="black"/>
</g>
<g clip-path="url(#clip0_301_8858)">
<path d="M131 176C158.614 176 181 153.614 181 126C181 98.3858 158.614 76 131 76C103.386 76 81 98.3858 81 126C81 153.614 103.386 176 131 176Z" fill="black"/>
<path d="M164.06 163.511L119.412 106H111V145.983H117.73V114.546L158.777 167.581C160.629 166.341 162.394 164.981 164.06 163.511Z" fill="url(#paint0_linear_301_8858)"/>
<path d="M151.556 106H144.889V146H151.556V106Z" fill="url(#paint1_linear_301_8858)"/>
</g>
<defs>
<filter id="filter0_d_301_8858" x="0.723999" y="0.405762" width="260" height="260" filterUnits="userSpaceOnUse" color-interpolation-filters="sRGB">
<feFlood flood-opacity="0" result="BackgroundImageFix"/>
<feColorMatrix in="SourceAlpha" type="matrix" values="0 0 0 0 0 0 0 0 0 0 0 0 0 0 0 0 0 0 127 0" result="hardAlpha"/>
<feOffset dy="4"/>
<feGaussianBlur stdDeviation="20"/>
<feComposite in2="hardAlpha" operator="out"/>
<feColorMatrix type="matrix" values="0 0 0 0 0.0367917 0 0 0 0 0.0348958 0 0 0 0 0.0484375 0 0 0 0.1 0"/>
<feBlend mode="normal" in2="BackgroundImageFix" result="effect1_dropShadow_301_8858"/>
<feBlend mode="normal" in="SourceGraphic" in2="effect1_dropShadow_301_8858" result="shape"/>
</filter>
<linearGradient id="paint0_linear_301_8858" x1="141.555" y1="140.722" x2="161.278" y2="165.167" gradientUnits="userSpaceOnUse">
<stop stop-color="white"/>
<stop offset="1" stop-color="white" stop-opacity="0"/>
</linearGradient>
<linearGradient id="paint1_linear_301_8858" x1="148.223" y1="106" x2="148.111" y2="135.375" gradientUnits="userSpaceOnUse">
<stop stop-color="white"/>
<stop offset="1" stop-color="white" stop-opacity="0"/>
</linearGradient>
<clipPath id="clip0_301_8858">
<rect width="100" height="100" fill="white" transform="translate(81 76)"/>
</clipPath>
</defs>
</svg>
