<svg width="261" height="261" viewBox="0 0 261 261" fill="none" xmlns="http://www.w3.org/2000/svg">
<g filter="url(#filter0_d_301_8885)">
<rect x="40.9329" y="36.2969" width="180" height="180" rx="32" fill="#1D1F23"/>
<rect x="41.4329" y="36.7969" width="179" height="179" rx="31.5" stroke="black"/>
</g>
<path d="M170.334 95.331C164.289 87.5036 156.059 81.6447 146.685 78.495C137.31 75.3454 127.212 75.0466 117.667 77.6364C108.123 80.2262 99.5607 85.5882 93.0638 93.0444C86.567 100.501 82.4272 109.716 81.1681 119.525C79.9089 129.334 81.587 139.296 85.99 148.152C90.393 157.007 97.3233 164.358 105.904 169.274C114.485 174.191 124.331 176.452 134.198 175.772C144.064 175.093 153.507 171.502 161.332 165.455C183.176 148.574 187.207 117.182 170.332 95.331H170.334Z" fill="#FF6C37"/>
<path d="M147.625 107.75L126.542 128.999L120.584 122.875C141.334 102.125 143.417 104 147.626 107.75H147.625Z" fill="white"/>
<path d="M126.542 129.581C126.355 129.576 126.177 129.502 126.042 129.373L120.042 123.373C119.907 123.233 119.831 123.046 119.831 122.852C119.831 122.657 119.907 122.471 120.042 122.331C140.5 101.873 143.292 102.831 148.125 107.206C148.206 107.271 148.27 107.353 148.314 107.447C148.357 107.542 148.378 107.644 148.375 107.748C148.406 107.951 148.328 108.159 148.167 108.29L127.084 129.374C126.936 129.51 126.743 129.584 126.542 129.582V129.581ZM121.625 122.873L126.542 127.79L146.542 107.79C145.851 106.925 144.866 106.344 143.774 106.16C142.683 105.975 141.561 106.2 140.625 106.79C137 108.415 131.167 113.373 121.625 122.873V122.873Z" fill="#FF6C37"/>
<path d="M132.584 134.874L126.834 128.999L147.917 108.165C153.584 113.707 145.167 122.957 132.584 134.873V134.874Z" fill="white"/>
<path d="M132.584 135.624C132.4 135.61 132.225 135.537 132.084 135.416L126.209 129.667C126.121 129.453 126.121 129.213 126.209 128.999C126.147 128.824 126.147 128.632 126.209 128.457L147.292 107.375C147.439 107.237 147.632 107.16 147.833 107.16C148.035 107.16 148.228 107.237 148.375 107.375C149.057 108.003 149.597 108.771 149.956 109.627C150.316 110.482 150.487 111.405 150.458 112.332C150.458 117.957 144.04 125.04 133.125 135.374C132.979 135.519 132.787 135.607 132.583 135.624H132.584ZM127.917 128.999L132.625 133.706C140.958 125.831 148.917 117.706 148.958 112.206C149.003 111.04 148.617 109.898 147.875 108.998L127.917 128.999Z" fill="#FF6C37"/>
<path d="M120.75 123L124.917 127.167C124.944 127.19 124.965 127.219 124.98 127.251C124.994 127.284 125.002 127.319 125.002 127.354C125.002 127.39 124.994 127.425 124.98 127.457C124.965 127.489 124.944 127.518 124.917 127.542L116.125 129.417C115.947 129.455 115.762 129.434 115.598 129.358C115.433 129.281 115.298 129.153 115.213 128.992C115.128 128.832 115.098 128.648 115.127 128.469C115.157 128.289 115.243 128.125 115.375 127.999L120.5 122.917C120.5 122.917 120.667 122.917 120.75 123Z" fill="white"/>
<path d="M115.917 130.249C115.639 130.246 115.367 130.171 115.126 130.033C114.886 129.894 114.684 129.696 114.542 129.457C114.382 129.155 114.324 128.809 114.376 128.471C114.429 128.133 114.59 127.821 114.834 127.582L119.917 122.457C120.1 122.293 120.338 122.203 120.583 122.203C120.829 122.203 121.067 122.293 121.25 122.457L125.417 126.624C125.664 126.859 125.761 127.213 125.667 127.542C125.573 127.87 125.298 128.131 124.959 128.209L116.167 130.084L115.917 130.249ZM120.584 123.917L115.876 128.624L123.669 126.957L120.584 123.917Z" fill="#FF6C37"/>
<path d="M158.834 96.0404C155.818 93.131 151.081 93.0091 147.918 95.7544C144.756 98.4997 144.215 103.212 146.678 106.603C149.14 109.993 153.782 110.943 157.376 108.79L151.709 103.123L158.834 96.0404Z" fill="white"/>
<path d="M153.209 110.706C151.476 110.684 149.789 110.152 148.356 109.177C146.924 108.203 145.81 106.828 145.153 105.225C144.496 103.622 144.324 101.863 144.658 100.164C144.991 98.465 145.815 96.9009 147.028 95.6654C148.696 94.0278 150.94 93.1104 153.278 93.1104C155.615 93.1104 157.86 94.0278 159.528 95.6654C159.687 95.7997 159.778 95.9982 159.778 96.2075C159.777 96.3106 159.755 96.4123 159.712 96.5058C159.669 96.5994 159.606 96.6825 159.528 96.7497L152.778 103.125L157.903 108.167C157.986 108.246 158.048 108.345 158.084 108.453C158.121 108.562 158.13 108.679 158.111 108.792C158.098 108.901 158.062 109.006 158.005 109.1C157.947 109.194 157.87 109.274 157.778 109.334C156.401 110.195 154.818 110.669 153.195 110.709L153.209 110.706ZM153.209 94.5388C150.24 94.5544 147.584 96.3404 146.47 99.07C145.356 101.8 145.962 104.942 148.043 107.039C149.079 108.08 150.404 108.784 151.846 109.059C153.289 109.335 154.78 109.168 156.126 108.581L151.209 103.664C151.131 103.601 151.068 103.522 151.024 103.432C150.981 103.342 150.959 103.243 150.959 103.143C150.959 103.043 150.981 102.944 151.024 102.854C151.068 102.763 151.131 102.684 151.209 102.622L157.709 96.0794C156.417 95.0892 154.837 94.5477 153.209 94.5372V94.5388Z" fill="#FF6C37"/>
<path d="M158.959 96.1653L151.834 103.248L157.501 108.915C158.071 108.588 158.603 108.196 159.084 107.748C160.569 106.178 161.386 104.092 161.363 101.931C161.34 99.7703 160.478 97.7028 158.959 96.1653V96.1653Z" fill="white"/>
<path d="M157.375 109.54C157.281 109.545 157.187 109.529 157.101 109.493C157.014 109.457 156.937 109.402 156.875 109.332L151.207 103.665C151.129 103.603 151.066 103.524 151.023 103.433C150.979 103.343 150.957 103.244 150.957 103.144C150.957 103.044 150.979 102.945 151.023 102.855C151.066 102.765 151.129 102.686 151.207 102.623L158.29 95.6654C158.359 95.5622 158.451 95.4776 158.561 95.4191C158.67 95.3606 158.791 95.3299 158.915 95.3299C159.039 95.3299 159.161 95.3606 159.27 95.4191C159.379 95.4776 159.472 95.5622 159.54 95.6654C160.372 96.4801 161.032 97.4525 161.483 98.5257C161.934 99.5988 162.166 100.751 162.166 101.915C162.166 103.079 161.934 104.232 161.483 105.305C161.032 106.378 160.372 107.351 159.54 108.165C159.05 108.686 158.488 109.134 157.873 109.498C157.718 109.576 157.539 109.591 157.373 109.54H157.375ZM152.792 103.125L157.5 107.832C157.823 107.605 158.13 107.355 158.417 107.082C159.801 105.702 160.58 103.829 160.584 101.875C160.587 100.126 159.95 98.4358 158.792 97.1247L152.792 103.125Z" fill="#FF6C37"/>
<path d="M148.5 108.625C147.935 108.095 147.19 107.8 146.416 107.8C145.642 107.8 144.897 108.095 144.333 108.625L125.459 127.456L128.584 130.623L148.542 113.123C148.846 112.831 149.088 112.48 149.251 112.092C149.415 111.703 149.497 111.285 149.493 110.864C149.489 110.442 149.399 110.026 149.228 109.641C149.057 109.255 148.809 108.909 148.5 108.623V108.625Z" fill="white"/>
<path d="M128.417 131.374C128.23 131.37 128.052 131.296 127.917 131.167L124.75 127.999C124.615 127.86 124.539 127.673 124.539 127.478C124.539 127.284 124.615 127.097 124.75 126.957L143.625 108.165C144.168 107.622 144.863 107.255 145.617 107.111C146.372 106.968 147.153 107.054 147.858 107.359C148.563 107.665 149.16 108.175 149.572 108.824C149.984 109.472 150.191 110.23 150.167 110.998C150.145 111.519 150.02 112.031 149.798 112.503C149.576 112.975 149.262 113.399 148.875 113.748L128.917 131.248C128.772 131.351 128.593 131.395 128.417 131.373V131.374ZM126.209 127.456L128.292 129.581L147.875 112.539C148.359 112.117 148.648 111.514 148.667 110.871C148.686 110.229 148.432 109.601 147.959 109.164C147.522 108.728 146.93 108.484 146.313 108.484C145.696 108.484 145.104 108.728 144.667 109.164L126.209 127.456Z" fill="#FF6C37"/>
<path d="M110.834 148.915C110.781 148.987 110.752 149.075 110.752 149.165C110.752 149.255 110.781 149.342 110.834 149.415L111.667 153.04C111.701 153.253 111.669 153.472 111.576 153.667C111.484 153.862 111.335 154.024 111.148 154.134C110.963 154.242 110.747 154.289 110.534 154.267C110.32 154.246 110.118 154.157 109.958 154.013L104.25 148.513L122.042 130.581H128.209L132.376 134.748C125.876 140.431 118.628 145.198 110.834 148.915V148.915Z" fill="white"/>
<path d="M110.459 155.04C109.988 155.03 109.522 154.837 109.209 154.498L103.752 149.04C103.673 148.977 103.61 148.898 103.567 148.808C103.524 148.718 103.501 148.619 103.501 148.519C103.501 148.419 103.524 148.32 103.567 148.23C103.61 148.139 103.673 148.06 103.752 147.998L121.667 130.04C121.767 129.933 121.899 129.861 122.042 129.832H128.25C128.412 129.775 128.588 129.775 128.75 129.832L132.917 133.999C132.996 134.072 133.057 134.164 133.093 134.265C133.129 134.367 133.14 134.475 133.125 134.582C133.128 134.686 133.107 134.789 133.063 134.883C133.02 134.977 132.955 135.059 132.875 135.124L132.542 135.417C126.015 140.858 118.835 145.462 111.167 149.124L111.959 152.499C112.021 152.76 112.023 153.03 111.966 153.292C111.91 153.553 111.795 153.798 111.632 154.01C111.468 154.222 111.259 154.394 111.02 154.515C110.782 154.635 110.519 154.701 110.252 154.707L110.459 155.04ZM105.377 148.498L110.292 153.455C110.338 153.496 110.397 153.519 110.459 153.519C110.52 153.519 110.579 153.496 110.625 153.455C110.656 153.413 110.672 153.362 110.672 153.309C110.672 153.257 110.656 153.206 110.625 153.163L109.792 149.538C109.727 149.278 109.753 149.003 109.867 148.76C109.981 148.517 110.175 148.321 110.417 148.206C117.879 144.593 124.874 140.087 131.25 134.788L127.833 131.371H122.25L105.377 148.498Z" fill="#FF6C37"/>
<path d="M99.9594 152.79L104.127 148.623L110.544 155.04L100.336 154.332C100.161 154.318 99.9943 154.249 99.8604 154.136C99.7265 154.022 99.6321 153.868 99.5905 153.697C99.5489 153.527 99.5624 153.347 99.6289 153.184C99.6954 153.022 99.8117 152.884 99.961 152.791L99.9594 152.79Z" fill="white"/>
<path d="M110.667 155.665L100.5 154.957C99.897 154.901 99.3782 154.488 99.1657 153.937C98.9532 153.385 99.0829 152.73 99.5001 152.29L103.667 148.123C103.807 147.988 103.994 147.912 104.188 147.912C104.383 147.912 104.57 147.988 104.709 148.123L111.084 154.498C111.173 154.619 111.22 154.764 111.22 154.914C111.22 155.064 111.173 155.21 111.084 155.33C110.988 155.486 110.841 155.604 110.667 155.663V155.665ZM100.5 153.332L108.833 153.874L104.25 149.582L100.5 153.332Z" fill="#FF6C37"/>
<path d="M128.792 131.084L120.375 132.376L125.25 127.543L128.792 131.084Z" fill="white"/>
<path d="M120.375 133.165C120.235 133.169 120.097 133.131 119.979 133.057C119.86 132.983 119.766 132.875 119.708 132.748C119.619 132.627 119.571 132.481 119.571 132.331C119.571 132.182 119.619 132.036 119.708 131.915L124.54 127.04C124.687 126.902 124.881 126.826 125.082 126.826C125.283 126.826 125.477 126.902 125.623 127.04L129.167 130.581C129.238 130.693 129.275 130.823 129.275 130.956C129.275 131.088 129.238 131.218 129.167 131.331C129.132 131.468 129.059 131.591 128.955 131.688C128.852 131.784 128.723 131.848 128.584 131.873L120.251 133.165H120.375ZM125.25 128.623L122.542 131.331L127.209 130.623L125.25 128.623Z" fill="#FF6C37"/>
<path d="M128.792 131.081L122.917 131.831C122.76 131.866 122.595 131.85 122.448 131.785C122.3 131.72 122.178 131.609 122.098 131.469C122.019 131.329 121.987 131.166 122.007 131.006C122.027 130.846 122.098 130.697 122.209 130.581L125.251 127.539L128.792 131.081Z" fill="white"/>
<path d="M122.75 132.624C122.478 132.622 122.211 132.547 121.977 132.408C121.743 132.269 121.55 132.07 121.417 131.832C121.258 131.547 121.196 131.218 121.241 130.894C121.287 130.571 121.436 130.271 121.667 130.04L124.709 126.998C124.856 126.86 125.049 126.783 125.251 126.783C125.452 126.783 125.645 126.86 125.792 126.998L129.334 130.54C129.44 130.64 129.514 130.768 129.548 130.909C129.582 131.05 129.574 131.198 129.525 131.335C129.477 131.472 129.39 131.592 129.275 131.68C129.159 131.768 129.021 131.821 128.876 131.832L123.044 132.582L122.75 132.624ZM122.75 131.082L127.167 130.54L125.209 128.582L122.709 131.082H122.75ZM159 100.957C158.921 100.826 158.797 100.728 158.651 100.682C158.505 100.636 158.347 100.645 158.207 100.707C158.138 100.742 158.077 100.791 158.027 100.85C157.977 100.909 157.94 100.977 157.917 101.051C157.87 101.2 157.885 101.361 157.957 101.5C158.25 102.114 158.168 102.84 157.75 103.375C157.698 103.426 157.657 103.488 157.63 103.556C157.603 103.624 157.591 103.697 157.593 103.77C157.595 103.916 157.651 104.057 157.75 104.165C157.857 104.207 157.975 104.207 158.082 104.165C158.179 104.19 158.281 104.187 158.377 104.157C158.472 104.128 158.558 104.073 158.625 103.998C158.968 103.578 159.185 103.069 159.251 102.531C159.318 101.993 159.23 101.447 159 100.956V100.957Z" fill="#FF6C37"/>
<defs>
<filter id="filter0_d_301_8885" x="0.932861" y="0.296875" width="260" height="260" filterUnits="userSpaceOnUse" color-interpolation-filters="sRGB">
<feFlood flood-opacity="0" result="BackgroundImageFix"/>
<feColorMatrix in="SourceAlpha" type="matrix" values="0 0 0 0 0 0 0 0 0 0 0 0 0 0 0 0 0 0 127 0" result="hardAlpha"/>
<feOffset dy="4"/>
<feGaussianBlur stdDeviation="20"/>
<feComposite in2="hardAlpha" operator="out"/>
<feColorMatrix type="matrix" values="0 0 0 0 0.0367917 0 0 0 0 0.0348958 0 0 0 0 0.0484375 0 0 0 0.1 0"/>
<feBlend mode="normal" in2="BackgroundImageFix" result="effect1_dropShadow_301_8885"/>
<feBlend mode="normal" in="SourceGraphic" in2="effect1_dropShadow_301_8885" result="shape"/>
</filter>
</defs>
</svg>
