<svg xmlns="http://www.w3.org/2000/svg" width="661.807" height="815.911" viewBox="0 0 661.807 815.911">
  <g id="Illustration" transform="translate(-0.8 -0.963)">
    <path id="Path_99" data-name="Path 99" d="M717.6,416.27q-17.275-10.066-25.028-.544c-5.169,6.257-7.708,16.867-7.708,31.83v80.617c0,15.326-1.451,28.021-4.262,38.087-2.811,10.429-7.617,17.865-14.237,22.217-6.439,4.443-15.144,5.622-26.208,3.537q-16.187-2.993-40.445-16.958L592,570.613V507.135l9.612,5.532c11.517,6.711,19.225,7.527,23.124,2.63,4.081-4.715,6.167-14.6,6.167-29.563v-71c0-18.5,1.814-33.1,5.441-43.891s10.791-17.592,21.583-20.676q-16.187-23.26-21.583-45.523c-3.627-14.872-5.35-31.558-5.35-50.057v-71c0-14.963-2.086-27.114-6.166-36.636-3.809-9.34-11.517-17.32-23.124-24.031l-9.613-5.532V53.9l7.708,4.443q24.213,14.011,40.445,29.744a138.355,138.355,0,0,1,26.207,33.825,134.58,134.58,0,0,1,14.237,38.631,208.722,208.722,0,0,1,4.262,42.984v80.617c0,14.963,2.539,28.565,7.708,40.717a57.684,57.684,0,0,0,25.029,28.293Z" transform="translate(-55.081 -4.932)" fill="#7218fa" opacity="0.07"/>
    <path id="Path_100" data-name="Path 100" d="M407.991,177.829q17.275,10.066,25.029.544c5.169-6.257,7.708-16.867,7.708-31.83V65.926c0-15.325,1.451-28.021,4.262-38.087,2.811-10.429,7.436-17.955,13.875-22.4C465.575,1.087,474.28-.092,485.071,1.9q16.6,3.129,40.807,17.139l7.708,4.443V86.964l-9.612-5.532c-11.517-6.711-19.406-7.617-23.487-2.9-3.809,4.9-5.8,14.781-5.8,29.744v71c0,18.5-1.814,33.1-5.441,43.891-3.627,10.7-10.791,17.593-21.583,20.676q16.187,23.26,21.583,45.523c3.627,14.872,5.35,31.558,5.35,50.057v71c0,14.963,1.9,27.114,5.8,36.455,4.081,9.522,11.97,17.593,23.487,24.212l9.612,5.532v63.478l-7.708-4.443q-24.213-14.011-40.808-29.925a147.07,147.07,0,0,1-26.207-33.825,137.982,137.982,0,0,1-13.874-38.45,208.714,208.714,0,0,1-4.262-42.984V309.864c0-14.963-2.539-28.565-7.708-40.717A57.681,57.681,0,0,0,407.9,240.854Z" transform="translate(-37.929 0)" fill="#7218fa" opacity="0.07"/>
    <path id="Path_101" data-name="Path 101" d="M677.6,446.27q-17.275-10.066-25.029-.544c-5.169,6.257-7.708,16.867-7.708,31.83v80.617c0,15.325-1.451,28.021-4.262,38.087-2.811,10.429-7.617,17.865-14.237,22.217-6.438,4.443-15.144,5.622-26.207,3.537q-16.187-2.992-40.445-16.958L552,600.613V537.135l9.612,5.532c11.517,6.711,19.225,7.527,23.124,2.63,4.081-4.716,6.166-14.6,6.166-29.563v-71c0-18.5,1.814-33.1,5.441-43.891s10.791-17.593,21.583-20.676q-16.187-23.26-21.583-45.523c-3.627-14.872-5.35-31.558-5.35-50.057v-71c0-14.963-2.086-27.114-6.166-36.636-3.809-9.34-11.517-17.32-23.124-24.031l-9.612-5.532V83.9l7.708,4.443q24.213,14.011,40.445,29.744a138.353,138.353,0,0,1,26.207,33.825,134.575,134.575,0,0,1,14.237,38.631,208.731,208.731,0,0,1,4.262,42.984v80.617c0,14.963,2.539,28.565,7.708,40.717a57.681,57.681,0,0,0,25.029,28.293Z" transform="translate(-51.354 -7.727)" fill="#7218fa" opacity="0.4"/>
    <path id="Path_102" data-name="Path 102" d="M367.991,207.829q17.275,10.066,25.029.544c5.169-6.257,7.708-16.867,7.708-31.83V95.926c0-15.325,1.451-28.021,4.262-38.087,2.811-10.429,7.436-17.955,13.875-22.4,6.711-4.353,15.416-5.532,26.207-3.537q16.6,3.129,40.807,17.139l7.708,4.443v63.478l-9.612-5.532c-11.517-6.711-19.406-7.617-23.487-2.9-3.809,4.9-5.8,14.781-5.8,29.744v71c0,18.5-1.814,33.1-5.441,43.891-3.627,10.7-10.791,17.593-21.583,20.676q16.187,23.26,21.583,45.523c3.627,14.872,5.35,31.558,5.35,50.057v71.005c0,14.963,1.9,27.114,5.8,36.455,4.081,9.522,11.97,17.593,23.487,24.212l9.612,5.532v63.478l-7.708-4.444q-24.212-14.011-40.807-29.925a147.071,147.071,0,0,1-26.207-33.825,137.988,137.988,0,0,1-13.875-38.45,208.723,208.723,0,0,1-4.262-42.984V339.864c0-14.963-2.539-28.565-7.708-40.717A57.682,57.682,0,0,0,367.9,270.854Z" transform="translate(-34.202 -2.795)" fill="#7218fa" opacity="0.4"/>
    <path id="Path_103" data-name="Path 103" d="M145.991,13.2l154.978,89.5-.091,371.166L145.9,384.366Z" transform="translate(-13.519 -1.14)" fill="#7218fa" opacity="0.15"/>
    <path id="Path_104" data-name="Path 104" d="M113.9,76.1l123.239,71.186v34.188L113.9,110.288Z" transform="translate(-10.537 -7)" fill="#59ffb9"/>
    <path id="Path_105" data-name="Path 105" d="M167.1,239.7l118.432,68.375v53.14L167.1,292.84Z" transform="translate(-15.494 -22.243)" fill="#7218fa" opacity="0.15"/>
    <path id="Path_106" data-name="Path 106" d="M167,168.8l118.614,68.466V249.6L167,181.224Z" transform="translate(-15.485 -15.637)" fill="#7218fa" opacity="0.15"/>
    <path id="Path_107" data-name="Path 107" d="M167,195.4l102.563,59.216v12.333L167,207.733Z" transform="translate(-15.485 -18.115)" fill="#7218fa" opacity="0.15"/>
    <path id="Path_108" data-name="Path 108" d="M146,13.2l154.978,89.5v49.785L146,62.985Z" transform="translate(-13.528 -1.14)" fill="#7218fa" opacity="0.2"/>
    <path id="Path_109" data-name="Path 109" d="M186.678,63.5c0,7.527-4.443,11.063-9.884,7.98C171.353,68.307,167,59.693,167,52.166s4.443-11.063,9.884-7.98C182.235,47.36,186.678,55.974,186.678,63.5Z" transform="translate(-15.485 -3.923)" fill="#ab73ff" opacity="0.2"/>
    <path id="Path_110" data-name="Path 110" d="M355.991,392.7l154.978,89.5-.091,371.167L355.9,763.866Z" transform="translate(-33.084 -36.497)" fill="#7218fa" opacity="0.15"/>
    <path id="Path_111" data-name="Path 111" d="M421.091,511.8l123.239,71.1v34.1L421,545.9Z" transform="translate(-39.149 -47.594)" fill="#59ffb9"/>
    <path id="Path_112" data-name="Path 112" d="M377.1,550.7l118.523,68.466v53.05L377.1,603.75Z" transform="translate(-35.059 -51.218)" fill="#7218fa" opacity="0.15"/>
    <path id="Path_113" data-name="Path 113" d="M376.9,634.3l118.614,68.466V715.1L376.9,646.724Z" transform="translate(-35.04 -59.007)" fill="#7218fa" opacity="0.15"/>
    <path id="Path_114" data-name="Path 114" d="M376.9,658.9l102.563,59.216v12.333L376.9,671.233Z" transform="translate(-35.04 -61.299)" fill="#7218fa" opacity="0.15"/>
    <path id="Path_115" data-name="Path 115" d="M356,392.7l154.978,89.5v49.785L356,442.485Z" transform="translate(-33.093 -36.497)" fill="#7218fa" opacity="0.2"/>
    <path id="Path_116" data-name="Path 116" d="M396.678,443.1c0,7.527-4.444,11.063-9.884,7.98-5.441-3.174-9.794-11.789-9.794-19.316s4.443-11.063,9.884-7.98C392.235,426.869,396.678,435.574,396.678,443.1Z" transform="translate(-35.05 -39.29)" fill="#7218fa" opacity="0.2"/>
    <path id="Path_117" data-name="Path 117" d="M298.683,433.4,28.9,277.7l.091,140.65L275.014,560.36l23.85,35.276Z" transform="translate(-2.618 -25.783)" fill="#7218fa" opacity="0.3"/>
    <path id="Path_118" data-name="Path 118" d="M243.825,439.5,184.7,405.4v12.333l59.125,34.1Z" transform="translate(-17.134 -37.681)" fill="#7218fa" opacity="0.15"/>
    <path id="Path_119" data-name="Path 119" d="M234.863,461.617,88.5,377.1v12.333L234.953,473.95Z" transform="translate(-8.171 -35.044)" fill="#7218fa" opacity="0.15"/>
    <path id="Path_120" data-name="Path 120" d="M231.842,487.119,55.1,385.1v12.333L231.842,499.452Z" transform="translate(-5.059 -35.789)" fill="#7218fa" opacity="0.15"/>
    <path id="Path_121" data-name="Path 121" d="M266,465.067c0,11.607,6.892,24.938,15.326,29.835s15.325-.544,15.325-12.151-6.892-24.938-15.325-29.835C272.8,448.018,266,453.459,266,465.067Z" transform="translate(-24.708 -41.94)" fill="#59ffb9"/>
    <path id="Path_122" data-name="Path 122" d="M54.629,165.437,18.9,144.761V132.7l35.729,20.676a37.645,37.645,0,0,1,17.5,30.742c0,8.524-2.176,13.33-6.257,14.781-3.9,1.27-8.434-.907-11.245-2.539l-14.691-8.524-.091-.091c-1.27-.725-3.265-1.451-4.806-1-1.27.363-2.811,1.723-2.811,6.438a15.182,15.182,0,0,0,2.72,9.34,14.487,14.487,0,0,0,4.806,4.353l.181.091L84.917,232.9v12.061L40.21,219.121a34.415,34.415,0,0,1-11.335-10.338A37.512,37.512,0,0,1,21.8,187.11c0-8.252,2.9-12.514,6.983-13.693,3.809-1.088,8.252.544,11.335,2.358l14.6,8.434c2.086,1.179,3.718,1.723,4.716,1.36.816-.272,2.267-1.451,2.267-7.527a13.78,13.78,0,0,0-2.539-8.343A15.9,15.9,0,0,0,54.629,165.437Z" transform="translate(-1.686 -12.274)" fill="#7218fa" opacity="0.15"/>
    <path id="Path_123" data-name="Path 123" d="M27.823,144.52c0,10.338-6.076,15.144-13.512,10.882S.8,139.26.8,128.923s6.076-15.144,13.512-10.882C21.748,122.393,27.823,134.273,27.823,144.52Z" transform="translate(0 -10.763)" fill="#59ffb9"/>
    <path id="Path_124" data-name="Path 124" d="M106.824,254.52c0,10.338-6.076,15.144-13.512,10.882S79.8,249.26,79.8,238.923s6.076-15.144,13.512-10.882C100.748,232.393,106.824,244.273,106.824,254.52Z" transform="translate(-7.36 -21.012)" fill="#59ffb9"/>
    <path id="Path_125" data-name="Path 125" d="M212.006,604.96c5.441,3.174,9.794,10.7,9.794,17.048v27.658l18.318,10.519c5.441,3.174,9.794,10.7,9.794,17.048,0,6.257-4.444,8.8-9.794,5.713L221.8,672.428v27.658c0,6.257-4.443,8.8-9.794,5.713-5.441-3.174-9.794-10.7-9.794-17.048V661.093l-18.318-10.519c-5.441-3.174-9.794-10.7-9.794-17.048,0-6.257,4.443-8.8,9.794-5.713l18.318,10.519V610.673C202.212,604.325,206.565,601.786,212.006,604.96Z" transform="translate(-16.146 -56.146)" fill="#7218fa" opacity="0.2"/>
  </g>
</svg>
