<svg xmlns="http://www.w3.org/2000/svg"  viewBox="0 0 64 64" width="64px" height="64px" baseProfile="basic"><ellipse cx="32" cy="61" opacity=".3" rx="20" ry="3"/><path fill="#37d0ee" d="M54,20v24c0,2.25-0.74,4.32-2,5.99V50c-1.69,2.24-4.29,3.75-7.25,3.97C44.51,53.99,44.25,54,44,54 H20c-5.52,0-10-4.48-10-10V20c0-0.25,0.01-0.51,0.03-0.75c0.22-2.96,1.73-5.56,3.97-7.25h0.01c1.67-1.26,3.74-2,5.99-2h24 C49.52,10,54,14.48,54,20z"/><path fill="#fff" d="M14.01,12H14c-2.24,1.69-3.75,4.29-3.97,7.25C10.01,19.49,10,19.75,10,20v12 c2.761,0,5-2.239,5-5v-7c0-0.108,0.003-0.221,0.017-0.38c0.102-1.375,0.778-2.65,1.862-3.525c0.048-0.033,0.095-0.068,0.142-0.103 C17.881,15.343,18.911,15,20,15h6c2.761,0,5-2.239,5-5H20C17.75,10,15.68,10.74,14.01,12z" opacity=".3"/><path d="M54,44V28c-2.761,0-5,2.238-5,5v11c0,2.757-2.243,5-5,5H33c-2.761,0-5,2.238-5,5h16 C49.523,54,54,49.523,54,44z" opacity=".15"/><path fill="none" stroke="#fff" stroke-linecap="round" stroke-linejoin="round" stroke-miterlimit="10" stroke-width="3" d="M13.5,23.5V20c0-0.153,0.005-0.312,0.018-0.459c0.135-1.809,1.003-3.46,2.396-4.594l0.204-0.152"/><g><path fill="#fff" d="M32.008,33.011c0.001,0,0.001,0,0.002,0c1.462,0,2.827-0.578,3.844-1.627L44.955,22H19.048 l9.116,9.387C29.182,32.435,30.547,33.011,32.008,33.011z"/><polygon fill="#fff" points="25.069,32.506 17,24.198 17,40.813"/><path fill="#fff" d="M36.742,34.543c-1.38,0.953-3.012,1.467-4.731,1.467c-0.002,0-0.003,0-0.004,0 c-1.72,0-3.354-0.514-4.735-1.468L20.03,42h23.945L36.742,34.543z"/><polygon fill="#fff" points="38.945,32.505 47,40.81 47,24.201"/></g></svg>