<svg xmlns="http://www.w3.org/2000/svg"  viewBox="0 0 64 64" width="64px" height="64px" baseProfile="basic"><path fill="#9c34c2" d="M54,20c0-5.523-4.477-10-10-10H32H20c-5.523,0-10,4.477-10,10v24.008c0,5.523,4.477,10,10,10h12h12	c5.523,0,10-4.477,10-10V20z"/><ellipse cx="32" cy="61" opacity=".3" rx="20" ry="3"/><path fill="#fff" d="M14.01,12H14c-2.24,1.69-3.75,4.29-3.97,7.25C10.01,19.49,10,19.75,10,20v12	c2.761,0,5-2.239,5-5v-7c0-0.108,0.003-0.221,0.017-0.38c0.102-1.375,0.778-2.65,1.862-3.525c0.048-0.033,0.095-0.068,0.142-0.103	C17.881,15.343,18.911,15,20,15h5c2.761,0,5-2.239,5-5H20C17.75,10,15.68,10.74,14.01,12z" opacity=".3"/><path d="M54,44V22c-2.761,0-5,2.238-5,5v17c0,2.757-2.243,5-5,5h-5c-2.761,0-5,2.238-5,5h10 C49.523,54,54,49.523,54,44z" opacity=".15"/><path fill="none" stroke="#fff" stroke-linecap="round" stroke-linejoin="round" stroke-miterlimit="10" stroke-width="3" d="M13.5,23.5V20c0-0.153,0.005-0.312,0.018-0.459c0.135-1.809,1.003-3.46,2.396-4.594l0.204-0.152"/><path fill="#a0effe" d="M19,26h4c0.552,0,1,0.448,1,1v18c0,0.552-0.448,1-1,1h-4c-0.552,0-1-0.448-1-1V27	C18,26.448,18.448,26,19,26z"/><path fill="#a0effe" d="M20.982,24h-0.034C19.158,24,18,22.666,18,20.999C18,19.296,19.194,18,21.017,18	c1.825,0,2.95,1.296,2.983,2.999C24,22.664,22.842,24,20.982,24z"/><path fill="#a0effe" d="M41,46c-0.552,0-1-0.448-1-1v-9.615c0-2.564-1.429-4.314-3.724-4.314	c-1.751,0-2.699,1.181-3.158,2.322C32.95,33.8,33,34.93,33,35.5V45c0,0.552-0.448,1-1,1h-4c-0.552,0-1-0.448-1-1V27	c0-0.552,0.448-1,1-1h4c0.552,0,1,0.448,1,1v2c0.841-1.302,2.325-3.006,5.694-3.006c4.174,0,7.304,2.797,7.304,8.659L46,45	c0,0.552-0.448,1-1,1H41z"/></svg>