<?xml version="1.0" encoding="iso-8859-1"?>
<!-- Generator: Adobe Illustrator 18.1.1, SVG Export Plug-In . SVG Version: 6.00 Build 0)  -->
<svg version="1.1" id="Capa_1" xmlns="http://www.w3.org/2000/svg" xmlns:xlink="http://www.w3.org/1999/xlink" x="0px" y="0px"
	 viewBox="0 0 19.178 19.178" style="enable-background:new 0 0 19.178 19.178;" xml:space="preserve">
<g>
	<g>
		<path d="M1.973,8.344c-0.538-2.983,3.238-2.978,5.08-3.791c1.038-0.461,3.977-2.809,3.095-4.478
			C9.661,0.081,4.796,0.018,3.317,0.064C1.485,0.118,0.099,1.595,0.056,3.168C-0.019,5.871,0,12.915,0.009,13.132
			c0,0.008,1.313,0.101,2.533-1.062C4.001,10.677,2.157,9.364,1.973,8.344z"/>
		<path d="M19.171,2.269c0-0.929-0.843-2.184-2.954-2.184c-0.958,0-1.786-0.021-3.236-0.021c-0.516,0.93-0.963,2.24-0.998,4.166
			c-0.028,1.438,0.45,3.521,1.616,3.878c2.308,0.708,5.578-0.541,5.578-2.466C19.181,5.356,19.171,3.598,19.171,2.269z"/>
		<path d="M19.093,11.541c-0.028,0.015-0.06,0.033-0.088,0.053c-1.298,1.424-1.907,3.409-4.114,3.464
			c-2.817,0.071-5.096-2.391-7.966-0.643c-1.789,1.086-2.952,2.537-3.004,4.711C3.902,19.148,7.2,19.08,9.652,19.061
			c0.637-0.005,1.266,0.005,1.913-0.005c2.67-0.003,4.533,0.006,4.537,0.006c1.857,0,2.92-1.882,2.92-2.945
			c0.072-2.526,0.104-1.785,0.072-4.189C19.093,11.798,19.093,11.669,19.093,11.541z"/>
	</g>
	<g>
	</g>
	<g>
	</g>
	<g>
	</g>
	<g>
	</g>
	<g>
	</g>
	<g>
	</g>
	<g>
	</g>
	<g>
	</g>
	<g>
	</g>
	<g>
	</g>
	<g>
	</g>
	<g>
	</g>
	<g>
	</g>
	<g>
	</g>
	<g>
	</g>
</g>
<g>
</g>
<g>
</g>
<g>
</g>
<g>
</g>
<g>
</g>
<g>
</g>
<g>
</g>
<g>
</g>
<g>
</g>
<g>
</g>
<g>
</g>
<g>
</g>
<g>
</g>
<g>
</g>
<g>
</g>
</svg>
