<svg xmlns="http://www.w3.org/2000/svg" shape-rendering="geometricPrecision" text-rendering="geometricPrecision" image-rendering="optimizeQuality" fill-rule="evenodd" clip-rule="evenodd" viewBox="0 0 493 511.69"><path fill-rule="nonzero" d="M6.99 0h314.2v154.84H0V0h6.99zm345.75 356.85H493v154.84H345.75V356.85h6.99zm126.29 13.97H359.72v126.9h119.31v-126.9zM6.99 356.85h314.2v154.84H0V356.85h6.99zm300.23 13.97H13.97v126.9h293.25v-126.9zM133.28 192.39H13.97V319.3h119.31V192.39zM6.99 178.42h140.26v154.85H0V178.42h6.99zm472.04 13.97H185.78V319.3h293.25V192.39zM178.8 178.42H493v154.85H171.82V178.42h6.98zM352.74 0H493v154.84H345.75V0h6.99zm126.29 13.97H359.72v126.9h119.31V13.97zm-171.81 0H13.97v126.9h293.25V13.97z"/></svg>